<svg viewBox="0 0 512 512" fill="none" xmlns="http://www.w3.org/2000/svg">
    <g fill="#E80000">
        <path d="M0 112C0 50.1441 50.1441 0 112 0H440C479.765 0 512 32.2355 512 72V296C512 415.294 415.294 512 296 512H72C32.2355 512 0 479.765 0 440V112Z" />
    </g>
    <g fill="#FFFDF3">
        <path
            fill-rule="evenodd"
            clip-rule="evenodd"
            d="M168 116.093C170.216 116.093 173.08 116.207 175.619 116.322C183.022 116.721 193.506 117.635 208.798 120.663C224.091 123.69 239.924 129.06 259.377 138.485C287.045 151.909 320.71 171.33 344 192.522V128.089C341.622 121.977 293.151 92.2161 286.882 89.0172C250.407 70.2241 209.393 54.9725 168 58.5141V116.036V116.093Z"
        />
        <path
            fill-rule="evenodd"
            clip-rule="evenodd"
            d="M168 248.093C170.216 248.093 173.08 248.207 175.619 248.322C183.022 248.721 193.506 249.635 208.798 252.663C224.091 255.69 239.924 261.06 259.377 270.485C287.045 283.909 320.71 303.33 344 324.522V260.089C341.622 253.977 293.151 224.216 286.882 221.017C250.407 202.224 209.393 186.973 168 190.514V248.036V248.093Z"
        />
        <path
            fill-rule="evenodd"
            clip-rule="evenodd"
            d="M168 380.093C170.216 380.093 173.08 380.207 175.619 380.322C183.022 380.721 193.506 381.635 208.798 384.663C224.091 387.69 239.924 393.06 259.377 402.485C287.045 415.909 320.71 435.33 344 456.522V392.089C341.622 385.977 293.151 356.216 286.882 353.017C250.407 334.224 209.393 318.973 168 322.514V380.036V380.093Z"
        />
    </g>
</svg>
