<svg viewBox="0 0 24 24" fill="none" xmlns="http://www.w3.org/2000/svg">
    <path
        d="M9.21832 0.000464319C8.75567 -0.00764506 8.30426 0.0896205 7.86091 0.359058L7.86134 0.357839C7.64276 0.490824 7.41274 0.68348 7.19463 0.730074C6.48096 0.88298 5.87909 1.28962 5.19973 1.50562C4.87657 1.60814 4.72113 1.80595 4.73084 2.14096C4.59827 2.3811 4.38902 2.53143 4.14588 2.64628C3.93049 2.74762 3.72527 2.8634 3.66115 3.11901C3.66012 3.11986 3.65904 3.12061 3.65801 3.1215C3.4047 3.41671 3.13831 3.70171 2.87998 4.14304L10.8004 1.54378C10.4577 1.21804 10.1019 0.942371 10.4979 0.442542C10.1427 0.466683 9.89163 0.672699 9.59243 0.626433C9.76221 0.373777 10.1255 0.427261 10.3196 0.179058C9.94479 0.0767768 9.57813 0.00674557 9.21832 0.000464319ZM13.4687 1.57762C13.135 1.59834 12.8139 1.62468 12.5369 1.8644C12.2078 2.14734 11.838 2.22773 11.4649 1.91306C11.1832 1.6754 10.9088 1.7204 10.5894 1.875C9.85198 2.23289 9.09556 2.55267 8.34757 2.88768C6.61246 3.66856 4.87772 4.45028 3.14337 5.23284C2.58893 5.41415 2.56437 5.46454 2.69187 6.01682C2.78506 6.42004 2.9532 6.8445 2.48009 7.1452C2.42824 7.16868 2.38437 7.20678 2.35384 7.25482C2.32331 7.30286 2.30745 7.35875 2.3082 7.41567C2.30773 7.41595 2.30731 7.41609 2.30684 7.41628C2.18402 7.84537 2.28701 8.26251 2.36496 8.68396C2.41451 8.95078 2.53859 8.94061 2.74357 8.8432C3.20735 8.62214 3.67793 8.415 4.14804 8.2079C5.63445 7.55446 7.12113 6.9015 8.60806 6.249C8.64973 6.25068 8.69145 6.24687 8.73213 6.23765C8.68385 6.26315 8.63923 6.29343 8.61485 6.35025L7.09006 7.24392L4.79398 8.41368C4.13618 8.52722 3.56567 8.88257 2.94218 9.08418C2.55631 9.20868 2.63299 9.34303 2.89601 9.51623C3.1421 9.81271 3.50468 9.88598 3.84476 10.0012C3.84523 10.0009 3.8457 10.0007 3.84617 10.0004C4.1097 10.124 4.37163 10.2517 4.63812 10.3692C4.8859 10.4794 5.11624 10.5174 5.26704 10.2032C5.35179 10.0249 5.50596 9.999 5.6906 10.0837C5.97832 10.2178 6.28292 10.2218 6.59088 10.1686L6.5906 10.1689C6.59126 10.1689 6.59192 10.1689 6.59248 10.169L6.59402 10.1702L6.59618 10.1692C6.7129 10.1794 6.82817 10.1809 6.92946 10.1067C7.06882 10.1067 7.2094 10.0957 7.34707 10.1097C8.00271 10.1766 8.68545 9.95376 9.31695 10.3028C9.43685 10.3688 9.54865 10.238 9.65581 10.1834C10.7937 9.60105 11.9302 9.01609 13.0654 8.42854C14.5732 7.6515 16.0805 6.87459 17.5872 6.09778C17.7164 6.03089 18.0108 6.00168 17.7541 5.74036V5.7382C17.5781 5.38378 17.4205 5.0226 17.358 4.62773C17.3585 4.62726 17.3589 4.62679 17.3592 4.62632C17.3393 4.332 17.239 4.06223 17.1119 3.79879C17.0017 3.57304 16.8777 3.51028 16.6206 3.62465C16.0255 3.88978 15.4151 4.1317 14.8052 4.34981C14.1953 4.56796 13.629 4.91057 12.9733 4.9995C12.9727 4.9994 12.972 4.9994 12.9714 4.99926L12.9717 4.99907C12.9657 4.89867 13.0564 4.91011 13.111 4.87964L16.3463 3.07828C16.3581 2.77626 16.2497 2.50476 16.1345 2.23537C16.1343 2.23553 16.134 2.23564 16.1338 2.2357L16.1339 2.23537C15.9789 1.84275 15.707 1.7279 15.314 1.88503C15.0475 1.99543 14.7635 2.05769 14.4753 2.06892V2.06803L14.4732 2.06878L14.2492 2.05068C13.934 1.98332 13.7359 1.72368 13.4686 1.57757L13.4687 1.57762ZM18.2303 6.68732C18.1571 6.69173 18.0742 6.72248 17.9765 6.77376C16.7838 7.39936 15.5805 8.00451 14.3806 8.61572C12.9706 9.33571 11.5584 10.0482 10.1535 10.7758C10.065 10.8211 9.81649 10.8114 9.93509 11.0329C10.09 11.3212 10.043 11.6259 10.051 11.9282C10.0509 11.9282 10.0507 11.9283 10.0506 11.9284V11.9296C10.0472 12.0777 10.0442 12.2257 10.0414 12.3735C10.0744 12.6107 10.1613 12.8372 10.2955 13.0356L10.297 13.0359L10.2959 13.0364L10.4674 13.2647L10.8694 13.7678C10.938 14.2358 11.1764 14.2409 11.5788 14.1033C13.0375 13.6035 14.5107 13.1444 15.9783 12.67L16.063 12.7573C16.0634 12.7572 16.0637 12.7571 16.0641 12.7571L14.4645 13.5141C14.1981 13.5853 13.9563 13.7098 13.7169 13.8449C13.6818 13.841 13.6464 13.8468 13.6144 13.8618C13.5824 13.8767 13.5552 13.9002 13.5357 13.9296C12.9003 14.166 12.2813 14.4441 11.6826 14.7623C11.6728 14.7577 11.6615 14.757 11.6512 14.7605C11.6408 14.7639 11.6322 14.7713 11.6271 14.7809C11.4981 14.795 11.3769 14.8497 11.2811 14.9372C11.0587 14.9872 10.8088 15.0596 10.8207 15.3247C10.8503 15.9876 10.6203 16.5902 10.4492 17.2086L10.4488 17.2087C10.3962 17.3004 10.373 17.406 10.3823 17.5113C10.3916 17.6166 10.433 17.7164 10.5009 17.7974C10.6314 17.9537 10.8046 17.7695 10.9477 17.7174C13.1204 16.9296 15.2913 16.1369 17.4603 15.3391C17.747 15.2341 18.115 15.1875 18.2891 14.9821C18.4763 14.7606 18.223 14.4035 18.2425 14.0998C18.267 13.9695 18.2919 13.8392 18.3163 13.7084C18.3164 13.7082 18.3165 13.7081 18.3167 13.708C18.4472 13.307 18.7665 13.0117 18.9296 12.6288L19.6734 11.5954C19.8313 11.2566 20.2189 11.1498 20.4247 10.8589L20.4151 10.8622L20.4226 10.858C20.8652 10.5865 21.0544 10.1265 21.3662 9.64795L19.3535 10.2663C19.2395 10.2738 19.1273 10.2905 19.0161 10.312C19.0751 10.278 19.1269 10.2326 19.1685 10.1786C19.2922 10.1193 19.4171 10.0613 19.5399 9.99993C20.188 9.67636 20.8991 9.48782 21.509 9.08292C21.4926 9.07987 21.4777 9.07136 21.4667 9.05878C21.4806 9.06637 21.4946 9.07401 21.509 9.08292C21.5679 8.90629 21.5458 8.72667 21.5124 8.55173L21.5136 8.55431C21.4662 8.30653 21.3574 8.17945 21.0901 8.35818C20.9212 8.47917 20.7265 8.5591 20.5213 8.59162C20.5208 8.59195 20.5202 8.59228 20.5197 8.59261C20.5197 8.59197 20.5199 8.59133 20.5201 8.59073C20.1486 8.56275 19.7653 8.57001 19.5103 8.22145H19.5116C19.3921 8.05753 19.2651 8.17565 19.144 8.22393C18.2078 8.60011 17.2719 8.97693 16.3362 9.35442C16.266 9.36093 16.1989 9.37692 16.1331 9.39768C16.1733 9.35878 16.2085 9.315 16.2325 9.25996C16.9091 8.90909 17.585 8.55698 18.2604 8.20364C18.5547 8.04946 19.0359 7.93851 19.0918 7.72082C19.1647 7.43868 18.7076 7.20698 18.5412 6.9105C18.4481 6.74559 18.3525 6.67996 18.2304 6.68732H18.2303ZM18.3529 15.3909C18.3121 15.3882 18.2598 15.4 18.1925 15.4276C15.8287 16.4033 13.4626 17.3735 11.0943 18.3383C10.9134 18.4137 10.8744 18.4798 10.9672 18.6678C11.1934 19.1252 11.4013 19.5923 11.5178 20.0933C11.5175 20.0933 11.5173 20.0934 11.517 20.0934H11.5178V20.094C11.5318 20.2316 11.5653 20.371 11.5564 20.5074C11.5352 20.823 11.5924 20.9199 11.9354 20.7674C13.5051 20.0685 15.0917 19.4087 16.6609 18.7094C17.3289 18.4117 17.7838 17.8827 18.0629 17.205C18.0624 17.205 18.0618 17.2051 18.0613 17.2051C18.0617 17.205 18.0618 17.2048 18.0622 17.2044C18.4671 16.7411 18.5302 16.1871 18.4857 15.6052C18.4755 15.473 18.4425 15.3968 18.3529 15.3909L18.3529 15.3909ZM20.9589 16.257C20.7702 16.2584 20.6468 16.4534 20.5594 16.628C20.4812 16.7834 20.4245 16.9499 20.3583 17.1117L20.3577 17.1122C20.2417 17.3515 20.1489 17.5654 19.7808 17.5069C19.522 17.4658 19.1671 17.6713 19.1921 17.9165C19.2437 18.4285 18.9011 18.8669 19.0061 19.3667C19.0466 19.4038 19.0859 19.4178 19.1246 19.4189C19.0779 19.4472 19.0342 19.4811 18.9972 19.5269C18.932 19.7755 18.8608 20.0233 18.9299 20.2837C18.9303 20.2837 18.9306 20.2836 18.9312 20.2836C19.1328 20.7277 19.2843 20.7843 19.72 20.6599C20.2478 20.5085 20.2457 20.0589 20.333 19.6531C20.413 19.4453 20.4717 19.2353 20.4476 18.9877L19.6852 19.2189L19.6848 19.221C19.6248 19.2435 19.5563 19.2265 19.4962 19.2514C19.5351 19.2204 19.5696 19.1841 19.5958 19.1376C19.7254 19.0618 19.8486 18.9699 19.9863 18.9123C20.9405 18.5155 21.0951 17.6789 21.1667 16.7946C21.1709 16.6052 21.3022 16.341 21.0439 16.2689C21.0163 16.261 20.9877 16.2571 20.9589 16.2571V16.257ZM16.658 19.0308C15.0523 19.8597 13.5183 20.6687 11.9655 21.44C11.5665 21.6386 11.4962 21.8546 11.7016 22.2126C11.7888 22.536 12.0157 22.7396 12.2942 22.8997V22.9L12.2944 22.8999C12.2945 22.8999 12.2946 22.8999 12.2946 22.9L12.2955 22.9002C12.3987 23.0388 12.5443 23.0928 12.7084 23.1105C13.29 23.4536 13.9841 23.144 14.3039 22.3985C14.7106 22.1681 15.1146 21.9284 15.5247 21.7022C15.7879 21.557 15.9735 21.3775 15.911 21.047C15.9112 21.0468 15.9112 21.0466 15.9114 21.0464C15.9897 20.8292 16.2702 20.775 16.3235 20.5382C16.2757 20.027 16.7067 19.6064 16.6585 19.0316L16.658 19.0308Z"
    />
</svg>
