<svg xmlns="http://www.w3.org/2000/svg" xmlns:xlink="http://www.w3.org/1999/xlink" id="Layer_2" data-name="Layer 2" viewBox="0 0 1500 1500">
    <defs>
        <style>
            .cls-1 {
                fill: #ccc;
            }

            .cls-1,
            .cls-2,
            .cls-3,
            .cls-4,
            .cls-5,
            .cls-6,
            .cls-7,
            .cls-8,
            .cls-9,
            .cls-10,
            .cls-11,
            .cls-12 {
                stroke-width: 0px;
            }

            .cls-2 {
                fill: #000;
            }

            .cls-3 {
                fill: #ffe8d1;
            }

            .cls-4 {
                fill: #de7e38;
            }

            .cls-13 {
                clip-path: url(#clippath-2);
            }

            .cls-5 {
                fill: #b3b3b3;
            }

            .cls-6 {
                fill: #2d221d;
            }

            .cls-7 {
                fill: none;
            }

            .cls-14 {
                clip-path: url(#clippath-1);
            }

            .cls-8 {
                fill: #ffb138;
            }

            .cls-9 {
                fill: #e6e6e6;
            }

            .cls-10 {
                fill: #fff8e1;
            }

            .cls-11 {
                fill: #333;
            }

            .cls-12 {
                fill: #883f09;
            }
        </style>
        <clipPath id="clippath-1">
            <path class="cls-7" d="M845.912,445h-372.912c-5.523,0-10-4.477-10-10v-69c0-5.523,4.477-10,10-10h334.148c3.615,0,6.948,1.951,8.718,5.102l38.764,69c3.745,6.666-1.072,14.898-8.718,14.898Z" />
        </clipPath>
        <clipPath id="clippath-2">
            <path class="cls-7" d="M916.49,437h-490.49c-5.523,0-10,4.477-10,10v93c0,5.523,4.477,10,10,10h531.64c7.229,0,12.07-7.435,9.145-14.046l-41.15-93c-1.601-3.619-5.187-5.954-9.145-5.954Z" />
        </clipPath>
    </defs>

    <g>
        <path
            class="cls-8"
            d="M1262.14,573.5c29.75,4.37,122.87-51.3,111.11.18-11.63,94.21-86.04,143.9-146.55,204.43-52.16-12.65-229.6-42.45-629.43,3.01.38-2.71,1.05-5.41,2.04-8.11,11.45-22.2,17.72-87.73-17.69-85.63-38.68,12.4-55.9-11.45-74.23-36.34-67.24-13.75-85.56,46.3-167.14,21.49-98.94,38.25-140.2-49.65-191.89-116.52-15.71-13.83-21.81-28.04-22.55-42.58h1083.09c21.62,16.44,7.88,65.99,53.24,60.07Z"
        />
        <path
            class="cls-8"
            d="M311.55,344.39h770.09c4.09,5.13,8.85,9.85,14.62,13.93,17.54,11.84,1.1,37.44,7.34,54.27,24.08-17.32,50.46,86.42,93.66,96.09,4.78.74,8.57,2.41,11.64,4.75H125.81c-2.25-44.03,44.53-91.18,22.39-140.44,3.42-9.46,7.77-19.06,12.91-28.6h150.44Z"
        />
        <path
            class="cls-12"
            d="M597.27,781.12c399.83-45.46,577.27-15.66,629.43-3.01-25.67,25.68-48.84,53.32-63.64,87.14-21.4,74.7,66.03,182.65-34.97,231.97-121.16,54.95-4.72,116.06-93.48,147.99-7.27,1.78-14.83,5.46-15.79,16.12-5.74,63.82-60.13,92.05-98.54,131.59-24.77,18.99-61.12-2.2-88.6,12.01-50.89,17.83-53.14,15.07-63.29-33.61-18.72-60.69-70.91-103.55-64.83-170.01-115.37-154.86.45-146.88-28.43-273.72-7.49-54.72-84.23-100.79-77.86-146.47Z"
        />
        <path
            class="cls-12"
            d="M477.38,295.67c54.78-20.5,97.77-40.2,115.62-47.67,43-18,99-6,118-6s28,14,45,19,66,3,87.3,20.12c21.31,17.13,98.7,18.88,112.7,20.88,9.51,1.36,70.71,9.18,108.98,14.05,4.8,9.91,9.8,19.71,16.66,28.34H311.55c58.32-11.4,116.8-30.38,165.83-48.72Z"
        />
        <path
            class="cls-8"
            d="M1045.28,281.45c8.3,10.42,13.86,22.59,19.7,34.6-38.27-4.87-99.47-12.69-108.98-14.05-14-2-91.39-3.75-112.7-20.88-21.3-17.12-70.3-15.12-87.3-20.12s-26-19-45-19-75-12-118,6c-17.85,7.47-60.84,27.17-115.62,47.67-4.09-.42-8.53-.67-13.25-.67-24.87,0-41.13-8-60.13-13-15.46-4.07-155.47,7.1-207.04,11.4,21.25-24.01,46.88-44.81,74.21-58.26,17.28-6.63,31.27-17.74,33.32-40.65,3.88-42.51,58.08-43.62,76.59-76.43,21.23-20.25,60.69,12.73,90.26-9.52,53.44-32.21,115.97-8.62,171.47-23.54,45.03,32.84-42.03,51.26,27.05,79.01,8.68,9.19,18.42,2.32,27.75,1.82,23.17,10.23,87.95,69.15,99.77,22.39-1.36-61.12,150.65,27.03,210.12,4.99,72.62-2.99,12.84,55.83,37.78,88.24Z"
        />
        <path class="cls-4" d="M464.13,295c4.72,0,9.16.25,13.25.67-49.03,18.34-107.51,37.32-165.83,48.72h-150.44c9.49-17.61,21.7-35.01,35.85-50.99,51.57-4.3,191.58-15.47,207.04-11.4,19,5,35.26,13,60.13,13Z" />
        <circle class="cls-3" cx="501" cy="192" r="63" />
        <path
            class="cls-4"
            d="M1113.24,1034.299h-303.2s-33.6-46.4-24-58.4,60,21.6,60,21.6c0,0-6.4-25.6,1.6-29.6s34.4,25.6,34.4,25.6c0,0-12-52.8,9.6-60,21.6-7.2,30.4,39.2,30.4,39.2,0,0,11.2-96.8,40.8-96s16,94.4,16,94.4c0,0,28-32,46.4-25.6,18.4,6.4-2.4,48.8-2.4,48.8,0,0,25.6-30.4,40.8-20,15.2,10.4-4.8,21.6-4.8,21.6,0,0,26.661-9.962,35.2,0,4.8,5.6-11.2,13.6-11.2,13.6,0,0,24-9.635,30.4-2.017,6.4,7.617,0,26.817,0,26.817Z"
        />

        <path class="cls-4" d="M509,823h346s26-41-74-33c0,0,106-60-17-26,0,0,84.043-115-56.478-14,0,0,45.478-95-59.522,4,0,0,9-103-52-12,0,0-76-84-25,17,0,0-97-51-34,14,0,0-85-34-21,15,0,0-101-9-7,35Z" />
        <path class="cls-8" d="M1282,1166c4.919-21.466-16-72,11-101s28-127,7-149,0,39-16,52-4,40-23,40-26,5-39,10-30,39-16,57,11,28,5,42-33,47,2,71,58,26,69-22Z" />

        <g>
            <path class="cls-6" d="M271,397s-12.255-96.593-8.627-108.796c3.627-12.204,28.577-64.689,28.577-64.689l-40.95,62.486-50-37s34,32,43,58,9.043,90,9.043,90h18.957Z" />
            <polygon class="cls-6" points="234.755 274.719 224 216 220.717 264.331 234.755 274.719" />
            <polygon class="cls-6" points="270.373 268.328 315.551 234.826 276.554 254.505 270.373 268.328" />
            <path
                class="cls-6"
                d="M228.376,281.123s-34.376,17.877-30.376,2.877c0,0-40,13-26-6,0,0-33-3-11-19,0,0-34.478-1.837-5.739-20.918,0,0-38.261-7.082,2.739-27.082,0,0-10-27,28-29,0,0-5-17,19-8,0,0,9.434-9.348,15.717.826,0,0,28.283-21.826,37.283,20.174,0,0,49.51,32.438-23.245,79.719l-6.379,6.404Z"
            />
            <path
                class="cls-6"
                d="M278.907,262s47.093,10,40.093-1c0,0,39-6,15-14,0,0,46.435-10.971,6.217-23.486,0,0,41.783-23.514-10.217-20.514,0,0,28-30-18-22,0,0-19.096-23.696-37.548,1.652,0,0-34.452,8.348-12.452,34.348,0,0-31,13,0,26,0,0-27.032,8.59,6.484,14.795l10.423,4.205Z"
            />
            <path
                class="cls-6"
                d="M338.257,185.486s25.257-15.603,0-14.545c0,0-2.257-12.942-13.257-6.942,0,0,15-26-25-20,0,0,4-41-36-6,0,0-32-20-39,12,0,0-21-8.783-25,13.609,0,0-31.209-7.973-11.104,8.709,20.104,16.682,71.619,54.655,149.362,13.168Z"
            />
        </g>
        <path
            class="cls-4"
            d="M1168,537h-140.217s-22.783-47-12.783-53,35.217,26.5,35.217,26.5c0,0-4.217-34.5,3.783-36.5s19,35,19,35c0,0,17-30,24-26s2,32,2,32c0,0,33-33,44-23s-7,30-7,30c0,0,30.783-26.078,38.391-16.539,7.609,9.539-6.391,31.539-6.391,31.539Z"
        />
        <path
            class="cls-4"
            d="M298.831,397h-57.796s-9.391-19.373-5.269-21.846c4.122-2.473,14.516,10.923,14.516,10.923,0,0-1.738-14.22,1.559-15.045s7.832,14.427,7.832,14.427c0,0,7.007-12.366,9.892-10.717s.824,13.19.824,13.19c0,0,13.602-13.602,18.136-9.48s-2.885,12.366-2.885,12.366c0,0,12.688-10.749,15.824-6.817s-2.634,13-2.634,13Z"
        />
        <path class="cls-4" d="M169,520h132s37-38-7-28c0,0,3-26-35,1,0,0,4-69-41-7,0,0-34-49-21,13,0,0-83-76-28,21Z" />
        <g>
            <path class="cls-1" d="M845.912,445h-372.912c-5.523,0-10-4.477-10-10v-69c0-5.523,4.477-10,10-10h334.148c3.615,0,6.948,1.951,8.718,5.102l38.764,69c3.745,6.666-1.072,14.898-8.718,14.898Z" />
            <g class="cls-14">
                <g>
                    <rect class="cls-5" x="480.68" y="372.624" width="28.426" height="94.752" rx="4" ry="4" transform="translate(-152.034 472.957) rotate(-45)" />
                    <rect class="cls-5" x="616.144" y="372.624" width="28.426" height="94.752" rx="4" ry="4" transform="translate(-112.358 568.744) rotate(-45)" />
                    <rect class="cls-5" x="749.144" y="372.624" width="28.426" height="94.752" rx="4" ry="4" transform="translate(-73.403 662.79) rotate(-45)" />
                </g>
            </g>
            <rect class="cls-11" x="588.463" y="350" width="9" height="105" />
            <rect class="cls-11" x="721.463" y="350" width="9" height="105" />
            <path class="cls-9" d="M916.49,437h-490.49c-5.523,0-10,4.477-10,10v93c0,5.523,4.477,10,10,10h531.64c7.229,0,12.07-7.435,9.145-14.046l-41.15-93c-1.601-3.619-5.187-5.954-9.145-5.954Z" />
            <rect class="cls-1" x="726.463" y="437" width="4" height="113" />
            <rect class="cls-1" x="593.463" y="437" width="4" height="113" />
            <rect class="cls-11" x="368" y="392" width="48" height="123" rx="10" ry="10" />
            <circle class="cls-2" cx="832.5" cy="545.5" r="41.5" />
            <circle class="cls-11" cx="832.5" cy="545.5" r="20.5" />
            <circle class="cls-2" cx="565.5" cy="545.5" r="41.5" />
            <circle class="cls-11" cx="565.5" cy="545.5" r="20.5" />
            <rect class="cls-9" x="443" y="335" width="410" height="21" rx="5" ry="5" />
            <ellipse class="cls-1" cx="620" cy="479" rx="10" ry="6" />
            <ellipse class="cls-1" cx="754" cy="479" rx="10" ry="6" />
            <g class="cls-13">
                <path class="cls-1" d="M980.081,515h-40.924c-1.929,0-3.685-1.109-4.514-2.85l-15.238-32c-1.58-3.318.839-7.15,4.514-7.15h40.924c1.929,0,3.685,1.109,4.514,2.85l15.238,32c1.58,3.318-.839,7.15-4.514,7.15Z" />
            </g>
        </g>
    </g>
</svg>
