<svg width="40" height="40" viewBox="0 0 40 40" fill="none" xmlns="http://www.w3.org/2000/svg">
<g clip-path="url(#clip0_1514_706)">
<path d="M20 40C31.0457 40 40 31.0457 40 20C40 8.9543 31.0457 0 20 0C8.9543 0 0 8.9543 0 20C0 31.0457 8.9543 40 20 40Z" fill="#F0F0F0"/>
<path d="M32.1779 4.13288C25.0176 -1.37696 14.9826 -1.37696 7.82227 4.1328L20.0001 16.3106L32.1779 4.13288Z" fill="#D80027"/>
<path d="M19.9999 23.6894L7.82227 35.867C14.9826 41.3769 25.0176 41.3769 32.1779 35.867L20.0001 23.6892L19.9999 23.6894Z" fill="#D80027"/>
<path d="M16.3107 20.0001L4.13299 7.82227C-1.37685 14.9826 -1.37685 25.0176 4.13299 32.1779L16.3107 20.0001Z" fill="#6DA544"/>
<path d="M23.6893 20.0001L35.867 32.1779C41.3768 25.0176 41.3768 14.9826 35.867 7.82227L23.6893 20.0001Z" fill="#6DA544"/>
<path d="M19.9999 28.6957C24.8024 28.6957 28.6956 24.8025 28.6956 20.0001C28.6956 15.1976 24.8024 11.3044 19.9999 11.3044C15.1975 11.3044 11.3043 15.1976 11.3043 20.0001C11.3043 24.8025 15.1975 28.6957 19.9999 28.6957Z" fill="#F0F0F0"/>
<path d="M20 13.9131L20.753 15.2175H22.2592L21.5061 16.5218L22.2592 17.8261H20.753L20 19.1305L19.2469 17.8261H17.7408L18.4939 16.5218L17.7408 15.2175H19.2469L20 13.9131Z" fill="#D80027"/>
<path d="M16.1722 20L16.9252 21.3044H18.4313L17.6783 22.6087L18.4313 23.9131H16.9252L16.1722 25.2174L15.4191 23.9131H13.913L14.666 22.6087L13.913 21.3044H15.4191L16.1722 20Z" fill="#D80027"/>
<path d="M23.8277 20L24.5807 21.3044H26.0868L25.3338 22.6087L26.0868 23.913H24.5807L23.8277 25.2174L23.0746 23.913H21.5685L22.3215 22.6087L21.5685 21.3044H23.0746L23.8277 20Z" fill="#D80027"/>
</g>
<defs>
<clipPath id="clip0_1514_706">
<rect width="40" height="40" fill="white"/>
</clipPath>
</defs>
</svg>
