<svg viewBox="0 0 24 24" fill="none" xmlns="http://www.w3.org/2000/svg">
    <path
        d="M15.7959 18.7041C16.0073 18.9154 16.126 19.2021 16.126 19.501C16.126 19.7999 16.0073 20.0865 15.7959 20.2978C15.5846 20.5092 15.2979 20.6279 14.999 20.6279C14.7002 20.6279 14.4135 20.5092 14.2022 20.2978L6.70216 12.7978C6.59728 12.6933 6.51407 12.5691 6.45729 12.4324C6.40051 12.2956 6.37128 12.149 6.37128 12.001C6.37128 11.8529 6.40051 11.7063 6.45729 11.5696C6.51407 11.4328 6.59728 11.3086 6.70216 11.2041L14.2022 3.7041C14.4135 3.49276 14.7002 3.37402 14.999 3.37402C15.2979 3.37402 15.5846 3.49276 15.7959 3.7041C16.0073 3.91544 16.126 4.20209 16.126 4.50097C16.126 4.79986 16.0073 5.08651 15.7959 5.29785L9.09373 12L15.7959 18.7041Z"
    />
</svg>
