<svg width="40" height="40" viewBox="0 0 40 40" fill="none" xmlns="http://www.w3.org/2000/svg">
    <g clip-path="url(#clip0_281_439)">
        <path
            d="M28.6957 1.98453C26.0663 0.713125 23.1165 0 20.0001 0C16.8837 0 13.9338 0.713125 11.3044 1.98453L9.56531 20L11.3044 38.0155C13.9338 39.2869 16.8837 40 20.0001 40C23.1165 40 26.0663 39.2869 28.6957 38.0155L30.4348 20L28.6957 1.98453Z"
            fill="#CE1126"
        />
        <path d="M19.9998 13.0435L21.7264 18.3574H27.3145L22.7939 21.6421L24.5205 26.9564L19.9998 23.672L15.4791 26.9564L17.206 21.6421L12.6854 18.3574H18.2732L19.9998 13.0435Z" fill="#FCD116" />
        <path d="M11.3044 1.98511C4.61453 5.21995 0 12.0707 0 19.9999C0 27.9291 4.61453 34.7798 11.3044 38.0146V1.98511Z" fill="#007A5E" />
        <path d="M28.6956 1.98511V38.0146C35.3854 34.7798 39.9999 27.929 39.9999 19.9999C39.9999 12.0707 35.3854 5.21995 28.6956 1.98511Z" fill="#FCD116" />
    </g>
    <defs>
        <clipPath id="clip0_281_439">
            <rect width="40" height="40" fill="white" />
        </clipPath>
    </defs>
</svg>
