<svg width="40" height="40" viewBox="0 0 40 40" fill="none" xmlns="http://www.w3.org/2000/svg">
<g clip-path="url(#clip0_1515_669)">
<path d="M20.0002 40C31.0459 40 40.0002 31.0457 40.0002 20C40.0002 8.9543 31.0459 0 20.0002 0C8.95455 0 0.000244141 8.9543 0.000244141 20C0.000244141 31.0457 8.95455 40 20.0002 40Z" fill="#F0F0F0"/>
<path d="M20 39.9999C26.0618 39.9999 31.4933 37.3028 35.161 33.0435H4.83899C8.50672 37.3028 13.9382 39.9999 20 39.9999Z" fill="#0052B4"/>
<path d="M40 20C40 8.95437 31.0456 0 20 0C8.95437 0 0 8.95437 0 20C0 21.8052 0.240625 23.5538 0.688984 25.2174H39.3111C39.7594 23.5538 40 21.8052 40 20Z" fill="#0052B4"/>
<path d="M1.58972 27.8262C1.97527 28.7321 2.42597 29.6034 2.93558 30.4348H37.0646C37.5741 29.6033 38.0248 28.732 38.4105 27.8262H1.58972Z" fill="#D80027"/>
<path d="M14.2963 21.3044L14.6201 22.3008H15.6678L14.8202 22.9167L15.144 23.9131L14.2963 23.2973L13.4487 23.9131L13.7725 22.9167L12.9249 22.3008H13.9727L14.2963 21.3044Z" fill="#FFDA44"/>
<path d="M14.2963 34.3479L14.6201 35.3444H15.6678L14.8202 35.9602L15.144 36.9566L14.2963 36.3408L13.4487 36.9566L13.7725 35.9602L12.9249 35.3444H13.9727L14.2963 34.3479Z" fill="#FFDA44"/>
<path d="M8.22468 29.9368L8.54843 30.9331H9.59616L8.74858 31.5489L9.07233 32.5454L8.22468 31.9296L7.37702 32.5454L7.70093 31.5489L6.85327 30.9331H7.90093L8.22468 29.9368Z" fill="#FFDA44"/>
<path d="M10.5437 22.6086L10.8675 23.6051H11.9151L11.0676 24.2209L11.3914 25.2174L10.5437 24.6015L9.69607 25.2174L10.02 24.2209L9.17224 23.6051H10.22L10.5437 22.6086Z" fill="#FFDA44"/>
<path d="M6.85327 26.7121L7.90077 26.7122L8.2246 25.7156L8.54843 26.7121L9.59616 26.7121L8.7485 27.3279L9.07233 28.3244L8.2246 27.7085L7.37702 28.3242L7.70077 27.3278L6.85327 26.7121Z" fill="#FFDA44"/>
<path d="M9.69623 35.4618L10.02 34.4655L9.17224 33.8498H10.22L10.5438 32.8533L10.8676 33.8497H11.9153L11.0676 34.4655L11.3914 35.462L10.5437 34.8461L9.69623 35.4618Z" fill="#FFDA44"/>
<path d="M20.3655 29.9368L20.0419 30.9331H18.9941L19.8416 31.5489L19.5179 32.5454L20.3655 31.9296L21.2132 32.5454L20.8894 31.5489L21.737 30.9331H20.6893L20.3655 29.9368Z" fill="#FFDA44"/>
<path d="M18.0465 22.6086L17.7228 23.6051H16.675L17.5225 24.2209L17.1988 25.2174L18.0465 24.6015L18.8941 25.2174L18.5703 24.2209L19.4179 23.6051H18.3702L18.0465 22.6086Z" fill="#FFDA44"/>
<path d="M21.737 26.7121L20.6895 26.7122L20.3656 25.7156L20.0419 26.7121L18.9941 26.7121L19.8417 27.3279L19.5179 28.3244L20.3656 27.7085L21.2132 28.3242L20.8895 27.3278L21.737 26.7121Z" fill="#FFDA44"/>
<path d="M18.894 35.4618L18.5703 34.4655L19.418 33.8498H18.3702L18.0464 32.8533L17.7227 33.8497H16.6749L17.5226 34.4655L17.1988 35.462L18.0465 34.8461L18.894 35.4618Z" fill="#FFDA44"/>
</g>
<defs>
<clipPath id="clip0_1515_669">
<rect width="40" height="40" fill="white"/>
</clipPath>
</defs>
</svg>
