<svg width="40" height="40" viewBox="0 0 40 40" fill="none" xmlns="http://www.w3.org/2000/svg">
<g clip-path="url(#clip0_1517_707)">
<path d="M18.2608 21.7391C18.2608 21.7391 5.86951 5.85508 5.85779 5.85789C9.47701 2.23859 14.4771 0 20 0C31.0456 0 40 8.95437 40 20L18.2608 21.7391Z" fill="#338AF3"/>
<path d="M18.2608 20C18.2608 20 5.86951 34.1449 5.85779 34.1421C9.47701 37.7614 14.4771 40 20 40C31.0456 40 40 31.0456 40 20H18.2608Z" fill="#6DA544"/>
<path d="M5.85785 5.85791C-1.95262 13.6684 -1.95262 26.3317 5.85785 34.1423C9.08543 30.9147 12.1896 27.8106 20 20.0001L5.85785 5.85791Z" fill="#F0F0F0"/>
<path d="M8.0945 14.7827L9.38942 18.7683H13.5805L10.19 21.2318L11.4849 25.2176L8.0945 22.7542L4.70395 25.2176L5.99911 21.2318L2.60864 18.7683H6.79942L8.0945 14.7827Z" fill="#D80027"/>
</g>
<defs>
<clipPath id="clip0_1517_707">
<rect width="40" height="40" fill="white"/>
</clipPath>
</defs>
</svg>
