<svg width="40" height="40" viewBox="0 0 40 40" fill="none" xmlns="http://www.w3.org/2000/svg">
<g clip-path="url(#clip0_1514_664)">
<path d="M20 0C31.0457 0 40 8.95438 40 20C40 31.0456 31.0457 40 20 40C20 39.1305 17.3914 20 17.3914 20L20 0Z" fill="#F0F0F0"/>
<path d="M20.0004 40C8.95474 40 0.000366211 31.0456 0.000366211 20C0.000366211 8.95438 8.95474 0 20.0004 0" fill="#496E2D"/>
<path d="M24.2972 16.1638L22.6562 18.4251L19.9987 17.5633L21.6423 19.8226L20.0015 22.084L22.658 21.2191L24.3016 23.4783L24.2999 20.6845L26.9565 19.8195L24.299 18.9578L24.2972 16.1638Z" fill="#D80027"/>
<path d="M21.6592 25.6522C18.5376 25.6522 16.007 23.1216 16.007 20C16.007 16.8785 18.5376 14.3478 21.6592 14.3478C22.6325 14.3478 23.5483 14.5939 24.3479 15.0272C23.0935 13.8006 21.3782 13.0435 19.4853 13.0435C15.6433 13.0435 12.5288 16.158 12.5288 19.9999C12.5288 23.8419 15.6433 26.9564 19.4853 26.9564C21.3783 26.9564 23.0936 26.1993 24.3479 24.9727C23.5483 25.4061 22.6325 25.6522 21.6592 25.6522Z" fill="#D80027"/>
</g>
<defs>
<clipPath id="clip0_1514_664">
<rect width="40" height="40" fill="white"/>
</clipPath>
</defs>
</svg>
