<svg viewBox="0 0 24 24" fill="none" xmlns="http://www.w3.org/2000/svg">
    <path
        d="M21.6244 8.06246L12.6244 2.06246C12.4395 1.93912 12.2222 1.87329 12 1.87329C11.7778 1.87329 11.5605 1.93912 11.3756 2.06246L2.37563 8.06246C2.22138 8.16537 2.09497 8.3048 2.00763 8.46836C1.92029 8.63193 1.87473 8.81454 1.875 8.99996V18.75C1.875 19.2472 2.07255 19.7242 2.42418 20.0758C2.77581 20.4274 3.25272 20.625 3.75 20.625H20.25C20.7473 20.625 21.2242 20.4274 21.5758 20.0758C21.9275 19.7242 22.125 19.2472 22.125 18.75V8.99996C22.1253 8.81454 22.0797 8.63193 21.9924 8.46836C21.905 8.3048 21.7786 8.16537 21.6244 8.06246ZM12 4.35183L19.0181 9.0309L13.2759 13.125H10.7241L4.98188 9.0309L12 4.35183ZM4.125 18.375V11.1834L9.71063 15.1659C9.90214 15.3025 10.1316 15.3756 10.3669 15.375H13.6388C13.874 15.3756 14.1035 15.3025 14.295 15.1659L19.875 11.1834V18.375H4.125Z"
    />
</svg>
