<svg width="40" height="40" viewBox="0 0 40 40" fill="none" xmlns="http://www.w3.org/2000/svg">
<g clip-path="url(#clip0_1519_728)">
<path d="M18.2608 18.2607C18.2608 18.2607 5.86951 34.1449 5.85779 34.142C9.47701 37.7613 14.4771 39.9999 20 39.9999C31.0456 39.9999 40 31.0455 40 19.9999L18.2608 18.2607Z" fill="#338AF3"/>
<path d="M18.2608 20C18.2608 20 5.86951 5.85508 5.85779 5.85789C9.47701 2.23859 14.4771 0 20 0C31.0456 0 40 8.95437 40 20H18.2608Z" fill="#6DA544"/>
<path d="M5.85785 5.85767C-1.95262 13.6681 -1.95262 26.3315 5.85785 34.142C5.8573 34.1452 40 19.9999 40 19.9999L5.85785 5.85767Z" fill="#D80027"/>
<path d="M10.4349 11.7393C6.59902 11.7393 3.47839 14.86 3.47839 18.6957V21.3044C3.47839 25.1403 6.5991 28.2609 10.4349 28.2609C14.2707 28.2609 17.3914 25.1402 17.3914 21.3044V18.6957C17.3914 14.86 14.2707 11.7393 10.4349 11.7393ZM14.7827 21.3045C14.7827 23.2476 13.5013 24.8968 11.7392 25.4521V22.6089L13.5848 20.7632L11.7402 18.9186L11.7392 18.2621V17.3915H9.13058V20.0001L7.28621 21.8444L9.13058 23.6887V25.4522C7.36847 24.8968 6.08707 23.2477 6.08707 21.3046V18.6959C6.08707 16.2985 8.03753 14.3481 10.4349 14.3481C12.8322 14.3481 14.7827 16.2986 14.7827 18.6959V21.3045Z" fill="#FFDA44"/>
</g>
<defs>
<clipPath id="clip0_1519_728">
<rect width="40" height="40" fill="white"/>
</clipPath>
</defs>
</svg>
