<svg width="40" height="40" viewBox="0 0 40 40" fill="none" xmlns="http://www.w3.org/2000/svg">
<g clip-path="url(#clip0_1519_743)">
<path d="M38.756 26.9566C39.56 24.79 40 22.4465 40 20.0001C40 17.5537 39.56 15.2103 38.756 13.0436L20 11.3044L1.24398 13.0436C0.440078 15.2103 0 17.5537 0 20.0001C0 22.4465 0.440078 24.79 1.24398 26.9566L20 28.6957L38.756 26.9566Z" fill="#FFDA44"/>
<path d="M20.0001 40.0001C28.5993 40.0001 35.9303 34.5726 38.7561 26.9565H1.24402C4.06996 34.5726 11.4007 40.0001 20.0001 40.0001Z" fill="#0052B4"/>
<path d="M20.0001 0C11.4007 0 4.06996 5.4275 1.24402 13.0435H38.7561C35.9303 5.4275 28.5993 0 20.0001 0Z" fill="#6DA544"/>
</g>
<defs>
<clipPath id="clip0_1519_743">
<rect width="40" height="40" fill="white"/>
</clipPath>
</defs>
</svg>
