<svg width="40" height="40" viewBox="0 0 40 40" fill="none" xmlns="http://www.w3.org/2000/svg">
<g clip-path="url(#clip0_1519_748)">
<path d="M20 40C31.0457 40 40 31.0457 40 20C40 8.9543 31.0457 0 20 0C8.9543 0 0 8.9543 0 20C0 31.0457 8.9543 40 20 40Z" fill="#F0F0F0"/>
<path d="M20 0C11.7317 0 4.63574 5.01766 1.58972 12.1739H38.4104C35.3644 5.01766 28.2684 0 20 0Z" fill="#A2001D"/>
<path d="M20 40.0001C28.2684 40.0001 35.3644 34.9824 38.4103 27.8262H1.58972C4.63574 34.9824 11.7317 40.0001 20 40.0001Z" fill="#496E2D"/>
<path d="M39.311 14.7827H0.688984C0.240625 16.4462 0 18.1949 0 20.0001C0 21.8054 0.240625 23.554 0.688984 25.2176H39.3111C39.7594 23.554 40 21.8054 40 20.0001C40 18.1949 39.7594 16.4462 39.311 14.7827V14.7827Z" fill="#0052B4"/>
</g>
<defs>
<clipPath id="clip0_1519_748">
<rect width="40" height="40" fill="white"/>
</clipPath>
</defs>
</svg>
