<svg width="40" height="40" viewBox="0 0 40 40" fill="none" xmlns="http://www.w3.org/2000/svg">
<g clip-path="url(#clip0_1517_719)">
<path d="M20.0004 39.9998C31.0461 39.9998 40.0004 31.0454 40.0004 19.9998C40.0004 8.95406 31.0461 -0.000244141 20.0004 -0.000244141C8.95467 -0.000244141 0.000366211 8.95406 0.000366211 19.9998C0.000366211 31.0454 8.95467 39.9998 20.0004 39.9998Z" fill="#F0F0F0"/>
<path d="M12.1739 13.0435H38.7559C35.9302 5.4275 28.5992 0 20 0C14.477 0 9.47758 2.23898 5.85852 5.85851L12.1739 13.0435Z" fill="#6DA544"/>
<path d="M12.1739 26.9563H38.7559C35.9302 34.5723 28.5992 39.9998 20 39.9998C14.477 39.9998 9.47758 37.7608 5.85852 34.1413L12.1739 26.9563Z" fill="#D80027"/>
<path d="M5.85785 5.85767C-1.95262 13.6681 -1.95262 26.3315 5.85785 34.142C9.08543 30.9145 12.1896 27.8103 20 19.9999L5.85785 5.85767Z" fill="#0052B4"/>
<path d="M23.4783 16.5217V20.8695C23.4783 23.532 26.9566 24.3479 26.9566 24.3479C26.9566 24.3479 30.4348 23.532 30.4348 20.8695V16.5217H23.4783Z" fill="#DEDDE0"/>
<path d="M26.087 20.0869H27.8262V22.6086H26.087V20.0869Z" fill="#786145"/>
<path d="M28.6957 19.1305C28.6957 18.17 27.9171 17.3914 26.9566 17.3914C25.996 17.3914 25.2174 18.17 25.2174 19.1305C24.7372 19.1305 24.3479 19.5198 24.3479 20C24.3479 20.4803 24.7372 20.8696 25.2174 20.8696H28.6957C29.1759 20.8696 29.5652 20.4803 29.5652 20C29.5652 19.5198 29.176 19.1305 28.6957 19.1305V19.1305Z" fill="#6DA544"/>
</g>
<defs>
<clipPath id="clip0_1517_719">
<rect width="40" height="40" fill="white"/>
</clipPath>
</defs>
</svg>
