<svg viewBox="0 0 240 210" fill="none" xmlns="http://www.w3.org/2000/svg">
    <path
        fill-rule="evenodd"
        clip-rule="evenodd"
        d="M98.51 123.98C98.64 124.01 99.74 124 100.61 124.04C101.98 124.11 103.93 124.27 106.75 124.8C109.58 125.33 112.51 126.27 116.11 127.92C121.23 130.27 127.46 133.67 131.77 137.38V126.1C131.33 125.03 122.36 119.82 121.2 119.26C114.23 115.86 106.36 113.13 98.44 113.99L98.5 123.97L98.51 123.98Z"
        fill="white"
    />
    <path
        fill-rule="evenodd"
        clip-rule="evenodd"
        d="M155.91 114.16C157.07 114.72 166.04 119.93 166.47 121V132.28C162.16 128.57 155.93 125.17 150.81 122.82C147.21 121.17 144.28 120.23 141.45 119.7C138.62 119.17 136.68 119.01 135.31 118.94C134.44 118.89 133.34 118.9 133.21 118.88L133.15 108.9C141.07 108.04 148.94 110.77 155.91 114.17V114.16Z"
        fill="white"
    />
    <path
        fill-rule="evenodd"
        clip-rule="evenodd"
        d="M99.2 90.94C99.61 90.94 100.14 90.96 100.61 90.98C101.98 91.05 103.92 91.21 106.75 91.74C109.58 92.27 112.51 93.21 116.11 94.86C121.23 97.21 127.46 100.61 131.77 104.32V93.04C131.33 91.97 122.36 86.76 121.2 86.2C114.45 82.91 106.86 80.24 99.2 80.86V90.93V90.94Z"
        fill="white"
    />
    <path
        fill-rule="evenodd"
        clip-rule="evenodd"
        d="M106.75 61.58C109.58 62.11 112.51 63.05 116.11 64.7C121.23 67.05 127.46 70.45 131.77 74.16V62.88C131.33 61.81 122.36 56.6 121.2 56.04C114.23 52.64 106.36 49.91 98.44 50.77L98.5 60.75C98.62 60.78 99.73 60.77 100.6 60.81C101.97 60.88 103.92 61.04 106.74 61.57L106.75 61.58Z"
        fill="white"
    />
    <path
        fill-rule="evenodd"
        clip-rule="evenodd"
        d="M100.63 113.59V46.82C100.73 41.8601 104.77 37.8801 109.75 37.8801H111.56L111.58 36.4501H100.21V36.4701L83.19 36.5V36.4501H71.8L71.83 37.8801H73.62C76.21 37.8801 78.57 38.95 80.22 40.69C81.77 42.29 82.73 44.46 82.76 46.85V82.38L80.58 82.78C45.33 89.72 22.44 115.66 30.83 148.81C34.65 163.9 45.65 175.07 56.58 183.86C119.59 234.51 239.59 189.25 237.71 103.72C236.3 39.4501 165.38 -2.03995 95.15 5.87005C44.84 11.52 4.55001 42.49 2.37001 94.88C1.52001 115.33 5.63001 130.64 10.81 146.43C7.95001 114.91 1.62001 95.3201 24.44 58.7201C31.93 46.73 47.46 35.63 59.88 29.57C100.16 9.89005 159.22 18.1101 191.73 44.8301C206.82 57.23 219.87 72.78 221.61 98.67C223.4 125.05 212.28 145.89 197.85 159.96C183.92 173.53 164.15 183.99 142.8 188.03C111.69 193.91 72.18 187.23 53.27 159.36C30.52 125.81 54.17 96.87 80.59 97.11L82.77 97.16V132.83C82.77 137.86 81.95 142.96 80.25 147.58C77.66 154.76 72.97 160.78 66.1 163.56V164.84C76.55 165.57 86.38 161.5 92.84 154.22C95.96 150.74 98.28 146.53 99.56 141.74C100.28 139.08 100.65 136.23 100.65 133.25V123.74"
        fill="white"
    />
    <path
        fill-rule="evenodd"
        clip-rule="evenodd"
        d="M141.45 87.7099C144.28 88.2399 147.21 89.1799 150.81 90.8299C155.93 93.1799 162.16 96.5799 166.47 100.29V89.0099C166.03 87.9399 157.06 82.7299 155.9 82.1699C148.93 78.7699 141.06 76.0399 133.14 76.8999L133.2 86.8799C133.32 86.9099 134.43 86.8999 135.3 86.9399C136.67 87.0099 138.62 87.1699 141.44 87.6999L141.45 87.7099Z"
        fill="white"
    />
    <path
        fill-rule="evenodd"
        clip-rule="evenodd"
        d="M133.21 151.42C133.34 151.45 134.44 151.44 135.31 151.48C136.68 151.55 138.63 151.71 141.45 152.24C144.28 152.77 147.21 153.71 150.81 155.36C155.93 157.71 162.16 161.11 166.47 164.82V153.54C166.03 152.47 157.06 147.26 155.9 146.7C148.93 143.3 141.06 140.57 133.14 141.43L133.2 151.41L133.21 151.42Z"
        fill="white"
    />
</svg>
