<svg width="40" height="40" viewBox="0 0 40 40" fill="none" xmlns="http://www.w3.org/2000/svg">
<g clip-path="url(#clip0_1519_778)">
<path d="M20 40C31.0457 40 40 31.0457 40 20C40 8.9543 31.0457 0 20 0C8.9543 0 0 8.9543 0 20C0 31.0457 8.9543 40 20 40Z" fill="#F0F0F0"/>
<path d="M20 0C12.0707 0 5.2195 4.61445 1.9845 11.3044H38.0153C34.7804 4.61445 27.9291 0 20 0V0Z" fill="black"/>
<path d="M20 39.9999C12.0707 39.9999 5.2195 35.3855 1.9845 28.6956H38.0153C34.7804 35.3855 27.9291 39.9999 20 39.9999V39.9999Z" fill="#496E2D"/>
<path d="M39.0555 13.9128H0.944453C0.331797 15.8323 0 17.8772 0 19.9998C0 22.1224 0.331797 24.1673 0.944453 26.0867H39.0555C39.6682 24.1673 40 22.1224 40 19.9998C40 17.8772 39.6682 15.8323 39.0555 13.9128Z" fill="#A2001D"/>
<path d="M26.2277 9.24213L23.8592 8.14893L19.9999 16.8873L16.1407 8.14893L13.7722 9.24213L18.5635 19.9999L13.7722 30.7576L16.1407 31.8508L19.9999 23.1124L23.8592 31.8508L26.2277 30.7576L21.4364 19.9999L26.2277 9.24213Z" fill="#F0F0F0"/>
<path d="M21.6086 10.2725C20.6917 9.27118 19.9999 8.69556 19.9999 8.69556C19.9999 8.69556 19.3081 9.2711 18.3912 10.2725V29.7272C19.3081 30.7287 19.9999 31.3043 19.9999 31.3043C19.9999 31.3043 20.6917 30.7288 21.6086 29.7273V10.2725Z" fill="#F0F0F0"/>
<path d="M15.6521 14.0032V25.9963C16.621 27.7131 17.8069 29.1203 18.6956 30.0532V9.94629C17.8069 10.8792 16.6209 12.2864 15.6521 14.0032V14.0032Z" fill="#A2001D"/>
<path d="M24.3477 14.0032C23.3787 12.2864 22.1929 10.8792 21.3042 9.94629V30.0532C22.1929 29.1203 23.3787 27.7131 24.3477 25.9963V14.0032Z" fill="#A2001D"/>
<path d="M24.3478 14.0034V25.9965C25.3286 24.2583 26.0869 22.2029 26.0869 20.0001C26.0869 17.7972 25.3286 15.7417 24.3478 14.0034Z" fill="black"/>
<path d="M15.6521 14.0034V25.9965C14.6712 24.2583 13.913 22.2029 13.913 20.0001C13.913 17.7972 14.6712 15.7417 15.6521 14.0034Z" fill="black"/>
</g>
<defs>
<clipPath id="clip0_1519_778">
<rect width="40" height="40" fill="white"/>
</clipPath>
</defs>
</svg>
