<svg width="40" height="40" viewBox="0 0 40 40" fill="none" xmlns="http://www.w3.org/2000/svg">
<g clip-path="url(#clip0_1516_673)">
<path d="M20 40C31.0457 40 40 31.0457 40 20C40 8.95431 31.0457 0 20 0C8.95431 0 0 8.95431 0 20C0 31.0457 8.95431 40 20 40Z" fill="#F0F0F0"/>
<path d="M39.9994 19.9421H18.3189C14.0144 24.2467 11.4115 27.5699 8.75366 30.2277L20.058 31.2464L37.5998 29.5073C39.1306 26.6796 40.0001 23.4414 40.0001 20C40.0001 19.9807 39.9994 19.9615 39.9994 19.9421V19.9421Z" fill="#D80027"/>
<path d="M8.75368 10.3769H37.5359C34.1345 4.19188 27.5571 0 20 0C14.4918 0 9.50461 2.22742 5.88782 5.83L8.75368 10.3769Z" fill="#FFDA44"/>
<path d="M9.62326 29.5073C7.82529 31.3053 7.13045 32.8117 5.82959 34.1125C9.45107 37.749 14.4624 40 20.0001 40C27.6044 40 34.2172 35.7559 37.5998 29.5073H9.62326Z" fill="#0052B4"/>
<path d="M5.85785 5.80005C-1.95262 13.6105 -1.95262 26.2739 5.85785 34.0844C9.08543 30.8568 12.1896 27.7527 20 19.9422L5.85785 5.80005Z" fill="#6DA544"/>
<path d="M5.27538 19.9422C5.27538 17.0283 7.32327 14.594 10.058 13.9968C9.63764 13.905 9.20155 13.8552 8.75358 13.8552C5.39178 13.8552 2.66663 16.5804 2.66663 19.9422C2.66663 23.304 5.39178 26.0291 8.75358 26.0291C9.20147 26.0291 9.63756 25.9794 10.058 25.8876C7.32327 25.2903 5.27538 22.8561 5.27538 19.9422V19.9422Z" fill="#F0F0F0"/>
<path d="M9.99075 14.7249L10.3146 15.7213H11.3622L10.5146 16.3371L10.8384 17.3335L9.99075 16.7177L9.14309 17.3335L9.46692 16.3371L8.61926 15.7213H9.66692L9.99075 14.7249Z" fill="#F0F0F0"/>
<path d="M9.99075 17.3335L10.3146 18.33H11.3622L10.5146 18.9458L10.8384 19.9422L9.99075 19.3264L9.14309 19.9422L9.46692 18.9458L8.61926 18.33H9.66692L9.99075 17.3335Z" fill="#F0F0F0"/>
<path d="M9.99075 19.9421L10.3146 20.9385H11.3622L10.5146 21.5544L10.8384 22.5508L9.99075 21.935L9.14309 22.5508L9.46692 21.5544L8.61926 20.9385H9.66692L9.99075 19.9421Z" fill="#F0F0F0"/>
<path d="M9.99075 22.5508L10.3146 23.5472H11.3622L10.5146 24.163L10.8384 25.1595L9.99075 24.5437L9.14309 25.1595L9.46692 24.163L8.61926 23.5472H9.66692L9.99075 22.5508Z" fill="#F0F0F0"/>
</g>
<defs>
<clipPath id="clip0_1516_673">
<rect width="40" height="40" fill="white"/>
</clipPath>
</defs>
</svg>
