<svg viewBox="0 0 24 24" fill="none" xmlns="http://www.w3.org/2000/svg">
    <path
        d="M20.25 1.875H3.75C3.25272 1.875 2.77581 2.07254 2.42417 2.42417C2.07254 2.77581 1.875 3.25272 1.875 3.75V20.25C1.875 20.7473 2.07254 21.2242 2.42417 21.5758C2.77581 21.9275 3.25272 22.125 3.75 22.125H20.25C20.7473 22.125 21.2242 21.9275 21.5758 21.5758C21.9275 21.2242 22.125 20.7473 22.125 20.25V3.75C22.125 3.25272 21.9275 2.77581 21.5758 2.42417C21.2242 2.07254 20.7473 1.875 20.25 1.875ZM19.875 19.875H4.125V4.125H19.875V19.875ZM10.5 16.5V11.25C10.5002 11.0162 10.5733 10.7883 10.709 10.5979C10.8447 10.4076 11.0364 10.2642 11.2574 10.1878C11.4783 10.1114 11.7176 10.1058 11.9419 10.1716C12.1662 10.2375 12.3645 10.3716 12.5091 10.5553C13.0805 10.2558 13.7195 10.1088 14.3643 10.1284C15.0092 10.1481 15.6381 10.3338 16.1901 10.6676C16.7422 11.0014 17.1989 11.472 17.5159 12.0338C17.833 12.5957 17.9997 13.2299 18 13.875V16.5C18 16.7984 17.8815 17.0845 17.6705 17.2955C17.4595 17.5065 17.1734 17.625 16.875 17.625C16.5766 17.625 16.2905 17.5065 16.0795 17.2955C15.8685 17.0845 15.75 16.7984 15.75 16.5V13.875C15.75 13.4772 15.592 13.0956 15.3107 12.8143C15.0294 12.533 14.6478 12.375 14.25 12.375C13.8522 12.375 13.4706 12.533 13.1893 12.8143C12.908 13.0956 12.75 13.4772 12.75 13.875V16.5C12.75 16.7984 12.6315 17.0845 12.4205 17.2955C12.2095 17.5065 11.9234 17.625 11.625 17.625C11.3266 17.625 11.0405 17.5065 10.8295 17.2955C10.6185 17.0845 10.5 16.7984 10.5 16.5ZM9 11.25V16.5C9 16.7984 8.88147 17.0845 8.6705 17.2955C8.45952 17.5065 8.17337 17.625 7.875 17.625C7.57663 17.625 7.29048 17.5065 7.0795 17.2955C6.86853 17.0845 6.75 16.7984 6.75 16.5V11.25C6.75 10.9516 6.86853 10.6655 7.0795 10.4545C7.29048 10.2435 7.57663 10.125 7.875 10.125C8.17337 10.125 8.45952 10.2435 8.6705 10.4545C8.88147 10.6655 9 10.9516 9 11.25ZM6.375 7.5C6.375 7.20333 6.46297 6.91332 6.6278 6.66665C6.79262 6.41997 7.02689 6.22771 7.30097 6.11418C7.57506 6.00065 7.87666 5.97094 8.16764 6.02882C8.45861 6.0867 8.72588 6.22956 8.93566 6.43934C9.14544 6.64912 9.2883 6.91639 9.34618 7.20736C9.40406 7.49834 9.37435 7.79994 9.26082 8.07403C9.14729 8.34811 8.95503 8.58238 8.70835 8.7472C8.46168 8.91203 8.17167 9 7.875 9C7.47718 9 7.09564 8.84196 6.81434 8.56066C6.53304 8.27936 6.375 7.89782 6.375 7.5Z"
    />
</svg>
