<svg viewBox="0 0 544 135" fill="none" xmlns="http://www.w3.org/2000/svg">
    <path
        fill-rule="evenodd"
        clip-rule="evenodd"
        d="M68.28 80.4702C68.36 80.4902 69.09 80.4802 69.66 80.5102C70.56 80.5602 71.83 80.6602 73.69 81.0102C75.54 81.3602 77.47 81.9702 79.83 83.0602C83.18 84.6002 87.27 86.8302 90.1 89.2602V81.8702C89.81 81.1702 83.93 77.7602 83.17 77.3902C78.6 75.1602 73.45 73.3702 68.25 73.9402L68.29 80.4802L68.28 80.4702Z"
        fill="#E80000"
    />
    <path
        fill-rule="evenodd"
        clip-rule="evenodd"
        d="M105.91 74.0301C106.67 74.4001 112.55 77.8101 112.83 78.5101V85.9001C110 83.4701 105.92 81.2401 102.56 79.7001C100.2 78.6201 98.28 78.0001 96.42 77.6501C94.57 77.3001 93.29 77.2001 92.39 77.1501C91.82 77.1201 91.1 77.1301 91.01 77.1101L90.97 70.5701C96.16 70.0001 101.32 71.8001 105.89 74.0201L105.91 74.0301Z"
        fill="#333333"
    />
    <path
        fill-rule="evenodd"
        clip-rule="evenodd"
        d="M68.74 58.8102C69.01 58.8102 69.36 58.8102 69.66 58.8402C70.56 58.8902 71.83 58.9902 73.69 59.3402C75.54 59.6902 77.47 60.3002 79.83 61.3902C83.19 62.9302 87.27 65.1602 90.1 67.5902V60.2002C89.81 59.5002 83.93 56.0902 83.17 55.7202C78.75 53.5602 73.77 51.8202 68.75 52.2202V58.8202L68.74 58.8102Z"
        fill="#E80000"
    />
    <path
        fill-rule="evenodd"
        clip-rule="evenodd"
        d="M73.69 39.5702C75.54 39.9202 77.47 40.5302 79.83 41.6202C83.18 43.1602 87.27 45.3902 90.1 47.8202V40.4302C89.81 39.7302 83.93 36.3202 83.17 35.9502C78.6 33.7202 73.44 31.9302 68.25 32.5002L68.29 39.0402C68.37 39.0602 69.1 39.0502 69.67 39.0802C70.57 39.1302 71.84 39.2302 73.7 39.5802L73.69 39.5702Z"
        fill="#E80000"
    />
    <path
        fill-rule="evenodd"
        clip-rule="evenodd"
        d="M69.68 73.6601V29.8901C69.75 26.6401 72.4 24.0301 75.66 24.0301H76.84V23.0901H69.39L58.23 23.1201V23.0901H50.76L50.78 24.0301H51.95C53.65 24.0301 55.19 24.7301 56.28 25.8701C57.3 26.9201 57.92 28.3401 57.95 29.9101V53.2001L56.52 53.4601C33.41 58.0101 18.41 75.0101 23.91 96.7401C26.41 106.63 33.62 113.96 40.79 119.71C82.09 152.91 160.75 123.24 159.52 67.1801C158.6 25.0601 112.11 -2.12988 66.08 3.05012C33.1 6.75012 6.69997 27.0501 5.26997 61.3901C4.70997 74.7901 7.40997 84.8301 10.8 95.1801C8.92997 74.5201 4.76997 61.6801 19.73 37.6901C24.64 29.8301 34.82 22.5501 42.96 18.5901C69.36 5.69012 108.08 11.0801 129.38 28.5901C139.27 36.7201 147.82 46.9101 148.96 63.8801C150.13 81.1701 142.85 94.8301 133.39 104.06C124.26 112.96 111.3 119.81 97.31 122.46C76.92 126.32 51.02 121.93 38.62 103.67C23.71 81.6801 39.21 62.7101 56.53 62.8701L57.96 62.9001V86.2801C57.96 89.5801 57.42 92.9201 56.31 95.9501C54.61 100.66 51.54 104.6 47.03 106.42V107.26C53.88 107.74 60.32 105.07 64.56 100.3C66.61 98.0201 68.13 95.2601 68.96 92.1201C69.43 90.3801 69.68 88.5101 69.68 86.5501V80.3201"
        fill="#333333"
    />
    <path
        fill-rule="evenodd"
        clip-rule="evenodd"
        d="M96.43 56.7001C98.28 57.0501 100.21 57.6601 102.57 58.7501C105.92 60.2901 110.01 62.5201 112.84 64.9501V57.5601C112.55 56.8601 106.67 53.4501 105.91 53.0801C101.34 50.8501 96.18 49.0601 90.99 49.6301L91.03 56.1701C91.11 56.1901 91.84 56.1801 92.41 56.2101C93.31 56.2601 94.58 56.3601 96.44 56.7101L96.43 56.7001Z"
        fill="#333333"
    />
    <path
        fill-rule="evenodd"
        clip-rule="evenodd"
        d="M91.03 98.4602C91.11 98.4802 91.84 98.4702 92.41 98.5002C93.31 98.5502 94.58 98.6502 96.44 99.0002C98.29 99.3502 100.22 99.9602 102.58 101.05C105.93 102.59 110.02 104.82 112.85 107.25V99.8602C112.56 99.1602 106.68 95.7501 105.92 95.3801C101.35 93.1501 96.2 91.3602 91 91.9302L91.04 98.4702L91.03 98.4602Z"
        fill="#333333"
    />
    <path
        d="M205.49 8.1499V51.7499C205.49 54.1399 205.01 56.2899 204.06 58.2299C203.1 60.1599 201.81 61.7999 200.19 63.1399C198.56 64.4799 196.71 65.4699 194.63 66.0999C192.55 66.7299 190.38 66.9299 188.12 66.7199V66.1299C189.94 65.3499 191.42 64.1899 192.55 62.6499C193.68 61.1099 194.49 59.3699 194.99 57.4399C195.49 55.5099 195.74 53.5499 195.74 51.5499V8.1499H205.5H205.49ZM195.92 12.8999H195.72C195.68 11.7699 195.25 10.8099 194.45 9.9999C193.65 9.1999 192.68 8.7999 191.55 8.7999H190.7V8.1499H195.91V12.8999H195.92ZM205.29 12.8999V8.1499H210.5V8.7999H209.65C208.52 8.7999 207.56 9.1999 206.75 9.9999C205.95 10.7999 205.52 11.7699 205.48 12.8999H205.28H205.29Z"
        fill="#333333"
    />
    <path
        d="M219.28 49.4099C218.8 50.5799 218.87 51.4799 219.48 52.1099C220.09 52.7399 220.76 53.0499 221.5 53.0499H222.02V53.6999H209V53.0499H209.52C210.39 53.0499 211.3 52.7799 212.25 52.2399C213.2 51.6999 213.98 50.7499 214.59 49.4099H219.28ZM231.52 12.8999L231.65 20.7099L217.53 53.5099H212.71L227.94 20.7799C228.03 20.5199 228.22 20.0499 228.53 19.3799C228.83 18.7099 229.16 17.9499 229.51 17.0999C229.86 16.2499 230.18 15.4499 230.49 14.6899C230.79 13.9299 230.97 13.3299 231.01 12.8999H231.53H231.52ZM237.18 40.9499V43.4899H220.59V40.9499H237.18ZM231.52 12.8999L250.78 53.3799H239.78L227.68 24.8099L231.52 12.8999ZM238.15 49.4099H248.89C249.54 50.7599 250.34 51.6999 251.3 52.2399C252.25 52.7799 253.17 53.0499 254.03 53.0499H254.55V53.6999H235.42V53.0499H235.94C236.68 53.0499 237.35 52.7399 237.96 52.1099C238.57 51.4799 238.63 50.5799 238.16 49.4099H238.15Z"
        fill="#333333"
    />
    <path
        d="M291.65 37.3698L292.37 47.1998C291.55 48.5898 290.39 49.8398 288.92 50.9398C287.44 52.0498 285.64 52.9198 283.52 53.5798C281.39 54.2298 278.92 54.5598 276.1 54.5598C271.24 54.5198 267.05 53.6898 263.54 52.0898C260.03 50.4898 257.33 48.1798 255.44 45.1598C253.55 42.1398 252.61 38.4698 252.61 34.1298C252.61 29.7898 253.54 26.2498 255.41 23.2298C257.28 20.2198 259.97 17.8898 263.48 16.2698C266.99 14.6498 271.2 13.8298 276.1 13.8298C279.05 13.8298 281.79 14.1098 284.33 14.6798C286.87 15.2398 288.98 15.9598 290.67 16.8298L290.74 27.1798H290.22C289.14 23.1898 287.42 20.3898 285.08 18.7898C282.74 17.1898 279.94 16.3798 276.68 16.3798C273.42 16.3798 270.94 17.1198 268.84 18.5898C266.74 20.0698 265.15 22.1298 264.09 24.7698C263.03 27.4198 262.5 30.5198 262.5 34.0798C262.5 37.6398 263.03 40.8098 264.09 43.4498C265.15 46.0998 266.7 48.1598 268.74 49.6298C270.78 51.1098 273.23 51.8898 276.09 51.9698C279.17 51.9698 281.72 51.4898 283.74 50.5398C285.76 49.5898 287.36 48.0498 288.56 45.9198C289.75 43.7898 290.61 40.9498 291.13 37.3898H291.65V37.3698Z"
        fill="#333333"
    />
    <path
        d="M300.3 18.7598H300.17C300.13 17.7598 299.76 16.9298 299.06 16.2498C298.37 15.5798 297.52 15.2398 296.52 15.2398H295.8V14.5898H300.29V18.7598H300.3ZM300.3 49.6098V53.7098H295.87V53.0598H296.52C297.52 53.0598 298.36 52.7198 299.06 52.0498C299.75 51.3798 300.12 50.5598 300.17 49.6098H300.3ZM309.54 14.5998V53.7098H300.17V14.5998H309.54ZM309.35 18.7598V14.5898H313.84V15.2398H313.12C312.12 15.2398 311.28 15.5798 310.58 16.2498C309.89 16.9198 309.54 17.7598 309.54 18.7598H309.35ZM309.35 49.6098H309.54C309.54 50.5698 309.89 51.3798 310.58 52.0498C311.27 52.7198 312.12 53.0598 313.12 53.0598H313.84V53.7098H309.35V49.6098ZM332.19 15.0498L315.21 35.0898L311.44 35.4798L326.86 15.0498H332.2H332.19ZM318.39 29.1698L332.97 49.3398C333.79 50.5598 334.66 51.4798 335.57 52.1098C336.48 52.7398 337.54 53.0798 338.76 53.1198V53.7098H333.75C333.32 53.7098 332.6 53.6898 331.6 53.6498C330.6 53.6098 329.46 53.4398 328.18 53.1598C326.9 52.8798 325.61 52.3898 324.31 51.6998C323.01 51.0098 321.86 50.0098 320.86 48.7098C320.64 48.4098 320.27 47.8898 319.75 47.1498C319.23 46.4098 318.61 45.5498 317.9 44.5498C317.18 43.5498 316.45 42.5298 315.69 41.4898C314.93 40.4498 314.23 39.4698 313.58 38.5598C312.93 37.6498 312.21 36.6298 311.43 35.4998L318.39 29.1898V29.1698ZM336.16 14.5998V15.2498H335.9C334.69 15.2498 333.53 15.4898 332.45 15.9698C331.37 16.4498 330.48 17.0998 329.78 17.9198L324.77 17.7898C325.25 17.1798 325.33 16.6098 325.03 16.0698C324.73 15.5298 324.21 15.2598 323.47 15.2598H322.88V14.6098H336.16V14.5998Z"
        fill="#333333"
    />
    <path
        d="M351.52 13.81C352.39 13.81 353.44 13.85 354.68 13.94C355.92 14.03 357.14 14.13 358.36 14.23C359.57 14.34 360.65 14.47 361.58 14.62C362.51 14.77 363.15 14.91 363.5 15.04L362.65 22.98H362.06C362.06 20.98 361.37 19.4 359.98 18.23C358.59 17.06 356.6 16.47 353.99 16.47C351.91 16.47 350.23 16.93 348.95 17.84C347.67 18.75 346.99 19.97 346.9 21.48C346.81 22.26 346.95 22.97 347.32 23.6C347.69 24.23 348.21 24.78 348.88 25.26C349.55 25.74 350.3 26.22 351.13 26.69L361.35 33C363.08 33.87 364.45 35.13 365.45 36.77C366.45 38.42 366.88 40.41 366.75 42.76C366.62 45.19 365.91 47.29 364.64 49.07C363.36 50.85 361.6 52.21 359.37 53.14C357.14 54.07 354.5 54.54 351.46 54.54C349.59 54.54 347.86 54.39 346.25 54.08C344.64 53.78 343.27 53.36 342.12 52.84C340.97 52.32 340.09 51.73 339.48 51.08C339.13 50.21 338.98 49.16 339.02 47.92C339.06 46.68 339.26 45.45 339.61 44.21C339.96 42.97 340.39 41.94 340.91 41.12H341.43C341.3 43.07 341.65 44.87 342.47 46.52C343.29 48.17 344.54 49.48 346.21 50.46C347.88 51.44 349.86 51.92 352.16 51.92C354.68 51.92 356.56 51.33 357.82 50.16C359.08 48.99 359.71 47.6 359.71 45.99C359.71 44.86 359.33 43.83 358.57 42.9C357.81 41.97 356.56 41.05 354.83 40.13L345.59 34.27C343.42 33.14 341.85 31.65 340.87 29.78C339.89 27.92 339.54 25.88 339.8 23.66C340.02 21.58 340.63 19.8 341.65 18.32C342.67 16.85 344.03 15.72 345.72 14.94C347.41 14.16 349.34 13.77 351.51 13.77L351.52 13.81ZM363.49 14.4L363.43 15.57H356.47V14.4H363.5H363.49Z"
        fill="#333333"
    />
    <path
        d="M393.88 13.8098C397.35 13.8098 400.5 14.2798 403.32 15.2098C406.14 16.1398 408.57 17.4998 410.61 19.2798C412.65 21.0598 414.22 23.2098 415.33 25.7198C416.44 28.2398 416.99 31.0798 416.99 34.2498C416.99 37.4198 416.44 40.1798 415.33 42.6798C414.22 45.1798 412.65 47.3098 410.61 49.0898C408.57 50.8698 406.14 52.2298 403.32 53.1598C400.5 54.0898 397.35 54.5598 393.88 54.5598C390.41 54.5598 387.33 54.0898 384.51 53.1598C381.69 52.2298 379.26 50.8698 377.22 49.0898C375.18 47.3098 373.62 45.1798 372.53 42.6798C371.45 40.1898 370.9 37.3798 370.9 34.2498C370.9 31.1198 371.44 28.2398 372.53 25.7198C373.61 23.1998 375.18 21.0598 377.22 19.2798C379.26 17.4998 381.69 16.1498 384.51 15.2098C387.33 14.2798 390.45 13.8098 393.88 13.8098ZM393.88 52.0198C396.53 52.0198 398.84 51.2898 400.81 49.8398C402.78 48.3898 404.3 46.3398 405.37 43.6898C406.43 41.0398 406.96 37.8998 406.96 34.2498C406.96 30.5998 406.43 27.3798 405.37 24.7198C404.31 22.0498 402.79 19.9898 400.81 18.5398C398.84 17.0898 396.53 16.3598 393.88 16.3598C391.23 16.3598 389 17.0898 387.05 18.5398C385.1 19.9898 383.58 22.0498 382.49 24.7198C381.41 27.3898 380.86 30.5698 380.86 34.2498C380.86 37.9298 381.4 41.0398 382.49 43.6898C383.57 46.3398 385.09 48.3898 387.05 49.8398C389 51.2898 391.28 52.0198 393.88 52.0198Z"
        fill="#333333"
    />
    <path
        d="M423.43 49.74V53.71H418.61V53.06H419.65C420.65 53.06 421.49 52.75 422.19 52.12C422.88 51.49 423.23 50.7 423.23 49.74H423.42H423.43ZM423.17 13.75L432.15 23.51V53.71H423.23V21.17C423.23 18.96 423.01 16.48 422.58 13.75H423.17ZM423.17 13.75L461.37 47.33L462.02 54.55L423.88 20.97L423.16 13.75H423.17ZM432.15 49.74C432.19 50.69 432.56 51.49 433.26 52.12C433.95 52.75 434.78 53.06 435.73 53.06H436.77V53.71H432.02V49.74H432.15ZM453.04 18.63C453 17.68 452.64 16.88 451.97 16.25C451.3 15.62 450.46 15.31 449.46 15.31H448.35V14.66H453.17V18.63H453.04ZM461.95 14.66V46.94C461.95 48.46 462 49.79 462.11 50.94C462.22 52.09 462.38 53.29 462.6 54.55H462.01L453.03 44.2V14.66H461.95ZM461.76 18.63V14.66H466.64V15.31H465.53C464.57 15.31 463.74 15.62 463.02 16.25C462.3 16.88 461.95 17.67 461.95 18.63H461.75H461.76Z"
        fill="#333333"
    />
    <path
        d="M470.15 46.16C470.89 45.47 471.74 45.09 472.72 45.02C473.7 44.96 474.66 45.17 475.62 45.67C476.57 46.17 477.27 46.96 477.7 48.05C478.44 49.7 478.71 51.34 478.51 52.96C478.31 54.58 477.76 56.05 476.85 57.35C475.94 58.65 474.81 59.65 473.47 60.34C472.12 61.03 470.65 61.27 469.04 61.06L468.84 60.34C469.79 59.95 470.53 59.37 471.05 58.62C471.57 57.86 471.8 56.98 471.73 55.98C471.67 54.98 471.2 54.01 470.33 53.05C469.77 52.36 469.36 51.6 469.13 50.77C468.89 49.95 468.85 49.11 469 48.26C469.15 47.41 469.53 46.71 470.14 46.15L470.15 46.16Z"
        fill="#333333"
    />
    <path
        d="M195.72 78.7799H195.52C195.48 77.6499 195.05 76.6899 194.25 75.8799C193.45 75.0799 192.48 74.6799 191.35 74.6799H190.5V74.0299H195.71V78.7799H195.72ZM195.72 114.83V119.58H190.51V118.93H191.36C192.49 118.93 193.45 118.53 194.26 117.73C195.06 116.93 195.49 115.96 195.53 114.83H195.73H195.72ZM205.29 74.0299V119.58H195.53V74.0299H205.29ZM223.25 74.0299V76.8299H205.09V74.0299H223.25ZM220.06 95.7699V98.4999H205.09V95.7699H220.06ZM222.47 116.79L224.03 119.59H205.09V116.79H222.47ZM227.22 106.31L224.23 119.59H211.47L213.81 116.79C215.98 116.79 217.89 116.37 219.54 115.52C221.19 114.67 222.6 113.46 223.77 111.88C224.94 110.3 225.87 108.44 226.57 106.32H227.22V106.31ZM220.06 89.6499V95.8999H213.88V95.7699C215.48 95.7299 216.81 95.1699 217.85 94.1099C218.89 93.0499 219.41 91.7299 219.41 90.1699V89.6499H220.06ZM220.06 98.3699V104.62H219.41V104.03C219.41 102.47 218.89 101.17 217.85 100.13C216.81 99.0899 215.48 98.5499 213.88 98.4999V98.3699H220.06ZM223.25 72.8599V74.7499L215.31 74.0299C216.26 74.0299 217.27 73.9699 218.34 73.8299C219.4 73.6999 220.39 73.5499 221.3 73.3699C222.21 73.1999 222.86 73.0199 223.25 72.8499V72.8599ZM223.25 76.6299V84.2399H222.6V83.4599C222.6 81.4699 222 79.8599 220.81 78.6399C219.62 77.4299 218 76.7999 215.96 76.7499V76.6199H223.25V76.6299Z"
        fill="#333333"
    />
    <path
        d="M228.26 79.5C228.65 79.59 229.22 79.72 229.98 79.89C230.74 80.06 231.58 80.21 232.52 80.31C233.45 80.42 234.31 80.47 235.09 80.47L228.26 81.12V79.49V79.5ZM265.94 80.47V83.07H228.26V80.47H265.94ZM234.9 82.88V83.08C232.99 83.12 231.53 83.69 230.51 84.77C229.49 85.85 228.98 87.33 228.98 89.2V89.79H228.26V82.89H234.9V82.88ZM242.51 115.48V119.58H238.15V118.93H238.87C239.82 118.93 240.64 118.59 241.31 117.92C241.98 117.25 242.34 116.43 242.38 115.48H242.51ZM251.82 80.73V119.58H242.38V80.73H251.82ZM251.62 115.48H251.82C251.82 116.44 252.17 117.25 252.86 117.92C253.55 118.59 254.4 118.93 255.4 118.93H256.12V119.58H251.63V115.48H251.62ZM265.94 79.5V81.13L259.11 80.48C259.93 80.48 260.82 80.43 261.78 80.32C262.73 80.21 263.6 80.08 264.38 79.93C265.16 79.78 265.68 79.64 265.94 79.51V79.5ZM265.94 82.88V89.78H265.29V89.19C265.33 87.33 264.82 85.85 263.76 84.76C262.7 83.68 261.23 83.11 259.37 83.07V82.87H265.94V82.88Z"
        fill="#333333"
    />
    <path
        d="M267.11 79.5C267.5 79.59 268.07 79.72 268.83 79.89C269.59 80.06 270.43 80.21 271.37 80.31C272.3 80.42 273.16 80.47 273.94 80.47L267.11 81.12V79.49V79.5ZM304.79 80.47V83.07H267.11V80.47H304.79ZM273.75 82.88V83.08C271.84 83.12 270.38 83.69 269.36 84.77C268.34 85.85 267.83 87.33 267.83 89.2V89.79H267.11V82.89H273.75V82.88ZM281.36 115.48V119.58H277V118.93H277.72C278.67 118.93 279.49 118.59 280.16 117.92C280.83 117.25 281.19 116.43 281.23 115.48H281.36ZM290.67 80.73V119.58H281.23V80.73H290.67ZM290.47 115.48H290.67C290.67 116.44 291.02 117.25 291.71 117.92C292.4 118.59 293.25 118.93 294.25 118.93H294.97V119.58H290.48V115.48H290.47ZM304.79 79.5V81.13L297.96 80.48C298.78 80.48 299.67 80.43 300.63 80.32C301.58 80.21 302.45 80.08 303.23 79.93C304.01 79.78 304.53 79.64 304.79 79.51V79.5ZM304.79 82.88V89.78H304.14V89.19C304.18 87.33 303.67 85.85 302.61 84.76C301.55 83.68 300.08 83.11 298.22 83.07V82.87H304.79V82.88Z"
        fill="#333333"
    />
    <path
        d="M311.69 84.6398H311.49C311.49 83.6398 311.12 82.8198 310.38 82.1698C309.64 81.5198 308.75 81.1898 307.71 81.1898H306.93V80.5398H311.68V84.6398H311.69ZM311.69 115.48V119.58H306.94V118.93H307.79C308.79 118.93 309.65 118.59 310.39 117.92C311.13 117.25 311.5 116.43 311.5 115.48H311.7H311.69ZM320.86 80.5398V119.59H311.49V80.5398H320.86ZM320.73 84.6398V80.5398H325.42L325.35 81.1898H324.63C323.59 81.1898 322.71 81.5198 321.99 82.1698C321.27 82.8198 320.89 83.6498 320.85 84.6398H320.72H320.73ZM320.73 115.48H320.86C320.9 116.44 321.28 117.25 322 117.92C322.72 118.59 323.59 118.93 324.64 118.93H325.42V119.58H320.73V115.48Z"
        fill="#333333"
    />
    <path
        d="M387.37 97.0699C387.46 99.4099 387.31 101.7 386.91 103.94C386.52 106.17 385.84 108.27 384.86 110.22C383.88 112.17 382.56 113.91 380.89 115.43C379.22 116.95 377.14 118.13 374.64 118.98C372.14 119.83 369.16 120.25 365.69 120.25C363.74 120.25 361.7 120.1 359.57 119.79C357.44 119.49 355.4 119 353.45 118.33C351.5 117.66 349.73 116.75 348.15 115.6C346.57 114.45 345.32 113.05 344.41 111.4C343.5 109.75 343.04 107.8 343.04 105.54C343.04 103.76 343.34 102.21 343.95 100.89C344.56 99.5699 345.37 98.4199 346.39 97.4399C347.41 96.4599 348.51 95.6699 349.68 95.0599C350.85 94.4499 352.01 93.9799 353.16 93.6299C354.31 93.2799 355.32 93.0899 356.19 93.0399L357.43 94.2799C357.08 94.6299 356.67 95.0599 356.19 95.5799C355.71 96.0999 355.23 96.7599 354.76 97.5599C354.28 98.3599 353.9 99.3099 353.62 100.39C353.34 101.47 353.24 102.76 353.33 104.23C353.42 106.4 353.89 108.32 354.76 109.99C355.63 111.66 356.74 113.05 358.11 114.16C359.48 115.27 361.03 116.1 362.76 116.67C364.49 117.23 366.3 117.52 368.16 117.52C370.46 117.52 372.47 117.03 374.18 116.06C375.89 115.08 377.31 113.81 378.44 112.25C379.57 110.69 380.39 108.97 380.91 107.11C381.43 105.24 381.65 103.4 381.56 101.58C381.47 99.7599 381.08 98.1099 380.39 96.6299C379.87 95.5899 379.28 94.8299 378.63 94.3499C377.98 93.8699 377.22 93.6299 376.35 93.6299H375.37V92.9799H390.6V93.6299H389.69C388.69 93.6299 388.05 93.9399 387.77 94.5699C387.49 95.1999 387.35 96.0299 387.35 97.0799L387.37 97.0699ZM365.51 73.1199C367.24 73.1199 368.95 73.2899 370.62 73.6399C372.29 73.9899 373.82 74.4999 375.21 75.1699C376.6 75.8399 377.66 76.6999 378.4 77.7399L376.06 87.0499H375.47C375.47 85.0999 375.19 83.2799 374.62 81.5799C374.06 79.8899 373.18 78.5099 371.98 77.4499C370.79 76.3899 369.19 75.8599 367.2 75.8599C365.03 75.8599 363.26 76.5799 361.9 78.0099C360.53 79.4399 359.85 81.2599 359.85 83.4799C359.85 85.9999 360.79 88.3899 362.68 90.6699C364.57 92.9499 367.29 95.6499 370.85 98.7699C371.76 99.5499 372.79 100.46 373.94 101.5C375.09 102.54 376.24 103.54 377.39 104.49C378.54 105.45 379.5 106.27 380.29 106.96C382.63 108.96 384.76 110.78 386.67 112.43C388.58 114.08 390.34 115.46 391.94 116.56C393.54 117.67 395.06 118.44 396.5 118.87V119.59C394.81 119.76 392.86 119.87 390.64 119.92C388.43 119.96 386.15 119.73 383.81 119.24C381.47 118.75 379.19 117.71 376.98 116.15C375.85 115.33 374.64 114.39 373.34 113.35C372.04 112.31 370.75 111.26 369.47 110.19C368.19 109.13 367.02 108.14 365.96 107.23C364.9 106.32 364.04 105.58 363.39 105.02C360.87 102.85 358.58 100.7 356.52 98.5799C354.46 96.4599 352.82 94.2499 351.61 91.9699C350.39 89.6899 349.79 87.2699 349.79 84.7099C349.79 82.7099 350.22 80.9899 351.09 79.5399C351.96 78.0899 353.14 76.8799 354.64 75.9299C356.14 74.9799 357.83 74.2699 359.72 73.8199C361.61 73.3699 363.55 73.1399 365.54 73.1399L365.51 73.1199Z"
        fill="#333333"
    />
    <path
        d="M415.42 78.7799H415.22C415.18 77.6499 414.75 76.6899 413.95 75.8799C413.15 75.0799 412.18 74.6799 411.05 74.6799H410.2V74.0299H415.41V78.7799H415.42ZM415.42 114.83V119.58H410.21V118.93H411.06C412.19 118.93 413.15 118.53 413.96 117.73C414.76 116.93 415.19 115.96 415.23 114.83H415.43H415.42ZM424.99 74.0299V119.58H415.23V74.0299H424.99ZM442.95 74.0299V76.8299H424.79V74.0299H442.95ZM439.76 95.7699V98.4999H424.79V95.7699H439.76ZM442.17 116.79L443.73 119.59H424.79V116.79H442.17ZM446.92 106.31L443.93 119.59H431.17L433.51 116.79C435.68 116.79 437.59 116.37 439.24 115.52C440.89 114.67 442.3 113.46 443.47 111.88C444.64 110.3 445.57 108.44 446.27 106.32H446.92V106.31ZM439.76 89.6499V95.8999H433.58V95.7699C435.18 95.7299 436.51 95.1699 437.55 94.1099C438.59 93.0499 439.11 91.7299 439.11 90.1699V89.6499H439.76ZM439.76 98.3699V104.62H439.11V104.03C439.11 102.47 438.59 101.17 437.55 100.13C436.51 99.0899 435.18 98.5499 433.58 98.4999V98.3699H439.76ZM442.95 72.8599V74.7499L435.01 74.0299C435.96 74.0299 436.97 73.9699 438.04 73.8299C439.1 73.6999 440.09 73.5499 441 73.3699C441.91 73.1999 442.56 73.0199 442.95 72.8499V72.8599ZM442.95 76.6299V84.2399H442.3V83.4599C442.3 81.4699 441.7 79.8599 440.51 78.6399C439.32 77.4299 437.7 76.7999 435.66 76.7499V76.6199H442.95V76.6299Z"
        fill="#333333"
    />
    <path
        d="M453.95 84.6398H453.82C453.78 83.6398 453.4 82.8198 452.68 82.1698C451.96 81.5198 451.11 81.1898 450.11 81.1898H449.33V80.5398H453.95V84.6398ZM454.01 115.42V119.59H449.32V118.94H450.17C451.17 118.94 452.02 118.59 452.74 117.9C453.46 117.21 453.81 116.38 453.81 115.43H454.01V115.42ZM463.19 80.5398V119.59H453.82V80.5398H463.19ZM471.32 80.5398C475.96 80.5398 479.95 81.3098 483.29 82.8498C486.63 84.3898 489.19 86.6198 490.97 89.5498C492.75 92.4798 493.64 95.9798 493.64 100.06C493.64 104.14 492.75 107.63 490.97 110.54C489.19 113.45 486.63 115.68 483.29 117.24C479.95 118.8 475.96 119.58 471.32 119.58H456.87L456.74 116.98H470.54C474.62 116.98 477.84 115.48 480.2 112.49C482.56 109.5 483.75 105.35 483.75 100.06C483.75 94.7698 482.57 90.6098 480.2 87.5998C477.83 84.5798 474.61 83.0798 470.54 83.0798H456.09V80.5398H471.32Z"
        fill="#333333"
    />
    <path
        d="M500.09 80.5398V83.9198H499.96C499.92 83.0998 499.61 82.4198 499.05 81.8998C498.49 81.3798 497.79 81.1198 496.97 81.1198H496.06V80.5298H500.09V80.5398ZM509.33 80.5398V105.07C509.33 109.06 510.25 112.19 512.1 114.44C513.94 116.7 516.51 117.82 519.81 117.82C523.11 117.82 525.89 116.76 527.78 114.63C529.67 112.5 530.63 109.55 530.68 105.78V80.5298H534.97V105.39C534.97 110.03 533.55 113.7 530.71 116.39C527.87 119.08 523.84 120.43 518.64 120.43C512.39 120.43 507.72 119.1 504.62 116.43C501.52 113.76 499.97 110.11 499.97 105.46V80.5398H509.34H509.33ZM513.17 80.5398V81.1298H512.26C511.44 81.1298 510.74 81.3898 510.18 81.9098C509.62 82.4298 509.33 83.0998 509.33 83.9298H509.2V80.5498H513.17V80.5398ZM530.8 80.5398V83.9198H530.67C530.63 83.0998 530.32 82.4198 529.76 81.8998C529.2 81.3798 528.52 81.1198 527.74 81.1198H526.83V80.5298H530.8V80.5398ZM538.81 80.5398V81.1298H537.96C537.14 81.1298 536.43 81.3898 535.84 81.9098C535.25 82.4298 534.96 83.0998 534.96 83.9298H534.83V80.5498H538.8L538.81 80.5398Z"
        fill="#333333"
    />
    <path d="M173.08 5.07007H170.58V121.72H173.08V5.07007Z" fill="#333333" />
</svg>
