<svg width="40" height="40" viewBox="0 0 40 40" fill="none" xmlns="http://www.w3.org/2000/svg">
<g clip-path="url(#clip0_1519_798)">
<path d="M19.9998 40C31.0455 40 39.9998 31.0457 39.9998 20C39.9998 8.95431 31.0455 0 19.9998 0C8.95406 0 -0.000244141 8.95431 -0.000244141 20C-0.000244141 31.0457 8.95406 40 19.9998 40Z" fill="#F0F0F0"/>
<path d="M4.57153 7.2728H35.4284C34.2887 5.89272 32.9668 4.6689 31.5005 3.63647H8.49942C7.0331 4.66874 5.7113 5.89265 4.57153 7.2728V7.2728Z" fill="#F0F0F0"/>
<path d="M-0.000244141 20C-0.000244141 20.6131 0.0288965 21.2192 0.0828809 21.8182H39.9166C39.9706 21.2192 39.9998 20.6131 39.9998 20C39.9998 19.387 39.9706 18.7809 39.9166 18.1819H0.0828809C0.0288965 18.7809 -0.000244141 19.387 -0.000244141 20H-0.000244141Z" fill="#F0F0F0"/>
<path d="M2.18086 29.0908H37.819C38.4079 27.9388 38.8882 26.7223 39.2468 25.4546H0.753052C1.11157 26.7223 1.59204 27.9389 2.18086 29.0908V29.0908Z" fill="#F0F0F0"/>
<path d="M8.49942 36.3636H31.5004C32.9668 35.3312 34.2886 34.1074 35.4283 32.7273H4.57153C5.7113 34.1072 7.0331 35.3312 8.49942 36.3636V36.3636Z" fill="#F0F0F0"/>
<path d="M0.75293 14.5455H39.2468C38.8882 13.2777 38.4079 12.0611 37.8189 10.9092H2.18082C1.59199 12.0611 1.11152 13.2777 0.75293 14.5455V14.5455Z" fill="#F0F0F0"/>
<path d="M9.56506 3.63633H31.5004C28.2472 1.34586 24.2808 0 19.9998 0C17.3912 0 12.8182 1.34586 9.56506 3.63633Z" fill="#D80027"/>
<path d="M19.1304 10.9093H37.819C37.1539 9.60826 36.3506 8.38959 35.4283 7.27295H19.1304V10.9093Z" fill="#D80027"/>
<path d="M19.1304 18.182H39.9168C39.8043 16.9334 39.5782 15.7175 39.2469 14.5457H19.1304V18.182Z" fill="#D80027"/>
<path d="M0.753008 25.4547H39.2468C39.5782 24.283 39.8043 23.067 39.9168 21.8184H0.0830078C0.195508 23.067 0.421602 24.2829 0.753008 25.4547V25.4547Z" fill="#D80027"/>
<path d="M4.57141 32.7271H35.4283C36.3505 31.6104 37.1538 30.3918 37.8189 29.0908H2.18079C2.84586 30.3918 3.64914 31.6105 4.57141 32.7271V32.7271Z" fill="#D80027"/>
<path d="M19.9998 40.0001C24.2808 40.0001 28.2472 38.6542 31.5004 36.3638H8.49927C11.7524 38.6542 15.7188 40.0001 19.9998 40.0001Z" fill="#D80027"/>
<path d="M0.75293 14.5455C0.421523 15.7173 0.195508 16.9332 0.0830078 18.1818H19.9999V0C10.8452 0 3.1273 6.15094 0.75293 14.5455V14.5455Z" fill="#0052B4"/>
<path d="M11.9053 5.21753L13.2002 9.20307H17.3913L14.0008 11.6665L15.2957 15.6523L11.9053 13.189L8.51475 15.6523L9.8099 11.6665L6.41943 9.20307H10.6103L11.9053 5.21753Z" fill="#F0F0F0"/>
</g>
<defs>
<clipPath id="clip0_1519_798">
<rect width="40" height="40" fill="white"/>
</clipPath>
</defs>
</svg>
