<svg width="40" height="40" viewBox="0 0 40 40" fill="none" xmlns="http://www.w3.org/2000/svg">
<g clip-path="url(#clip0_1519_816)">
<path d="M1.98453 11.3043C0.713125 13.9337 0 16.8835 0 20C0 23.1164 0.713125 26.0662 1.98453 28.6956L20 30.4347L38.0155 28.6956C39.2869 26.0662 40 23.1164 40 20C40 16.8835 39.2869 13.9337 38.0155 11.3043L20 9.56519L1.98453 11.3043Z" fill="black"/>
<path d="M1.98535 28.6956C5.2202 35.3855 12.0709 39.9999 20.0001 39.9999C27.9293 39.9999 34.78 35.3855 38.0149 28.6956H1.98535Z" fill="#496E2D"/>
<path d="M1.98535 11.3044H38.0149C34.78 4.61445 27.9293 0 20.0001 0C12.0709 0 5.2202 4.61445 1.98535 11.3044Z" fill="#D80027"/>
<path d="M24.6549 16.3428L26.2959 18.6041L28.9534 17.7424L27.3099 20.0018L28.9506 22.263L26.2941 21.398L24.6505 23.6574L24.6522 20.8636L21.9955 19.9986L24.6531 19.1368L24.6549 16.3428Z" fill="#F0F0F0"/>
<path d="M20.1765 25.6522C17.055 25.6522 14.5243 23.1216 14.5243 20C14.5243 16.8785 17.055 14.3478 20.1765 14.3478C21.1498 14.3478 22.0657 14.5939 22.8652 15.0272C21.6108 13.8006 19.8955 13.0435 18.0026 13.0435C14.1606 13.0435 11.0461 16.158 11.0461 19.9999C11.0461 23.8419 14.1607 26.9564 18.0026 26.9564C19.8956 26.9564 21.6109 26.1993 22.8652 24.9727C22.0656 25.4061 21.1499 25.6522 20.1765 25.6522Z" fill="#F0F0F0"/>
</g>
<defs>
<clipPath id="clip0_1519_816">
<rect width="40" height="40" fill="white"/>
</clipPath>
</defs>
</svg>
