<svg width="40" height="40" viewBox="0 0 40 40" fill="none" xmlns="http://www.w3.org/2000/svg">
<g clip-path="url(#clip0_1519_835)">
<path d="M26.9566 1.24398C24.7899 0.440078 22.4465 0 20.0001 0C17.5537 0 15.2102 0.440078 13.0436 1.24398L11.3044 20L13.0436 38.756C15.2102 39.56 17.5537 40 20.0001 40C22.4465 40 24.7899 39.56 26.9566 38.756L28.6957 20L26.9566 1.24398Z" fill="#FFDA44"/>
<path d="M40.0001 20.0001C40.0001 11.4009 34.5726 4.06992 26.9565 1.24414V38.7562C34.5726 35.9302 40.0001 28.5995 40.0001 20.0001V20.0001Z" fill="#D80027"/>
<path d="M0 20.0001C0 28.5995 5.4275 35.9302 13.0435 38.7562V1.24414C5.4275 4.06992 0 11.4009 0 20.0001V20.0001Z" fill="#6DA544"/>
</g>
<defs>
<clipPath id="clip0_1519_835">
<rect width="40" height="40" fill="white"/>
</clipPath>
</defs>
</svg>
