<svg width="40" height="40" viewBox="0 0 40 40" fill="none" xmlns="http://www.w3.org/2000/svg">
<g clip-path="url(#clip0_1519_840)">
<path d="M2.43176 10.4348L20 12.1739L37.5682 10.4348C34.1761 4.21789 27.5808 0 20 0C12.4191 0 5.82387 4.21789 2.43176 10.4348V10.4348Z" fill="#D80027"/>
<path d="M2.4318 29.5654L20 31.3045L37.5682 29.5654C39.1185 26.7239 40 23.465 40 20.0001L20 18.261L0 20.0001C0 23.465 0.881485 26.7239 2.4318 29.5654Z" fill="#FFDA44"/>
<path d="M2.4318 10.4348C0.881485 13.2763 0 16.5352 0 20.0001H40C40 16.5352 39.1185 13.2763 37.5682 10.4348H20H2.4318Z" fill="#0052B4"/>
<path d="M20 40C27.5808 40 34.1761 35.7821 37.5682 29.5652H2.43176C5.82387 35.7821 12.4191 40 20 40Z" fill="#6DA544"/>
</g>
<defs>
<clipPath id="clip0_1519_840">
<rect width="40" height="40" fill="white"/>
</clipPath>
</defs>
</svg>
