<svg width="40" height="40" viewBox="0 0 40 40" fill="none" xmlns="http://www.w3.org/2000/svg">
<g clip-path="url(#clip0_1519_829)">
<path d="M0 20.0002C0 22.4466 0.440078 24.79 1.24398 26.9566L20 27.8263L38.756 26.9567C39.56 24.79 40 22.4466 40 20.0002C40 17.5538 39.56 15.2103 38.756 13.0437L20 12.1741L1.24398 13.0436C0.440078 15.2103 0 17.5538 0 20.0002H0Z" fill="#D80027"/>
<path d="M19.9999 0C11.4006 0 4.06976 5.4275 1.2439 13.0435H38.756C35.9301 5.4275 28.5992 0 19.9999 0V0Z" fill="black"/>
<path d="M38.7559 26.9565H1.2439C4.06976 34.5725 11.4006 40.0001 19.9999 40.0001C28.5992 40.0001 35.9301 34.5725 38.7559 26.9565Z" fill="#496E2D"/>
<path d="M25.9777 9.56522L23.5352 8.41632L24.8359 6.05077L22.1835 6.55819L21.8475 3.87866L20 5.84937L18.1525 3.87866L17.8164 6.55819L15.1641 6.05077L16.4648 8.41632L14.0222 9.56522H25.9777Z" fill="#D80027"/>
</g>
<defs>
<clipPath id="clip0_1519_829">
<rect width="40" height="40" fill="white"/>
</clipPath>
</defs>
</svg>
