<svg width="40" height="40" viewBox="0 0 40 40" fill="none" xmlns="http://www.w3.org/2000/svg">
<g clip-path="url(#clip0_1519_942)">
<path d="M20.0002 40C31.0459 40 40.0002 31.0457 40.0002 20C40.0002 8.9543 31.0459 0 20.0002 0C8.95455 0 0.000244141 8.9543 0.000244141 20C0.000244141 31.0457 8.95455 40 20.0002 40Z" fill="#F0F0F0"/>
<path d="M5.8578 34.1421C6.69678 34.9811 7.59194 35.7293 8.53092 36.3881L36.3879 8.53105C35.7292 7.59206 34.981 6.6969 34.1419 5.85792C33.3029 5.01894 32.4078 4.27081 31.4688 3.61206L3.61194 31.4691C4.27061 32.4079 5.01881 33.3032 5.8578 34.1421V34.1421Z" fill="#A2001D"/>
<path d="M5.85799 5.85768C-0.451699 12.1674 -1.66295 21.6433 2.22166 29.17L29.1703 2.2215C21.6435 -1.6631 12.1675 -0.451698 5.85799 5.85768V5.85768Z" fill="#0052B4"/>
<path d="M34.1421 34.1422C40.4516 27.8326 41.6629 18.3566 37.7784 10.8298L10.8298 37.7784C18.3565 41.663 27.8325 40.4518 34.1421 34.1422Z" fill="#496E2D"/>
<path d="M16.5217 11.3043L14.2806 12.3585L15.4741 14.5289L13.0405 14.0635L12.7321 16.5217L11.0371 14.7136L9.34202 16.5217L9.03374 14.0635L6.60015 14.5289L7.79351 12.3584L5.55249 11.3043L7.79358 10.2501L6.60015 8.0798L9.03366 8.54527L9.3421 6.08691L11.0371 7.89504L12.7322 6.08691L13.0405 8.54527L15.4741 8.0798L14.2808 10.2502L16.5217 11.3043Z" fill="#FFDA44"/>
</g>
<defs>
<clipPath id="clip0_1519_942">
<rect width="40" height="40" fill="white"/>
</clipPath>
</defs>
</svg>
