<svg width="40" height="40" viewBox="0 0 40 40" fill="none" xmlns="http://www.w3.org/2000/svg">
    <g clip-path="url(#clip0_281_420)">
        <path d="M20.0004 40C31.0461 40 40.0004 31.0457 40.0004 20C40.0004 8.9543 31.0461 0 20.0004 0C8.95467 0 0.000366211 8.9543 0.000366211 20C0.000366211 31.0457 8.95467 40 20.0004 40Z" fill="white" />
        <path d="M0 19.9998C0 28.5992 5.4275 35.93 13.0435 38.7559V1.2439C5.4275 4.06968 0 11.4006 0 19.9998Z" fill="#1B7339" />
        <path d="M40.0002 19.9998C40.0002 11.4006 34.5727 4.06968 26.9567 1.2439V38.756C34.5727 35.93 40.0002 28.5992 40.0002 19.9998Z" fill="#1B7339" />
    </g>
    <defs>
        <clipPath id="clip0_281_420">
            <rect width="40" height="40" fill="white" />
        </clipPath>
    </defs>
</svg>
