<svg viewBox="0 0 24 24" fill="none" xmlns="http://www.w3.org/2000/svg">
    <path
        d="M21.5756 2.42438C21.34 2.18867 21.0458 2.02003 20.7233 1.93583C20.4008 1.85162 20.0617 1.8549 19.7409 1.94531L19.7203 1.95188L1.72873 7.40625C1.36384 7.51209 1.03971 7.72627 0.799277 8.02044C0.558839 8.31461 0.413439 8.67487 0.382334 9.05353C0.351228 9.43218 0.435886 9.81134 0.625094 10.1408C0.814301 10.4703 1.09913 10.7345 1.44186 10.8984L9.28123 14.7188L13.0978 22.5609C13.2483 22.881 13.4871 23.1514 13.786 23.3404C14.0849 23.5294 14.4316 23.6291 14.7853 23.6278C14.8387 23.6278 14.8931 23.6278 14.9475 23.6213C15.3272 23.592 15.6887 23.4469 15.9831 23.2054C16.2776 22.9639 16.4907 22.6378 16.5937 22.2713L22.0481 4.27969C22.0509 4.27301 22.0531 4.26611 22.0547 4.25906C22.1451 3.93827 22.1484 3.59918 22.0642 3.2767C21.98 2.95422 21.8113 2.66001 21.5756 2.42438ZM14.7103 20.7253L11.4881 14.1028L15.8006 9.795C16.012 9.58366 16.1307 9.29701 16.1307 8.99813C16.1307 8.69924 16.012 8.4126 15.8006 8.20125C15.5893 7.98991 15.3026 7.87118 15.0037 7.87118C14.7048 7.87118 14.4182 7.98991 14.2069 8.20125L9.89436 12.5138L3.27467 9.28969L19.6875 4.3125L14.7103 20.7253Z"
    />
</svg>
