<svg viewBox="0 0 40 40" fill="none" xmlns="http://www.w3.org/2000/svg">
    <rect width="40" height="40" rx="20" fill="#E80000" />
    <g clip-path="url(#clip0_1535_667)">
        <path
            fill-rule="evenodd"
            clip-rule="evenodd"
            d="M17.4928 21.7143C17.508 21.7178 17.6363 21.7166 17.7378 21.7213C17.8976 21.7295 18.1251 21.7481 18.4541 21.81C18.7843 21.8718 19.1261 21.9815 19.5461 22.174C20.1435 22.4481 20.8703 22.8448 21.3731 23.2776V21.9616C21.3218 21.8368 20.2753 21.229 20.14 21.1636C19.3268 20.767 18.4086 20.4485 17.4846 20.5488L17.4916 21.7131L17.4928 21.7143Z"
            fill="white"
        />
        <path
            fill-rule="evenodd"
            clip-rule="evenodd"
            d="M24.1895 20.5687C24.3248 20.6341 25.3713 21.2419 25.4215 21.3667V22.6827C24.9187 22.2499 24.1918 21.8532 23.5945 21.5791C23.1745 21.3866 22.8327 21.2769 22.5025 21.2151C22.1723 21.1532 21.946 21.1346 21.7862 21.1264C21.6847 21.1206 21.5563 21.1217 21.5412 21.1194L21.5342 19.9551C22.4582 19.8547 23.3763 20.1732 24.1895 20.5699V20.5687Z"
            fill="white"
        />
        <path
            fill-rule="evenodd"
            clip-rule="evenodd"
            d="M17.5734 17.8597C17.6212 17.8597 17.683 17.8621 17.7379 17.8644C17.8977 17.8726 18.124 17.8912 18.4542 17.9531C18.7844 18.0149 19.1262 18.1246 19.5462 18.3171C20.1435 18.5912 20.8704 18.9879 21.3732 19.4207V18.1047C21.3219 17.9799 20.2754 17.3721 20.14 17.3067C19.3525 16.9229 18.467 16.6114 17.5734 16.6837V17.8586V17.8597Z"
            fill="white"
        />
        <path
            fill-rule="evenodd"
            clip-rule="evenodd"
            d="M18.4541 14.4344C18.7843 14.4962 19.1261 14.6059 19.5461 14.7984C20.1435 15.0725 20.8703 15.4692 21.3731 15.902V14.586C21.3218 14.4612 20.2753 13.8534 20.14 13.788C19.3268 13.3914 18.4086 13.0729 17.4846 13.1732L17.4916 14.3375C17.5056 14.341 17.6351 14.3399 17.7366 14.3445C17.8965 14.3527 18.124 14.3714 18.453 14.4332L18.4541 14.4344Z"
            fill="white"
        />
        <path
            fill-rule="evenodd"
            clip-rule="evenodd"
            d="M17.7401 20.5022V12.7124C17.7518 12.1337 18.2231 11.6694 18.8041 11.6694H19.0153L19.0176 11.5025H17.6911V11.5049L15.7055 11.5084V11.5025H14.3766L14.3801 11.6694H14.589C14.8911 11.6694 15.1665 11.7942 15.359 11.9972C15.5398 12.1839 15.6518 12.437 15.6553 12.7159V16.861L15.401 16.9077C11.2885 17.7174 8.61797 20.7437 9.59681 24.6112C10.0425 26.3717 11.3258 27.6749 12.601 28.7004C19.9521 34.6095 33.9521 29.3292 33.7328 19.3507C33.5683 11.8525 25.2943 7.01203 17.1008 7.93486C11.2313 8.59403 6.53081 12.2072 6.27647 18.3194C6.17731 20.7052 6.65681 22.4914 7.26114 24.3335C6.92747 20.6562 6.18897 18.3707 8.85131 14.1007C9.72514 12.7019 11.537 11.4069 12.986 10.6999C17.6853 8.40386 24.5756 9.36286 28.3685 12.4802C30.129 13.9269 31.6515 15.741 31.8545 18.7615C32.0633 21.8392 30.766 24.2705 29.0825 25.912C27.4573 27.4952 25.1508 28.7155 22.66 29.1869C19.0305 29.8729 14.421 29.0935 12.2148 25.842C9.56064 21.9279 12.3198 18.5515 15.4021 18.5795L15.6565 18.5854V22.7469C15.6565 23.3337 15.5608 23.9287 15.3625 24.4677C15.0603 25.3054 14.5131 26.0077 13.7116 26.332V26.4814C14.9308 26.5665 16.0776 26.0917 16.8313 25.2424C17.1953 24.8364 17.466 24.3452 17.6153 23.7864C17.6993 23.476 17.7425 23.1435 17.7425 22.7959V21.6864"
            fill="white"
        />
        <path
            fill-rule="evenodd"
            clip-rule="evenodd"
            d="M22.5025 17.4828C22.8326 17.5447 23.1745 17.6543 23.5945 17.8468C24.1918 18.121 24.9186 18.5177 25.4215 18.9505V17.6345C25.3701 17.5097 24.3236 16.9018 24.1883 16.8365C23.3751 16.4398 22.457 16.1213 21.533 16.2217L21.54 17.386C21.554 17.3895 21.6835 17.3883 21.785 17.393C21.9448 17.4012 22.1723 17.4198 22.5013 17.4817L22.5025 17.4828Z"
            fill="white"
        />
        <path
            fill-rule="evenodd"
            clip-rule="evenodd"
            d="M21.5411 24.9156C21.5563 24.9191 21.6846 24.9179 21.7861 24.9226C21.946 24.9308 22.1735 24.9494 22.5025 25.0113C22.8326 25.0731 23.1745 25.1828 23.5945 25.3753C24.1918 25.6494 24.9186 26.0461 25.4215 26.4789V25.1629C25.3701 25.0381 24.3236 24.4303 24.1883 24.3649C23.3751 23.9683 22.457 23.6498 21.533 23.7501L21.54 24.9144L21.5411 24.9156Z"
            fill="white"
        />
    </g>
    <defs>
        <clipPath id="clip0_1535_667">
            <rect width="28" height="24.5" fill="white" transform="translate(6 7.25)" />
        </clipPath>
    </defs>
</svg>
