<svg width="40" height="40" viewBox="0 0 40 40" fill="none" xmlns="http://www.w3.org/2000/svg">
<g clip-path="url(#clip0_1519_974)">
<path d="M0 20.0001C0 23.465 0.881485 26.7239 2.4318 29.5654L20 31.3045L37.5682 29.5654C39.1185 26.7239 40 23.465 40 20.0001L20 18.261L0 20.0001Z" fill="#FFDA44"/>
<path d="M37.5682 10.4348C34.1761 4.21789 27.5809 0 20 0C12.4191 0 5.82391 4.21789 2.4318 10.4348C0.881484 13.2763 0 16.5352 0 20H40C40 16.5352 39.1185 13.2763 37.5682 10.4348Z" fill="#338AF3"/>
<path d="M20 39.9999C27.5808 39.9999 34.1761 35.7821 37.5682 29.5652H2.43176C5.82387 35.7821 12.4191 39.9999 20 39.9999Z" fill="#496E2D"/>
<path d="M22.6088 11.7047L25.0514 12.8537L23.7507 15.2193L26.4031 14.712L26.7392 17.3913L28.5865 15.4207L30.434 17.3913L30.77 14.712L33.4224 15.2192L32.1217 12.8536L34.5642 11.7047L32.1217 10.5559L33.4224 8.19026L30.7701 8.69761L30.4339 6.01831L28.5865 7.98894L26.7391 6.01831L26.4031 8.69761L23.7506 8.19026L25.0513 10.556L22.6088 11.7047Z" fill="#FFDA44"/>
</g>
<defs>
<clipPath id="clip0_1519_974">
<rect width="40" height="40" fill="white"/>
</clipPath>
</defs>
</svg>
