<svg width="40" height="40" viewBox="0 0 40 40" fill="none" xmlns="http://www.w3.org/2000/svg">
<g clip-path="url(#clip0_1519_987)">
<path d="M20.0002 39.9998C31.0459 39.9998 40.0003 31.0454 40.0003 19.9998C40.0003 8.95406 31.0459 -0.000244141 20.0002 -0.000244141C8.95455 -0.000244141 0.000244141 8.95406 0.000244141 19.9998C0.000244141 31.0454 8.95455 39.9998 20.0002 39.9998Z" fill="#F0F0F0"/>
<path d="M33.5006 5.24508C29.9428 1.98789 25.2037 0 19.9999 0C19.148 0 18.3086 0.0536719 17.4847 0.157031L7.82602 11.3044L0.632812 25.0102C1.0975 26.8119 1.80797 28.5145 2.72461 30.0819L19.9999 20L33.5006 5.24508Z" fill="#FFDA44"/>
<path d="M36.6508 31.0811L8.66895 36.4811C11.89 38.6999 15.7929 40 20 40C26.9469 40 33.0656 36.4575 36.6508 31.0811V31.0811Z" fill="#6DA544"/>
<path d="M33.5035 5.24756L2.73608 30.1011C3.54085 31.4736 4.50437 32.7416 5.60179 33.8798L40 19.9998C40 14.1593 37.496 8.90397 33.5035 5.24756V5.24756Z" fill="#D80027"/>
<path d="M0 20C0 21.7302 0.219844 23.409 0.632891 25.0102L17.4848 0.156982C7.62641 1.39401 0 9.8062 0 20Z" fill="#0052B4"/>
</g>
<defs>
<clipPath id="clip0_1519_987">
<rect width="40" height="40" fill="white"/>
</clipPath>
</defs>
</svg>
