<svg width="40" height="40" viewBox="0 0 40 40" fill="none" xmlns="http://www.w3.org/2000/svg">
<g clip-path="url(#clip0_1519_1200)">
<path d="M-27.8667 0H52.1333V40H-27.8667V0Z" fill="#012169"/>
<path d="M-27.8667 0L12.1333 20ZM12.1333 0L-27.8667 20Z" fill="black"/>
<path d="M-27.8667 0L12.1333 20M12.1333 0L-27.8667 20" stroke="white" stroke-width="4"/>
<mask id="mask0_1519_1200" style="mask-type:luminance" maskUnits="userSpaceOnUse" x="-28" y="0" width="47" height="24">
<path d="M-27.8667 0V10H18.8V20H12.1333L-27.8667 0ZM12.1333 0H-7.8667V23.3333H-27.8667V20L12.1333 0Z" fill="white"/>
</mask>
<g mask="url(#mask0_1519_1200)">
<path d="M-27.8667 0L12.1333 20ZM12.1333 0L-27.8667 20Z" fill="black"/>
<path d="M-27.8667 0L12.1333 20M12.1333 0L-27.8667 20" stroke="#C8102E" stroke-width="2.66667"/>
</g>
<path d="M-7.8667 0V23.3333ZM-27.8667 10H18.8Z" fill="black"/>
<path d="M-7.8667 0V23.3333M-27.8667 10H18.8" stroke="white" stroke-width="6.66667"/>
<path d="M-7.8667 0V23.3333ZM-27.8667 10H18.8Z" fill="black"/>
<path d="M-7.8667 0V23.3333M-27.8667 10H18.8" stroke="#C8102E" stroke-width="4"/>
<path d="M-27.8667 20H12.1333V0H52.1333V40H-27.8667V20Z" fill="#012169"/>
<path d="M38.765 17.134C38.7522 21.6572 38.033 26.5303 32.1335 28.8514C26.2336 26.5303 25.5145 21.6572 25.5017 17.1339L38.765 17.134Z" fill="#128BBF"/>
<path d="M32.1334 28.8515C34.8079 27.7993 36.4645 26.0823 37.4264 24.2513C37.2747 24.2002 36.9727 24.1955 36.8504 24.2394C36.7053 24.2301 31.1469 23.8205 30.4942 23.5829C29.9263 23.3763 27.7597 23.7585 26.7484 24.1172C27.6919 26.0647 29.3261 27.747 32.1334 28.8515Z" fill="#E8ECE9"/>
<path d="M28.0105 26.0474C28.1006 26.0183 28.2727 26.0252 28.3406 26.0374C28.4204 26.0518 28.4349 26.059 28.4639 25.9726C28.4929 25.8862 28.5583 25.9078 28.609 25.951C28.6598 25.9942 28.7901 25.9726 28.8409 25.9006C28.8917 25.8289 28.9063 25.8361 28.957 25.8862C29.0078 25.9366 29.0295 25.9222 29.0803 25.9078C29.1311 25.8937 29.2182 25.8361 29.2617 25.7569C29.3053 25.6776 29.3703 25.6489 29.4066 25.692C29.4429 25.7352 29.4791 25.7569 29.5299 25.7497C29.5807 25.7425 29.5953 25.7929 29.5879 25.8574C29.5807 25.9222 29.6097 25.9366 29.7331 25.8361C29.8419 25.9438 29.8779 25.9006 29.8779 25.7857C29.8779 25.6704 29.8491 25.2459 29.8056 25.1883C29.7621 25.1307 29.7185 24.965 29.7113 24.8354C29.6976 24.5909 29.6968 24.5765 29.3993 24.4252C29.3993 24.3388 29.3775 24.3028 29.1674 24.3172C29.1747 24.2884 29.1384 24.202 29.0949 24.166C29.0513 24.13 29.0441 24.1156 29.0659 24.0151C29.1529 24.0223 29.2472 24.0079 29.298 23.9359C29.3485 23.8639 29.5154 23.8782 29.617 23.9215C29.7185 23.9647 29.8491 23.9719 30.0448 23.9431C30.1173 23.8854 30.2407 23.8206 30.3713 23.7486C30.5016 23.6766 30.5379 23.6478 30.5451 23.547C30.5638 23.2886 30.4726 22.9928 30.4 22.8563C30.3277 22.7195 30.306 22.5466 30.2044 22.3306C30.0939 22.0955 30.0955 22.0356 29.9722 21.8916C29.9385 21.852 29.8997 21.8196 29.8924 21.7407C29.8851 21.6615 29.8561 21.5535 29.7693 21.4743C29.55 21.2745 29.4647 20.632 29.3775 20.157C29.3275 19.8848 29.3631 19.2431 29.2472 19.1423C29.0513 18.9838 28.957 19.0127 28.8264 18.9623C28.7321 18.8326 28.6888 18.5736 28.6017 18.3432C28.4639 18.3648 28.3696 18.5089 28.2753 18.5592C28.1809 18.6097 28.1665 18.6097 28.1665 18.7393C28.1665 18.8686 28.0939 19.0486 27.9635 19.2503C27.8329 19.4516 27.6153 19.3943 27.4342 19.6965C27.0351 19.2143 27.0279 19.0775 26.9989 18.9406C26.9698 18.8041 26.9045 18.7753 26.6799 18.5809C26.6799 18.5233 26.6509 18.2931 26.6727 18.1635C26.5057 18.0267 26.3824 18.0483 26.3029 18.1491C26.2231 18.2499 26.165 18.4009 26.0417 18.4584C25.9677 18.5517 25.7447 18.7872 25.5623 19.0675C25.7283 21.5723 26.2979 24.0589 28.0105 26.0474Z" fill="#69522B"/>
<path d="M38.765 17.134C38.77 15.4301 38.6746 13.7759 38.7181 12.3263C36.5135 11.3472 33.6128 11.1459 32.1334 11.1459C30.6538 11.1459 27.753 11.3472 25.5485 12.3263C25.592 13.7759 25.4968 15.4301 25.5016 17.1339L38.765 17.134Z" fill="#BCA76B"/>
<path d="M25.8602 19.1061C25.9328 19.2213 26.0634 19.4193 26.0779 19.5271C26.1287 19.4227 26.1686 19.3761 26.1795 19.3113C26.1904 19.2465 26.2666 19.1205 26.2375 19.0521C26.2085 18.9837 26.1868 18.9297 26.2666 18.9801C26.3461 19.0305 26.3308 19.1177 26.3134 19.2465C26.2666 19.5991 26.1178 19.6711 26.0961 19.9087C26.3101 20.4089 26.1505 20.5889 26.3824 21.0783C26.4186 21.0999 26.5155 21.0615 26.5445 21.0687C26.6676 20.9822 26.7597 21.0135 26.9335 21.0495C27.1076 21.0855 27.202 21.2077 27.202 21.3157C27.202 21.4237 27.202 21.4525 27.2382 21.5173C27.2745 21.5821 27.3471 21.6829 27.3326 21.7549C27.318 21.8267 27.3471 21.8699 27.3688 21.9059C27.3906 21.9419 27.3616 22.0211 27.3398 22.0715C27.318 22.1219 27.3253 22.1867 27.4124 22.2947C27.4994 22.4025 27.7024 22.8561 27.7024 23.1223C27.7024 23.3887 27.7168 23.5111 27.8257 23.5613C27.9345 23.6117 27.9708 23.6549 27.9563 23.7701C27.9418 23.8853 28.007 24.4827 28.0216 24.5763C28.0361 24.6699 28.0724 24.6483 28.1159 24.6987C28.1592 24.7489 28.1882 24.8065 28.3332 24.8065C28.4784 24.8065 28.6185 24.7873 28.7128 24.8018C28.8434 24.9818 28.9232 25.2263 28.9522 25.3775C28.9812 25.5288 28.9788 25.7351 29.0296 25.7351C29.0803 25.7351 29.1311 25.7423 29.1166 25.5551C29.1021 25.3678 29.0876 25.3391 29.0223 25.2457C28.957 25.1521 28.9207 25.1089 28.957 25.0513C28.9932 24.9937 29.0005 24.9001 28.986 24.8281C28.9715 24.7561 28.9497 24.6483 29.073 24.7921C29.1964 24.9361 29.2327 24.9721 29.269 25.0225C29.3052 25.0729 29.3195 25.1665 29.3125 25.2529C29.3052 25.3391 29.3195 25.3751 29.3702 25.3319C29.421 25.2889 29.4864 25.3607 29.4573 25.4543C29.4283 25.5479 29.4646 25.6055 29.5516 25.6343C29.6387 25.6631 29.675 25.6847 29.6968 25.7495C29.7185 25.8143 29.7911 25.8429 29.7911 25.7135C29.7911 25.5839 29.7403 25.3102 29.704 25.2241C29.6678 25.1377 29.6387 24.9505 29.6314 24.8425C29.6242 24.7345 29.6024 24.7059 29.5516 24.6843C29.5008 24.6627 29.4573 24.6267 29.4501 24.5763C29.4428 24.5259 29.3993 24.5079 29.3666 24.5079C29.334 24.5079 29.3053 24.4827 29.2871 24.4467C29.269 24.4107 29.2508 24.4071 29.2146 24.4035C29.1783 24.3999 29.1202 24.4215 29.1021 24.3639C29.084 24.3063 29.0586 24.2235 29.0223 24.1767C28.986 24.1299 28.9534 24.1155 28.9497 23.9537C28.9461 23.7917 28.9424 23.7701 28.8917 23.7125C28.8409 23.6549 28.7538 23.5039 28.7176 23.4391C28.6816 23.3743 28.6452 23.3095 28.6452 23.4463C28.6452 23.5829 28.6452 23.6549 28.732 23.7053C28.8191 23.7557 28.8409 23.7557 28.8046 23.8277C28.7683 23.8997 28.8046 23.9501 28.8191 24.0005C28.8336 24.0509 28.8626 24.1013 28.8191 24.1515C28.7756 24.2019 28.732 24.1875 28.7393 24.1085C28.7466 24.0293 28.7176 23.9357 28.6816 23.8709C28.6452 23.8061 28.6162 23.7629 28.5727 23.7989C28.5292 23.8349 28.4929 23.7917 28.5219 23.7629C28.551 23.7341 28.5437 23.7125 28.5219 23.6909C28.5002 23.6693 28.4929 23.6477 28.5292 23.6045C28.5654 23.5613 28.5654 23.5397 28.5437 23.4391C28.5219 23.3383 28.3623 22.8345 28.2897 22.7193C28.2172 22.6041 28.2244 22.5177 28.3188 22.6329C28.4131 22.7481 28.4929 22.8489 28.5001 22.9422C28.5074 23.0359 28.5292 23.0935 28.5582 23.1295C28.5872 23.1655 28.609 23.1511 28.6235 23.0719C28.638 22.9927 28.696 23.0215 28.5945 22.8705C28.4929 22.7193 28.3042 22.4673 28.2317 22.0139C28.1592 21.5605 28.1301 21.2581 28.0576 21.1359C27.9853 21.0135 27.9636 20.9847 27.9562 20.8695C27.949 20.7543 27.9562 20.6391 27.9055 20.5529C27.8547 20.4665 27.8184 20.4521 27.8112 20.5817C27.8039 20.7111 27.8184 20.9991 27.8547 21.0495C27.891 21.0999 27.8692 21.2293 27.862 21.3013C27.8546 21.3733 27.7406 21.4445 27.978 21.5893C28.0724 21.6469 28.0576 21.7261 28.0434 21.7766C28.0288 21.8267 28.0143 21.8195 27.9635 21.7406C27.9128 21.6613 27.862 21.5965 27.8112 21.5533C27.7604 21.5101 27.7532 21.4813 27.7604 21.3805C27.7676 21.2797 27.7894 21.2077 27.7604 21.1719C27.7314 21.1359 27.7168 21.1647 27.7024 21.2221C27.6878 21.2797 27.6733 21.4381 27.6443 21.4813C27.6152 21.5245 27.6008 21.4957 27.579 21.4021C27.5572 21.3085 27.5863 21.1647 27.637 20.9991C27.6878 20.8335 27.7168 20.6607 27.6733 20.4449C27.6298 20.2289 27.6516 20.1641 27.4846 19.9843C27.318 19.8043 27.1294 19.6315 27.0496 19.4085C26.9698 19.1853 26.9553 18.9909 26.8682 18.8901C26.7814 18.7895 26.6581 18.6599 26.5782 18.6239V18.293C26.5782 18.2137 26.542 18.1633 26.4477 18.1777C26.3534 18.1921 26.2953 18.2713 26.2376 18.3791C26.1796 18.4871 26.136 18.4367 26.0562 18.6239C25.9764 18.8111 25.8602 18.9045 25.8602 19.1061Z" fill="#CFA763"/>
<path d="M26.3824 21.215C26.4404 21.251 26.496 21.2751 26.583 21.2318C26.6701 21.1886 26.7742 21.064 26.8902 21.1865C27.0061 21.3086 27.0714 21.5102 27.0714 21.6686C27.0714 21.8268 27.0714 22.122 27.2528 22.2876C27.4341 22.453 27.5282 22.6258 27.5354 22.8418C27.5428 23.0576 27.6225 23.3888 27.6443 23.4752C27.666 23.5614 27.7168 23.6622 27.7749 23.7198C27.8329 23.7774 27.8764 23.943 27.8837 24.1156C27.891 24.2884 27.862 24.4108 27.8837 24.4972C27.9055 24.5836 27.8837 24.6556 27.8184 24.6124C27.7531 24.5692 27.7386 24.5476 27.7024 24.4756C27.666 24.4036 27.6225 24.418 27.6588 24.526C27.6951 24.634 27.8039 24.7346 27.8982 24.7346C27.9926 24.7346 28.0216 24.749 28.0796 24.8066C28.1374 24.8642 28.1446 24.893 28.2462 24.893C28.3478 24.893 28.3623 24.893 28.4566 24.9218C28.551 24.9506 28.551 24.9362 28.6017 24.9218C28.6525 24.9074 28.703 24.9506 28.7393 25.0442C28.7756 25.1378 28.8626 25.3968 28.8626 25.4688C28.8626 25.5408 28.8626 25.6128 28.9134 25.6848C28.9642 25.7568 28.9497 25.8288 28.8917 25.7856C28.8336 25.7424 28.8336 25.7568 28.7901 25.764C28.7466 25.7712 28.7176 25.7496 28.6598 25.7136C28.6018 25.6776 28.638 25.6848 28.58 25.5984C28.522 25.512 28.4856 25.4832 28.4856 25.548C28.4856 25.6128 28.4784 25.692 28.4348 25.656C28.3913 25.62 28.3695 25.62 28.3333 25.656C28.297 25.692 28.2825 25.7208 28.239 25.6488C28.1954 25.5768 28.1446 25.5768 28.1011 25.5624C28.0576 25.548 28.0576 25.548 28.0361 25.4832C28.0143 25.4184 27.949 25.404 27.891 25.404C27.833 25.404 27.8039 25.3752 27.7966 25.332C27.7894 25.289 27.7531 25.2602 27.7241 25.2386C27.6951 25.217 27.7096 25.1666 27.7023 25.1162C27.6951 25.0658 27.6516 25.0874 27.6225 25.073C27.5935 25.0586 27.5717 25.0658 27.5717 24.9938C27.5717 24.9218 27.5427 24.9002 27.521 24.8498C27.4994 24.7994 27.521 24.749 27.5354 24.6916C27.55 24.634 27.5428 24.598 27.4994 24.5476C27.4559 24.4972 27.4922 24.4468 27.3761 24.346C27.26 24.2452 27.202 24.3316 27.1657 24.0942C27.1294 23.8566 27.0568 23.3672 26.9916 23.288C26.9262 23.2088 26.883 23.1512 26.8177 23.1296C26.7524 23.108 26.7089 23.1224 26.7016 22.9856C26.6944 22.849 26.6508 22.6762 26.5638 22.5898C26.4767 22.5034 26.4404 22.4746 26.3969 22.4386C26.3534 22.4026 26.3389 22.3378 26.3969 22.2156C26.4549 22.0932 26.4332 21.9276 26.4259 21.8484C26.4186 21.7694 26.3969 21.6686 26.4114 21.5822C26.4259 21.4958 26.4186 21.3878 26.3969 21.3302C26.3751 21.2726 26.3461 21.2582 26.3824 21.215Z" fill="#CFA763"/>
<path d="M28.5872 25.1522C28.5437 25.2386 28.4929 25.2098 28.4494 25.1666C28.4058 25.1234 28.355 25.1234 28.3768 25.0442C28.3986 24.965 28.3913 24.9506 28.3333 24.9074C28.3266 24.9024 28.3199 24.898 28.3132 24.8935C28.295 24.893 28.2738 24.893 28.2462 24.893C28.1446 24.893 28.1374 24.8642 28.0796 24.8066C28.0682 24.7953 28.0563 24.7845 28.0439 24.7744C28.0428 24.7883 28.0434 24.8066 28.0434 24.8282C28.0434 24.9074 28.0434 24.893 27.9636 24.9146C27.8838 24.9362 27.8982 24.8354 27.8838 24.7706C27.8807 24.7573 27.8765 24.7444 27.8712 24.7318C27.7838 24.7152 27.6918 24.6238 27.6588 24.526C27.6226 24.418 27.6661 24.4036 27.7024 24.4756C27.7386 24.5476 27.7532 24.5692 27.8184 24.6124C27.8838 24.6556 27.9055 24.5836 27.8838 24.4972C27.8768 24.4695 27.8751 24.4374 27.8759 24.4017C27.8603 24.3737 27.8391 24.351 27.8112 24.3388C27.6951 24.2884 27.7314 24.274 27.7386 24.1804C27.7459 24.087 27.7241 24.087 27.6516 24.1372C27.579 24.1876 27.5718 24.13 27.5718 23.9862C27.5718 23.8422 27.4774 23.8422 27.456 23.943C27.4342 24.0438 27.3979 23.979 27.3544 23.835C27.3108 23.691 27.2528 23.655 27.2456 23.7918C27.2394 23.9076 27.207 23.9353 27.1311 23.871C27.1445 23.9546 27.1562 24.0328 27.1658 24.0942C27.202 24.3316 27.26 24.2452 27.3762 24.346C27.4922 24.4468 27.456 24.4972 27.4995 24.5476C27.5427 24.598 27.55 24.634 27.5355 24.6916C27.521 24.749 27.4995 24.7994 27.521 24.8498C27.5427 24.9002 27.5718 24.9218 27.5718 24.9938C27.5718 25.0658 27.5935 25.0586 27.6226 25.073C27.6407 25.0819 27.6641 25.0769 27.6812 25.0841C27.6998 25.0597 27.7168 25.0298 27.7386 25.0082C27.8257 24.9218 27.9563 25.0154 27.9998 25.1234C28.0434 25.2314 28.0938 25.2602 28.1592 25.1738C28.2245 25.0874 28.2027 25.1018 28.2752 25.181C28.3478 25.2602 28.3768 25.2458 28.3768 25.2458C28.3768 25.2458 28.4494 25.217 28.5002 25.2602C28.551 25.3034 28.58 25.2962 28.674 25.1594C28.7684 25.0226 28.6308 25.0658 28.5872 25.1522Z" fill="#D7C99C"/>
<path d="M28.6525 26.1597C28.8263 26.1453 29.2979 26.0085 29.3485 25.9653C29.4645 26.0445 29.6677 26.1525 29.7548 26.1525C29.5879 26.1885 29.4791 26.1669 29.4355 26.1381C29.4573 26.1885 29.5153 26.2677 29.5516 26.2749C29.392 26.2677 29.2109 26.2317 29.1529 26.1741C29.015 26.2317 28.7829 26.2461 28.6525 26.1597ZM28.9642 26.3758C29.0259 26.3938 29.3339 26.4442 29.3739 26.4442C29.2723 26.5303 29.3593 26.6131 29.5299 26.5987C29.4464 26.6095 29.3555 26.6408 29.4174 26.6527C29.5661 26.6815 29.9685 26.5735 30.0483 26.5303C29.9105 26.7067 29.2399 26.8687 28.9642 26.3758ZM29.2399 26.8147C29.3231 26.7715 29.5299 26.7859 29.6278 26.8327C29.5189 26.8723 29.3052 26.8723 29.2399 26.8147Z" fill="#7FB8C1"/>
<path d="M29.5516 26.8075C29.7004 26.7823 30.121 26.8831 30.2696 26.7931C30.2189 26.9263 29.954 26.9444 29.8634 26.9155C29.773 26.8867 29.6859 26.8507 29.6242 26.8543C29.6569 26.8363 29.6024 26.8327 29.5516 26.8075ZM29.704 27.0128C29.8165 27.0305 30.2189 26.9804 30.3422 26.9335C30.4726 26.9768 30.7301 27.0448 30.7882 27.0377C30.6648 27.1133 30.429 27.0701 30.3531 27.0377C30.1354 27.1097 29.9577 27.1313 29.704 27.0128Z" fill="#7FB8C1"/>
<path d="M29.8962 27.0801C30.0572 27.1161 30.1945 27.0903 30.353 27.0377C30.4023 27.0587 30.5187 27.0845 30.6281 27.0793C30.701 27.1205 30.7989 27.1781 30.8933 27.1853C30.7953 27.2249 30.4361 27.1853 30.3639 27.1457C30.1825 27.1493 29.8705 27.1889 29.7946 27.2501C29.791 27.1997 29.8239 27.1297 29.8962 27.0801V27.0801ZM29.7039 26.2677C29.8295 26.3093 30.2841 26.2893 30.5159 26.1813C30.6075 26.1387 30.6641 26.2101 30.5595 26.2461C30.1825 26.3758 29.885 26.4261 29.6677 26.3109C29.5817 26.2656 29.5733 26.2245 29.7039 26.2677ZM31.9303 25.656C31.3719 25.9149 31.0018 25.9941 30.226 25.7568C30.1537 25.7346 30.1027 25.7568 30.1825 25.8072C30.2623 25.8573 30.6901 25.9725 30.7917 25.9797C30.8933 25.9869 30.857 26.0337 30.7953 26.0517C30.7337 26.0697 30.7155 26.1129 30.7989 26.0805C30.8824 26.0481 31.3484 26.0359 31.5387 26.1345C31.6219 26.1777 31.6437 26.1705 31.6364 26.1381C31.6291 26.1057 31.6727 26.0841 31.7344 26.0769C31.796 26.0697 31.8323 26.0481 31.7851 26.0301C31.7379 26.0121 31.7307 26.0013 31.767 25.9833C31.8033 25.9653 31.8069 25.9473 31.7525 25.9365C31.6981 25.9257 31.6618 25.9113 31.7126 25.8861C31.7633 25.8612 31.8395 25.8429 31.8976 25.836C31.9121 25.7964 31.8867 25.692 31.9303 25.656Z" fill="#7FB8C1"/>
<path d="M31.0018 25.7208C31.3211 25.7432 31.9085 25.5983 32.2205 25.2961C32.329 25.3607 32.4814 25.4327 32.5612 25.4471C32.641 25.4615 32.7136 25.5335 32.5902 25.5335C32.4669 25.5335 32.2928 25.4831 32.2132 25.4471C31.7997 25.6991 31.3158 25.782 31.0091 25.7568C30.9223 25.7496 30.9006 25.7135 31.0018 25.7208ZM30.4978 24.8209C30.4549 24.8284 30.2696 24.8713 30.2188 24.8677C30.168 24.8641 30.1172 24.8785 30.1208 24.9145C30.1245 24.9505 30.139 24.9721 30.0628 24.9649C29.9866 24.9577 29.9213 24.9865 29.9032 25.0081C29.885 25.0297 29.8705 25.0513 29.9467 25.0585C30.0229 25.0657 30.0628 25.0729 30.1499 25.0333C30.237 24.9937 30.3204 24.9325 30.4147 24.9289C30.5087 24.9253 30.6031 24.8029 30.4978 24.8209Z" fill="#7FB8C1"/>
<path d="M30.237 25.0441C30.3162 25.0951 30.7084 25.2278 30.8498 25.217C30.9913 25.2062 30.9648 25.2732 30.8571 25.2962C30.6358 25.3427 30.3656 25.2472 30.1825 25.1017C30.0919 25.0297 30.1753 25.0045 30.237 25.0441Z" fill="#7FB8C1"/>
<path d="M32.0935 25.2349C31.7935 25.3299 31.488 25.2961 31.3646 25.2637C31.2413 25.2313 31.1288 25.2241 31.2122 25.3033C31.2957 25.3822 31.5642 25.4362 31.7162 25.3966C31.176 25.519 31.0345 25.5082 30.9006 25.4866C30.7663 25.465 30.5143 25.4698 30.4074 25.4794C30.3276 25.4866 30.2188 25.4758 30.1716 25.447C30.1245 25.4182 30.11 25.3642 30.2514 25.3786C30.3926 25.393 30.4111 25.3642 30.2878 25.3462C30.1644 25.3282 29.9939 25.3786 30.1608 25.483C30.3276 25.5874 30.6938 25.4758 30.926 25.5406C31.1578 25.6054 31.651 25.6522 32.1189 25.2778C32.1429 25.2587 32.1842 25.2061 32.0935 25.2349ZM31.3936 24.936C31.332 24.9396 31.2232 24.9 31.1651 24.8748C31.1071 24.8496 31.0239 24.846 31.0856 24.9288C31.1469 25.0116 31.4154 25.0584 31.5098 25.0188C31.604 24.9792 31.5642 24.936 31.6582 24.9936C31.7525 25.0512 31.8504 25.0908 31.9194 25.0908C31.9883 25.0908 32.0137 25.0908 31.9375 25.0476C31.8614 25.0044 31.8251 24.9936 31.8178 24.9576C31.8105 24.9216 31.7997 24.9 31.8686 24.9216C31.9375 24.9432 32.0173 24.9828 32.0718 24.954C32.1262 24.9252 32.2275 24.8604 32.3182 24.8604L32.3399 24.8064C32.2093 24.7956 32.1262 24.8352 32.0899 24.8496C32.0536 24.864 31.9883 24.8712 31.9194 24.8604C31.8504 24.8496 31.7598 24.8424 31.738 24.8244C31.7162 24.8064 31.7162 24.792 31.7743 24.7812C31.8323 24.7704 31.8504 24.7308 31.7706 24.7452C31.6908 24.7596 31.4771 24.7524 31.3646 24.7164C31.2522 24.6807 31.205 24.6771 31.1578 24.6948C31.1107 24.7128 31.118 24.7632 31.1868 24.7668C31.2558 24.7704 31.4118 24.7848 31.4662 24.8352C31.5206 24.8856 31.5134 24.8892 31.4517 24.864C31.39 24.8388 31.2775 24.8532 31.3936 24.936ZM34.0188 24.7416C33.8014 24.9 33.5401 24.936 33.2284 24.9576C33.1378 24.964 33.1656 24.9895 33.243 24.9972C33.5692 25.0296 33.9465 24.9108 34.0696 24.7812C34.1052 24.7438 34.1014 24.6818 34.0188 24.7416ZM32.5358 25.1089C32.6302 25.1125 32.9564 25.1953 33.0616 25.2313C33.1414 25.2241 33.1632 25.2061 33.1486 25.1773C33.1341 25.1485 33.1233 25.1161 33.2684 25.1233C33.4132 25.1305 33.747 25.1269 33.8086 25.1269C33.8594 25.1052 33.9716 25.0189 34.0224 25.0152C33.892 25.0224 33.3482 25.0512 33.2792 25.044C33.2103 25.0368 33.174 25.044 33.1306 25.0692C33.087 25.0944 33.0616 25.1052 33.0072 25.0836C32.9528 25.062 32.8548 25.0332 32.8006 25.0656C32.7462 25.098 32.6338 25.0692 32.5358 25.1088V25.1089Z" fill="#7FB8C1"/>
<path d="M33.8087 25.1269C33.8595 25.1053 33.9716 25.0189 34.0224 25.0153C34.1167 25.0081 34.2255 25.0477 34.2764 25.0549C34.3271 25.0621 34.3815 25.0513 34.3453 25.0117C34.309 24.9721 34.3417 24.9037 34.4904 24.9217C34.6389 24.9397 34.7151 24.9649 34.8601 24.9505C35.0053 24.9361 35.0705 25.0441 35.346 24.9361C35.3242 25.0441 35.375 25.0513 35.4258 25.0297C35.4766 25.0081 35.5346 25.0153 35.6217 25.0801C35.7087 25.1449 36.2381 25.1521 36.3615 25.1305C36.4845 25.1089 36.5499 25.1737 36.4555 25.2025C36.3615 25.2313 36.3395 25.2745 36.3615 25.3033C36.3829 25.3319 36.4047 25.3679 36.2889 25.3535C36.1729 25.3391 36.1511 25.3751 36.093 25.4183C36.035 25.4615 36.0205 25.4759 35.8609 25.4471C35.7015 25.4183 35.6725 25.4399 35.5854 25.4543C35.4983 25.4687 35.4766 25.4687 35.3895 25.4399C35.3025 25.4111 35.1141 25.3823 34.998 25.4183C34.8819 25.4543 34.7949 25.4903 34.6933 25.4615C34.5917 25.4327 34.5844 25.4471 34.6497 25.3823C34.7151 25.3175 34.7295 25.3247 34.8529 25.3103C34.9762 25.2961 35.0705 25.2601 34.9835 25.2097C34.8964 25.1593 34.8674 25.1665 34.7513 25.2241C34.6352 25.2817 34.5772 25.3175 34.4469 25.2457C34.3162 25.1737 34.2509 25.1881 34.1639 25.2097C34.0768 25.2313 33.932 25.1809 33.8087 25.1269ZM34.2437 25.3426C34.0777 25.3662 34.0331 25.2601 33.8595 25.2817C33.8014 25.2889 33.7035 25.3607 33.8377 25.3499C33.9717 25.3391 34.1167 25.4111 34.2473 25.4003C34.3779 25.3895 34.3199 25.3318 34.2437 25.3426ZM34.0514 25.4687C34.1387 25.4371 34.3199 25.4975 34.3961 25.4831C34.4723 25.4687 34.5448 25.5155 34.465 25.5407C34.3852 25.5659 34.1929 25.4939 34.1059 25.5191C34.0188 25.5443 33.932 25.5119 34.0514 25.4687ZM32.3182 25.9329C32.4379 25.9367 32.8693 25.9185 33.0399 25.5587C33.0529 25.531 33.0652 25.5191 33.1197 25.5551C33.1741 25.5911 33.3736 25.7099 33.747 25.7423C33.8517 25.7515 33.9647 25.8035 33.7543 25.7891C33.5438 25.7747 33.2103 25.7171 33.0979 25.6487C32.9092 25.9437 32.5705 25.9785 32.3182 25.9725C32.1661 25.9689 32.2024 25.9293 32.3182 25.9329Z" fill="#7FB8C1"/>
<path d="M33.2503 25.4435C33.1923 25.5227 32.9927 25.6595 32.9021 25.6667C32.8117 25.6739 32.5395 25.6487 32.4706 25.6235C32.4017 25.5983 32.3183 25.6055 32.4162 25.6739C32.5142 25.7423 32.7572 25.7891 32.8549 25.7675C32.9529 25.7459 33.0653 25.7135 33.1415 25.7603C33.2177 25.8071 33.3591 25.8969 33.4423 25.8789C33.5257 25.8611 33.6963 25.8611 33.7507 25.8861C33.8051 25.9113 33.8994 25.9869 33.7579 25.9437C33.6165 25.9005 33.5003 25.9365 33.4351 25.9077C33.5076 26.0085 33.6723 26.1705 33.8124 26.1705C33.845 26.1705 33.8667 26.2281 33.7978 26.2605C33.8667 26.2929 34.0261 26.3181 34.1095 26.2425C34.0878 26.2713 34.0987 26.2893 34.1349 26.3073C34.1712 26.3253 34.2147 26.3505 34.1495 26.3577C34.0841 26.3649 33.9357 26.3829 33.8921 26.3649C34.0333 26.4547 34.3997 26.5987 34.7731 26.5267C34.8443 26.5131 34.882 26.4837 34.7659 26.4871C34.5265 26.4943 34.5122 26.4907 34.4687 26.4657C34.4251 26.4403 34.4324 26.4189 34.5013 26.3973C34.57 26.3757 34.7441 26.3505 34.8167 26.3505C34.8892 26.3505 34.9618 26.3217 34.8131 26.3217C34.6643 26.3217 34.4832 26.3217 34.4107 26.2965C34.3381 26.2713 34.2837 26.2389 34.3599 26.1885C34.4361 26.1381 34.5159 26.1525 34.5521 26.1057C34.3127 26.1021 34.0188 25.9761 34.1821 25.8611C34.2201 25.8343 34.2075 25.8323 34.1458 25.8251C34.0841 25.8179 33.9031 25.7675 33.8269 25.7243C33.7507 25.6811 33.8015 25.6451 33.8631 25.6343C33.7217 25.6595 33.4387 25.5839 33.2503 25.4435ZM35.3787 25.4363C35.2481 25.5335 35.0017 25.5731 34.8965 25.5731C34.7913 25.5731 34.7768 25.6091 34.8602 25.6199C34.9437 25.6307 35.0343 25.6415 35.0706 25.6307C35.1069 25.6199 35.1286 25.6163 35.1828 25.6415C35.2372 25.6667 35.3533 25.6811 35.4549 25.6487C35.5565 25.6163 35.7231 25.6019 35.792 25.6055C35.8609 25.6091 35.9371 25.6127 35.7993 25.5731C35.6617 25.5335 35.4367 25.5623 35.3823 25.5767C35.3279 25.5911 35.1792 25.5803 35.259 25.5551C35.3388 25.5299 35.4077 25.4903 35.4477 25.4579C35.4186 25.4507 35.4005 25.4435 35.3787 25.4363ZM35.3098 25.7171C35.1973 25.7999 35.0343 25.8789 34.8675 25.8861C35.0198 25.9401 35.1468 26.0949 35.2445 26.0877C35.1973 26.1165 35.1395 26.1597 35.0779 26.1669C35.1722 26.1921 35.3315 26.1633 35.4621 26.0913C35.6798 26.1525 35.9625 26.1129 36.0568 26.0337C35.9153 26.0337 35.7451 25.9833 35.6689 25.9185C35.7379 25.9185 35.8029 25.8753 35.8355 25.8359C35.6725 25.8645 35.3932 25.7855 35.3098 25.7171Z" fill="#7FB8C1"/>
<path d="M35.0778 26.1669C35.1394 26.1597 35.1972 26.1165 35.2444 26.0877C35.125 26.1273 34.6026 26.0445 34.4468 25.9077C34.2908 25.7712 34.2908 25.8753 34.3996 25.9725C34.5085 26.0697 34.7005 26.2173 35.0778 26.1669ZM35.462 26.4979C35.3967 26.5339 35.085 26.5555 34.9834 26.5339C34.8819 26.5123 34.8384 26.5231 34.8638 26.5627C34.8891 26.6023 34.9 26.6383 34.8166 26.6275C34.7332 26.6167 34.5844 26.6347 34.523 26.6563C34.4613 26.6779 34.3852 26.7319 34.5157 26.7103C34.6461 26.6887 34.7658 26.6635 34.8637 26.6887C34.9617 26.7139 35.3097 26.7211 35.3786 26.6923C35.4475 26.6635 35.4004 26.6635 35.3677 26.6635C35.335 26.6635 35.3206 26.6419 35.3677 26.6203C35.4149 26.5987 35.4512 26.5375 35.462 26.4979ZM32.4452 26.0805C32.3145 26.1381 31.8795 26.2533 31.7634 26.2605C31.6183 26.3253 31.5025 26.3614 31.4299 26.3614C31.4807 26.4046 31.6763 26.4475 31.7562 26.4262C31.7126 26.4691 31.6113 26.5195 31.575 26.5411C31.6908 26.5267 31.8287 26.5555 31.8868 26.5627C31.7344 26.6491 31.5242 26.6779 31.4154 26.6635C31.4517 26.7139 31.5025 26.7643 31.5678 26.7643C31.4299 26.8003 31.2631 26.8003 31.176 26.7715C31.2122 26.8435 31.2486 26.8867 31.2993 26.8939C31.1832 26.9083 31.0381 26.9299 30.915 26.8579C31.0091 26.9804 31.2195 27.0232 31.5315 26.9876C31.8432 26.9516 32.1044 26.8147 32.177 26.7571C32.0463 26.7715 31.8722 26.7787 31.7852 26.7643C31.9593 26.7211 32.3363 26.5627 32.4016 26.4979C32.329 26.4979 32.2568 26.4763 32.2057 26.4403C32.3073 26.4547 32.6628 26.4118 32.7716 26.3686C32.641 26.3398 32.5612 26.2606 32.525 26.2101C32.9818 26.3541 33.4902 26.307 33.736 26.2461C33.7941 26.2317 33.8011 26.1586 33.6853 26.1669C33.4821 26.1813 33.0906 26.1237 32.989 26.0733C33.0834 26.1453 33.1994 26.1885 33.2792 26.2029C33.0906 26.2533 32.8297 26.2893 32.4452 26.0805Z" fill="#7FB8C1"/>
<path d="M31.575 26.5411C31.6113 26.5195 31.7126 26.4691 31.7562 26.4262C31.6763 26.4475 31.4807 26.4046 31.4299 26.3614C31.5025 26.3614 31.6183 26.3254 31.7634 26.2605C31.5025 26.2533 31.3211 26.2533 31.2268 26.2029C31.1324 26.1525 30.9586 26.1669 30.8933 26.1813C30.828 26.1957 30.8498 26.3037 31.1252 26.2749C31.0091 26.3542 30.6974 26.3829 30.5813 26.3542C30.6103 26.4475 30.6321 26.5411 30.6031 26.5915C30.7554 26.6779 31.1542 26.7859 31.3501 26.7715C31.176 26.7067 31.0816 26.6347 31.2268 26.6203C31.3719 26.6059 31.4517 26.5771 31.575 26.5411ZM31.1252 27.0092C31.4724 26.9804 31.9372 26.9742 32.3073 26.6635C32.4016 26.5843 32.465 26.6108 32.3726 26.6923C32.177 26.8651 31.6908 27.1025 31.2268 27.1096C31.0378 27.1127 30.9514 27.0232 31.1252 27.0092ZM33.7252 26.4403C33.6381 26.4727 33.395 26.5123 33.3228 26.5015C33.2502 26.4907 33.145 26.4871 33.087 26.5231C33.029 26.5591 33.0253 26.5807 33.1051 26.5879C33.1849 26.5951 33.2865 26.6023 33.3373 26.5987C33.272 26.6347 33.2284 26.6851 33.214 26.7067C33.33 26.6779 33.5438 26.7283 33.6054 26.7643C33.5583 26.7787 33.5039 26.7607 33.464 26.7391C33.6599 26.9444 34.24 26.9444 34.3344 26.9083C34.2908 26.9407 34.2509 26.9732 34.2074 26.984C34.3707 27.0128 34.559 27.0092 34.744 26.9011C34.6824 26.9119 34.4976 26.8939 34.4504 26.8903C34.4903 26.8519 34.5386 26.8235 34.5916 26.8075C34.5194 26.7931 34.2908 26.8003 34.2364 26.8291C34.2582 26.7859 34.2981 26.7319 34.3416 26.7139C34.055 26.7139 33.707 26.7103 33.5801 26.6419C33.7832 26.6635 34.0081 26.5447 34.1022 26.5447C33.9428 26.5411 33.7687 26.5051 33.7252 26.4403ZM32.9963 26.5986C32.8548 26.6275 32.641 26.6851 32.583 26.7175C32.525 26.7499 32.4633 26.7679 32.5903 26.7679C32.7172 26.7679 33.0616 26.7823 33.1378 26.7931C32.9455 26.7643 32.6846 26.7571 32.6338 26.7571C32.583 26.7571 32.525 26.7535 32.6193 26.7247C32.7136 26.6959 32.837 26.631 32.9963 26.5986ZM32.71 26.9335C32.7605 26.9335 32.9818 26.9335 33.0688 26.8579C33.1595 26.9263 33.3336 27.0232 33.4458 27.0232C33.5583 27.0232 33.5474 27.0521 33.4494 27.0629C33.3518 27.0737 33.1595 27.0164 33.0616 26.9444C32.931 26.9912 32.8224 26.9516 32.71 26.9335ZM31.0312 27.9015C31.2558 27.9879 31.5532 28.0527 31.7706 27.9807C31.894 28.0887 32.148 28.0959 32.2855 28.0671C32.4234 28.0383 32.5467 28.0239 32.6991 28.0743C32.8512 28.1247 33.1631 28.1283 33.2502 28.2C33.1704 28.204 32.9999 28.2 32.96 28.2112C32.92 28.2216 32.9418 28.2468 33.0144 28.2865C32.768 28.2721 32.3436 28.3765 32.2132 28.4881C32.2601 28.3765 32.4052 28.2252 32.6338 28.2252C32.5032 28.1788 32.0863 28.1752 31.952 28.2577C31.9122 28.2144 31.865 28.1427 31.8614 28.1139C31.6403 28.2396 31.205 28.0599 31.0312 27.9015ZM30.4543 27.4985C30.722 27.4606 30.9042 27.3761 30.984 27.2969C31.0312 27.3401 31.2268 27.3833 31.4408 27.3185C31.3973 27.3509 31.3936 27.4121 31.4118 27.4445C31.2703 27.4481 31.0018 27.5165 30.9114 27.5634C30.8208 27.6098 30.5559 27.6423 30.4691 27.5954C30.382 27.5489 30.3784 27.5093 30.4543 27.4985Z" fill="#7FB8C1"/>
<path d="M31.4118 27.4445C31.2704 27.4481 31.0019 27.5165 30.9115 27.5634C30.9296 27.5994 30.9405 27.6567 30.9442 27.6963C31.2051 27.6026 31.8034 27.5453 32.0319 27.5814C31.9231 27.5886 31.7163 27.6999 31.6005 27.7143C31.8832 27.6927 32.1589 27.7503 32.2312 27.7683C32.3037 27.7863 32.3182 27.8403 32.2638 27.8907C32.2094 27.9411 32.1843 27.9483 32.3001 27.9519C32.4162 27.9555 32.6556 27.9411 32.7644 27.8367C32.7209 27.7899 32.6084 27.8079 32.5758 27.7755C32.652 27.7503 32.7391 27.6963 32.7717 27.6567C32.5758 27.6531 32.5032 27.6495 32.438 27.635C32.3726 27.621 32.3255 27.6026 32.4053 27.5597C32.4851 27.5165 32.5214 27.4805 32.5468 27.4517C32.4053 27.4913 32.1843 27.5237 31.9993 27.3797C32.0682 27.3977 32.2312 27.3869 32.2892 27.3617C32.2276 27.3293 32.177 27.3041 32.1262 27.3041C32.2747 27.2321 32.5686 27.1673 32.931 27.3113C33.1124 27.2969 33.3084 27.3041 33.4459 27.3401C33.5039 27.2825 33.6272 27.1457 33.6926 27.1097C33.2648 27.1457 32.496 27.0665 32.5106 26.8435C32.3726 27.0232 32.0537 27.1241 31.9158 27.0953C31.9013 27.1601 31.9594 27.2393 32.0102 27.2825C31.865 27.3113 31.6184 27.3329 31.5026 27.3113C31.5679 27.3761 31.6909 27.4337 31.7634 27.4265C31.6114 27.4265 31.5316 27.4553 31.4118 27.4445Z" fill="#7FB8C1"/>
<path d="M32.3 27.952C32.4162 27.9555 32.6556 27.9411 32.7644 27.8366C32.7209 27.7899 32.6084 27.8079 32.5758 27.7755C32.652 27.7503 32.7391 27.6963 32.7717 27.6567C33.0762 27.6318 33.3482 27.6462 33.4786 27.6066C33.6092 27.567 33.9429 27.5886 34.0082 27.5706C33.718 27.617 33.66 27.6423 33.6454 27.6891C33.6309 27.7359 33.7398 27.7755 33.8087 27.7755C33.678 27.7683 33.5148 27.9051 33.5003 27.9591C33.3265 27.8583 33.243 27.9771 33.2249 28.0167C33.1524 27.9879 32.9129 27.9951 32.7896 28.0995C32.6302 28.0527 32.525 28.0275 32.3654 28.0527C32.4634 28.0311 32.4452 27.9663 32.3 27.9519V27.952ZM33.6926 27.1097C33.7906 27.1061 34.0043 27.1169 34.0805 27.1061C34.0297 27.1313 33.9647 27.1781 33.9502 27.1997C34.1966 27.1709 34.5337 27.1529 34.6316 27.1673C34.5122 27.1493 34.3888 27.2249 34.3272 27.2645C34.2655 27.3041 34.3018 27.3293 34.3852 27.3401C34.4686 27.3509 34.5812 27.4157 34.4288 27.3941C34.2764 27.3725 33.9756 27.3725 33.903 27.3833C33.8304 27.3941 33.7906 27.3581 33.8957 27.3437C34.001 27.3293 34.0732 27.2933 34.124 27.2645C34.037 27.2861 33.8704 27.2861 33.8196 27.2717C33.7688 27.2573 33.7361 27.2285 33.7942 27.2141C33.8522 27.1997 33.8123 27.1781 33.7506 27.1853C33.689 27.1925 33.533 27.2573 33.446 27.3401C33.5402 27.2429 33.6236 27.1565 33.6926 27.1097ZM32.5867 27.2717C32.7064 27.4049 32.8476 27.4805 33.0725 27.4877C33.1197 27.4891 33.2076 27.552 33.0943 27.5562C32.7896 27.567 32.6375 27.4949 32.5032 27.3005C32.4756 27.2606 32.5267 27.205 32.5867 27.2717ZM36.4519 25.6343C36.3615 25.6955 36.2418 25.8036 36.3213 25.9545C36.3308 25.9495 36.3398 25.9437 36.349 25.9384C36.6958 25.5214 37.0032 25.0731 37.2674 24.5993C37.2704 24.5833 37.2732 24.568 37.2752 24.5548C37.1736 24.6412 37.014 24.7273 36.9486 24.7489C36.9922 24.8641 36.7893 25.0153 36.6805 25.0585C36.724 25.1305 36.7095 25.2385 36.6152 25.2602C36.637 25.3247 36.5644 25.3247 36.4773 25.3607C36.3902 25.3967 36.3467 25.4255 36.318 25.4687C36.3648 25.4435 36.4302 25.4219 36.4664 25.4327C36.5027 25.4435 36.51 25.4975 36.4447 25.5119C36.3794 25.5263 36.3361 25.5623 36.314 25.5911C36.4084 25.5551 36.5426 25.5731 36.4519 25.6343ZM30.0592 23.9933C30.1681 24.069 30.3604 24.1946 30.6104 24.1766C30.7337 24.274 30.926 24.3567 31.013 24.3747C30.8462 24.4431 30.6648 24.5007 30.6177 24.5547C30.5414 24.4827 30.4438 24.4935 30.4184 24.4575C30.3458 24.5152 30.3567 24.5512 30.4039 24.58C30.451 24.6088 30.8172 24.67 30.9079 24.6448C30.9986 24.6196 31.0228 24.6941 30.9478 24.7201C30.7519 24.7885 30.3712 24.7237 30.2406 24.5152C30.11 24.3063 29.9976 24.2271 29.6424 24.4179C29.6024 24.3171 29.6024 24.2919 29.5335 24.2919C29.4646 24.2919 29.3376 24.2019 29.4355 24.2055C29.5335 24.2091 29.8237 24.1659 30.0592 23.9934V23.9933Z" fill="#7FB8C1"/>
<path d="M30.1462 24.4574C30.0857 24.4724 29.9141 24.5654 29.8527 24.5727C29.791 24.5799 29.6822 24.6663 29.7947 24.6699C29.9068 24.6735 30.0519 24.5511 30.1317 24.5403C30.2115 24.5295 30.2188 24.4394 30.1462 24.4574ZM30.6212 24.7956C30.6321 24.8316 30.6321 24.8712 30.6212 24.8964C30.6103 24.9216 30.6103 24.954 30.6575 24.918C30.7046 24.882 30.7337 24.8388 30.7808 24.864C30.828 24.8892 30.9477 24.8856 31.0018 24.8784C31.0565 24.8712 31.0744 24.8604 30.9949 24.828C30.915 24.7956 30.8352 24.7848 30.7917 24.7884C30.7481 24.792 30.6937 24.7812 30.6575 24.7668C30.6212 24.7524 30.6103 24.7596 30.6212 24.7956ZM32.3399 24.8064L32.3182 24.8604C32.4524 24.8568 32.7788 24.8892 32.8838 24.954C32.9853 24.8748 32.9672 24.8496 33.0398 24.864C33.1124 24.8784 33.203 24.9036 33.243 24.882C33.2829 24.8604 33.3119 24.864 33.3554 24.8712C33.3987 24.8784 33.493 24.8604 33.5474 24.828C33.6018 24.7956 33.7143 24.7524 33.7795 24.7524C33.8449 24.7524 33.9244 24.738 33.805 24.72C33.6853 24.702 33.5039 24.738 33.4422 24.7596C33.3808 24.7812 33.1958 24.7956 33.0869 24.7956C32.9781 24.7956 32.8296 24.8496 32.7063 24.8172C32.5829 24.7848 32.4125 24.8064 32.3399 24.8064ZM34.4033 24.756C34.5635 24.8311 34.8855 24.8964 35.1358 24.8856C35.1794 24.8837 35.2669 24.93 35.1573 24.9396C34.8746 24.9648 34.6206 24.9255 34.3852 24.7956C34.3198 24.7596 34.3416 24.7272 34.4033 24.756ZM34.5666 24.7524C34.813 24.7452 34.9979 24.7488 35.0741 24.8208C35.2153 24.7776 35.4693 24.7524 35.5274 24.7632C35.5854 24.774 35.6507 24.7488 35.5164 24.7164C35.3822 24.6843 35.0705 24.6735 34.9725 24.6915C34.8745 24.7092 34.5699 24.72 34.4685 24.7092C34.5121 24.7164 34.5408 24.7236 34.5666 24.7524ZM35.5237 24.8496C35.6398 24.7884 35.9733 24.846 36.0748 24.8028C36.0023 24.8892 36.307 24.8964 36.5715 24.828C36.4699 24.8928 36.2526 24.9036 36.1582 24.9432C36.064 24.9828 36.0131 24.954 35.9406 24.9216C35.8681 24.8892 35.6833 24.8244 35.5237 24.8496Z" fill="#7FB8C1"/>
<path d="M36.5715 24.828C36.307 24.8964 36.0022 24.8892 36.0749 24.8028C35.9733 24.846 35.6397 24.7884 35.5237 24.8496C35.6434 24.7776 35.7341 24.8352 35.8209 24.6876C35.8753 24.6987 36.0022 24.7059 36.0458 24.6483C36.122 24.6663 36.2562 24.6987 36.2961 24.738C36.336 24.7776 36.3975 24.7272 36.3466 24.6663C36.4663 24.6231 36.3904 24.7175 36.6695 24.6483C36.7275 24.6339 36.869 24.6087 36.9161 24.6051C36.8219 24.6807 36.7094 24.7632 36.5715 24.828Z" fill="#7FB8C1"/>
<path d="M38.765 17.134C38.7522 21.6572 38.033 26.5303 32.1335 28.8514C26.2336 26.5303 25.5145 21.6572 25.5017 17.1339L38.765 17.134Z" stroke="black" stroke-width="0.133333"/>
<path d="M28.1301 19.1685C28.0319 19.294 27.9272 19.3989 27.7919 19.4948C27.6565 19.5908 27.4824 19.6676 27.5789 19.8307C27.6758 19.9938 27.7531 20.0132 27.7723 20.1378C27.7919 20.2625 27.8209 20.3682 27.9175 20.397C28.0143 20.4256 28.0528 20.4065 28.0528 20.6081C28.0528 20.8097 28.0528 20.8864 28.1399 20.9632C28.2269 21.0398 28.2172 21.1166 28.2559 21.2992C28.2945 21.4814 28.2945 21.8749 28.4106 22.1436C28.5266 22.4122 28.7879 22.921 28.7588 23.0265C28.7298 23.132 28.691 23.2088 28.8071 23.3334C28.9232 23.4583 29.0005 23.6405 29.0103 23.746C29.0197 23.8518 29.0393 23.89 29.1551 23.8518C29.2711 23.8134 29.3292 23.7748 29.368 23.7269C29.4065 23.679 29.4838 23.6887 29.5904 23.746C29.6967 23.8036 29.8611 23.8612 29.9577 23.8036C30.0545 23.746 30.1027 23.6599 30.1898 23.6599C30.3251 23.5638 30.3735 23.3622 30.4025 23.3048C30.4315 23.2472 30.4123 23.2472 30.3542 23.1896C30.2962 23.132 30.3252 23.0359 30.3154 22.9401C30.3059 22.844 30.2671 22.7002 30.1511 22.4889C30.0352 22.2779 29.9674 22.0186 29.8901 21.9516C29.8128 21.8843 29.774 21.7212 29.7643 21.6445C29.7548 21.5678 29.6677 21.5005 29.6096 21.4428C29.5516 21.3855 29.4936 21.2991 29.4261 20.9632C29.3582 20.6272 29.3099 20.3874 29.3099 20.3298C29.3099 20.2722 29.3002 20.2624 29.2421 20.2434C29.1841 20.2242 29.1551 20.1282 29.1746 20.0802C29.1939 20.0323 29.1551 19.9844 29.1358 19.9268C29.1166 19.8692 29.1358 19.7636 29.1746 19.7061C29.2131 19.6484 29.2037 19.4853 29.1649 19.351C29.1261 19.2167 29.0875 19.1014 28.9327 19.0821C28.7781 19.063 28.7491 19.0248 28.691 18.8998C28.633 18.7752 28.5749 18.5545 28.5557 18.5063C28.5364 18.4583 28.5074 18.4486 28.3913 18.5448C28.2753 18.6406 28.2367 18.6724 28.2367 18.8519C28.2367 18.9671 28.256 19.0054 28.2945 19.0726C28.3333 19.1397 28.343 19.159 28.3721 19.3413C28.4011 19.5236 28.5654 19.8116 28.3525 19.9747C28.1399 20.1378 28.1689 20.1763 28.1787 20.2913C28.1881 20.4065 28.1207 20.4832 28.0818 20.3201C28.0433 20.157 28.0818 20.0611 28.1979 19.9844C28.3139 19.9074 28.4203 19.8116 28.343 19.706C28.2655 19.6006 28.2367 19.351 28.2269 19.2358C28.2171 19.1206 28.1979 19.0821 28.1301 19.1684V19.1685Z" fill="#CFA763"/>
<path d="M26.4075 21.6154C26.4022 21.6935 26.4198 21.7794 26.4259 21.8483C26.4332 21.9275 26.455 22.0932 26.3969 22.2156C26.3389 22.3377 26.3534 22.4025 26.3969 22.4385C26.3994 22.4405 26.4016 22.4424 26.4039 22.4443C26.5222 22.405 26.5376 22.274 26.5057 22.2106C26.472 22.1436 26.4817 22.0619 26.5202 21.9948C26.559 21.9275 26.559 21.8893 26.5252 21.8411C26.4912 21.7932 26.4912 21.7932 26.53 21.6589C26.564 21.5406 26.4781 21.5414 26.4075 21.6154ZM27.6443 23.4752C27.6225 23.3888 27.5427 23.0575 27.5354 22.8418C27.5282 22.6258 27.4341 22.4529 27.2528 22.2876C27.1113 22.1582 27.0803 21.9505 27.0736 21.7902C26.9673 21.7256 26.9223 21.755 26.9313 21.8748C26.9408 22.0042 27.0714 22.0668 27.0521 22.2538C27.0328 22.441 27.0328 22.3931 27.1247 22.4842C27.2165 22.5753 27.2502 22.6618 27.202 22.7002C27.1537 22.7384 27.1487 22.8058 27.2165 22.8296C27.284 22.8536 27.289 22.9257 27.2793 22.9927C27.2695 23.06 27.3326 23.0744 27.3711 23.1223C27.4099 23.1702 27.4146 23.2854 27.3761 23.3528C27.3373 23.4198 27.3326 23.5253 27.4001 23.468C27.4679 23.4104 27.497 23.463 27.55 23.5541C27.596 23.6328 27.6345 23.6081 27.6845 23.5843C27.6676 23.5493 27.6542 23.5128 27.6443 23.4752ZM27.0786 19.4781C27.0069 19.4834 26.9578 19.5457 26.9988 19.7636C27.0245 19.8985 26.9215 19.8692 26.883 19.8018C26.8442 19.7348 26.8152 19.5908 26.7379 19.4659C26.6603 19.3412 26.6991 19.5523 26.6896 19.6676C26.6798 19.7828 26.7572 19.7828 26.825 19.8786C26.8925 19.9747 26.8344 20.0132 26.7572 20.0132C26.6798 20.0132 26.7186 20.1666 26.7379 20.2722C26.7572 20.3776 26.7186 20.397 26.6603 20.3106C26.6026 20.2242 26.6411 20.0899 26.6508 19.9268C26.6603 19.7636 26.6701 19.8018 26.5638 19.7636C26.4574 19.7252 26.4767 19.706 26.5155 19.61C26.554 19.5141 26.5928 19.466 26.5445 19.418C26.496 19.3701 26.5057 19.3413 26.583 19.3316C26.6604 19.3222 26.6316 19.2646 26.6991 19.2452C26.7669 19.2261 26.796 19.2549 26.8054 19.1302C26.8135 19.0261 26.8487 18.9621 26.9274 18.9937C26.9748 19.154 27.0365 19.4036 27.0786 19.4781ZM28.8459 21.203C28.8746 20.992 28.8554 20.781 28.9424 20.7039C29.0295 20.6272 29.1358 20.4738 29.1261 20.8C29.1166 21.1263 29.1068 21.1072 29.0393 21.1839C28.9715 21.2606 28.9134 21.2797 28.9813 21.4046C29.0488 21.5292 29.0586 21.539 29.0488 21.7309C29.0393 21.9228 29.0393 21.9996 29.1166 22.0956C29.1939 22.1914 29.2132 22.2012 29.2327 22.3067C29.252 22.4122 29.3195 22.5562 29.4066 22.6329C29.4936 22.7096 29.5904 22.9304 29.5999 23.0841C29.6097 23.2375 29.745 23.276 29.8706 23.3816C29.9965 23.4871 29.8419 23.5638 29.745 23.5159C29.6485 23.4679 29.687 23.5159 29.629 23.5829C29.5709 23.6502 29.5516 23.6599 29.5034 23.5447C29.4551 23.4294 29.2904 23.3527 29.2132 23.324C29.1358 23.2952 29.0683 23.1702 29.0005 23.0456C28.9425 22.9384 28.8275 22.86 28.7226 22.852C28.7516 22.9329 28.7672 22.9963 28.7588 23.0265C28.7298 23.132 28.691 23.2087 28.8071 23.3334C28.9232 23.4582 29.0005 23.6405 29.0103 23.746C29.0198 23.8518 29.0393 23.89 29.1551 23.8518C29.2712 23.8133 29.3292 23.7748 29.368 23.7269C29.4066 23.679 29.4838 23.6887 29.5904 23.746C29.6968 23.8036 29.8611 23.8612 29.9577 23.8036C30.0545 23.746 30.1028 23.6599 30.1898 23.6599C30.3252 23.5638 30.3735 23.3622 30.4025 23.3048C30.4315 23.2472 30.4122 23.2472 30.3542 23.1896C30.2962 23.132 30.3252 23.0359 30.3154 22.9401C30.306 22.844 30.2672 22.7002 30.151 22.4889C30.0352 22.2779 29.9674 22.0186 29.8902 21.9516C29.8128 21.8843 29.774 21.7212 29.7643 21.6445C29.7548 21.5678 29.6678 21.5005 29.6096 21.4428C29.5516 21.3855 29.4936 21.2991 29.4261 20.9632C29.373 20.7006 29.332 20.497 29.3167 20.3929C29.2472 20.5029 29.1998 20.5297 29.1747 20.4544C29.1456 20.3682 29.1068 20.32 29.0683 20.3777C29.0295 20.4353 29.0198 20.3297 29.0198 20.2818C29.0198 20.2336 29.0103 20.2242 28.9618 20.2242C28.9134 20.2242 28.9522 20.1476 28.9327 20.0035C28.9134 19.8595 28.8844 19.8404 28.8652 20.0132C28.8459 20.1857 28.7491 20.2912 28.7878 20.3298C28.8264 20.3682 28.8072 20.445 28.7683 20.5602C28.7298 20.6751 28.7491 20.7424 28.7781 20.8191C28.8071 20.8958 28.7588 21.0399 28.7393 21.1648C28.72 21.2894 28.8169 21.4141 28.846 21.203H28.8459ZM28.0528 20.6081C28.0528 20.8097 28.0528 20.8864 28.1399 20.9632C28.227 21.0398 28.2172 21.1166 28.256 21.2991C28.2945 21.4814 28.2945 21.8749 28.4106 22.1436C28.4452 22.2236 28.4929 22.3252 28.5418 22.431C28.6059 22.3809 28.6618 22.2948 28.6816 22.249C28.7102 22.1818 28.6235 22.0474 28.5557 21.9325C28.4882 21.8173 28.5654 21.7788 28.633 21.6348C28.7008 21.491 28.6235 21.4814 28.5172 21.4428C28.4106 21.4046 28.4106 21.3085 28.3525 21.1551C28.2945 21.0016 28.3042 20.9344 28.343 20.848C28.3816 20.7615 28.3526 20.6945 28.2752 20.6751C28.1979 20.656 28.2172 20.5984 28.2462 20.5026C28.2752 20.4064 28.2945 20.3874 28.1787 20.4162C28.0908 20.4378 28.0696 20.4541 28.0434 20.4857C28.0498 20.5134 28.0528 20.5519 28.0528 20.6081Z" fill="#D7C99C"/>
<path d="M29.8796 20.53L29.6478 23.0657M30.5738 22.0833C30.4792 22.5122 30.3544 22.9995 30.228 23.4126M33.6076 20.8623C33.7834 21.0256 34.0195 21.0638 34.2808 21.1906M34.7718 21.9836L34.6432 22.9606M34.6462 22.0268L34.4157 23.0299M30.4222 22.1136C30.3133 22.5306 30.1676 22.9108 30.0278 23.2968" stroke="black" stroke-width="0.0333333"/>
<path d="M35.4522 24.4723C35.4459 24.4742 35.4394 24.4756 35.4329 24.4765C35.426 24.4776 35.4189 24.4783 35.4116 24.4788L35.3895 24.4803C35.3822 24.4807 35.3749 24.4813 35.3676 24.482C35.3606 24.4829 35.3537 24.4838 35.3473 24.4853C35.3412 24.4865 35.3352 24.4885 35.3295 24.491C35.3243 24.4934 35.3196 24.4967 35.3155 24.5007C35.3114 24.5048 35.3083 24.5097 35.3064 24.5151C35.3007 24.523 35.2945 24.5305 35.2879 24.5376L35.2777 24.5486C35.2706 24.5561 35.2636 24.5636 35.2567 24.5712L35.2467 24.5831C35.2435 24.5872 35.2404 24.5915 35.2374 24.5958C35.2344 24.6002 35.2317 24.6047 35.2292 24.6094C35.1776 24.6515 35.1153 24.6782 35.0492 24.6865C35.0019 24.6996 34.8904 24.7029 34.8435 24.6865C34.7529 24.6877 34.6579 24.6811 34.6035 24.6436C34.5398 24.6108 34.4568 24.6323 34.4064 24.6608C34.3661 24.6834 34.3583 24.7249 34.312 24.7379C34.2844 24.7745 34.1618 24.7702 34.1149 24.755C34.0081 24.7619 33.9428 24.7273 33.8663 24.7037C33.816 24.6679 33.7352 24.6418 33.6778 24.6951C33.6419 24.7334 33.5929 24.7588 33.5321 24.7722C33.4275 24.768 33.3091 24.7858 33.2321 24.7465C33.1463 24.7393 33.1136 24.6924 33.035 24.6694C32.9452 24.6542 32.9037 24.7008 32.8464 24.7208C32.7952 24.7634 32.7226 24.768 32.6322 24.7637C32.5388 24.7598 32.4252 24.7762 32.3665 24.7379C32.2908 24.7295 32.2422 24.686 32.1865 24.6608C32.1315 24.6174 32.0289 24.6628 31.9808 24.6865C31.8985 24.6993 31.8677 24.7636 31.764 24.755C31.6796 24.7447 31.622 24.7101 31.5437 24.6865C31.47 24.6536 31.4038 24.6021 31.2866 24.6094C31.2516 24.6556 31.1761 24.6749 31.0985 24.6779C31.0289 24.6788 30.9601 24.6789 30.9095 24.6608C30.7694 24.6566 30.702 24.5092 30.6007 24.4305L30.0939 23.9281C30.123 23.8383 30.1333 23.8227 30.0867 23.764C30.1059 23.6745 30.0447 23.6622 30.0695 23.5724C30.1075 23.5035 30.0012 23.5155 29.9752 23.4782C29.9144 23.4663 29.8886 23.4217 29.8295 23.401C29.7815 23.3676 29.7352 23.3453 29.6753 23.3153C29.6228 23.2937 29.5774 23.2646 29.5295 23.2383C29.4935 23.2057 29.4456 23.185 29.4096 23.1525C29.3628 23.131 29.3247 23.1026 29.2895 23.0755C29.2403 23.0599 29.2164 23.0232 29.1694 22.9983C29.1355 22.9665 29.0806 22.9394 29.0409 22.9126C28.9784 22.892 28.9215 22.8513 28.8523 22.8356C28.8054 22.8338 28.791 22.729 28.8776 22.7326C28.9395 22.7346 28.9776 22.7738 29.0238 22.8012C29.0967 22.8312 29.1679 22.8627 29.2552 22.8784C29.3057 22.9083 29.3509 22.9241 29.4095 22.9469C29.4601 22.9861 29.5268 22.993 29.5895 23.0326C29.6478 23.0591 29.7174 23.0906 29.7524 23.1183C29.802 23.1393 29.8276 23.1752 29.8811 23.1953C29.8994 23.2177 29.9373 23.2279 29.9668 23.2554C30.0193 23.275 30.0665 23.2975 30.1039 23.3239C30.1528 23.3559 30.1797 23.3595 30.2153 23.3925C30.2595 23.4062 30.5383 23.5464 30.5242 23.5299C30.7987 23.5826 30.92 23.5993 31.196 23.6386L33.1978 23.6701L33.9235 23.3669L34.144 23.0178L35.2168 22.8217C35.1965 22.8 37.0997 22.7548 37.1398 22.9145C37.1568 22.9819 37.2083 23.1173 37.1465 23.1493C37.1061 23.1702 35.3492 22.9256 35.3221 23.0835C35.3102 23.1519 35.3247 23.5782 35.3345 23.647L35.3639 23.8533L35.3933 24.0596L35.4227 24.2659L35.4522 24.4723Z" fill="#666666"/>
<path d="M30.013 21.7724C29.6895 22.1405 29.3675 22.4343 29.0223 22.7151M31.7915 20.2735L32.8344 19.3714M31.3236 21.1652C31.5325 21.3117 31.7661 21.4434 32.0847 21.5241M31.1762 19.8017C31.306 20.0073 31.4583 20.2067 31.9133 20.3255M30.8797 17.7491C30.7389 17.9363 30.5137 18.1108 30.219 18.254M31.2536 19.0155C31.4021 19.1593 31.6111 19.2429 31.8247 19.3217M31.2535 22.1561C31.3585 22.6728 31.4491 23.0832 31.5689 23.511" stroke="black" stroke-width="0.0333333"/>
<path d="M31.1707 23.5003C31.7125 22.944 32.1753 22.3462 32.4759 21.6634M33.5816 19.6517C33.7552 19.8377 33.9362 19.9727 34.2192 20.0493M34.3347 18.9857C34.4818 19.2495 34.663 19.4451 34.8328 19.6637M32.7332 18.1611C32.715 18.4234 32.5559 18.6869 32.4445 18.9143" stroke="black" stroke-width="0.0333333"/>
<path d="M33.108 18.2904C32.9149 18.5053 32.7285 18.7355 32.4645 18.8676M33.1411 17.3551C33.0087 17.4452 32.8242 17.5508 32.6794 17.604M35.118 19.3506C34.958 19.5406 34.7979 19.764 34.5345 19.928M35.1477 20.9331C34.943 21.1269 34.7593 21.3522 34.5245 21.5008M35.1834 22.8179C35.5899 22.6098 35.9653 22.3398 36.332 22.0522C36.0266 22.3448 35.7229 22.6407 35.3786 22.8554M35.279 19.3902C35.3451 19.563 35.4993 19.752 35.6521 19.8753" stroke="black" stroke-width="0.0333333"/>
<path d="M35.0535 17.6674L35.0236 22.8612L35.4017 22.8388L35.243 17.6508L35.0535 17.6674Z" fill="#BCA76B" stroke="#472B1F" stroke-width="0.0251137"/>
<path d="M35.3054 24.3646C35.3956 24.4189 35.4474 24.4674 35.5217 24.5396C35.6873 24.6917 35.7981 24.6923 36.0345 24.5382C36.1226 24.5483 36.2118 24.5943 36.3074 24.5768C36.3918 24.5794 36.4738 24.5644 36.5562 24.5466C36.6572 24.5223 36.6716 24.4007 36.7073 24.3193C36.7535 24.2248 36.8039 24.1272 36.8704 24.0455C36.9577 23.9868 37.0522 23.9262 37.1127 23.8386C37.1818 23.7574 37.17 23.6515 37.1556 23.5539C37.1476 23.4611 37.1402 23.3747 37.1409 23.2811C37.1179 23.163 37.2202 23.0716 37.2113 22.9555C37.1529 22.9036 37.0565 22.8897 36.978 22.8671C36.84 22.837 36.7 22.8167 36.5591 22.8065C36.4441 22.7973 36.3294 22.7849 36.2148 22.7764C36.1016 22.7675 35.9887 22.7598 35.8752 22.7595C35.7479 22.763 35.6166 22.7472 35.4919 22.7678C35.4028 22.7887 35.2903 22.7806 35.2168 22.8216C35.1838 22.908 35.1627 22.9975 35.1591 23.087C35.147 23.1641 35.1425 23.2443 35.1426 23.3251C35.1471 23.4724 35.1275 23.6222 35.1684 23.7651C35.1955 23.8801 35.2051 23.9971 35.2268 24.1108C35.23 24.2016 35.2411 24.295 35.3055 24.3646H35.3054Z" fill="#333333" stroke="black" stroke-width="0.0875306"/>
<path d="M35.7371 21.835L36.2516 22.7975M37.0227 22.8479C36.871 22.6886 36.7519 22.4968 36.6601 22.2775" stroke="black" stroke-width="0.0333333"/>
<path d="M36.9877 21.3462L37.1571 21.4653L37.1689 21.4698C37.1135 21.4179 37.0595 21.3616 36.9891 21.3463C36.9891 21.3463 36.9881 21.3463 36.9877 21.3462ZM36.6303 21.3965L36.6111 21.4023L36.3729 22.3336L36.6303 21.3965ZM37.7663 21.4303C37.7076 21.4351 37.6518 21.4599 37.5963 21.4862L37.6963 21.4513L37.8265 21.432C37.8065 21.4298 37.7863 21.4292 37.7663 21.4303ZM36.66 22.2775L36.6133 22.2866C36.6329 22.2866 36.6515 22.2876 36.667 22.2916C36.6906 22.2977 36.7115 22.3069 36.7315 22.3174L36.66 22.2775ZM36.7532 22.3295C36.8142 22.3663 36.8657 22.4135 36.938 22.4328L36.7532 22.3295ZM37.304 22.3771L36.9862 22.4407C37.0975 22.4505 37.1972 22.4068 37.304 22.3771Z" fill="#472B1F"/>
<path d="M36.6464 21.3394L36.3733 22.3337L36.6604 22.2777L36.9615 22.4457L37.4166 22.3547L37.6477 22.3897C37.7191 22.0702 37.6981 21.6931 37.8857 21.4234L37.6967 21.4514L37.3956 21.5565L37.1575 21.4654L36.9685 21.3324L36.6464 21.3394Z" fill="white"/>
<path d="M37.0806 21.4584C37.0329 21.55 36.9865 21.6425 36.9754 21.7525C36.9754 21.7525 36.8421 21.7059 36.7725 21.6965C36.6984 21.6865 36.5484 21.6965 36.5484 21.6965L36.5465 21.7028L36.4818 21.938C36.4886 21.9372 36.6651 21.9154 36.7444 21.9275C36.8036 21.9365 36.9125 21.9906 36.9125 21.9906L36.8244 22.3692L36.8804 22.4006L37.0024 22.4374L37.0059 22.4367L37.0574 22.4263C37.081 22.2968 37.1 22.1629 37.1575 22.0674C37.1575 22.0674 37.3422 22.117 37.4446 22.1095C37.515 22.1043 37.6605 22.0889 37.6963 22.0849C37.7065 22.0048 37.717 21.9247 37.731 21.846C37.6952 21.8556 37.5392 21.8939 37.4515 21.8854C37.3721 21.8777 37.2276 21.8015 37.2276 21.8015C37.2486 21.7197 37.2859 21.638 37.3255 21.5563L37.0806 21.4584Z" fill="#C8102E"/>
<path d="M36.4474 21.3348C36.3264 21.0035 36.1761 20.4608 36.1146 20.0304" stroke="black" stroke-width="0.0437653"/>
<path d="M36.5565 21.4115C36.5565 21.4115 36.8559 21.3407 36.9802 21.3677C37.1107 21.3959 37.1935 21.5448 37.3255 21.5634C37.4776 21.5849 37.6135 21.443 37.7667 21.4304C37.8393 21.4243 37.9837 21.4584 37.9837 21.4584L37.8857 21.8225L37.8016 22.1306V22.4036C37.8016 22.4036 37.5453 22.342 37.4165 22.3546C37.2549 22.3704 37.1217 22.4649 36.9614 22.4386C36.8431 22.4192 36.7835 22.3216 36.6673 22.2916C36.5715 22.2668 36.3275 22.3305 36.3275 22.3305L36.5565 21.4115Z" stroke="#472B1F" stroke-width="0.0875306"/>
<path d="M36.6111 21.4023L36.4919 21.4093L36.1139 22.7467L36.289 22.7537L36.6111 21.4023Z" fill="#BCA76B" stroke="#472B1F" stroke-width="0.02"/>
<path d="M36.492 21.4093C36.4397 21.3802 36.4021 21.2947 36.429 21.2413C36.4596 21.1806 36.5599 21.1661 36.625 21.1853C36.6964 21.2064 36.796 21.2828 36.7721 21.3533C36.7414 21.4435 36.5752 21.4556 36.492 21.4093Z" fill="#BCA76B" stroke="#472B1F" stroke-width="0.02"/>
<path d="M37.8709 21.4385C37.6887 21.7026 37.7038 22.0633 37.6345 22.3735C37.7217 22.3876 37.7928 22.4036 37.7928 22.4036V22.1305L37.881 21.8225L37.9837 21.4583C37.9837 21.4583 37.93 21.447 37.8709 21.4385Z" fill="#472B1F"/>
<path d="M35.7164 20.3557C35.9039 20.4836 36.0957 20.8241 36.3627 21.0912M36.0692 19.8699C35.9304 19.5045 35.8186 18.9078 35.799 18.4629M35.5166 22.0134L35.8122 22.7847M35.8106 18.1027C35.5563 18.0376 35.3152 17.8574 35.2771 17.7127M34.1506 18.3562C34.3156 18.3688 34.8925 17.9373 34.9808 17.7126M35.6207 21.9029L36.0275 22.7718M35.5888 22.1951L35.885 22.0836M35.6386 22.3574L35.9546 22.2252M35.7686 22.6832L36.1129 22.5369M35.4146 20.9727L35.83 21.4177M34.5344 22.0507L34.2476 23.02M34.4551 22.2668L34.7451 22.2626M34.3844 22.5057L34.7224 22.5156M34.3069 22.753L34.6729 22.8222" stroke="black" stroke-width="0.0333333"/>
<path d="M35.279 17.5369C35.2115 17.5136 35.033 17.509 34.962 17.5661C34.9239 17.5967 34.9556 17.6991 35.0031 17.7C35.0992 17.7018 35.2212 17.7062 35.2595 17.6781C35.2992 17.649 35.3249 17.5528 35.279 17.5369Z" fill="#BCA76B" stroke="#472B1F" stroke-width="0.0253462"/>
<path d="M34.2294 18.3474C34.3534 18.855 34.892 18.7704 34.8671 18.307Z" fill="#BCA76B"/>
<path d="M34.2294 18.3474C34.3534 18.855 34.892 18.7704 34.8671 18.307" stroke="#472B1F" stroke-width="0.0347866"/>
<path d="M34.7239 18.3236C34.8852 18.9067 35.5853 18.8094 35.553 18.2772Z" fill="#BCA76B"/>
<path d="M34.7239 18.3236C34.8852 18.9067 35.5853 18.8094 35.553 18.2772" stroke="#472B1F" stroke-width="0.0425077"/>
<path d="M35.3162 18.3126C35.4739 18.7396 35.696 18.6567 35.9613 18.2688Z" fill="#BCA76B"/>
<path d="M35.3162 18.3126C35.4739 18.7396 35.696 18.6567 35.9613 18.2688" stroke="#472B1F" stroke-width="0.0363992"/>
<path d="M36.1153 18.1099L34.146 18.2226L34.1508 18.356L36.1361 18.2541L36.1153 18.1099Z" fill="#BCA76B" stroke="#472B1F" stroke-width="0.0352374"/>
<path d="M34.3013 20.0852C34.4205 20.6437 34.9821 20.5607 34.965 20.0525Z" fill="#BCA76B"/>
<path d="M34.3013 20.0852C34.4205 20.6437 34.9821 20.5607 34.965 20.0525" stroke="#472B1F" stroke-width="0.0371328"/>
<path d="M34.8159 20.0681C34.9723 20.7099 35.7022 20.6161 35.6787 20.0322Z" fill="#BCA76B"/>
<path d="M34.8159 20.0681C34.9723 20.7099 35.7022 20.6161 35.6787 20.0322" stroke="#472B1F" stroke-width="0.0453747"/>
<path d="M35.4319 20.0666C35.5877 20.5374 35.8203 20.4506 36.1032 20.0304Z" fill="#BCA76B"/>
<path d="M35.4319 20.0666C35.5877 20.5374 35.8203 20.4506 36.1032 20.0304" stroke="#472B1F" stroke-width="0.0388542"/>
<path d="M36.2666 19.859L34.217 19.9469L34.2196 20.0931L36.2855 20.0175L36.2666 19.859Z" fill="#BCA76B" stroke="#472B1F" stroke-width="0.037614"/>
<path d="M34.2487 21.6592C34.381 22.2292 34.9556 22.1342 34.929 21.6139Z" fill="#BCA76B"/>
<path d="M34.2487 21.6592C34.381 22.2292 34.9556 22.1342 34.929 21.6139" stroke="#472B1F" stroke-width="0.0380695"/>
<path d="M34.7764 21.6326C34.9177 22.4831 35.6953 22.1781 35.6608 21.5806Z" fill="#BCA76B"/>
<path d="M34.7764 21.6326C34.9177 22.4831 35.6953 22.1781 35.6608 21.5806" stroke="#472B1F" stroke-width="0.0465192"/>
<path d="M35.408 21.6201C35.5762 22.0996 35.8132 22.0066 36.0959 21.571Z" fill="#BCA76B"/>
<path d="M35.408 21.6201C35.5762 22.0996 35.8132 22.0066 36.0959 21.571" stroke="#472B1F" stroke-width="0.0398342"/>
<path d="M36.2605 21.3925L34.1598 21.5191L34.165 21.6689L36.2827 21.5545L36.2605 21.3925Z" fill="#BCA76B" stroke="#472B1F" stroke-width="0.0385628"/>
<path d="M35.554 19.1243L34.7747 19.1472L34.777 19.3407L35.5624 19.3381L35.554 19.1243ZM35.5593 20.7727L34.78 20.7957L34.7823 20.9892L35.5677 20.9865L35.5593 20.7727Z" fill="#BCA76B" stroke="#472B1F" stroke-width="0.0170605"/>
<path d="M33.613 21.6764L34.1879 23.0595M30.7017 22.1077C30.6388 22.5438 30.5398 23.1011 30.4286 23.5213" stroke="black" stroke-width="0.0437653"/>
<path d="M37.1496 22.9496C36.8222 22.8968 36.4935 22.8428 36.1622 22.8284C35.9012 22.8169 35.6392 22.8321 35.3789 22.8555C34.9995 22.8896 34.6118 22.9071 34.248 23.0201C34.1989 23.0353 34.1465 23.0523 34.1097 23.0882C34.0071 23.1883 33.9971 23.355 33.9105 23.4692C33.8267 23.5799 33.5065 23.7645 33.3909 23.8416C32.5493 23.8626 31.6141 23.8509 30.5675 23.6944L30.4203 23.5298L30.3597 23.4692L30.5243 23.5298L30.8967 23.5385L31.8061 23.5038C31.8061 23.5038 32.5744 23.5047 32.9579 23.4865C33.1748 23.4763 33.3921 23.4633 33.6074 23.4346C33.654 23.4284 33.7067 23.4343 33.746 23.4086C33.8103 23.3666 33.8312 23.2805 33.8759 23.2181C33.9179 23.1594 33.9443 23.0826 34.0058 23.0448C34.1699 22.9219 34.378 22.9331 34.5566 22.8989C34.7708 22.858 34.968 22.8497 35.1837 22.8179C35.4332 22.7813 35.6853 22.7639 35.9371 22.7504C36.0986 22.7417 36.2609 22.7298 36.422 22.7417C36.6673 22.7598 36.9363 22.7407 37.1496 22.8629C37.1887 22.8854 37.2593 22.9282 37.2362 22.9669C37.2211 22.9922 37.1786 22.9542 37.1496 22.9496Z" fill="black" stroke="black" stroke-width="0.0262592"/>
<path d="M33.3199 17.3551C33.4445 17.4505 33.6744 17.5301 33.8975 17.564M33.0616 20.8677C32.7981 21.0574 32.5196 21.1876 32.2313 21.2784M33.8072 23.336L33.3491 22.1345M33.4398 21.7412L33.9671 23.1113M33.375 22.0956L33.7251 21.9746" stroke="black" stroke-width="0.0333333"/>
<path d="M33.1323 17.1779L33.0236 23.5612L33.4016 23.5385L33.3305 17.1786L33.1323 17.1779Z" fill="#BCA76B" stroke="#472B1F" stroke-width="0.0252174"/>
<path d="M33.5867 18.1644C33.7343 18.4451 33.9705 18.6704 34.3161 18.8273" stroke="black" stroke-width="0.0437653"/>
<path d="M32.3508 17.7668C32.47 18.3252 33.0316 18.2423 33.0147 17.7341Z" fill="#BCA76B"/>
<path d="M32.3508 17.7668C32.47 18.3252 33.0316 18.2423 33.0147 17.7341" stroke="#472B1F" stroke-width="0.0371328"/>
<path d="M32.8655 17.7497C33.022 18.3914 33.7518 18.2976 33.7284 17.7139Z" fill="#BCA76B"/>
<path d="M32.8655 17.7497C33.022 18.3914 33.7518 18.2976 33.7284 17.7139" stroke="#472B1F" stroke-width="0.0453747"/>
<path d="M33.4813 17.7483C33.6371 18.219 33.9216 18.2617 34.1528 17.712Z" fill="#BCA76B"/>
<path d="M33.4813 17.7483C33.6371 18.219 33.9216 18.2617 34.1528 17.712" stroke="#472B1F" stroke-width="0.0388542"/>
<path d="M34.3161 17.5406L32.2666 17.6284L32.269 17.7747L34.335 17.6991L34.3161 17.5406Z" fill="#BCA76B" stroke="#472B1F" stroke-width="0.037614"/>
<path d="M32.3508 19.0535C32.47 19.6119 33.0316 19.529 33.0147 19.0208Z" fill="#BCA76B"/>
<path d="M32.3508 19.0535C32.47 19.6119 33.0316 19.529 33.0147 19.0208" stroke="#472B1F" stroke-width="0.0371328"/>
<path d="M32.8655 19.0364C33.022 19.6782 33.7518 19.5844 33.7284 19.0006Z" fill="#BCA76B"/>
<path d="M32.8655 19.0364C33.022 19.6782 33.7518 19.5844 33.7284 19.0006" stroke="#472B1F" stroke-width="0.0453747"/>
<path d="M33.4813 19.0349C33.6371 19.5058 34.108 19.4265 34.1528 18.9988Z" fill="#BCA76B"/>
<path d="M33.4813 19.0349C33.6371 19.5058 34.108 19.4265 34.1528 18.9988" stroke="#472B1F" stroke-width="0.0388542"/>
<path d="M34.3161 18.8274L32.2666 18.9152L32.269 19.0615L34.335 18.9858L34.3161 18.8274Z" fill="#BCA76B" stroke="#472B1F" stroke-width="0.037614"/>
<path d="M32.9614 19.7706C32.7766 19.892 32.6085 20.0407 32.3654 20.1154" stroke="black" stroke-width="0.0437653"/>
<path d="M32.2896 20.2614C32.4089 20.8198 32.9704 20.7368 32.9534 20.2286Z" fill="#BCA76B"/>
<path d="M32.2896 20.2614C32.4089 20.8198 32.9704 20.7368 32.9534 20.2286" stroke="#472B1F" stroke-width="0.0371328"/>
<path d="M32.8042 20.2443C32.9607 20.8861 33.6905 20.7922 33.6671 20.2085Z" fill="#BCA76B"/>
<path d="M32.8042 20.2443C32.9607 20.8861 33.6905 20.7922 33.6671 20.2085" stroke="#472B1F" stroke-width="0.0453747"/>
<path d="M33.42 20.2428C33.5758 20.7136 33.9921 20.5656 34.0915 20.2067Z" fill="#BCA76B"/>
<path d="M33.42 20.2428C33.5758 20.7136 33.9921 20.5656 34.0915 20.2067" stroke="#472B1F" stroke-width="0.0388542"/>
<path d="M34.2549 20.0353L32.2053 20.1231L32.2078 20.2693L34.2738 20.1937L34.2549 20.0353Z" fill="#BCA76B" stroke="#472B1F" stroke-width="0.037614"/>
<path d="M32.5482 21.7222C32.4954 22.3527 32.2428 22.9233 32.0719 23.5183M32.7764 21.7271C32.72 22.3401 32.5298 22.9161 32.3746 23.492M32.965 21.6726C32.8916 22.3535 32.8095 22.9221 32.6574 23.4886" stroke="black" stroke-width="0.0333333"/>
<path d="M32.3158 21.4168C32.4351 21.9752 32.9966 21.8922 32.9796 21.384Z" fill="#BCA76B"/>
<path d="M32.3158 21.4168C32.4351 21.9752 32.9966 21.8922 32.9796 21.384" stroke="#472B1F" stroke-width="0.0371328"/>
<path d="M32.8304 21.3997C32.9869 22.0415 33.7168 21.9476 33.6933 21.3639Z" fill="#BCA76B"/>
<path d="M32.8304 21.3997C32.9869 22.0415 33.7168 21.9476 33.6933 21.3639" stroke="#472B1F" stroke-width="0.0453747"/>
<path d="M33.4463 21.3982C33.6021 21.869 34.0122 21.7762 34.1177 21.3621Z" fill="#BCA76B"/>
<path d="M33.4463 21.3982C33.6021 21.869 34.0122 21.7762 34.1177 21.3621" stroke="#472B1F" stroke-width="0.0388542"/>
<path d="M34.2811 21.1907L32.2316 21.2785L32.234 21.4247L34.3 21.3491L34.2811 21.1907Z" fill="#BCA76B" stroke="#472B1F" stroke-width="0.037614"/>
<path d="M33.6299 18.4078L32.8943 18.4308L32.8964 18.6243L33.6378 18.6217L33.6299 18.4078Z" fill="#BCA76B" stroke="#472B1F" stroke-width="0.0217623"/>
<path d="M33.5995 19.6516L32.9454 19.6731L32.9473 19.8544L33.6064 19.852L33.5995 19.6516Z" fill="#BCA76B" stroke="#472B1F" stroke-width="0.0198679"/>
<path d="M33.6404 20.8618L32.9294 20.8848L32.9317 21.0792L33.6483 21.0766L33.6404 20.8618Z" fill="#BCA76B" stroke="#472B1F" stroke-width="0.0214439"/>
<path d="M32.5334 21.9506L32.9154 22.0299M32.444 22.3078L32.8857 22.3177M32.3746 22.5658L32.8311 22.6948M32.2506 22.9726L32.7864 22.9478M32.1563 23.3001L32.722 23.2852M32.0242 21.7072C31.9642 22.3522 32.3804 22.9637 32.5883 23.5057M33.751 23.1675L34.114 23.0594M33.6646 22.973L34.0752 22.8001M33.5349 22.6661L33.9584 22.5408M33.4398 22.3765L33.8547 22.2685" stroke="black" stroke-width="0.0333333"/>
<path d="M31.2198 24.6468C31.1716 24.6479 31.1256 24.6304 31.0778 24.6242C31.0302 24.609 30.9821 24.5946 30.9374 24.5718C30.8932 24.5503 30.8515 24.5174 30.8118 24.489C30.7716 24.4597 30.7338 24.4274 30.6988 24.3922C30.6538 24.351 30.6084 24.3131 30.5676 24.2682C30.5249 24.2245 30.4798 24.1812 30.4433 24.136C30.4038 24.092 30.3556 24.0576 30.3236 24.0084C30.2866 23.9723 30.2865 23.9092 30.2554 23.8698C30.2046 23.8598 30.1296 23.8514 30.1275 23.7842C30.1108 23.7438 30.1035 23.6942 30.0528 23.6997C30.0317 23.7008 30.026 23.7317 30.039 23.7124C30.0129 23.6984 30.0198 23.7605 30.0164 23.7271C30.0011 23.7518 29.9845 23.8042 29.9851 23.8004C29.9627 23.8453 29.9652 23.896 30.0239 23.9021C30.0798 23.9104 30.0864 23.9716 30.1339 23.9964C30.1719 24.0333 30.2184 24.0821 30.2606 24.1155C30.301 24.1648 30.332 24.1924 30.3632 24.2486C30.3827 24.2882 30.4342 24.3159 30.4638 24.3486C30.4884 24.3894 30.5164 24.4256 30.5484 24.4616C30.5838 24.4978 30.6291 24.536 30.6714 24.5594C30.7095 24.5825 30.7478 24.6034 30.7874 24.6256C30.8306 24.6471 30.8716 24.6764 30.9191 24.6854C30.9695 24.7136 31.032 24.7048 31.0875 24.7168C31.1429 24.7201 31.1975 24.7168 31.2435 24.6816C31.2893 24.6507 31.2426 24.6565 31.2198 24.6468ZM34.212 23.1966C34.1445 23.3566 34.037 23.5787 33.9031 23.7166C34.3422 23.8015 34.6958 23.6789 35.0915 23.6117C35.0471 23.4424 35.0486 23.2548 35.0652 23.061C34.7507 23.0931 34.5267 23.1646 34.2121 23.1966H34.212Z" fill="black"/>
<path d="M34.2488 23.2403C34.1933 23.3818 34.1508 23.528 34.0408 23.6499C34.4012 23.725 34.6955 23.6166 35.0202 23.5572C34.9581 23.4259 34.9767 23.2832 34.9987 23.1399C34.7405 23.1682 34.507 23.212 34.2488 23.2403Z" fill="#333333"/>
<path d="M30.4547 23.8782L31.7298 23.9745C32.7542 24.006 33.929 23.9596 34.9446 23.8432C34.9863 23.8383 35.0545 23.8267 35.0683 23.8663C35.0851 23.9146 35.0184 23.9746 34.9678 23.9822C33.802 24.1342 32.6236 24.0756 31.4516 24.0672L30.7561 23.9941L30.4547 23.8782Z" fill="black"/>
<path d="M30.9228 21.0184C30.5947 21.2714 30.2676 21.5268 29.8965 21.6723M30.9725 19.8159C30.6728 20.0325 30.3748 20.2997 30.0538 20.4308" stroke="black" stroke-width="0.0437653"/>
<path d="M30.8617 17.62L30.8533 23.5851L31.1806 23.5625L30.9908 17.5857L30.8617 17.62Z" fill="#BCA76B" stroke="#472B1F" stroke-width="0.0234684"/>
<path d="M30.9908 17.5858C31.2566 17.8799 31.4682 18.0388 31.6925 18.2292" stroke="black" stroke-width="0.0437653"/>
<path d="M31.0754 17.4156C31.0089 17.3816 30.8328 17.3749 30.7628 17.458C30.7252 17.5026 30.7564 17.6518 30.8035 17.653C30.8982 17.6556 31.0185 17.6622 31.0562 17.6212C31.0954 17.5788 31.1207 17.4387 31.0754 17.4156Z" fill="#BCA76B" stroke="#472B1F" stroke-width="0.0303718"/>
<path d="M30.8887 24.3559C30.8979 24.3053 30.9371 24.2906 30.9829 24.2819C31.0358 24.2839 31.1004 24.2743 31.1343 24.2953C31.1749 24.3056 31.1955 24.3261 31.2319 24.3425C31.2538 24.3694 31.2919 24.3878 31.3194 24.4031C31.4265 24.4442 31.3684 24.3204 31.4293 24.3155C31.481 24.3202 31.5352 24.2963 31.5785 24.3155C31.617 24.3231 31.6349 24.3512 31.656 24.3761C31.679 24.3965 31.7041 24.414 31.7166 24.4367C31.7253 24.4678 31.8405 24.5243 31.8445 24.4502C31.8681 24.3996 31.8576 24.312 31.9388 24.3224C32.0291 24.3174 32.0987 24.3399 32.1811 24.3492C32.2243 24.3669 32.2594 24.3726 32.2954 24.4098C32.3266 24.4284 32.3241 24.4655 32.3526 24.4636C32.4346 24.5241 32.4176 24.412 32.4436 24.3761C32.464 24.3436 32.5232 24.3526 32.5512 24.329C32.6032 24.3138 32.6533 24.2965 32.7261 24.3021C32.7553 24.3186 32.8061 24.3441 32.8407 24.3627C32.8665 24.3865 32.8992 24.4176 32.9148 24.4569C32.9179 24.4963 32.9536 24.5276 32.9889 24.4972C33.0069 24.4521 33.0431 24.4532 33.0764 24.4299C33.1112 24.4222 33.1339 24.4002 33.1571 24.3762C33.1775 24.3709 33.1985 24.3259 33.2178 24.3088C33.2536 24.282 33.3259 24.2884 33.386 24.2819C33.4453 24.2994 33.5004 24.3065 33.5341 24.3357C33.5547 24.3578 33.5697 24.3855 33.6015 24.3963C33.6204 24.4354 33.6658 24.4028 33.6958 24.3896C33.7202 24.3715 33.7575 24.3518 33.79 24.3357C33.8184 24.3074 33.8589 24.2911 33.9133 24.2887C33.9796 24.2811 34.0142 24.3161 34.0658 24.3223C34.1145 24.3435 34.1696 24.3468 34.2005 24.3762C34.2357 24.4001 34.2832 24.4201 34.3182 24.3896C34.3641 24.391 34.3286 24.3012 34.3462 24.2801C34.3992 24.2381 34.5248 24.2437 34.5908 24.2685C34.6465 24.27 34.7117 24.262 34.7489 24.282C34.7857 24.2909 34.7912 24.3259 34.8062 24.3627C34.823 24.3971 34.9206 24.3957 34.9542 24.3694C34.9861 24.3702 34.947 24.3239 34.9341 24.3089C34.9134 24.2953 34.8911 24.2626 34.8801 24.2415C34.9302 24.2173 34.9534 24.2632 34.9945 24.2684C35.0185 24.289 35.051 24.2961 35.0753 24.3223C35.1146 24.3368 35.1488 24.3562 35.2095 24.3492C35.2659 24.3657 35.241 24.448 35.1763 24.4299C35.1288 24.4453 35.053 24.4324 34.9946 24.4367C34.9061 24.4262 34.8112 24.431 34.7187 24.4299C34.6726 24.4471 34.5971 24.4426 34.5437 24.4569C34.4864 24.4562 34.4419 24.4683 34.3805 24.4636C34.3225 24.4724 34.254 24.4704 34.1872 24.4704C34.1281 24.4818 34.0769 24.4838 34.0146 24.4905C33.9606 24.4911 33.9165 24.5018 33.8574 24.4972C33.7799 24.5116 33.6768 24.5005 33.5883 24.504C33.5327 24.5133 33.4854 24.5118 33.4335 24.5175C33.3773 24.519 33.3277 24.5285 33.2677 24.5309C33.2063 24.5292 33.1599 24.5425 33.0953 24.5376C32.9996 24.5521 32.8942 24.5407 32.7944 24.5443C32.7464 24.5333 32.6828 24.5379 32.6308 24.5309C32.5814 24.5295 32.5402 24.5198 32.4851 24.5241C32.4434 24.5098 32.3712 24.5257 32.33 24.5107C32.2484 24.5154 32.1863 24.5005 32.1059 24.504H31.6707C31.6335 24.4882 31.567 24.5018 31.5187 24.4972C31.4378 24.4958 31.3412 24.5 31.2694 24.4953C31.2041 24.4839 31.133 24.4963 31.0786 24.4704C30.9917 24.4544 30.8812 24.4263 30.8887 24.3559Z" fill="black" stroke="black" stroke-width="0.0612715"/>
<path d="M30.1678 18.3543C30.2722 18.7409 30.7636 18.6834 30.7487 18.3315Z" fill="#BCA76B"/>
<path d="M30.1678 18.3543C30.2722 18.7409 30.7636 18.6834 30.7487 18.3315" stroke="#472B1F" stroke-width="0.0289024"/>
<path d="M30.6182 18.3425C30.7551 18.7868 31.3937 18.7219 31.3732 18.3177Z" fill="#BCA76B"/>
<path d="M30.6182 18.3425C30.7551 18.7868 31.3937 18.7219 31.3732 18.3177" stroke="#472B1F" stroke-width="0.0353174"/>
<path d="M31.1571 18.3414C31.2934 18.6674 31.5422 18.697 31.7446 18.3164Z" fill="#BCA76B"/>
<path d="M31.1571 18.3414C31.2934 18.6674 31.5422 18.697 31.7446 18.3164" stroke="#472B1F" stroke-width="0.0302422"/>
<path d="M31.8875 18.1978L30.0941 18.2586L30.0963 18.3599L31.9041 18.3074L31.8875 18.1978Z" fill="#BCA76B" stroke="#472B1F" stroke-width="0.0292769"/>
<path d="M30.6561 19.0656C30.4988 19.2031 30.2018 19.3831 30.0714 19.3655" stroke="black" stroke-width="0.0437653"/>
<path d="M30.3353 18.5685C29.9466 20.0425 29.4446 21.6067 28.9696 22.8558" stroke="black" stroke-width="0.0437653"/>
<path d="M30.1472 19.4684C30.2545 19.8838 30.7597 19.822 30.7444 19.4441Z" fill="#BCA76B"/>
<path d="M30.1472 19.4684C30.2545 19.8838 30.7597 19.822 30.7444 19.4441" stroke="#472B1F" stroke-width="0.0303726"/>
<path d="M30.5752 19.4602C30.716 20.017 31.3726 19.9356 31.3514 19.4291Z" fill="#BCA76B"/>
<path d="M30.5752 19.4602C30.716 20.017 31.3726 19.9356 31.3514 19.4291" stroke="#472B1F" stroke-width="0.0400898"/>
<path d="M31.165 19.4551C31.3205 19.8038 31.6042 19.8354 31.8347 19.4283Z" fill="#BCA76B"/>
<path d="M31.165 19.4551C31.3205 19.8038 31.6042 19.8354 31.8347 19.4283" stroke="#472B1F" stroke-width="0.0333871"/>
<path d="M31.9133 19.2581L30.0734 19.3386L30.0755 19.4727L31.9301 19.4034L31.9133 19.2581Z" fill="#BCA76B" stroke="#472B1F" stroke-width="0.034128"/>
<path d="M30.0505 20.5315C30.1668 21.04 30.714 20.9645 30.6976 20.5017Z" fill="#BCA76B"/>
<path d="M30.0505 20.5315C30.1668 21.04 30.714 20.9645 30.6976 20.5017" stroke="#472B1F" stroke-width="0.034984"/>
<path d="M30.5532 20.5257C30.7162 21.2752 31.4763 21.1656 31.4519 20.4839Z" fill="#BCA76B"/>
<path d="M30.5532 20.5257C30.7162 21.2752 31.4763 21.1656 31.4519 20.4839" stroke="#472B1F" stroke-width="0.0500401"/>
<path d="M31.1525 20.5146C31.3043 20.9434 31.5815 20.9823 31.8069 20.4817Z" fill="#BCA76B"/>
<path d="M31.1525 20.5146C31.3043 20.9434 31.5815 20.9823 31.8069 20.4817" stroke="#472B1F" stroke-width="0.0366058"/>
<path d="M31.9652 20.3254L29.8704 20.4055L29.8728 20.5387L31.9844 20.4699L31.9652 20.3254Z" fill="#BCA76B" stroke="#472B1F" stroke-width="0.0362894"/>
<path d="M30.0132 21.7723C30.1391 22.3232 30.7318 22.2413 30.7139 21.7401Z" fill="#BCA76B"/>
<path d="M30.0132 21.7723C30.1391 22.3232 30.7318 22.2413 30.7139 21.7401" stroke="#472B1F" stroke-width="0.0378856"/>
<path d="M31.5631 22.059C31.6843 22.5825 31.842 23.061 31.994 23.5073M31.4054 22.0408C31.4717 22.5446 31.6115 23.0323 31.7573 23.5043" stroke="black" stroke-width="0.0437653"/>
<path d="M30.5565 21.7555C30.7079 22.486 31.4738 22.424 31.4674 21.7202Z" fill="#BCA76B"/>
<path d="M30.5565 21.7555C30.7079 22.486 31.4738 22.424 31.4674 21.7202" stroke="#472B1F" stroke-width="0.0462945"/>
<path d="M31.2065 21.7541C31.371 22.2184 31.6712 22.2605 31.9153 21.7184Z" fill="#BCA76B"/>
<path d="M31.2065 21.7541C31.371 22.2184 31.6712 22.2605 31.9153 21.7184" stroke="#472B1F" stroke-width="0.0396418"/>
<path d="M32.085 21.524L29.7512 21.6198L29.754 21.7791L32.1065 21.6967L32.085 21.524Z" fill="#BCA76B" stroke="#472B1F" stroke-width="0.0419018"/>
<path d="M31.3239 18.8981L30.6541 18.9158L30.6561 19.0655L31.3313 19.0634L31.3239 18.8981ZM31.3239 19.9835L30.6541 20.0012L30.6561 20.1509L31.3313 20.1488L31.3239 19.9835Z" fill="#BCA76B" stroke="#472B1F" stroke-width="0.018264"/>
<path d="M31.367 21.1654L30.6544 21.1831L30.6565 21.3323L31.3747 21.3302L31.367 21.1654Z" fill="#BCA76B" stroke="#472B1F" stroke-width="0.0188066"/>
<path d="M31.629 22.2114L31.247 22.2908M31.6898 22.5027L31.3077 22.582M31.7746 22.8187L31.3866 22.8M31.8899 23.122L31.4897 23.1822M30.1002 23.0609L30.5022 23.1402M30.2113 22.7332L30.5733 22.8126M30.309 22.4808L30.6444 22.5668M30.3702 22.2539L30.6723 22.3132" stroke="black" stroke-width="0.0333333"/>
<path d="M35.1486 23.5904C35.8182 23.5606 36.6188 23.4832 37.1574 23.6934M35.1912 23.8134C35.8086 23.7224 36.5275 23.671 37.0546 23.8734M35.2596 24.2594C35.7046 24.1597 36.3002 24.1364 36.7223 24.2422M35.305 24.3645C35.75 24.4642 36.274 24.4875 36.6961 24.3817" stroke="black" stroke-width="0.0666666"/>
<path d="M28.7932 22.8075L30.2383 23.6808L30.2692 23.6421L29.8133 23.3253C29.4877 23.1237 29.1606 22.9253 28.7932 22.8075Z" fill="black"/>
<path d="M35.7314 23.5205L35.72 23.0386M35.8788 23.0442V23.5375M36.1509 23.5432V23.0272M36.4514 23.0705V23.5658M36.6328 23.0669L36.6385 23.5716M36.871 23.1189V23.5885M36.9957 23.1123L36.99 23.6396M35.7938 23.7303L35.788 24.1838M35.6406 23.753V24.1838M36.0375 23.7416L36.0205 24.1725M36.185 23.736L36.1792 24.1668M36.406 23.7303L36.3777 24.1498M36.6158 23.787L36.5365 24.1725" stroke="black" stroke-width="0.0333333"/>
<path d="M35.1587 23.0694C35.8202 22.991 36.4816 23.0857 37.1431 23.1515" stroke="black" stroke-width="0.0666667"/>
<path d="M38.765 17.134C38.77 15.4301 38.6746 13.7759 38.7181 12.3263C36.5135 11.3472 33.6128 11.1459 32.1334 11.1459C30.6538 11.1459 27.753 11.3472 25.5485 12.3263C25.592 13.7759 25.4968 15.4301 25.5016 17.1339L38.765 17.134Z" stroke="black" stroke-width="0.133333"/>
<path d="M31.7357 14.3661C31.7357 14.3661 31.9739 14.7203 32.038 14.911C32.0695 15.0043 32.0812 15.1059 32.0747 15.2041C32.0627 15.3837 31.9933 15.5553 31.9373 15.7263C31.8984 15.8449 31.813 15.9348 31.8602 16.0503C31.883 16.1059 31.9053 16.157 31.9648 16.1477C32.0011 16.1421 32.0185 16.0974 32.0472 16.0744C32.0677 16.058 32.087 16.0387 32.1113 16.0286C32.1457 16.0144 32.1946 16.0361 32.2213 16.0103C32.2436 15.9886 32.2593 15.9428 32.2396 15.9187C32.2222 15.8974 32.1846 15.9176 32.1571 15.9187C32.1174 15.9202 32.0727 15.9475 32.038 15.9278C32.0024 15.9077 31.9831 15.8179 31.9831 15.8179C31.9831 15.8179 32.0543 15.6217 32.093 15.5248C32.1249 15.4447 32.1767 15.3711 32.1938 15.2866C32.1992 15.2596 32.1919 15.2315 32.1938 15.2041C32.1968 15.161 32.1828 15.1075 32.2121 15.0758C32.2312 15.0552 32.2843 15.0837 32.2946 15.0575C32.3339 14.9574 32.1511 14.8918 32.1113 14.7919C32.0965 14.7545 32.1061 14.7107 32.093 14.6728C32.0645 14.59 31.9647 14.4438 31.9647 14.4438L31.7357 14.3661Z" fill="#69737C" stroke="black" stroke-width="0.048584"/>
<path d="M32.4788 14.6415C32.4788 14.6415 32.6902 14.9055 32.7121 15.0651C32.717 15.1006 32.6884 15.1338 32.6876 15.1696C32.6862 15.2257 32.7208 15.2792 32.7183 15.3353C32.7099 15.5159 32.6148 15.6819 32.5709 15.8573C32.5337 16.0056 32.4727 16.3055 32.4727 16.3055L32.6077 16.2932L32.6323 16.066C32.6323 16.066 32.7031 15.8084 32.7367 15.6792C32.76 15.5893 32.7726 15.4963 32.8042 15.409C32.8251 15.3513 32.8696 15.3028 32.884 15.2432C32.9028 15.1656 32.9255 15.0754 32.8902 15.0038C32.8779 14.9788 32.8419 14.9747 32.8226 14.9547C32.7766 14.9067 32.7418 14.8482 32.7121 14.7889C32.682 14.7287 32.6446 14.5985 32.6446 14.5985C32.6164 14.609 32.4788 14.6415 32.4788 14.6415Z" fill="#66452B" stroke="black" stroke-width="0.048584"/>
<path d="M31.4801 14.1608L31.631 14.2809L31.892 14.4385L32.0123 14.4459L32.1483 14.4948L32.318 14.4895L32.4435 14.6177L32.4788 14.6415L32.6183 14.6222L32.6697 14.5651L32.9359 14.1593L32.872 13.4901L31.6036 13.5722L31.4801 14.1608Z" fill="white"/>
<path d="M32.8483 13.0313C33.0196 13.1704 33.1862 13.316 33.3202 13.4926C33.4235 13.6149 33.4867 13.7811 33.6381 13.8576C33.8516 14.0855 34.7651 14.3497 34.7681 14.421C34.5576 14.3352 34.466 14.6225 34.262 14.5763C34.0721 14.6315 33.9157 14.5073 33.7514 14.4382C33.5045 14.4294 33.2474 14.4422 33.0276 14.5674C32.9076 14.6327 32.7647 14.532 32.6697 14.5651L32.6588 14.5858L32.6446 14.5985M31.4802 14.1608C31.3339 14.0882 31.2268 13.9518 31.0907 13.8697C30.9854 13.7214 30.8502 13.5731 30.8566 13.3781C30.8401 13.1765 30.7873 12.8978 30.883 12.7062C30.8143 12.556 30.7179 12.5155 30.6419 12.3675C30.5868 12.1628 30.3793 12.0453 30.5039 11.8897C30.6425 11.7665 30.7395 11.6211 30.9181 11.5572C31.0662 11.5228 31.2164 11.5373 31.3586 11.5881C31.5426 11.6097 31.6435 11.7667 31.7406 11.9026C31.8586 12.0864 31.9366 12.2929 31.9696 12.5088C32.0544 12.6862 32.2799 12.7223 32.4453 12.798C32.5878 12.8654 32.7301 12.9229 32.8483 13.0313" fill="white"/>
<path d="M33.8492 14.2178C33.7774 14.2076 33.6053 14.2787 33.6503 14.1721C33.4738 14.1593 33.2884 14.1972 33.1186 14.138C32.9427 14.0517 32.7517 13.9986 32.5635 13.9474C32.3793 13.9373 32.1621 13.98 32.0207 13.8288C31.8739 13.743 31.6592 13.8049 31.5246 13.6801C31.3884 13.5644 31.3066 13.4045 31.3117 13.2257C31.2847 13.0505 31.2194 12.8146 31.4157 12.7115C31.5439 12.6727 31.6665 12.706 31.7439 12.5773C31.9071 12.5504 32.0569 12.6101 32.1975 12.6898C32.3625 12.7715 32.5445 12.8221 32.7049 12.9138C32.8586 13.0153 32.9893 13.1474 33.1334 13.2625C33.2466 13.3924 33.3785 13.5123 33.4517 13.6718C33.5385 13.8428 33.7181 13.9329 33.872 14.032C33.9642 14.0558 34.1838 14.1579 33.9752 14.1853C33.9322 14.1922 33.8923 14.2132 33.8492 14.2178Z" fill="black"/>
<path d="M32.0499 13.6418C31.9602 13.6297 31.8692 13.6113 31.7953 13.5557C31.7371 13.521 31.5932 13.4366 31.6866 13.3707C31.7642 13.3615 31.8529 13.4001 31.9221 13.3467C32.0264 13.3249 32.1365 13.3229 32.2328 13.2716C32.3225 13.2229 32.4283 13.2555 32.5218 13.2255C32.5913 13.1886 32.5815 13.0491 32.6878 13.0727C32.7853 13.0478 32.7568 13.235 32.6697 13.1756C32.6158 13.2511 32.767 13.2766 32.807 13.3233C32.8875 13.4147 32.7103 13.4353 32.6945 13.5031C32.5825 13.5358 32.5005 13.3952 32.3886 13.4346C32.3679 13.4721 32.3913 13.549 32.3102 13.5302C32.2167 13.4731 32.1357 13.5372 32.0435 13.5487C32.0705 13.5691 32.0118 13.6441 32.0499 13.6418ZM33.9946 14.3125C33.9419 14.2847 33.8744 14.3082 33.8159 14.3117C33.7767 14.3122 33.7377 14.3142 33.7009 14.2977C33.6431 14.2963 33.5332 14.2336 33.5164 14.317C33.5202 14.3529 33.615 14.3682 33.5365 14.3796C33.457 14.3909 33.3857 14.3549 33.313 14.3292C33.2833 14.3013 33.2202 14.2662 33.2359 14.3335C33.2611 14.3917 33.1986 14.4187 33.1485 14.4168C33.0774 14.4117 32.9982 14.3925 32.9466 14.3408C32.9094 14.3868 32.9991 14.4517 33.0521 14.455C33.1051 14.4999 32.9721 14.4822 32.942 14.476C32.8972 14.4683 32.8467 14.4624 32.8077 14.4901C32.7456 14.5042 32.7441 14.5648 32.8162 14.5582C32.8856 14.5809 32.9634 14.6017 33.0322 14.5658C33.1069 14.5222 33.1876 14.4911 33.2732 14.4765C33.34 14.4617 33.4077 14.4513 33.4759 14.4454C33.5664 14.435 33.6575 14.4362 33.749 14.4363C33.8202 14.4743 33.8902 14.4414 33.9532 14.408C33.992 14.396 34.1094 14.3517 34.0239 14.3179C34.0132 14.3217 34.0043 14.3043 33.9946 14.3125Z" fill="#69737C"/>
<path d="M33.7513 14.4382C33.7864 14.4386 33.8212 14.4377 33.8524 14.4208C33.8867 14.4019 33.9241 14.3957 33.9606 14.3824C34.0073 14.3829 34.0289 14.3198 33.9796 14.3068C33.9538 14.2897 33.9232 14.2774 33.8962 14.2655C33.8684 14.2414 33.8275 14.2339 33.8025 14.2088C33.8236 14.1825 33.8418 14.1542 33.8629 14.1281C33.8957 14.115 33.9354 14.1201 33.9704 14.1113C33.9963 14.1031 34.0237 14.1071 34.0504 14.1061C34.0868 14.1246 34.1263 14.1367 34.161 14.1572C34.1969 14.1767 34.2344 14.1946 34.2746 14.2068C34.3078 14.217 34.3398 14.2289 34.3712 14.242C34.4078 14.2605 34.4495 14.2666 34.488 14.2796C34.5266 14.2875 34.5422 14.3307 34.5881 14.3243C34.6327 14.3321 34.673 14.3413 34.706 14.3726C34.7308 14.383 34.775 14.4063 34.776 14.4271C34.7397 14.4319 34.7088 14.3993 34.6711 14.4066C34.6416 14.413 34.6224 14.4418 34.5879 14.4365C34.5729 14.4809 34.5153 14.4741 34.4888 14.5107C34.4514 14.5394 34.4111 14.5652 34.3668 14.5829C34.3323 14.596 34.294 14.5949 34.2603 14.5798C34.2204 14.5688 34.1781 14.5788 34.1378 14.5721C34.0947 14.5838 34.0549 14.5742 34.0143 14.5601C33.9785 14.5505 33.9514 14.5242 33.9206 14.5057C33.8836 14.4906 33.8166 14.4729 33.7798 14.4575C33.7605 14.4482 33.7626 14.4423 33.7416 14.4382L33.7513 14.4382Z" fill="black"/>
<path d="M31.0243 11.5332C30.9868 11.5327 30.9492 11.5332 30.914 11.5483C30.8522 11.562 30.7974 11.5986 30.7575 11.6472C30.7062 11.7073 30.6464 11.7596 30.5811 11.8041C30.5492 11.8264 30.5228 11.8557 30.5039 11.8897C30.5413 11.9141 30.6001 11.9209 30.6262 11.8766C30.6666 11.8267 30.7193 11.7861 30.7794 11.7632C30.8325 11.7527 30.8865 11.774 30.9396 11.7796C30.982 11.8026 31.0255 11.8207 31.0741 11.8277C31.0993 11.8369 31.1423 11.8408 31.178 11.8508C31.227 11.8697 31.2789 11.8782 31.3296 11.8914C31.387 11.9032 31.4454 11.8991 31.5028 11.8898C31.5157 11.8883 31.5287 11.8879 31.5417 11.8875C31.5335 11.9061 31.5269 11.9232 31.5281 11.932C31.5292 11.9669 31.5444 11.9983 31.5598 12.0289C31.5784 12.0592 31.5971 12.0893 31.6152 12.119C31.63 12.1537 31.6471 12.1871 31.6604 12.2225C31.6778 12.2493 31.6876 12.2787 31.6997 12.3078C31.7076 12.3407 31.7208 12.3729 31.7437 12.3969C31.7669 12.4273 31.7944 12.4549 31.8153 12.4873C31.8344 12.5152 31.8486 12.5467 31.8631 12.576C31.8883 12.5972 31.9149 12.6281 31.9495 12.6244C31.9854 12.629 32.0194 12.6146 32.0547 12.6108L32.0426 12.6078C32.0096 12.5907 31.9932 12.5568 31.9757 12.5262C31.9677 12.4921 31.9644 12.4565 31.9583 12.4232C31.9561 12.3893 31.9441 12.3569 31.9326 12.3249C31.9239 12.2966 31.9124 12.2696 31.9049 12.2414C31.8912 12.2126 31.8799 12.1826 31.8692 12.1524C31.8573 12.1208 31.848 12.0881 31.8294 12.0596C31.8123 12.0291 31.7989 11.9969 31.7801 11.967C31.76 11.9399 31.7485 11.9048 31.7272 11.8791C31.7167 11.8629 31.7019 11.8544 31.6856 11.8488C31.6922 11.8327 31.6853 11.8111 31.6669 11.7939C31.6425 11.7649 31.6091 11.7375 31.5905 11.6999C31.5507 11.6504 31.4861 11.6345 31.4308 11.6086C31.3665 11.5794 31.2968 11.5654 31.2279 11.5519C31.1738 11.5372 31.1177 11.5311 31.0617 11.5337C31.0493 11.5337 31.0368 11.5334 31.0243 11.5332L31.0243 11.5332Z" fill="black"/>
<path d="M31.6656 12.4369C31.6636 12.3877 31.5965 12.4071 31.5758 12.4332C31.5427 12.4658 31.5242 12.5115 31.4844 12.5378C31.4259 12.5805 31.3486 12.5864 31.2904 12.6295C31.2569 12.664 31.2312 12.708 31.1863 12.7295C31.1404 12.7542 31.0904 12.782 31.0665 12.8307C31.056 12.8664 31.0318 12.916 31.0693 12.9445C31.1172 12.9625 31.0712 13.006 31.0739 13.0372C31.0963 13.0701 31.1505 13.0831 31.1844 13.0596C31.2296 13.0324 31.2786 13.0072 31.3081 12.9615C31.3511 12.9092 31.3995 12.8576 31.4615 12.8282C31.5025 12.818 31.5342 12.7907 31.5622 12.7609C31.5916 12.7368 31.5667 12.6899 31.6115 12.6819C31.6523 12.6664 31.6739 12.6278 31.6999 12.5957C31.724 12.5584 31.6802 12.5235 31.686 12.4837C31.6837 12.4664 31.6814 12.4474 31.6656 12.4369L31.6656 12.4369Z" fill="#69737C"/>
<path d="M32.3673 16.3397H32.12C32.0791 16.3232 32.0505 16.2547 31.9984 16.2819C31.953 16.2993 31.9077 16.3207 31.8645 16.3441C31.8227 16.3669 31.7873 16.397 31.76 16.4351C31.7549 16.4612 31.6784 16.4907 31.7428 16.4917C31.7986 16.4962 31.833 16.4389 31.8868 16.4314C31.9291 16.4144 31.9758 16.425 32.0202 16.4221C32.0563 16.4307 32.097 16.431 32.1361 16.4308C32.18 16.4274 32.2213 16.4355 32.2641 16.4344C32.3262 16.44 32.2411 16.4779 32.2212 16.4862C32.1727 16.5083 32.1187 16.5147 32.0668 16.5262C32.0154 16.5266 31.9624 16.5244 31.9151 16.5473C31.8675 16.5694 31.8197 16.5927 31.7757 16.6228C31.7517 16.6361 31.6906 16.6682 31.751 16.6688C31.7958 16.6743 31.8393 16.6633 31.8818 16.6498C31.9559 16.622 32.0327 16.6039 32.1108 16.5915C32.1617 16.58 32.2089 16.558 32.2604 16.5487C32.2918 16.5487 32.3757 16.5332 32.3493 16.5885C32.3172 16.6271 32.2715 16.6542 32.2261 16.6743C32.1877 16.6965 32.1521 16.7314 32.1039 16.7301C32.0675 16.7173 31.9908 16.7453 32.0463 16.7821C32.0742 16.8322 32.1333 16.7979 32.1698 16.7793C32.2126 16.7579 32.2547 16.741 32.2998 16.7236C32.3504 16.7048 32.4022 16.6852 32.4506 16.6634C32.491 16.6378 32.5414 16.6289 32.5784 16.6008C32.6223 16.5752 32.6744 16.5545 32.6954 16.5037C32.7086 16.4625 32.7399 16.4371 32.7795 16.4233C32.8245 16.412 32.8724 16.4191 32.918 16.4091C32.9693 16.4088 32.9546 16.3161 32.9072 16.3138C32.8657 16.2869 32.8304 16.2551 32.788 16.2312C32.738 16.2131 32.6853 16.2001 32.6309 16.2052C32.586 16.2084 32.5507 16.2368 32.5287 16.2738C32.5007 16.3065 32.4944 16.3639 32.4394 16.351C32.4145 16.3578 32.3901 16.3488 32.3673 16.3397V16.3397ZM31.1615 16.6476C31.1615 16.6476 31.2083 16.4748 31.2693 16.415C31.3932 16.2934 31.7458 16.2051 31.7458 16.2051C31.5953 16.2637 31.4148 16.2201 31.2693 16.2618C31.1479 16.2997 30.9402 16.4547 30.9402 16.4547C30.9402 16.4547 31.0171 16.2897 31.0764 16.2221C31.251 16.0312 31.5299 16.0089 31.7401 16.0406L31.9784 16.0746C31.9784 16.0746 32.019 16.0992 32.0011 16.1354C31.9636 16.2112 31.8506 16.2547 31.7742 16.291C31.5601 16.4001 31.2945 16.4853 31.1615 16.6476V16.6476Z" fill="#66452B" stroke="black" stroke-width="0.048584"/>
<path d="M31.8877 16.0406C31.6957 16.1705 31.2527 16.4026 31.2693 16.415C31.2693 16.415 31.6468 16.3287 31.8195 16.2448C31.8795 16.2158 31.9635 16.1947 31.9841 16.1314C31.9946 16.0989 31.9787 16.0533 31.9501 16.0349C31.9325 16.0237 31.905 16.0289 31.8877 16.0406Z" fill="#69737C" stroke="black" stroke-width="0.048584"/>
<path d="M32.8042 15.0345C32.7576 15.0314 32.7509 15.1167 32.749 15.1634C32.7476 15.1958 32.7474 15.2533 32.7797 15.2556C32.8208 15.2585 32.831 15.186 32.8349 15.145C32.8386 15.107 32.8424 15.0371 32.8042 15.0345Z" fill="#69737C"/>
<path d="M32.6077 16.2933C32.6092 16.2558 32.5615 16.2758 32.5412 16.2824C32.4947 16.293 32.4547 16.3194 32.414 16.343C32.3823 16.3637 32.348 16.3802 32.3154 16.3994C32.2511 16.4302 32.193 16.4724 32.1285 16.503C32.1013 16.5163 32.0731 16.5289 32.0436 16.5351C32.0196 16.5398 32.0282 16.555 32.0486 16.5532C32.0929 16.5627 32.139 16.5575 32.1815 16.5425C32.2288 16.5277 32.2825 16.5155 32.3281 16.4963C32.3527 16.4739 32.4035 16.4658 32.4318 16.4495C32.4554 16.4343 32.5169 16.4251 32.5423 16.4132C32.5846 16.3911 32.5673 16.3606 32.6155 16.3603C32.6457 16.3602 32.65 16.3144 32.6201 16.3086C32.6145 16.305 32.6093 16.3 32.6077 16.2933Z" fill="#69737C" stroke="black" stroke-width="0.048584"/>
<path d="M32.1718 16.6984C32.2058 16.6891 32.242 16.6908 32.2754 16.6785C32.3167 16.6679 32.3573 16.6546 32.3975 16.6406C32.4167 16.6311 32.436 16.6217 32.4551 16.6121C32.489 16.5882 32.5122 16.5524 32.5346 16.5182C32.55 16.4892 32.5644 16.4595 32.5791 16.4302C32.5859 16.4063 32.5569 16.3958 32.5423 16.4131C32.5205 16.4289 32.5004 16.4468 32.4778 16.4615C32.4558 16.4802 32.4292 16.4929 32.4087 16.5132C32.384 16.5423 32.3718 16.5804 32.344 16.6071C32.3309 16.6203 32.3159 16.6305 32.2989 16.638C32.2639 16.6571 32.2251 16.6673 32.1896 16.6852C32.1832 16.689 32.1764 16.6926 32.1718 16.6984Z" fill="#69737C" stroke="black" stroke-width="0.048584"/>
<path d="M32.635 14.1957C32.649 14.2179 32.6566 14.2444 32.6579 14.2703C32.662 14.3021 32.6698 14.3333 32.674 14.3649C32.6719 14.3978 32.6375 14.4178 32.6321 14.4502C32.63 14.4719 32.6334 14.4941 32.6282 14.5157C32.6204 14.551 32.6317 14.5879 32.6183 14.6223C32.6016 14.6543 32.554 14.63 32.5245 14.6384C32.4958 14.6451 32.4609 14.6465 32.4436 14.6178C32.4191 14.5916 32.3976 14.5624 32.3701 14.5391C32.3368 14.5067 32.3024 14.4743 32.2806 14.4327C32.2607 14.4047 32.2438 14.375 32.2246 14.3466C32.2182 14.3347 32.2115 14.3196 32.2066 14.3093M32.318 14.4896C32.2897 14.4898 32.2622 14.4986 32.233 14.4949H32.1483C32.1276 14.4865 32.0869 14.4863 32.0671 14.4728C32.0439 14.4683 32.0328 14.4545 32.0124 14.4459C31.9973 14.4351 31.9836 14.4467 31.9647 14.4438C31.952 14.4204 31.9243 14.391 31.909 14.3748C31.8928 14.3664 31.8749 14.3603 31.8623 14.3423C31.8449 14.338 31.8315 14.3094 31.8248 14.3002C31.8117 14.2849 31.808 14.2645 31.7953 14.2479C31.7833 14.2303 31.7789 14.2134 31.7664 14.1949C31.764 14.191 31.7657 14.186 31.7664 14.182" stroke="black" stroke-width="0.048584"/>
<path d="M31.9647 14.4438C31.9583 14.4844 31.9124 14.4433 31.892 14.4386C31.8751 14.4302 31.86 14.4204 31.8404 14.4142C31.8261 14.4033 31.807 14.3958 31.7922 14.3889C31.7746 14.3779 31.7522 14.3708 31.7389 14.357C31.7136 14.3513 31.695 14.3266 31.671 14.3199C31.6492 14.2993 31.6249 14.2842 31.6009 14.2682C31.5759 14.2484 31.5476 14.2312 31.5236 14.2067C31.5008 14.187 31.4815 14.1659 31.4797 14.1358C31.4778 14.1087 31.4708 14.0821 31.4593 14.0575C31.4622 14.0421 31.451 14.0368 31.4535 14.0229" stroke="black" stroke-width="0.048584"/>
<path d="M33.8497 14.466C33.8758 14.4677 33.9021 14.4654 33.9275 14.4592C33.9541 14.4577 33.9786 14.447 34.0041 14.441C34.0307 14.4298 34.0522 14.4033 34.0835 14.4058C34.1117 14.4043 34.1432 14.4144 34.1684 14.397C34.1842 14.3754 34.2068 14.3677 34.2327 14.3722C34.259 14.3684 34.2841 14.377 34.3094 14.3822C34.333 14.3907 34.3576 14.3959 34.3812 14.4042C34.404 14.4161 34.4264 14.4296 34.4504 14.4389C34.4742 14.451 34.4336 14.4678 34.4261 14.4799C34.4022 14.4897 34.3732 14.4806 34.352 14.4992C34.3302 14.5109 34.3105 14.5265 34.3003 14.5496C34.2875 14.5761 34.2554 14.5685 34.2323 14.577C34.2094 14.5803 34.186 14.5772 34.1631 14.5809C34.1435 14.5816 34.1224 14.5886 34.1042 14.579C34.0797 14.5713 34.0542 14.5656 34.0285 14.5649C34.0083 14.5511 33.9922 14.5287 33.9659 14.5267C33.9305 14.5187 33.9014 14.4953 33.8671 14.484C33.8631 14.4824 33.8595 14.48 33.8565 14.4768C33.8535 14.4737 33.8512 14.47 33.8497 14.466Z" fill="#BCA76B"/>
<path d="M30.6601 12.1813C30.6015 12.1689 30.544 12.1963 30.485 12.1951C30.4309 12.2072 30.374 12.1984 30.3187 12.2011C30.2609 12.1906 30.1989 12.1959 30.1401 12.2052C30.0527 12.2194 29.9697 12.2537 29.8817 12.267C29.7629 12.2747 29.6427 12.2682 29.5234 12.2703C29.4397 12.2773 29.5316 12.1689 29.579 12.1735C29.6879 12.1441 29.7942 12.1046 29.907 12.0936C29.9909 12.0812 30.0724 12.0557 30.1556 12.041C30.2231 12.0218 30.2912 12.0066 30.3585 11.9872C30.4284 11.9754 30.4989 11.9622 30.5696 11.9742C30.6425 11.9562 30.7155 11.939 30.7851 11.9093C30.8483 11.8779 30.924 11.8989 30.9834 11.8598C31.0209 11.8044 31.0911 11.8064 31.1508 11.8115C31.2142 11.8231 31.2837 11.8464 31.3226 11.9026C31.3692 11.9703 31.2264 11.9615 31.2692 12.0324C31.2439 12.0584 31.1952 12.0646 31.1564 12.0626C31.123 12.0607 31.0877 12.0694 31.0574 12.0513C31.0032 12.0322 30.9619 11.9903 30.912 11.9616C30.8609 11.9537 30.8583 12.048 30.7937 12.0379C30.7119 12.0692 30.6225 12.0612 30.5365 12.0626C30.5907 12.0824 30.6498 12.1017 30.6931 12.1398C30.7101 12.166 30.68 12.1759 30.6601 12.1813Z" fill="black" stroke="black" stroke-width="0.0323893"/>
<path d="M31.0064 11.944L31.0608 11.9193L31.0904 11.8698C31.0904 11.8698 31.1372 11.94 31.1152 11.9637C31.0901 11.9908 31.0064 11.944 31.0064 11.944ZM31.1509 11.8115C31.162 11.803 31.1058 11.7681 31.1477 11.7589C31.1921 11.7058 31.2619 11.7496 31.3135 11.7658C31.4128 11.7972 31.5173 11.8359 31.5835 11.921C31.6788 12.031 31.7002 12.1814 31.7757 12.3029C31.8081 12.3611 31.8288 12.4246 31.8502 12.4871C31.8659 12.537 31.942 12.5887 31.9023 12.6423C31.8555 12.6708 31.808 12.6327 31.7639 12.6212C31.704 12.6149 31.7331 12.6818 31.7723 12.6896C31.8148 12.7065 31.828 12.7742 31.7672 12.7703C31.7091 12.7634 31.6513 12.759 31.5944 12.75C31.5491 12.7254 31.6066 12.6801 31.632 12.6636C31.666 12.6432 31.7109 12.616 31.7043 12.5696C31.705 12.4859 31.647 12.4173 31.6344 12.3361C31.6193 12.2753 31.6048 12.2134 31.5745 12.158C31.5484 12.0274 31.4311 11.9374 31.3105 11.8975C31.2589 11.8709 31.2038 11.848 31.1544 11.819L31.1509 11.8115V11.8115Z" fill="white"/>
<path d="M31.5852 11.877C31.6025 11.8866 31.6194 11.8971 31.637 11.9061C31.651 11.9205 31.6831 11.969 31.6932 11.9864C31.7 12.0006 31.7032 12.0158 31.7067 12.0312C31.7098 12.0508 31.725 12.0644 31.7355 12.0801C31.745 12.1024 31.7521 12.1258 31.761 12.1484C31.7726 12.166 31.7841 12.1841 31.7884 12.2052C31.7925 12.2229 31.7977 12.2401 31.8049 12.2569C31.8147 12.271 31.8201 12.2989 31.7956 12.3002C31.7795 12.296 31.7624 12.2877 31.7527 12.2732C31.7339 12.2561 31.7239 12.2322 31.7093 12.2119C31.7005 12.1976 31.6951 12.1803 31.6916 12.1653C31.6815 12.1479 31.6791 12.1271 31.672 12.1083C31.6631 12.0906 31.66 12.0709 31.6497 12.0539C31.6383 12.0347 31.6341 12.0123 31.6218 11.9935C31.6116 11.9707 31.5743 11.9143 31.5831 11.8881C31.5839 11.8844 31.5847 11.8807 31.5852 11.877ZM31.1942 11.7314C31.1806 11.7269 31.1708 11.7165 31.1617 11.7061C31.1513 11.7 31.1324 11.6934 31.125 11.686C31.0996 11.6961 31.1205 11.6694 31.108 11.6734C31.1022 11.6637 31.1029 11.6566 31.0968 11.6463C31.0889 11.637 31.0788 11.6299 31.0715 11.6201C31.072 11.6148 31.0608 11.6078 31.072 11.6078C31.0854 11.6074 31.0997 11.6061 31.1119 11.6124C31.1252 11.6101 31.1353 11.6201 31.1483 11.618C31.1669 11.6166 31.1856 11.6183 31.2042 11.6175C31.2132 11.6143 31.2145 11.6259 31.2241 11.6227C31.2306 11.6239 31.2324 11.6294 31.2399 11.6269C31.255 11.6277 31.2571 11.6436 31.2653 11.6524C31.2766 11.6593 31.2815 11.6716 31.2842 11.6831C31.2867 11.6861 31.2891 11.6997 31.2882 11.6967C31.2898 11.6937 31.29 11.71 31.2828 11.7093C31.2736 11.7189 31.2604 11.7201 31.2501 11.7262C31.237 11.7272 31.2271 11.7389 31.2137 11.7362C31.2071 11.7351 31.2008 11.7327 31.1942 11.7314Z" fill="#BCA76B"/>
<path d="M31.1617 11.7062C31.1428 11.7144 31.1222 11.722 31.1012 11.719C31.0873 11.7221 31.077 11.7325 31.0667 11.7416C31.0546 11.7493 31.0401 11.7517 31.0263 11.7544C31.015 11.752 31.0065 11.7429 30.9952 11.7399C30.9854 11.7361 30.9858 11.7229 30.9753 11.7197C30.9648 11.7124 30.9529 11.7079 30.9412 11.703C30.9311 11.6987 30.9345 11.6864 30.9333 11.6776C30.9329 11.6676 30.9344 11.6575 30.9383 11.6483C30.9378 11.6342 30.9504 11.6289 30.9626 11.6316C30.9856 11.6318 31.0086 11.6317 31.0317 11.6317C31.0431 11.6257 31.0562 11.6191 31.0694 11.6213C31.0822 11.6255 31.0884 11.6387 31.0988 11.6464C31.1201 11.666 31.1407 11.6863 31.1617 11.7062ZM31.2654 11.6524C31.2806 11.6446 31.2973 11.637 31.3142 11.6348C31.3312 11.634 31.3469 11.6413 31.3632 11.6447C31.3808 11.6501 31.3986 11.6544 31.4145 11.664C31.433 11.6701 31.4493 11.6802 31.4671 11.6882C31.4831 11.6969 31.4988 11.7064 31.5152 11.7142C31.5304 11.7216 31.5451 11.7302 31.5587 11.74C31.5733 11.7515 31.5879 11.7637 31.5988 11.7788C31.609 11.7905 31.5991 11.8122 31.5836 11.8C31.5683 11.79 31.5513 11.7839 31.534 11.778C31.518 11.7757 31.5025 11.7731 31.488 11.7655C31.4713 11.7623 31.456 11.7513 31.439 11.747C31.4174 11.7371 31.3944 11.7306 31.3729 11.7203C31.3637 11.7133 31.3515 11.7122 31.3415 11.7062C31.3216 11.6956 31.3011 11.6863 31.2811 11.6758C31.275 11.6694 31.2627 11.6631 31.2654 11.6524Z" fill="white"/>
<path d="M31.5123 12.0037C31.4457 11.9985 31.3789 12.0295 31.313 12.0084C31.2633 12.0017 31.2245 12.0393 31.1816 12.0571C31.1261 12.0516 31.1147 12.1312 31.0654 12.1272C31.0232 12.1222 30.9729 12.0895 30.9347 12.1046C31.0205 12.1427 31.1081 12.1808 31.1844 12.2364C31.226 12.2749 31.2732 12.3086 31.3279 12.3253C31.365 12.3413 31.4081 12.3784 31.3914 12.4233C31.3748 12.4758 31.2963 12.485 31.2932 12.5445C31.2843 12.5966 31.227 12.6188 31.2085 12.6659C31.1883 12.7025 31.1413 12.7244 31.1377 12.7692C31.149 12.8251 31.214 12.783 31.2122 12.7419C31.2219 12.7061 31.2538 12.6508 31.2981 12.6736C31.3343 12.7248 31.3788 12.6377 31.4223 12.6586C31.4424 12.6887 31.4891 12.7046 31.5093 12.6646C31.5387 12.653 31.5851 12.6338 31.557 12.5918C31.556 12.5488 31.6092 12.5517 31.6334 12.5273C31.667 12.5121 31.7024 12.4685 31.6656 12.4369C31.6326 12.391 31.6681 12.3253 31.6267 12.2827C31.5953 12.2338 31.6276 12.1727 31.6015 12.122C31.5793 12.08 31.5619 12.0205 31.5171 12.0023L31.5123 12.0037Z" fill="black"/>
<path d="M33.3025 13.8181C33.2262 13.8167 33.1648 13.875 33.0894 13.8804C32.9981 13.8932 33.1132 13.9345 33.1413 13.9543C33.2139 14.0024 33.3003 14.019 33.381 14.0471C33.4564 14.083 33.5416 14.1054 33.6249 14.0908C33.7025 14.0726 33.645 13.9956 33.6233 13.953C33.5769 13.8866 33.4981 13.853 33.4398 13.7983C33.3976 13.7608 33.3344 13.7743 33.3025 13.8181V13.8181Z" fill="#69737C"/>
<path d="M33.2509 13.9801C33.223 13.9835 33.1956 13.9926 33.1671 13.9894C33.1344 13.9923 33.0997 13.999 33.0696 13.9813C33.0357 13.9726 33.001 13.966 32.9706 13.9476C32.9471 13.932 32.9153 13.9257 32.9013 13.8991C32.8813 13.8707 32.9217 13.8683 32.9404 13.8652C32.9743 13.8583 33.0104 13.8517 33.0449 13.8587C33.0824 13.8781 33.1234 13.8883 33.1607 13.9079C33.1916 13.9214 33.2226 13.9369 33.2453 13.962C33.245 13.9611 33.2505 13.9736 33.2509 13.9801V13.9801Z" fill="white"/>
<path d="M33.6248 13.9573C33.63 13.9899 33.5724 13.959 33.5519 13.9697C33.5129 13.9752 33.4787 13.963 33.443 13.9479C33.3864 13.9211 33.3289 13.8947 33.2678 13.881C33.2394 13.8736 33.1815 13.8474 33.2233 13.815C33.2561 13.7897 33.2986 13.7693 33.3388 13.764C33.3819 13.7617 33.419 13.7905 33.4587 13.8046C33.4985 13.8239 33.5405 13.8406 33.5751 13.8693C33.5998 13.8898 33.6279 13.9215 33.6248 13.9573Z" fill="white"/>
<path d="M32.5918 13.5883C32.5364 13.6216 32.4729 13.6372 32.4085 13.6355C32.3513 13.6566 32.2532 13.605 32.2329 13.6809C32.2053 13.7427 32.2798 13.7689 32.3195 13.796C32.436 13.8633 32.5734 13.8598 32.7035 13.8655C32.7391 13.8677 32.8519 13.8521 32.7921 13.8086C32.7269 13.7587 32.6784 13.6923 32.6264 13.6298C32.6134 13.6173 32.5992 13.6053 32.5918 13.5883ZM33.2445 13.6308C33.2184 13.627 33.1938 13.616 33.1688 13.6086C33.1344 13.5971 33.1051 13.5742 33.0722 13.5581C33.0279 13.5329 32.9844 13.5058 32.9384 13.484C32.916 13.4761 32.9203 13.4517 32.9449 13.4547C32.9694 13.4555 32.9778 13.4164 33.0017 13.4419C33.0318 13.4601 33.0601 13.4805 33.0833 13.5073C33.1112 13.5303 33.1373 13.5586 33.1739 13.5672C33.2001 13.5818 33.2426 13.5962 33.2445 13.6308ZM33.1564 13.7516C33.1564 13.7516 33.0383 13.7823 32.9834 13.7597C32.9429 13.7476 32.9012 13.7397 32.8634 13.7198C32.8173 13.6967 32.7675 13.6758 32.7312 13.6379C32.702 13.601 32.7382 13.543 32.7851 13.5581C32.8138 13.55 32.802 13.4843 32.8459 13.5135C32.9061 13.5407 32.9665 13.5705 33.0183 13.6119C33.0496 13.6417 33.0847 13.6676 33.1145 13.6988C33.1293 13.7156 33.1564 13.7516 33.1564 13.7516ZM32.2757 12.9216C32.3545 12.9419 32.4461 12.9787 32.4943 13.0482C32.5636 13.1324 32.4284 13.1783 32.3673 13.1307C32.267 13.0816 32.1661 13.0311 32.0585 13.0006C31.9556 13.0139 32.1041 13.0735 32.1329 13.1006C32.1783 13.1275 32.2173 13.1792 32.2166 13.2309C32.1488 13.2836 32.0616 13.2274 31.9869 13.22C31.9052 13.2106 31.8595 13.1391 31.808 13.0844C31.7707 13.0456 31.7274 13.0223 31.6775 13.045C31.6774 13.1134 31.7273 13.1304 31.7589 13.1881C31.7869 13.2229 31.8952 13.3113 31.7906 13.312C31.7143 13.291 31.6439 13.2409 31.6032 13.1713C31.5565 13.1232 31.5201 13.0232 31.6161 13.0106C31.6987 12.9609 31.7956 12.9363 31.8921 12.9364C31.9969 12.9268 32.1033 12.9437 32.2063 12.9164C32.2208 12.9208 32.2875 12.8863 32.2757 12.9216Z" fill="#69737C"/>
<path d="M31.478 12.9816C31.4651 13.004 31.4557 13.0256 31.4555 13.0494C31.454 13.0781 31.4568 13.1044 31.4594 13.1309C31.4667 13.1521 31.4722 13.1766 31.481 13.197C31.4938 13.2212 31.5142 13.2358 31.5338 13.2527C31.5498 13.2703 31.5663 13.2794 31.5866 13.2906C31.6022 13.3 31.6177 13.306 31.6353 13.312C31.6509 13.3189 31.6759 13.3256 31.6971 13.3298C31.7204 13.3338 31.7369 13.3302 31.7463 13.3106C31.77 13.2957 31.7508 13.2831 31.7348 13.2783C31.7166 13.2749 31.7007 13.2602 31.6845 13.2465C31.667 13.2308 31.6541 13.2129 31.6429 13.1929C31.6363 13.1751 31.6239 13.1585 31.6119 13.1413C31.5999 13.1272 31.5905 13.1128 31.5745 13.0984C31.5572 13.0828 31.5413 13.0657 31.5271 13.0472C31.5157 13.0315 31.4982 13.0115 31.484 12.9964C31.4807 12.9921 31.4777 12.9871 31.478 12.9816ZM32.1708 13.2549C32.1269 13.2508 32.0566 13.2324 32.0042 13.2173C31.9451 13.1967 31.8904 13.1616 31.8536 13.1104C31.8097 13.0696 31.7669 13.0262 31.7158 12.9945C31.6625 12.9783 31.6407 13.0533 31.6747 13.0858C31.7038 13.1325 31.7465 13.1689 31.7794 13.213C31.8179 13.2537 31.8656 13.2832 31.9147 13.3096C31.9768 13.3477 32.0515 13.3596 32.1231 13.3643C32.1647 13.3591 32.2148 13.3335 32.2252 13.2898C32.2285 13.2617 32.1913 13.2556 32.1708 13.2549ZM32.0172 13.6069C31.979 13.6139 31.9366 13.6141 31.9042 13.5894C31.8717 13.5734 31.8494 13.5412 31.8299 13.5116C31.8033 13.4805 31.7726 13.4474 31.7322 13.4354C31.6965 13.4253 31.6534 13.4503 31.6647 13.4909C31.6696 13.5247 31.6954 13.5512 31.7183 13.5748C31.7564 13.6125 31.8079 13.6293 31.8559 13.6502C31.88 13.6631 31.9092 13.6659 31.9362 13.6663C31.9638 13.6659 32.0078 13.6763 32.0171 13.6413C32.0185 13.6298 32.0162 13.6183 32.0171 13.6069H32.0172ZM32.4029 13.4946C32.4356 13.5089 32.4583 13.5509 32.4368 13.5836C32.4125 13.6181 32.3683 13.6385 32.3259 13.633C32.2902 13.6318 32.254 13.637 32.2191 13.6267C32.1793 13.6146 32.1421 13.5964 32.1058 13.5767C32.0654 13.5633 32.0611 13.516 32.0344 13.4888C32.0179 13.458 32.0734 13.4431 32.0964 13.4519C32.1353 13.4646 32.159 13.5015 32.1967 13.5155C32.2265 13.5312 32.2568 13.5462 32.2909 13.5499C32.3199 13.5567 32.3583 13.5627 32.3772 13.5334C32.3843 13.5196 32.3936 13.5069 32.4029 13.4946Z" fill="white"/>
<path d="M32.7399 13.4103C32.7682 13.4399 32.7508 13.4957 32.7109 13.505C32.6779 13.5118 32.6427 13.5195 32.6097 13.5085C32.5607 13.4967 32.5172 13.4701 32.4753 13.4434C32.4499 13.4223 32.4102 13.415 32.3916 13.3856C32.3803 13.3456 32.424 13.3138 32.4612 13.328C32.5145 13.3455 32.5716 13.3522 32.6212 13.3801C32.6573 13.3955 32.694 13.4116 32.7332 13.4129L32.7399 13.4103Z" fill="white"/>
<path d="M32.8483 13.0313C33.0196 13.1704 33.1862 13.316 33.3202 13.4926C33.4235 13.6149 33.4867 13.7811 33.6381 13.8576C33.8516 14.0855 34.7651 14.3497 34.7681 14.421C34.5576 14.3352 34.466 14.6225 34.262 14.5763C34.0721 14.6315 33.9157 14.5073 33.7514 14.4382C33.5045 14.4294 33.2474 14.4422 33.0276 14.5674C32.9076 14.6327 32.7647 14.532 32.6697 14.5651L32.6588 14.5858L32.6446 14.5985M31.4802 14.1608C31.3339 14.0882 31.2268 13.9518 31.0907 13.8697C30.9854 13.7214 30.8502 13.5731 30.8566 13.3781C30.8401 13.1765 30.7873 12.8978 30.883 12.7062C30.8143 12.556 30.7179 12.5155 30.6419 12.3675C30.5868 12.1628 30.3793 12.0453 30.5039 11.8897C30.6425 11.7665 30.7395 11.6211 30.9181 11.5572C31.0662 11.5228 31.2164 11.5373 31.3586 11.5881C31.5426 11.6097 31.6435 11.7667 31.7406 11.9026C31.8586 12.0864 31.9366 12.2929 31.9696 12.5088C32.0544 12.6862 32.2799 12.7223 32.4453 12.798C32.5878 12.8654 32.7301 12.9229 32.8483 13.0313" stroke="black" stroke-width="0.048584"/>
</g>
<defs>
<clipPath id="clip0_1519_1200">
<rect width="40" height="40" rx="20" fill="white"/>
</clipPath>
</defs>
</svg>
