<svg width="40" height="40" viewBox="0 0 40 40" fill="none" xmlns="http://www.w3.org/2000/svg">
<g clip-path="url(#clip0_1519_997)">
<path d="M38.756 26.9566C39.56 24.7899 40 22.4465 40 20.0001C40 17.5537 39.56 15.2102 38.756 13.0436L20 11.3044L1.24398 13.0436C0.44 15.2102 0 17.5537 0 20.0001C0 22.4465 0.44 24.7899 1.24398 26.9566L20 28.6957L38.756 26.9566Z" fill="#F0F0F0"/>
<path d="M20.0001 39.9999C28.5993 39.9999 35.9303 34.5724 38.756 26.9564H1.24402C4.06996 34.5724 11.4007 39.9999 20.0001 39.9999Z" fill="#338AF3"/>
<path d="M20.0001 0C11.4007 0 4.06996 5.4275 1.24402 13.0435H38.7561C35.9303 5.4275 28.5993 0 20.0001 0Z" fill="#6DA544"/>
</g>
<defs>
<clipPath id="clip0_1519_997">
<rect width="40" height="40" fill="white"/>
</clipPath>
</defs>
</svg>
