<svg width="40" height="40" viewBox="0 0 40 40" fill="none" xmlns="http://www.w3.org/2000/svg">
<g clip-path="url(#clip0_1519_980)">
<path d="M28.6957 1.98453C26.0663 0.713125 23.1165 0 20.0001 0C16.8837 0 13.9338 0.713125 11.3044 1.98453L9.56531 20L11.3044 38.0155C13.9338 39.2869 16.8837 40 20.0001 40C23.1165 40 26.0663 39.2869 28.6957 38.0155L30.4348 20L28.6957 1.98453Z" fill="#FFDA44"/>
<path d="M19.9998 13.0437L21.7264 18.3578H27.3145L22.7939 21.6424L24.5205 26.9567L19.9998 23.6723L15.4791 26.9567L17.2061 21.6424L12.6854 18.3578H18.2732L19.9998 13.0437Z" fill="#496E2D"/>
<path d="M11.3044 1.98535C4.61453 5.22027 0 12.071 0 20.0001C0 27.9293 4.61453 34.78 11.3044 38.0149V1.98535Z" fill="#496E2D"/>
<path d="M28.6956 1.98511V38.0146C35.3854 34.7797 39.9999 27.929 39.9999 19.9999C39.9999 12.0707 35.3854 5.22003 28.6956 1.98511Z" fill="#D80027"/>
</g>
<defs>
<clipPath id="clip0_1519_980">
<rect width="40" height="40" fill="white"/>
</clipPath>
</defs>
</svg>
