<svg width="40" height="40" viewBox="0 0 40 40" fill="none" xmlns="http://www.w3.org/2000/svg">
<g clip-path="url(#clip0_1519_1201)">
<path d="M20.0002 40.0001C31.0459 40.0001 40.0002 31.0458 40.0002 20.0001C40.0002 8.95443 31.0459 0.00012207 20.0002 0.00012207C8.95455 0.00012207 0.000244141 8.95443 0.000244141 20.0001C0.000244141 31.0458 8.95455 40.0001 20.0002 40.0001Z" fill="#F0F0F0"/>
<path d="M38.4399 12.2463C35.4111 5.05172 28.2961 0 20.0001 0C14.4772 0 9.4777 2.23898 5.85864 5.85851L10.8672 12.2463H38.4399Z" fill="black"/>
<path d="M10.924 27.6813L5.85864 34.1415C9.4777 37.761 14.4772 40 20.0001 40C28.324 40 35.4593 34.9146 38.4707 27.6813H10.924Z" fill="#496E2D"/>
<path d="M4.3479 14.7103V25.2175H39.3112C39.7598 23.5542 40.0001 21.8054 40.0001 20.0002C40.0001 18.1688 39.7534 16.3953 39.2922 14.7103H4.3479Z" fill="#A2001D"/>
<path d="M5.85785 5.85791C-1.95262 13.6684 -1.95262 26.3317 5.85785 34.1423C9.08543 30.9147 12.1896 27.8106 20 20.0001L5.85785 5.85791Z" fill="#0052B4"/>
<path d="M6.51449 15.0276L8.95551 18.4339L12.9499 17.1648L10.4646 20.5392L12.9057 23.9457L8.92848 22.6249L6.44316 25.9992L6.47051 21.8084L2.49316 20.4874L6.48723 19.2183L6.51449 15.0276Z" fill="#FFDA44"/>
</g>
<defs>
<clipPath id="clip0_1519_1201">
<rect width="40" height="40" fill="white"/>
</clipPath>
</defs>
</svg>
