<svg width="40" height="40" viewBox="0 0 40 40" fill="none" xmlns="http://www.w3.org/2000/svg">
<g clip-path="url(#clip0_1519_956)">
<path d="M19.9998 39.9998C31.0455 39.9998 39.9998 31.0454 39.9998 19.9998C39.9998 8.95406 31.0455 -0.000244141 19.9998 -0.000244141C8.95406 -0.000244141 -0.000244141 8.95406 -0.000244141 19.9998C-0.000244141 31.0454 8.95406 39.9998 19.9998 39.9998Z" fill="#FFDA44"/>
<path d="M12.1739 13.0435H38.7559C35.9302 5.4275 28.5992 0 20 0C14.477 0 9.47758 2.23898 5.85852 5.85851L12.1739 13.0435Z" fill="#6DA544"/>
<path d="M12.1739 26.9565H38.7559C35.9302 34.5726 28.5992 40.0001 20 40.0001C14.477 40.0001 9.47758 37.7611 5.85852 34.1415L12.1739 26.9565Z" fill="#6DA544"/>
<path d="M5.85785 5.85767C-1.95262 13.6681 -1.95262 26.3315 5.85785 34.142C9.08543 30.9145 12.1896 27.8103 20 19.9999L5.85785 5.85767Z" fill="#D80027"/>
<path d="M25.3964 16.5217L26.2598 19.1789H29.0537L26.7934 20.8211L27.6567 23.4783L25.3964 21.836L23.1361 23.4783L23.9994 20.8211L21.7391 19.1789H24.533L25.3964 16.5217Z" fill="black"/>
<path d="M34.0922 16.5217L34.9554 19.1789H37.7493L35.4891 20.8211L36.3524 23.4783L34.0922 21.836L31.8318 23.4783L32.6951 20.8211L30.4348 19.1789H33.2287L34.0922 16.5217Z" fill="black"/>
</g>
<defs>
<clipPath id="clip0_1519_956">
<rect width="40" height="40" fill="white"/>
</clipPath>
</defs>
</svg>
