<svg width="40" height="40" viewBox="0 0 40 40" fill="none" xmlns="http://www.w3.org/2000/svg">
<g clip-path="url(#clip0_1519_1215)">
<path d="M38.0155 28.6956C39.2869 26.0663 40 23.1163 40 19.9999C40 16.8835 39.2869 13.9336 38.0155 11.3043L20 10.4347L1.98453 11.3042C0.713125 13.9336 0 16.8835 0 19.9999C0 23.1163 0.713125 26.0663 1.98453 28.6956L20 29.5652L38.0155 28.6956Z" fill="#FFDA44"/>
<path d="M19.9998 0C12.0706 0 5.21937 4.61445 1.98438 11.3044H38.0152C34.7803 4.61445 27.929 0 19.9998 0V0Z" fill="black"/>
<path d="M19.9998 39.9999C12.0706 39.9999 5.21937 35.3855 1.98438 28.6956H38.0152C34.7803 35.3855 27.929 39.9999 19.9998 39.9999V39.9999Z" fill="#0052B4"/>
<path d="M39.0555 13.913H0.944453C0.331797 15.8324 0 17.8773 0 19.9999C0 22.1225 0.331797 24.1674 0.944453 26.0869H39.0555C39.6682 24.1674 40 22.1225 40 19.9999C40 17.8773 39.6682 15.8324 39.0555 13.913Z" fill="#A2001D"/>
<path d="M6.9563 19.1306H33.0433V20.8698H6.9563V19.1306Z" fill="#FFDA44"/>
<path d="M10.4344 15.6522H29.5649V17.3914H10.4344V15.6522Z" fill="#FFDA44"/>
<path d="M29.6893 20C29.6893 20 25.2172 25.2174 19.9999 25.2174C14.7825 25.2174 14.7825 20 14.7825 20C14.7825 20 14.7825 14.7826 19.9999 14.7826C25.2173 14.7826 29.6893 20 29.6893 20Z" fill="#F0F0F0"/>
<path d="M20 25.2174C14.7826 25.2174 10.3105 20 10.3105 20C10.3105 20 14.7826 14.7826 20 14.7826" fill="black"/>
<path d="M16.5216 18.2607H18.2607V21.739H16.5216V18.2607Z" fill="#F0F0F0"/>
<path d="M21.7391 18.2607H23.4783V21.739H21.7391V18.2607Z" fill="black"/>
<path d="M6.95643 21.739C7.91693 21.739 8.69557 20.9604 8.69557 19.9999C8.69557 19.0394 7.91693 18.2607 6.95643 18.2607C5.99593 18.2607 5.21729 19.0394 5.21729 19.9999C5.21729 20.9604 5.99593 21.739 6.95643 21.739Z" fill="#0052B4"/>
<path d="M33.0433 21.739C34.0038 21.739 34.7825 20.9604 34.7825 19.9999C34.7825 19.0394 34.0038 18.2607 33.0433 18.2607C32.0828 18.2607 31.3042 19.0394 31.3042 19.9999C31.3042 20.9604 32.0828 21.739 33.0433 21.739Z" fill="#0052B4"/>
</g>
<defs>
<clipPath id="clip0_1519_1215">
<rect width="40" height="40" fill="white"/>
</clipPath>
</defs>
</svg>
