<svg width="40" height="40" viewBox="0 0 40 40" fill="none" xmlns="http://www.w3.org/2000/svg">
<g clip-path="url(#clip0_1515_687)">
<path d="M20 0C17.5536 0 15.2101 0.440078 13.0436 1.24398L12.174 20L13.0435 38.756C15.2101 39.56 17.5536 40 20 40C22.4464 40 24.79 39.56 26.9565 38.756L27.8261 20L26.9566 1.24398C24.79 0.440078 22.4464 0 20 0V0Z" fill="#FFDA44"/>
<path d="M40.0001 19.9999C40.0001 11.4006 34.5726 4.06976 26.9565 1.2439V38.756C34.5726 35.9301 40.0001 28.5992 40.0001 19.9999Z" fill="#D80027"/>
<path d="M13.0435 38.7559V1.2439C5.4275 4.06976 0 11.4006 0 19.9999C0 28.5992 5.4275 35.9301 13.0435 38.7559Z" fill="#0052B4"/>
</g>
<defs>
<clipPath id="clip0_1515_687">
<rect width="40" height="40" fill="white"/>
</clipPath>
</defs>
</svg>
