<svg width="40" height="40" viewBox="0 0 40 40" fill="none" xmlns="http://www.w3.org/2000/svg">
<g clip-path="url(#clip0_1519_1237)">
<path d="M20 39.9999C31.0457 39.9999 40 31.0456 40 19.9999C40 8.95418 31.0457 -0.00012207 20 -0.00012207C8.9543 -0.00012207 0 8.95418 0 19.9999C0 31.0456 8.9543 39.9999 20 39.9999Z" fill="#FFDA44"/>
<path d="M20.0001 -0.00012207C19.9856 3.41797e-05 19.1306 7.99988 19.1306 7.99988H36.0011C32.3523 3.1423 26.5433 -0.00012207 20.0001 -0.00012207Z" fill="#496E2D"/>
<path d="M20.0001 39.9999C26.5432 39.9999 32.3522 36.8575 36.001 31.9999H3.99927C7.64802 36.8575 13.457 39.9999 20.0001 39.9999Z" fill="#496E2D"/>
<path d="M39.5997 15.9999H19.1306L20.0001 23.9999H39.5997C39.8622 22.7075 40.0001 21.3698 40.0001 19.9999C40.0001 18.63 39.862 17.2923 39.5997 15.9999V15.9999Z" fill="#496E2D"/>
<path d="M20 23.9999C20 19.826 20 4.6955 20 -0.00012207C8.95437 -0.00012207 0 8.95425 0 19.9999C0 21.3698 0.138125 22.7075 0.400469 23.9999H20Z" fill="#D80027"/>
<path d="M11.0355 9.56519L12.3305 13.5507H16.5215L13.1311 16.0142L14.4259 20L11.0355 17.5367L7.645 20L8.94007 16.0142L5.54968 13.5507H9.74054L11.0355 9.56519Z" fill="#F0F0F0"/>
</g>
<defs>
<clipPath id="clip0_1519_1237">
<rect width="40" height="40" fill="white"/>
</clipPath>
</defs>
</svg>
