<svg width="40" height="40" viewBox="0 0 40 40" fill="none" xmlns="http://www.w3.org/2000/svg">
<g clip-path="url(#clip0_1519_927)">
<path d="M40 0H0V40H40V0Z" fill="white"/>
<path d="M8.14759 11.012V7.63426H9.24902L9.96938 10.2049L10.6799 7.63426H11.7862V11.012H11.088V8.2878L10.3529 11.012H9.59076L8.84581 8.2878V11.012H8.14759ZM13.8908 8.31073L13.3892 9.74853H14.3948L13.8908 8.31073ZM13.4581 7.63426H14.3186L15.6241 11.012H14.8422L14.5964 10.3172H13.1926L12.9541 11.012H12.1698L13.4581 7.63426ZM17.6155 11.012H16.8706V9.75311L15.5552 7.63425H16.4674L17.2418 9.09039L17.9572 7.63425H18.8079L17.6155 9.75311V11.012ZM19.7348 9.32659C19.7348 9.69808 19.8233 9.98701 20.0003 10.1934C20.1773 10.3983 20.4248 10.5007 20.7428 10.5007C21.064 10.5007 21.314 10.3983 21.4926 10.1934C21.6713 9.98702 21.7606 9.69808 21.7606 9.32659C21.7606 8.9551 21.6713 8.66694 21.4926 8.46208C21.314 8.2557 21.064 8.15251 20.7428 8.15251C20.4248 8.15251 20.1773 8.25494 20.0003 8.45979C19.8233 8.66464 19.7348 8.95357 19.7348 9.32659ZM18.9751 9.32659C18.9751 8.78083 19.1341 8.34819 19.452 8.02868C19.7717 7.70764 20.2019 7.54712 20.7428 7.54712C21.2837 7.54712 21.7139 7.70764 22.0335 8.02868C22.3548 8.34972 22.5154 8.78236 22.5154 9.32659C22.5154 9.87083 22.3548 10.3035 22.0335 10.6245C21.7139 10.9455 21.2837 11.1061 20.7428 11.1061C20.2019 11.1061 19.7717 10.9455 19.452 10.6245C19.1341 10.3035 18.9751 9.87083 18.9751 9.32659ZM23.8553 11.0121V8.23735H22.7809V7.63426H25.6673V8.23735H24.6003V11.0121H23.8553ZM26.8449 11.0121V8.23735H25.7705V7.63426H28.6569V8.23735H27.5899V11.0121H26.8449ZM29.0847 11.0121V7.63426H31.7129V8.2213H29.8198V8.94135H31.5506V9.51922H29.8198V10.3883H31.8014V11.0121L29.0847 11.0121Z" fill="#D42E12"/>
<path d="M10.4157 13.4799C10.1009 13.5242 9.86358 13.6107 9.54648 13.8014C9.44448 13.8635 9.34913 13.9078 9.33139 13.9012C9.31365 13.8945 9.29369 13.8413 9.28482 13.777C9.27595 13.7171 9.25599 13.6484 9.24047 13.6284C9.19612 13.5663 9.15399 13.6173 9.07194 13.8258C9.03424 13.9256 8.99211 14.0209 8.98102 14.0342C8.94111 14.083 8.88789 14.0653 8.82358 13.9854C8.75928 13.9034 8.66171 13.879 8.63953 13.9389C8.63288 13.9566 8.63731 14.0276 8.65062 14.0985C8.69053 14.307 8.62623 14.338 8.44439 14.1983C8.28695 14.0764 8.22708 14.052 8.16721 14.083C8.10512 14.1163 8.10733 14.1628 8.18716 14.3469C8.25591 14.5066 8.26034 14.6219 8.19382 14.5287C8.17608 14.5043 8.09403 14.4489 8.00976 14.409C7.9255 14.3668 7.79467 14.2981 7.71706 14.2538C7.63944 14.2116 7.533 14.1606 7.47978 14.1407C7.38222 14.1074 6.85445 14.0298 6.8101 14.0453C6.7968 14.0497 6.86998 14.1096 6.96976 14.1806C7.18929 14.3314 7.61062 14.7172 7.61062 14.766C7.61062 14.7948 7.58622 14.7993 7.43322 14.786C7.23143 14.7682 7.23586 14.7616 7.28021 14.9722C7.29573 15.0454 7.29795 15.0942 7.28465 15.1075C7.27134 15.1208 7.2026 15.1164 7.09838 15.0942C7.00746 15.0764 6.92763 15.0609 6.91876 15.0609C6.8855 15.0609 6.90102 15.2361 6.94759 15.3847C6.99194 15.5244 6.99194 15.5377 6.95646 15.5621C6.91211 15.5953 6.86111 15.5798 6.52405 15.4246C6.32447 15.3315 6.27347 15.3159 6.16481 15.3204C6.09607 15.3226 6.01403 15.3381 5.98076 15.3558L5.91867 15.3869L6.06281 15.5421C6.23356 15.7284 6.40652 15.9767 6.43313 16.0765C6.48192 16.2428 6.31782 16.2717 5.76567 16.2007C5.46409 16.1608 5.26008 16.1674 5.16029 16.2207C5.08268 16.2606 4.81658 16.5089 4.81658 16.5422C4.81658 16.5533 4.9452 16.5688 5.10264 16.5755C5.43304 16.5888 5.67253 16.6464 5.86989 16.7551C6.05616 16.8571 6.05172 16.8793 5.84993 16.8793C5.6814 16.8793 5.58383 16.9059 5.49513 16.9768C5.453 17.0101 5.453 17.0123 5.49513 17.0589C5.55944 17.1298 5.68362 17.1853 5.83663 17.2097C5.91424 17.223 5.98076 17.2363 5.9852 17.2429C5.98963 17.2474 5.92089 17.2629 5.83219 17.2762C5.60157 17.3139 5.27782 17.4092 5.12038 17.4891C4.97846 17.56 4.97181 17.5689 4.94298 17.7751L4.92967 17.8594L5.00063 17.8439C5.11151 17.8195 5.68362 17.8062 5.77675 17.8261C5.91867 17.8572 5.87876 17.8882 5.65923 17.9148C5.38426 17.9481 5.22904 17.9791 5.15586 18.0168L5.0982 18.0479L5.21795 18.1055C5.28447 18.1388 5.43748 18.1854 5.55944 18.2098C6.07833 18.3162 6.14264 18.3761 5.70801 18.3539C5.351 18.3362 5.20908 18.3495 5.22017 18.4049C5.23125 18.467 5.45078 18.5734 5.67919 18.6311C5.81889 18.6666 5.76567 18.6932 5.53727 18.702C5.33104 18.7087 5.17582 18.7619 5.11151 18.8484C5.06051 18.9127 5.09155 19.2054 5.15142 19.2431C5.16473 19.2498 5.19134 19.2409 5.2113 19.2231C5.23125 19.2032 5.32217 19.1544 5.41309 19.1101C5.58383 19.028 5.58605 19.028 5.82997 19.0657C5.9342 19.0812 6.02511 19.1677 6.10273 19.3274C6.14042 19.4028 6.21803 19.5225 6.27569 19.5935C6.33334 19.6644 6.39987 19.7465 6.42204 19.7753C6.46418 19.8263 6.46418 19.8285 6.41761 19.9217C6.39322 19.9749 6.36661 20.0347 6.35995 20.0547C6.32004 20.1922 5.64149 20.1456 5.10707 19.9682C4.89419 19.8973 4.57931 19.742 4.43739 19.6378L4.32874 19.558V19.6445C4.32874 19.8573 4.49505 20.2188 4.66136 20.3674L4.7678 20.4627L4.65914 20.6712C4.52387 20.9306 4.515 21.0304 4.61923 21.1346C4.65692 21.1745 4.68353 21.2189 4.67466 21.2366C4.66801 21.2544 4.61036 21.2987 4.54605 21.3342C4.34648 21.4473 4.35535 21.4362 4.43739 21.4783C4.47731 21.5005 4.58596 21.5227 4.67466 21.5293C4.77223 21.5382 4.84984 21.5537 4.86315 21.5715C4.91859 21.638 4.80328 21.7843 4.6037 21.9041C4.57044 21.924 4.59483 21.9329 4.73897 21.9551C4.83654 21.9684 4.97846 21.9817 5.05385 21.9839L5.19134 21.9884L5.14477 22.0726C5.08933 22.1724 4.98511 22.2811 4.89863 22.3343L4.83654 22.3742L4.90528 22.3831C4.94298 22.3897 5.02059 22.3853 5.07825 22.3764C5.24456 22.3498 5.44635 22.3542 5.4907 22.3853C5.55944 22.4363 5.50179 22.5516 5.32882 22.7179L5.17803 22.8643L5.2756 22.8798C5.45965 22.9064 5.69249 22.8776 5.81667 22.8133C5.88098 22.7822 5.93641 22.7578 5.94085 22.7623C5.97189 22.7955 5.85215 23.1171 5.77454 23.2058C5.7568 23.2257 5.74793 23.2501 5.7568 23.2612C5.76567 23.2701 5.88541 23.2767 6.02068 23.2767C6.2136 23.2767 6.28678 23.2678 6.34443 23.2368C6.38656 23.2168 6.42426 23.1991 6.4287 23.1991C6.43091 23.1991 6.43535 23.2457 6.43535 23.3033C6.43535 23.3787 6.41983 23.4253 6.37769 23.4807L6.32226 23.5539H6.38435C6.52848 23.5517 6.86998 23.4408 6.99194 23.3521C7.07177 23.2967 7.07842 23.2989 7.07842 23.3809C7.0762 23.4741 7.02742 23.6093 6.97642 23.667C6.92985 23.7202 6.94094 23.7202 7.15825 23.6648C7.35339 23.616 7.52635 23.5472 7.61505 23.4852C7.6971 23.4253 7.70597 23.4319 7.68823 23.5251C7.66827 23.6359 7.62614 23.7003 7.54187 23.7446C7.50418 23.7623 7.47757 23.7845 7.48422 23.789C7.50196 23.8089 7.96985 23.7357 8.07629 23.698C8.12951 23.6803 8.1916 23.647 8.21377 23.6271C8.25147 23.5938 8.25369 23.5938 8.25369 23.647C8.25369 23.6781 8.2293 23.749 8.19825 23.8067C8.16721 23.8643 8.14281 23.9154 8.14281 23.922C8.14281 23.9397 8.26478 23.902 8.40669 23.84C8.48431 23.8045 8.57522 23.7756 8.60849 23.7756C8.68388 23.7756 8.77258 23.8444 8.84132 23.953C8.87902 24.0129 8.93667 24.0573 9.04755 24.1127L9.20277 24.1903L9.21164 24.0994C9.22273 24.0174 9.58862 23.055 9.6241 23.0173C9.63962 23.0017 10.0853 23.3078 10.5155 23.6271C10.775 23.82 11.3715 24.4121 11.5467 24.6516C12.0279 25.3079 12.1853 25.7603 12.1875 26.4921C12.1875 26.8957 12.1609 27.1108 12.0678 27.4988C11.8638 28.3282 11.3892 29.1176 10.8504 29.5167C10.4956 29.7806 10.0765 29.8693 9.29591 29.8449C8.35126 29.8161 7.76141 29.6187 7.32456 29.1908C7.00081 28.8714 6.78793 28.4545 6.69923 27.9667C6.68592 27.8869 6.67484 27.6917 6.67484 27.5343C6.67484 26.9932 6.7968 26.6185 7.0629 26.3324C7.29352 26.0863 7.53966 25.951 7.85454 25.9022C8.1539 25.8557 8.49539 25.9554 8.70606 26.1484C8.85241 26.2836 8.85906 26.3479 8.74375 26.5786C8.64175 26.7848 8.63288 26.838 8.69719 26.9023C8.75706 26.9622 8.88124 26.96 9.02316 26.8912C9.22938 26.7959 9.33139 26.563 9.31365 26.2393C9.29591 25.9488 9.16064 25.7603 8.85463 25.6051C8.55748 25.4565 8.40669 25.4277 7.94324 25.4299C7.55961 25.4299 7.5197 25.4343 7.33343 25.492C6.96089 25.6051 6.73471 25.7559 6.55953 25.9998C6.16038 26.563 5.94085 27.5299 6.06946 28.1552C6.16925 28.6319 6.43535 29.1486 6.80567 29.5744C7.431 30.2973 8.26034 30.6277 9.45113 30.6277C10.3337 30.6277 10.959 30.4592 11.5799 30.0556C12.2718 29.6076 12.7197 29.0267 13.0989 28.0887C13.2009 27.8314 13.2408 27.6718 13.2586 27.45C13.2652 27.3414 13.2829 27.2527 13.3029 27.2305C13.3916 27.1285 13.4227 26.838 13.3672 26.6495L13.334 26.5431L13.4027 26.4832C13.5247 26.3745 13.5114 26.1395 13.3739 25.982L13.3096 25.9089L13.3827 25.8357C13.4781 25.7381 13.5202 25.5541 13.5025 25.3102C13.4914 25.1416 13.416 24.9066 13.3739 24.9066C13.3295 24.9066 13.3583 24.8467 13.4227 24.809C13.5224 24.7491 13.5757 24.6493 13.5757 24.5163C13.5757 24.248 13.4648 23.8355 13.3827 23.8045C13.3495 23.7912 13.3428 23.7313 13.3739 23.7313C13.4249 23.7313 13.4936 23.5229 13.5047 23.3344C13.518 23.0971 13.4714 22.9153 13.3739 22.8177L13.3096 22.7512L13.3783 22.6093C13.4382 22.4873 13.447 22.4518 13.436 22.3498C13.4116 22.1148 13.1521 21.6801 12.957 21.5515C12.886 21.5049 12.8661 21.4783 12.8661 21.4273C12.8661 21.2788 12.7441 21.0592 12.5401 20.8397C12.3272 20.6135 12.2585 20.5115 12.2141 20.3518C12.1831 20.2498 12.1498 20.1966 12.0567 20.1035C11.948 19.9948 11.7174 19.8573 11.5799 19.8219C11.5511 19.8152 11.5356 19.793 11.5356 19.7576C11.5334 19.6156 11.3582 19.3784 11.2029 19.3074C11.1253 19.2719 11.1142 19.2586 11.1142 19.1943C11.1142 19.1034 11.0389 19.0125 10.8615 18.8905C10.6929 18.7774 10.4268 18.7087 10.0166 18.6732C9.15399 18.6022 8.77036 18.4581 8.36456 18.0545C8.11842 17.8106 8.02307 17.6465 7.93437 17.3228C7.86119 17.0544 7.85676 16.8039 7.92328 16.6087C7.96985 16.4712 8.11842 16.1918 8.14503 16.1918C8.1539 16.1918 8.1406 16.265 8.1162 16.3515C8.05855 16.5622 8.0519 16.9081 8.10512 17.0766C8.17829 17.3117 8.32243 17.4869 8.52422 17.5911C8.66171 17.662 8.72823 17.6776 8.96328 17.6997C9.20721 17.7219 9.3713 17.7707 9.45113 17.8439C9.57088 17.9547 9.83919 17.968 10.0964 17.8793C10.1629 17.855 10.2871 17.8283 10.3736 17.8217L10.5333 17.8062L10.7395 17.9503C10.9524 18.0967 11.8726 18.6156 12.0345 18.6799C12.3294 18.7974 12.6621 18.7153 12.8018 18.4914C12.9148 18.3118 12.8128 18.1432 12.3316 17.7086C11.9414 17.3582 11.8482 17.2385 11.7972 17.0345C11.7751 16.948 11.7041 16.7595 11.6354 16.6176C11.4735 16.2695 11.4713 16.2096 11.6243 16.0499C11.6841 15.9856 11.7507 15.8969 11.7684 15.8503C11.8039 15.7683 11.8194 15.582 11.795 15.5554C11.7817 15.5443 11.6331 15.5754 11.5555 15.6042C11.5311 15.6131 11.5267 15.5798 11.5334 15.4268C11.5378 15.3071 11.5289 15.2117 11.5134 15.1696L11.4846 15.1031L11.4047 15.1807C11.3227 15.2605 11.2628 15.2805 11.2362 15.2383C11.2296 15.2272 11.214 15.1629 11.2029 15.0964C11.1808 14.9567 11.0921 14.7394 11.0699 14.766C11.061 14.7749 11.0411 14.8214 11.0255 14.8658C11.0122 14.9124 10.9923 14.95 10.9812 14.95C10.9723 14.95 10.9568 14.8968 10.9479 14.8325C10.9235 14.6418 10.8969 14.562 10.8371 14.5066C10.7883 14.46 10.775 14.4578 10.7594 14.4844C10.7484 14.5021 10.7373 14.542 10.7373 14.5731C10.7373 14.6706 10.6752 14.868 10.5931 15.0343C10.4335 15.3536 10.2827 15.3226 9.97224 14.9124C9.79484 14.6773 9.76823 14.6041 9.81702 14.4977C9.93454 14.2493 10.4268 13.9145 10.8903 13.7703C10.9768 13.7437 11.0477 13.7149 11.0477 13.706C11.0477 13.6639 10.9368 13.5641 10.8393 13.5176C10.7284 13.4665 10.5998 13.4555 10.4157 13.4799Z" fill="#DFDFDF"/>
<path d="M5.83453 17.8869C5.97535 17.8086 5.29217 17.8209 5.14774 17.8225C5.04994 17.8519 4.96012 17.8946 4.93007 17.8806C4.90002 17.8667 4.92419 17.7575 4.95466 17.5719C5.06218 17.4836 5.17351 17.4363 5.29205 17.4018C5.40504 17.3617 5.50475 17.3354 5.63369 17.2943C5.7573 17.2795 5.79732 17.2852 5.97323 17.2468C5.76689 17.214 5.62039 17.2391 5.41523 17.0231C5.49816 16.9732 5.53082 16.9101 5.63054 16.8862C5.73026 16.8648 5.76527 16.8682 5.84717 16.8682C6.00415 16.8682 6.05006 16.8969 5.94501 16.8212C5.83996 16.7454 5.63936 16.6595 5.41413 16.6185C5.21619 16.5844 4.91587 16.5833 4.77113 16.5775C4.83757 16.4462 4.96117 16.3694 5.03625 16.2875C5.15911 16.1374 5.44142 16.1408 5.86459 16.209C6.53346 16.2909 6.57442 16.209 6.15125 15.6766L5.88228 15.3806L6.05291 15.3129L6.23921 15.3078C6.41667 15.3488 6.64267 15.4855 6.77917 15.5401C6.99758 15.6357 6.98571 15.5457 6.91746 15.3683C6.86285 15.2181 6.90246 15.2189 6.88128 15.0527C6.99048 15.0527 7.27843 15.162 7.27843 15.0937C7.27843 15.0118 7.24067 14.957 7.21949 14.7686C7.31504 14.7686 7.52927 14.7943 7.5764 14.7841C7.62352 14.7739 7.51083 14.6653 7.39602 14.5624L7.10054 14.2976L6.68318 14.0162L7.30246 14.0938C7.49356 14.0938 7.79591 14.3014 7.95631 14.385C8.03651 14.4268 8.11259 14.4397 8.1608 14.4903C8.27108 14.5312 8.13856 14.6405 8.21847 14.5399C8.25922 14.4666 8.07048 14.2501 8.09612 14.137C8.23145 13.879 8.53475 14.3514 8.60074 14.2751C8.72701 14.2614 8.53893 13.9674 8.63907 13.9078C8.78199 13.8227 8.86335 14.115 8.94028 14.0633C9.01721 14.0116 9.06704 13.6371 9.18863 13.59C9.31022 13.543 9.26069 13.9723 9.3426 13.9142C9.52005 13.7914 9.90414 13.5503 10.2201 13.5066C10.378 13.4847 10.562 13.4393 10.7178 13.4674C10.8737 13.4955 11.0207 13.6026 11.0631 13.7334C10.8532 13.7946 10.8201 13.8003 10.6017 13.8958C10.3833 13.9777 10.0966 14.1825 9.96009 14.319C9.72803 14.5784 9.72803 14.6057 9.98739 14.9333C10.315 15.3837 10.4788 15.3564 10.6563 14.8377C10.7313 14.633 10.7079 14.5029 10.7436 14.4332C10.7642 14.4482 10.8389 14.4791 10.8838 14.5494C10.9232 14.6109 10.9583 14.8827 10.9579 14.9536C10.9907 14.9336 11.0214 14.8444 11.0521 14.7012C11.1342 14.8594 11.1577 14.9115 11.185 14.9865C11.2123 15.0616 11.1886 15.2609 11.2705 15.2609C11.3183 15.2609 11.3763 15.1686 11.478 15.0788C11.5659 15.2437 11.5534 15.4498 11.5183 15.606C11.587 15.5836 11.7281 15.5356 11.7966 15.5292C11.8179 15.6114 11.8166 15.7103 11.7999 15.7851C11.7501 15.8922 11.7347 15.9844 11.6255 16.0663C11.4616 16.2028 11.4616 16.2847 11.6255 16.5986C11.7347 16.8034 11.8166 17.0354 11.8166 17.131C11.8166 17.2129 12.0623 17.4859 12.3762 17.7453C12.7584 18.0729 12.895 18.2776 12.8403 18.4278C12.7038 18.7554 12.2807 18.851 11.8985 18.6462C11.721 18.5507 11.3251 18.3322 11.0112 18.1548C10.7996 18.0388 10.6603 17.9123 10.5313 17.8311C10.3238 17.8283 10.1659 17.8474 9.98739 17.9364C9.71438 17.9773 9.49597 17.95 9.44137 17.8681C9.38677 17.7862 9.16836 17.718 8.9636 17.718C8.41758 17.718 8.0601 17.3569 8.03874 16.8281C8.03052 16.5983 8.06154 16.4532 8.1378 16.1945C7.83646 16.6704 7.81874 16.8898 7.92696 17.3097C8.05735 17.8958 8.66329 18.6462 10.001 18.6599C10.2536 18.6667 10.4651 18.7383 10.704 18.7862C10.8566 18.8766 11.1823 19.0497 11.1162 19.2667C11.3638 19.3327 11.5338 19.5895 11.5374 19.8002C12.1456 19.9822 12.2261 20.3389 12.2261 20.4071C12.2261 20.4754 12.3762 20.6801 12.5673 20.8576C12.7584 21.035 12.8851 21.322 12.8616 21.4802C13.0731 21.5894 13.149 21.7489 13.2776 21.9223C13.3867 22.1438 13.5683 22.4193 13.3004 22.7505C13.5809 22.8545 13.5686 23.6488 13.3447 23.7639C13.5095 23.8771 13.5448 24.1534 13.58 24.5296C13.5815 24.6561 13.5406 24.7694 13.3396 24.8696C13.3932 24.8966 13.4358 24.9707 13.4649 25.0677C13.4941 25.1647 13.5098 25.2844 13.5096 25.4026C13.5094 25.5209 13.4934 25.6375 13.4591 25.7283C13.4247 25.819 13.372 25.8839 13.2985 25.8985C13.549 26.062 13.5429 26.4947 13.327 26.5393C13.448 26.7602 13.41 27.1943 13.2557 27.2795C13.2895 27.7251 13.1129 28.0412 13.0195 28.2766C12.8327 28.7476 12.5865 29.1469 12.2779 29.4822C11.9693 29.8174 11.5982 30.0887 11.1613 30.3037C10.2058 30.7679 8.58139 30.7542 7.65316 30.2764C6.83413 29.8533 6.16525 28.9387 6.02875 28.0514C5.90589 27.2597 6.28811 26.0994 6.77953 25.7308C7.55761 25.1575 9.07281 25.3486 9.29122 26.0448C9.40042 26.3997 9.26392 26.8229 9.00456 26.9184C8.6633 27.0413 8.52679 26.8775 8.7179 26.5772C8.8544 26.3451 8.84075 26.2768 8.62234 26.0994C7.96712 25.6216 6.98428 26.0448 6.75223 26.8911C6.46556 27.9832 6.91603 29.0888 7.83062 29.5393C8.59504 29.9215 10.1375 29.9488 10.6836 29.6076C11.7483 28.9387 12.4172 27.1232 12.0896 25.7581C11.9121 25.0073 11.175 24.0791 10.2195 23.4375L9.61883 23.0144L9.40042 23.574C9.28439 23.8675 9.18202 24.0305 9.20963 24.2159C9.03226 24.1077 8.96826 24.1273 8.84589 24.0121C8.79129 23.8892 8.6906 23.7515 8.54044 23.7924C8.50632 23.8027 8.2994 23.9245 8.09339 23.9525C8.16437 23.7867 8.23625 23.7819 8.22787 23.6166C8.11742 23.7574 7.80098 23.7749 7.3907 23.8183C7.71169 23.6346 7.65076 23.5986 7.67462 23.4442C7.55177 23.5832 7.24511 23.6698 6.89055 23.7336C7.07337 23.5425 7.04209 23.4838 7.06003 23.3099C6.88023 23.4868 6.44226 23.5856 6.27984 23.5752C6.42211 23.4097 6.42444 23.4119 6.42166 23.2071C6.26197 23.3325 5.96692 23.3148 5.70303 23.2681C5.86571 23.094 5.91552 22.9019 5.92479 22.7559C5.71085 22.9548 5.36046 22.9119 5.13156 22.874C5.31085 22.7149 5.41953 22.6253 5.47521 22.5255C5.5401 22.4001 5.49638 22.3591 5.27797 22.3591C5.12781 22.3591 5.02391 22.4554 4.80231 22.3705C5.12363 22.2435 5.21092 21.8329 5.28305 21.8246C5.57049 21.7916 4.88313 22.3478 5.49848 22.2307C5.65219 22.2086 5.72209 22.2113 5.83609 22.2178C5.7562 22.3351 5.74257 22.34 5.67383 22.4274C5.59658 22.5413 5.58121 22.6896 5.39843 22.7856C5.55357 22.7865 5.68039 22.8007 5.78313 22.7191C5.88586 22.6376 5.88695 22.6044 6.10354 22.4485C6.13305 22.6118 6.11848 22.6444 6.10247 22.7526C6.07476 22.9399 6.03861 22.9892 5.98225 23.1373C6.21738 23.1918 6.36192 23.1176 6.403 23.0161C6.46439 22.952 6.55214 22.7887 6.67267 22.7557C6.72163 22.9028 6.66952 22.9085 6.65153 23.0332C6.60029 23.1733 6.58753 23.2731 6.54362 23.4047C6.78225 23.3367 6.92879 23.2507 7.07983 23.069C7.33919 22.8506 7.33919 22.8506 7.25729 23.1372C7.22356 23.3283 7.23172 23.3711 7.16236 23.536C7.39216 23.4959 7.60538 23.3898 7.72141 23.2055C7.85791 23.0007 7.87156 23.0144 7.81696 23.2737C7.80925 23.4482 7.83957 23.4764 7.79662 23.6452C8.00522 23.6011 8.15822 23.5194 8.26743 23.342C8.40393 23.1372 8.41758 23.1509 8.36298 23.4102C8.32886 23.574 8.39152 23.6078 8.29484 23.7787C8.53055 23.6782 8.54044 23.7037 8.62234 23.574C8.67694 23.4648 8.76696 23.6106 8.87616 23.8154C8.96489 23.9724 9.03695 23.9844 9.10306 23.992C9.1193 23.8723 9.16836 23.7924 9.27757 23.5331C9.40042 23.2328 9.48232 22.9871 9.46867 22.9598C9.44137 22.9461 9.10011 22.7687 8.71789 22.5639C8.32203 22.3728 7.99442 22.1544 7.99442 22.0725C7.99442 22.0042 7.92617 21.9496 7.83061 21.9496C7.6122 21.9496 7.03888 21.4036 7.03888 21.1989C7.03888 21.1033 6.91603 20.8712 6.76587 20.6938C6.56111 20.4208 6.32906 20.3252 5.71478 20.257C5.28054 20.1802 4.91614 20.0659 4.691 19.943C4.57834 19.8841 4.56291 19.8342 4.4764 19.8006C4.47299 19.8723 4.52036 20.0932 4.67735 20.2433C4.76607 20.3389 4.85694 20.3596 4.93769 20.4095C4.86175 20.4868 4.80702 20.6324 4.7456 20.7347C4.60909 20.9531 4.60909 21.0214 4.8002 21.0896C4.97766 21.1579 4.97766 21.1989 4.8275 21.2944C4.76607 21.3422 4.67358 21.375 4.60883 21.4168C4.71027 21.4419 4.78961 21.4483 4.9832 21.3989C5.22891 21.2501 5.2477 21.294 5.14146 21.4446C5.05442 21.5759 4.99556 21.7226 4.86901 21.8245C5.01391 21.8323 5.08003 21.8063 5.20971 21.7585C5.34622 21.7039 5.46176 21.6673 5.36798 21.8792C5.27886 22.0273 5.32806 21.7995 5.24348 21.995C5.09774 22.0231 4.76675 21.9884 4.52472 21.9298C4.74252 21.8104 4.82214 21.717 4.84944 21.6556C4.89039 21.5327 4.7729 21.5401 4.66369 21.5401C4.61591 21.5401 4.45799 21.5592 4.33998 21.4283C4.43803 21.3749 4.58707 21.3266 4.67678 21.2141C4.39693 21.0527 4.55954 20.8082 4.62476 20.692C4.67875 20.5992 4.68318 20.55 4.7459 20.4537C4.65977 20.4474 4.53401 20.2843 4.47258 20.1751C4.3429 19.943 4.28662 19.7225 4.30541 19.5328C4.4904 19.6755 4.56211 19.7215 4.67734 19.7788C4.8729 19.8957 5.29266 20.0429 5.66352 20.0989C6.03438 20.155 6.35635 20.1478 6.35635 20.0113C6.35635 19.8748 6.50477 19.8861 6.39743 19.7769C6.19646 19.5726 6.08828 19.3891 6.0257 19.2083C5.9087 19.0667 5.76096 19.0562 5.56513 19.0542C5.46123 19.1097 5.25856 19.1581 5.16504 19.2933C5.07705 19.2512 5.03171 18.9801 5.07627 18.8511C5.09541 18.7956 5.32148 18.6895 5.44896 18.685C5.57644 18.6805 5.6441 18.7168 5.75637 18.6693C5.62422 18.6312 5.55198 18.6334 5.41429 18.5648C5.29185 18.5038 5.17319 18.4675 5.18921 18.3898C5.20904 18.2936 5.88619 18.3592 5.98175 18.3626C6.06024 18.366 5.83373 18.272 5.6668 18.2509C5.55729 18.2117 5.31315 18.227 5.06619 18.0437C5.24842 17.9266 5.34442 17.9759 5.49385 17.9208M6.0563 17.9432C6.00134 18.059 5.34316 18.0274 5.52619 18.0753C5.52619 18.0753 6.03455 18.169 6.2028 18.3134C6.23256 18.4412 6.05517 18.4979 6.05517 18.4979L5.41048 18.4292C5.40357 18.5174 6.03716 18.5507 6.01536 18.6833C6.00829 18.7262 6.05043 18.8072 5.83959 18.7832C5.64758 18.792 5.41201 18.7725 5.26945 18.8462C5.16588 18.8979 5.15339 19.0127 5.18593 19.111C5.27971 19.0346 5.42892 18.9716 5.51082 18.9443C5.68571 18.9217 5.81222 18.9576 5.9304 19.0082C6.04857 19.0587 6.13072 19.1129 6.2335 19.3151C6.30175 19.4925 6.52016 19.6973 6.72492 19.7792C6.94333 19.8475 7.29228 20.0344 7.4484 20.2433C7.62146 20.4749 7.75061 20.6626 8.16748 20.9034C8.57699 21.272 8.22332 21.1409 8.39872 21.1679C8.86876 21.24 9.1274 21.349 9.20931 21.4582C9.30486 21.5674 9.52327 21.6903 9.70072 21.7312C9.89183 21.7858 10.042 21.8814 10.042 21.9496C10.042 22.0315 10.1375 22.0861 10.2604 22.0861C10.5607 22.0861 11.8985 23.4921 12.1442 24.0518C12.6083 25.1029 12.6902 25.4851 12.6902 26.5089C12.6765 27.1914 12.5946 27.8057 12.4718 28.0924C12.1988 28.7339 11.0346 30.023 10.7206 30.023C10.6651 30.0387 10.6875 30.033 10.6217 30.0436C10.5915 30.0887 10.5743 30.093 10.4676 30.1428C10.3126 30.2203 10.1139 30.2582 9.8716 30.2651C9.62927 30.272 9.34332 30.248 9.01382 30.2018C8.68431 30.1556 8.36121 30.0873 8.12048 30.0074C7.87976 29.9276 7.7912 29.8843 7.7214 29.8107C7.70055 29.7887 7.64513 29.76 7.65438 29.6641C7.60487 29.7092 7.48976 29.6986 7.35224 29.5741C7.24053 29.473 7.13306 29.4259 7.18903 29.3243C7.0413 29.3089 7.01614 29.2462 6.89975 29.0825C6.82321 28.9749 6.73619 28.8798 6.77346 28.7276C6.67173 28.7478 6.62129 28.6055 6.56301 28.4707C6.51192 28.3524 6.42081 28.1915 6.53417 28.1332C6.40383 28.1364 6.42831 27.9771 6.41246 27.8663C6.39662 27.7554 6.36395 27.5834 6.49536 27.5532C6.36075 27.5107 6.41834 27.3717 6.43862 27.247C6.46705 27.072 6.48313 26.9774 6.59483 26.9542C6.495 26.9096 6.55585 26.7455 6.62165 26.5215C6.6744 26.3419 6.79531 26.2764 6.93443 26.3062C6.80136 26.2047 7.04436 26.0391 7.09658 25.9955C7.24167 25.8744 7.40663 25.8294 7.43902 25.9082C7.42505 25.7608 7.93961 25.7478 8.13647 25.77C8.33333 25.7922 8.50631 25.881 8.69059 26.0311C8.97725 26.2632 8.9909 26.3314 8.84074 26.5771C8.66329 26.8911 8.79979 26.9594 9.05915 26.7C9.33216 26.427 9.25026 26.0857 8.85439 25.7718C8.55408 25.5261 8.34933 25.4851 7.83061 25.5261C6.91602 25.6216 6.54746 25.9083 6.2881 26.7546C5.87858 28.1606 6.43825 29.553 7.6668 30.1536C8.21282 30.4129 8.54043 30.4812 9.42771 30.4812C10.7245 30.4675 11.5299 30.1536 12.2807 29.3209C12.7448 28.8158 13.2635 27.4964 13.0997 27.2507C12.8332 27.1373 13.0997 27.1368 13.1816 27.1368C13.2908 27.1368 13.3318 26.5712 13.1284 26.4684C13.5341 26.47 13.3193 25.963 13.075 25.8632C13.2937 25.858 13.4019 25.6441 13.4084 25.4179C13.4149 25.1917 13.3197 24.9531 13.1316 24.8984C12.9899 24.8571 13.1204 24.8194 13.2535 24.7892C13.4122 24.7531 13.4733 24.7294 13.4537 24.4466C13.4302 24.2613 13.3649 23.9516 13.2306 23.8945C13.0924 23.8357 12.8771 23.8186 12.757 23.8079C12.9028 23.7609 13.0418 23.7336 13.1543 23.7242C13.4 23.6218 13.4829 23.1249 13.2619 22.9858C13.041 22.8466 12.485 23.1201 12.4557 23.0073C12.5641 22.8886 12.9 22.8594 13.0491 22.751C13.2317 22.5715 13.4 22.4001 13.0997 21.9769C12.9495 21.7449 12.9734 21.6874 12.7996 21.6232C12.5691 21.6139 12.0749 21.9242 11.6967 21.9121C11.8699 21.768 12.4589 21.6523 12.6469 21.516C12.8348 21.3797 12.6922 21.168 12.4991 20.9258C12.267 20.7211 12.1715 20.7074 11.8712 20.8439C11.6664 20.9258 11.3423 21.0111 10.9911 21.0699C11.1275 20.9292 11.7483 20.7757 11.8848 20.6665C12.1442 20.4754 12.1442 20.3952 11.8985 20.1222L11.5309 19.9711L11.1204 20.1887C10.8201 20.3252 10.3553 20.4873 10.3553 20.4463C10.3553 20.419 10.7791 20.2297 10.9975 20.1068C11.2296 19.984 11.371 19.8065 11.371 19.711C11.371 19.3697 11.056 19.3243 10.5734 19.6607C10.3277 19.8041 9.71431 19.9911 9.67767 19.9221C9.63224 19.8365 10.089 19.7528 10.315 19.6427C10.5394 19.5147 10.9607 19.3048 10.9607 19.1956C10.9053 19.0104 10.6563 18.8783 9.57788 18.7554C8.7725 18.6599 8.34933 18.4005 7.99442 17.8135C7.5576 17.1037 7.6395 16.4894 8.22648 15.9298L8.7179 15.4656L8.43124 15.9025C7.89887 16.6669 8.15822 17.5815 8.909 17.5815C9.08646 17.5815 9.34582 17.6497 9.48232 17.7453C9.67343 17.8545 9.8398 17.8309 10.0002 17.7837L10.2611 17.7068L10.3516 17.6873L9.97374 17.4313C9.55058 17.2266 9.37312 16.8307 9.60518 16.5986C9.68708 16.5167 9.71438 16.5986 9.67343 16.817C9.61883 17.0764 9.67343 17.1993 9.86454 17.2675C10.001 17.3358 10.2741 17.4859 10.4515 17.6224C11.0385 18.0456 11.8302 18.537 11.9121 18.537C11.9531 18.537 11.8848 18.4005 11.7347 18.223C11.5845 18.0592 11.6664 18.0865 11.9121 18.3186C12.2807 18.6462 12.3899 18.6872 12.5673 18.537C12.8676 18.2913 12.8267 18.1821 12.308 17.8545C11.994 17.677 11.7756 17.3904 11.6664 17.0628C11.5845 16.7897 11.448 16.4894 11.3934 16.4075C11.3115 16.312 11.3524 16.1891 11.4753 16.0799C11.5913 15.9844 11.7073 15.7624 11.695 15.6812C11.6411 15.6913 11.6001 15.7064 11.5436 15.7387C11.4753 15.7796 11.407 15.725 11.407 15.6021C11.407 15.5407 11.4543 15.308 11.4415 15.2509C11.4093 15.3101 11.3115 15.4452 11.2705 15.4656C11.2023 15.5066 11.1204 15.4656 11.1204 15.3701C11.0999 15.1722 11.0745 15.1142 11.0575 15.0211C11.0295 15.072 10.8881 15.2761 10.824 15.325C10.8785 15.1744 10.8355 14.6908 10.812 14.6458C10.808 14.7754 10.735 15.0057 10.713 15.089C10.5681 15.2933 10.5329 15.338 10.3697 15.3874C10.2315 15.3925 10.1648 15.336 9.97374 15.1107C9.78263 14.8787 9.66572 14.7048 9.65464 14.5865C9.65464 14.4636 10.0596 13.9777 10.5392 13.7949C10.7423 13.7211 10.7699 13.7002 10.8945 13.667C10.8606 13.6593 10.8108 13.6119 10.6626 13.5842C10.585 13.5698 10.2707 13.5708 10.0679 13.6671C9.88648 13.7253 9.46723 13.9044 9.27612 14.0955C9.1725 14.1129 9.2901 13.7642 9.16913 13.8146C9.04815 13.8649 9.096 14.2281 8.99389 14.2826C8.84077 14.3642 8.81605 14.0961 8.74779 14.0961C8.67954 14.1029 8.80279 14.4142 8.67603 14.4867C8.59306 14.5342 8.30569 14.1815 8.27156 14.2361C8.2464 14.2787 8.49344 14.5704 8.42684 14.6137C8.34458 14.6786 8.35253 14.7653 8.17055 14.6933C8.02143 14.6181 7.3627 14.2045 7.19304 14.2164C7.35049 14.3196 7.47285 14.4451 7.6436 14.6011C7.91661 14.8878 7.99377 14.9235 7.77536 14.9567C7.57247 14.9235 7.52232 14.8621 7.42221 14.9299C7.37215 14.9637 7.468 15.2221 7.40018 15.2635C7.33236 15.3048 7.09953 15.2139 7.07351 15.2408C6.96942 15.3483 7.15457 15.4924 7.09314 15.6493C7.01124 15.8814 6.97029 15.8814 6.69728 15.6903C6.47887 15.5333 6.19973 15.421 6.19134 15.4804C6.18034 15.5585 6.24681 15.5947 6.36967 15.7722C6.76553 16.3319 6.65633 16.4411 5.87825 16.3592C5.87825 16.3592 5.24465 16.1744 5.05487 16.464C5.24233 16.4288 5.69144 16.5182 5.81121 16.5701C5.87608 16.5982 6.01656 16.6824 6.13786 16.7788C6.19851 16.827 6.16343 16.8649 6.1267 16.9715C5.98471 17.0227 5.82999 17.0539 5.66247 17.0445C6.1691 17.2485 6.12374 17.0799 6.30743 17.1823C6.17549 17.4 6.07049 17.3839 5.61924 17.447C5.50748 17.5004 5.39947 17.5257 5.27661 17.5598C5.15035 17.594 5.07224 17.6919 5.10341 17.7031C5.13459 17.7142 5.25843 17.6829 5.39756 17.6692C5.56072 17.6713 5.47625 17.6699 5.84192 17.7075C6.01285 17.7493 6.08938 17.8747 6.0563 17.9432Z" fill="black"/>
<path d="M10.7011 16.5753C10.7011 16.6551 10.6548 16.7197 10.5976 16.7197C10.5405 16.7197 10.4941 16.6551 10.4941 16.5753C10.4941 16.4956 10.5405 16.4309 10.5976 16.4309C10.6534 16.4309 10.6991 16.4925 10.701 16.5702" fill="black"/>
<path d="M10.9091 16.6821C10.8436 16.8478 10.6512 16.931 10.4793 16.8678C10.3075 16.8046 10.2213 16.619 10.2868 16.4532C10.3523 16.2874 10.5447 16.2043 10.7166 16.2675C10.8882 16.3306 10.9744 16.5158 10.9093 16.6815" stroke="black" stroke-width="0.105481"/>
<path d="M9.70471 16.1444C10.1356 15.9172 10.7311 16.2698 10.7311 16.2698" stroke="black" stroke-width="0.105481"/>
<path d="M6.47436 20.058C6.45898 19.9847 6.49233 19.9484 6.6109 19.8723C6.75716 19.8905 7.01131 19.9946 7.17236 20.1372C7.44677 20.3802 7.48841 20.4707 7.64307 20.6787C7.57997 20.8036 7.53896 20.8306 7.4193 20.947C7.29781 21.0266 7.22586 21.0749 7.14334 21.1144C7.07744 20.9101 6.99732 20.8091 6.81533 20.5743C6.73022 20.4445 6.47866 20.3457 6.35107 20.2496C6.37861 20.1479 6.42905 20.1399 6.47436 20.058Z" fill="#DFDFDF"/>
<path d="M7.50065 21.0215C7.6263 20.9404 7.65965 20.8257 7.74687 20.7732C7.8618 20.8227 7.83191 20.8369 8.01846 20.9284C8.21901 21.0551 8.14647 21.0269 8.30113 21.2348C8.23803 21.3598 8.20486 21.4181 8.10869 21.5502C8.00288 21.6454 8.00144 21.7172 7.90325 21.8351C7.71983 21.7874 7.60054 21.7178 7.45772 21.5535C7.35694 21.4316 7.23857 21.4267 7.18933 21.2209C7.31872 21.135 7.424 21.0957 7.50065 21.0215Z" fill="#DFDFDF"/>
<path d="M8.21371 21.6013C8.30801 21.4732 8.3257 21.382 8.40509 21.2903C8.54352 21.3084 8.65465 21.3304 8.8177 21.3828C9.04175 21.4312 9.07106 21.5048 9.18655 21.6266C9.12345 21.7515 9.11378 21.9117 9.06463 22.1378C9.02932 22.2957 8.99655 22.3832 8.9297 22.5245C8.74627 22.4456 8.61131 22.3759 8.45283 22.2743C8.28937 22.1759 8.13182 22.077 8.05908 21.8712C8.14146 21.7226 8.13706 21.6754 8.21371 21.6013Z" fill="#DFDFDF"/>
<path d="M9.19301 22.2124C9.23248 22.0373 9.22665 21.8521 9.31388 21.7134C9.45231 21.7315 9.43025 21.777 9.5933 21.8294C9.76251 21.9013 9.878 21.9201 9.96999 22.1045C9.82071 22.2451 9.78753 22.2251 9.73838 22.4512C9.70307 22.6091 9.77215 22.8298 9.7053 22.9711C9.52188 22.8922 9.50444 22.846 9.34595 22.7444C9.18249 22.646 9.16597 22.6881 9.06189 22.5842C9.12076 22.4042 9.15554 22.3179 9.19301 22.2124Z" fill="#DFDFDF"/>
<path d="M9.86677 22.4632C9.94541 22.3038 9.97876 22.2674 10.066 22.1914C10.2279 22.2566 10.2999 22.2159 10.4551 22.3544C10.6008 22.4577 10.9043 22.7115 11.0198 22.8333C10.9097 22.8877 10.8069 22.9252 10.6785 23.0938C10.5501 23.2623 10.5869 23.3078 10.5122 23.4961C10.3758 23.4094 10.3114 23.3632 10.1842 23.2851C10.0521 23.1632 9.99643 23.127 9.84534 23.0231C9.90421 22.8509 9.84496 22.6001 9.86677 22.4632Z" fill="#DFDFDF"/>
<path d="M10.7677 23.1998C10.8464 23.0404 10.9581 23.0118 11.0453 22.9358C11.2072 23.0009 11.2713 23.1405 11.4265 23.279C11.6193 23.4919 11.6486 23.5264 11.7406 23.656C11.5991 23.7261 11.559 23.7323 11.4306 23.846C11.2977 23.9636 11.2607 23.966 11.1703 24.0682C11.0731 23.9579 11.087 23.9666 10.9598 23.8415C10.8277 23.7195 10.8112 23.7225 10.6366 23.5637C10.6876 23.3837 10.7146 23.3209 10.7677 23.1998Z" fill="#DFDFDF"/>
<path d="M11.5199 23.9596C11.6142 23.8863 11.7024 23.8343 11.7818 23.7817C11.8575 23.8704 11.9295 23.9394 11.975 24.0388C12.0502 24.1342 12.056 24.153 12.1167 24.2826C11.9752 24.3526 11.99 24.3354 11.8851 24.3864C11.783 24.436 11.7386 24.4907 11.6169 24.5694C11.5197 24.4591 11.5884 24.4991 11.4613 24.3741C11.3997 24.2991 11.3675 24.2394 11.2712 24.1433C11.4085 24.026 11.4276 24.0102 11.5199 23.9596Z" fill="#DFDFDF"/>
<path d="M11.892 24.5119C12.0059 24.4582 12.0549 24.4297 12.15 24.3889C12.214 24.5089 12.2311 24.527 12.2766 24.6264C12.3048 24.71 12.3263 24.7523 12.3752 24.8897C12.269 24.9285 12.2367 24.9386 12.1671 24.97C12.0959 25.0021 12.0206 25.047 11.9381 25.0943C11.8605 24.9488 11.8626 24.9809 11.8177 24.8951C11.7757 24.8122 11.7474 24.7878 11.6708 24.6761C11.7845 24.5901 11.8193 24.5586 11.892 24.5119Z" fill="#DFDFDF"/>
<path d="M12.1746 25.077C12.2885 25.0234 12.2877 25.0364 12.3827 24.9956C12.4467 25.1156 12.4916 25.3276 12.526 25.4574C12.5514 25.6048 12.5729 25.7689 12.5802 25.9479C12.4796 25.9673 12.5211 25.9554 12.4331 25.9728C12.3455 25.9902 12.3408 25.9936 12.2472 26.0326C12.2194 25.8372 12.1953 25.7294 12.1447 25.5959C12.111 25.502 12.0411 25.2893 11.9645 25.1775C12.0616 25.1247 12.1019 25.1237 12.1746 25.077Z" fill="#DFDFDF"/>
<path d="M12.4212 26.0881C12.4564 26.0799 12.494 26.0737 12.5684 26.0676C12.5825 26.3234 12.583 26.3858 12.5759 26.6402C12.557 26.9067 12.5535 27.1235 12.511 27.3939C12.4629 27.38 12.4519 27.3653 12.3639 27.3606C12.2759 27.356 12.2811 27.3545 12.1903 27.3602C12.2539 27.1066 12.2561 27.0197 12.2749 26.7178C12.2827 26.4826 12.2822 26.4066 12.2632 26.1418C12.3326 26.1195 12.3623 26.1044 12.4212 26.0881Z" fill="#DFDFDF"/>
<path d="M12.2993 27.4842C12.3344 27.476 12.422 27.4864 12.4963 27.4803C12.4163 27.93 12.3503 28.0976 12.1991 28.3743C12.0196 28.6352 11.8444 28.8797 11.6135 29.128C11.585 29.1082 11.5655 29.0821 11.5384 29.0559C11.5122 29.0307 11.4902 29.023 11.459 28.9946C11.722 28.6468 11.7685 28.5433 11.9258 28.2247C12.0556 27.9064 12.0771 27.8193 12.1634 27.4714C12.2328 27.499 12.2404 27.5005 12.2993 27.4842Z" fill="#DFDFDF"/>
<path d="M11.4738 29.1295C11.5188 29.1585 11.4968 29.1483 11.5656 29.1921C11.4579 29.3204 11.3808 29.3939 11.1798 29.593C11.0279 29.7044 10.9825 29.8016 10.6717 29.9269C10.6346 29.8853 10.6331 29.8799 10.6151 29.8533C10.5977 29.8276 10.5904 29.821 10.5709 29.7711C10.7287 29.7225 10.9154 29.6124 11.0339 29.4933C11.2301 29.3246 11.2794 29.2486 11.41 29.0835C11.4402 29.1033 11.4541 29.1105 11.4738 29.1295Z" fill="#DFDFDF"/>
<path d="M10.4925 29.8992C10.5172 29.9384 10.5078 29.9497 10.531 29.9958C10.3901 30.0798 10.3586 30.0869 10.0127 30.1543C9.58773 30.1687 9.40869 30.1585 9.20911 30.1317C9.21632 30.0785 9.21697 30.0736 9.21933 30.0233C9.22156 29.9758 9.21538 29.9913 9.21914 29.9404C9.61657 29.9668 9.73727 29.9402 9.89446 29.93C10.1773 29.9037 10.3906 29.8372 10.4577 29.8201C10.488 29.8751 10.4845 29.8607 10.4925 29.8992Z" fill="#DFDFDF"/>
<path d="M9.10472 30.0323C9.09619 30.0742 9.0979 30.0605 9.0851 30.1205C8.75576 30.0632 8.74921 30.0703 8.35073 29.9882C8.05039 29.9028 7.95128 29.838 7.76555 29.7391C7.75203 29.6736 7.75578 29.6814 7.77071 29.6541C7.79038 29.6181 7.77554 29.6296 7.82008 29.6025C8.0409 29.7351 8.27746 29.774 8.40419 29.8165C8.70642 29.8788 8.85595 29.8954 9.1115 29.9226C9.10847 29.9804 9.10784 29.9937 9.10472 30.0323Z" fill="#DFDFDF"/>
<path d="M7.68098 29.5698C7.63098 29.6076 7.62722 29.6252 7.56441 29.6164C7.46182 29.6022 7.44861 29.5732 7.35009 29.4927C7.30178 29.4533 7.22674 29.3768 7.24168 29.3495C7.26135 29.3135 7.29455 29.2053 7.33814 29.2758C7.37626 29.3374 7.5388 29.4328 7.63513 29.4989C7.71176 29.5515 7.70042 29.5551 7.68098 29.5698Z" fill="#DFDFDF"/>
<path d="M7.18794 29.2317C7.12964 29.2501 7.14426 29.2617 7.09631 29.2202C7.05742 29.1865 7.03037 29.1298 6.95955 29.0466C6.91913 28.9991 6.83828 28.8623 6.83452 28.8314C6.82372 28.7428 6.87312 28.6842 6.91159 28.7577C6.98018 28.8886 7.06792 29.0254 7.18919 29.1359C7.2579 29.1985 7.21119 29.2244 7.18794 29.2317Z" fill="#DFDFDF"/>
<path d="M6.83333 28.6612C6.77502 28.6796 6.78133 28.6912 6.73338 28.6497C6.6945 28.616 6.65561 28.5285 6.61047 28.429C6.5839 28.3704 6.52485 28.2827 6.54638 28.2248C6.57028 28.1606 6.65423 28.1165 6.67608 28.1954C6.71549 28.3379 6.72846 28.3397 6.79579 28.5072C6.82174 28.5717 6.85657 28.6538 6.83333 28.6612Z" fill="#DFDFDF"/>
<path d="M6.64222 28.0544C6.61939 28.0983 6.57733 28.093 6.50904 28.0623C6.45401 28.0376 6.47466 27.9506 6.46645 27.8416C6.46204 27.783 6.45009 27.7286 6.46608 27.6513C6.47997 27.5842 6.6067 27.5598 6.61517 27.6413C6.62135 27.7006 6.61258 27.7352 6.62409 27.8367C6.64269 28.0008 6.66004 28.0202 6.64222 28.0544Z" fill="#DFDFDF"/>
<path d="M6.59234 27.481C6.57907 27.5181 6.52467 27.5057 6.49239 27.4667C6.45393 27.4203 6.49957 27.3384 6.50244 27.2461C6.50426 27.1874 6.52064 27.1282 6.55192 27.0558C6.57135 27.0108 6.64154 27.0054 6.64284 27.0873C6.64347 27.1273 6.63216 27.1792 6.62128 27.2661C6.60934 27.3615 6.61353 27.4218 6.59234 27.481Z" fill="#DFDFDF"/>
<path d="M6.68925 26.9021C6.67598 26.9392 6.61679 26.904 6.60592 26.8546C6.58961 26.7804 6.64109 26.6987 6.66306 26.609C6.68151 26.5337 6.71544 26.4441 6.77625 26.3938C6.82061 26.3571 6.90084 26.3369 6.88379 26.417C6.87057 26.4791 6.7817 26.5975 6.75143 26.6983C6.72377 26.7904 6.71044 26.8429 6.68925 26.9021Z" fill="#DFDFDF"/>
<path d="M7.05209 26.2402C7.01275 26.2417 6.96708 26.2528 6.97985 26.2038C6.99124 26.1601 7.03366 26.1385 7.11454 26.0745C7.15587 26.0418 7.22856 25.9819 7.26928 25.9618C7.31623 25.9385 7.40839 25.9094 7.37682 25.985C7.36361 26.0166 7.32182 26.0298 7.24724 26.0807C7.16781 26.1349 7.07882 26.2392 7.05209 26.2402Z" fill="#DFDFDF"/>
<path d="M29.58 13.4799C29.8949 13.5242 30.1321 13.6107 30.4492 13.8014C30.5512 13.8635 30.6466 13.9078 30.6643 13.9012C30.6821 13.8945 30.702 13.8413 30.7109 13.777C30.7198 13.7171 30.7397 13.6484 30.7553 13.6284C30.7996 13.5663 30.8417 13.6173 30.9238 13.8258C30.9615 13.9256 31.0036 14.0209 31.0147 14.0342C31.0546 14.083 31.1078 14.0653 31.1721 13.9854C31.2365 13.9034 31.334 13.879 31.3562 13.9389C31.3628 13.9566 31.3584 14.0276 31.3451 14.0985C31.3052 14.307 31.3695 14.338 31.5513 14.1983C31.7088 14.0764 31.7686 14.052 31.8285 14.083C31.8906 14.1163 31.8884 14.1628 31.8086 14.3469C31.7398 14.5066 31.7354 14.6219 31.8019 14.5287C31.8197 14.5043 31.9017 14.4489 31.986 14.409C32.0702 14.3668 32.2011 14.2981 32.2787 14.2538C32.3563 14.2116 32.4627 14.1606 32.5159 14.1407C32.6135 14.1074 33.1413 14.0298 33.1856 14.0453C33.1989 14.0497 33.1258 14.1096 33.026 14.1806C32.8064 14.3314 32.3851 14.7172 32.3851 14.766C32.3851 14.7948 32.4095 14.7993 32.5625 14.786C32.7643 14.7682 32.7599 14.7616 32.7155 14.9722C32.7 15.0454 32.6978 15.0942 32.7111 15.1075C32.7244 15.1208 32.7931 15.1164 32.8974 15.0942C32.9883 15.0764 33.0681 15.0609 33.077 15.0609C33.1102 15.0609 33.0947 15.2361 33.0481 15.3847C33.0038 15.5244 33.0038 15.5377 33.0393 15.5621C33.0836 15.5953 33.1346 15.5798 33.4717 15.4246C33.6713 15.3315 33.7223 15.3159 33.8309 15.3204C33.8997 15.3226 33.9817 15.3381 34.015 15.3558L34.0771 15.3869L33.9329 15.5421C33.7622 15.7284 33.5892 15.9767 33.5626 16.0765C33.5138 16.2428 33.6779 16.2717 34.2301 16.2007C34.5316 16.1608 34.7356 16.1674 34.8354 16.2207C34.913 16.2606 35.1791 16.5089 35.1791 16.5422C35.1791 16.5533 35.0505 16.5688 34.8931 16.5755C34.5627 16.5888 34.3232 16.6464 34.1258 16.7551C33.9396 16.8571 33.944 16.8793 34.1458 16.8793C34.3143 16.8793 34.4119 16.9059 34.5006 16.9768C34.5427 17.0101 34.5427 17.0123 34.5006 17.0589C34.4363 17.1298 34.3121 17.1853 34.1591 17.2097C34.0815 17.223 34.015 17.2363 34.0105 17.2429C34.0061 17.2474 34.0748 17.2629 34.1635 17.2762C34.3942 17.3139 34.7179 17.4092 34.8753 17.4891C35.0173 17.56 35.0239 17.5689 35.0527 17.7751L35.0661 17.8594L34.9951 17.8439C34.8842 17.8195 34.3121 17.8062 34.219 17.8261C34.0771 17.8572 34.117 17.8882 34.3365 17.9148C34.6115 17.9481 34.7667 17.9791 34.8399 18.0168L34.8975 18.0479L34.7778 18.1055C34.7113 18.1388 34.5582 18.1854 34.4363 18.2098C33.9174 18.3162 33.8531 18.3761 34.2877 18.3539C34.6447 18.3362 34.7866 18.3495 34.7756 18.4049C34.7645 18.467 34.5449 18.5734 34.3165 18.6311C34.1768 18.6666 34.2301 18.6932 34.4585 18.702C34.6647 18.7087 34.8199 18.7619 34.8842 18.8484C34.9352 18.9127 34.9042 19.2054 34.8443 19.2431C34.831 19.2498 34.8044 19.2409 34.7844 19.2231C34.7645 19.2032 34.6736 19.1544 34.5826 19.1101C34.4119 19.028 34.4097 19.028 34.1658 19.0657C34.0615 19.0812 33.9706 19.1677 33.893 19.3274C33.8553 19.4028 33.7777 19.5225 33.72 19.5935C33.6624 19.6644 33.5959 19.7465 33.5737 19.7753C33.5316 19.8263 33.5316 19.8285 33.5781 19.9217C33.6025 19.9749 33.6291 20.0347 33.6358 20.0547C33.6757 20.1922 34.3542 20.1456 34.8887 19.9682C35.1015 19.8973 35.4164 19.742 35.5583 19.6378L35.667 19.558V19.6445C35.667 19.8573 35.5007 20.2188 35.3344 20.3674L35.2279 20.4627L35.3366 20.6712C35.4719 20.9306 35.4807 21.0304 35.3765 21.1346C35.3388 21.1745 35.3122 21.2189 35.3211 21.2366C35.3277 21.2544 35.3854 21.2987 35.4497 21.3342C35.6493 21.4473 35.6404 21.4362 35.5583 21.4783C35.5184 21.5005 35.4098 21.5227 35.3211 21.5293C35.2235 21.5382 35.1459 21.5537 35.1326 21.5715C35.0771 21.638 35.1924 21.7843 35.392 21.9041C35.4253 21.924 35.4009 21.9329 35.2568 21.9551C35.1592 21.9684 35.0173 21.9817 34.9419 21.9839L34.8044 21.9884L34.851 22.0726C34.9064 22.1724 35.0106 22.2811 35.0971 22.3343L35.1592 22.3742L35.0904 22.3831C35.0527 22.3897 34.9751 22.3853 34.9175 22.3764C34.7512 22.3498 34.5494 22.3542 34.505 22.3853C34.4363 22.4363 34.4939 22.5516 34.6669 22.7179L34.8177 22.8643L34.7201 22.8798C34.5361 22.9064 34.3032 22.8776 34.1791 22.8133C34.1148 22.7822 34.0593 22.7578 34.0549 22.7623C34.0238 22.7955 34.1436 23.1171 34.2212 23.2058C34.2389 23.2257 34.2478 23.2501 34.2389 23.2612C34.2301 23.2701 34.1103 23.2767 33.975 23.2767C33.7821 23.2767 33.709 23.2678 33.6513 23.2368C33.6092 23.2168 33.5715 23.1991 33.567 23.1991C33.5648 23.1991 33.5604 23.2457 33.5604 23.3033C33.5604 23.3787 33.5759 23.4253 33.618 23.4807L33.6735 23.5539H33.6114C33.4672 23.5517 33.1258 23.4408 33.0038 23.3521C32.924 23.2967 32.9173 23.2989 32.9173 23.3809C32.9195 23.4741 32.9683 23.6093 33.0193 23.667C33.0659 23.7202 33.0548 23.7202 32.8375 23.6648C32.6423 23.616 32.4694 23.5472 32.3807 23.4852C32.2986 23.4253 32.2898 23.4319 32.3075 23.5251C32.3275 23.6359 32.3696 23.7003 32.4539 23.7446C32.4916 23.7623 32.5182 23.7845 32.5115 23.789C32.4938 23.8089 32.0259 23.7357 31.9194 23.698C31.8662 23.6803 31.8041 23.647 31.782 23.6271C31.7443 23.5938 31.742 23.5938 31.742 23.647C31.742 23.6781 31.7664 23.749 31.7975 23.8067C31.8285 23.8643 31.8529 23.9154 31.8529 23.922C31.8529 23.9397 31.731 23.902 31.589 23.84C31.5114 23.8045 31.4205 23.7756 31.3872 23.7756C31.3118 23.7756 31.2231 23.8444 31.1544 23.953C31.1167 24.0129 31.0591 24.0573 30.9482 24.1127L30.793 24.1903L30.7841 24.0994C30.773 24.0174 30.4071 23.055 30.3716 23.0173C30.3561 23.0017 29.9104 23.3078 29.4802 23.6271C29.2208 23.82 28.6243 24.4121 28.4491 24.6516C27.9679 25.3079 27.8104 25.7603 27.8082 26.4921C27.8082 26.8957 27.8348 27.1108 27.928 27.4988C28.132 28.3282 28.6065 29.1176 29.1454 29.5167C29.5002 29.7806 29.9193 29.8693 30.6998 29.8449C31.6445 29.8161 32.2343 29.6187 32.6712 29.1908C32.9949 28.8714 33.2078 28.4545 33.2965 27.9667C33.3098 27.8869 33.3209 27.6917 33.3209 27.5343C33.3209 26.9932 33.1989 26.6185 32.9328 26.3324C32.7022 26.0863 32.4561 25.951 32.1412 25.9022C31.8418 25.8557 31.5003 25.9554 31.2897 26.1484C31.1433 26.2836 31.1367 26.3479 31.252 26.5786C31.354 26.7848 31.3628 26.838 31.2985 26.9023C31.2387 26.9622 31.1145 26.96 30.9726 26.8912C30.7663 26.7959 30.6643 26.563 30.6821 26.2393C30.6998 25.9488 30.8351 25.7603 31.1411 25.6051C31.4382 25.4565 31.589 25.4277 32.0525 25.4299C32.4361 25.4299 32.476 25.4343 32.6623 25.492C33.0348 25.6051 33.261 25.7559 33.4362 25.9998C33.8353 26.563 34.0549 27.5299 33.9263 28.1552C33.8265 28.6319 33.5604 29.1486 33.1901 29.5744C32.5647 30.2973 31.7354 30.6277 30.5446 30.6277C29.662 30.6277 29.0367 30.4592 28.4158 30.0556C27.724 29.6076 27.276 29.0267 26.8968 28.0887C26.7948 27.8314 26.7549 27.6718 26.7372 27.45C26.7305 27.3414 26.7128 27.2527 26.6928 27.2305C26.6041 27.1285 26.5731 26.838 26.6285 26.6495L26.6618 26.5431L26.593 26.4832C26.4711 26.3745 26.4844 26.1395 26.6219 25.982L26.6862 25.9089L26.613 25.8357C26.5176 25.7381 26.4755 25.5541 26.4932 25.3102C26.5043 25.1416 26.5797 24.9066 26.6219 24.9066C26.6662 24.9066 26.6374 24.8467 26.5731 24.809C26.4733 24.7491 26.4201 24.6493 26.4201 24.5163C26.4201 24.248 26.5309 23.8355 26.613 23.8045C26.6463 23.7912 26.6529 23.7313 26.6219 23.7313C26.5709 23.7313 26.5021 23.5229 26.491 23.3344C26.4777 23.0971 26.5243 22.9153 26.6219 22.8177L26.6862 22.7512L26.6174 22.6093C26.5576 22.4873 26.5487 22.4518 26.5598 22.3498C26.5842 22.1148 26.8436 21.6801 27.0387 21.5515C27.1097 21.5049 27.1297 21.4783 27.1297 21.4273C27.1297 21.2788 27.2516 21.0592 27.4556 20.8397C27.6685 20.6135 27.7373 20.5115 27.7816 20.3518C27.8127 20.2498 27.8459 20.1966 27.939 20.1035C28.0477 19.9948 28.2783 19.8573 28.4158 19.8219C28.4446 19.8152 28.4602 19.793 28.4602 19.7576C28.4624 19.6156 28.6376 19.3784 28.7928 19.3074C28.8704 19.2719 28.8815 19.2586 28.8815 19.1943C28.8815 19.1034 28.9569 19.0125 29.1343 18.8905C29.3028 18.7774 29.5689 18.7087 29.9791 18.6732C30.8417 18.6022 31.2254 18.4581 31.6312 18.0545C31.8773 17.8106 31.9727 17.6465 32.0614 17.3228C32.1345 17.0544 32.139 16.8039 32.0724 16.6087C32.0259 16.4712 31.8773 16.1918 31.8507 16.1918C31.8418 16.1918 31.8551 16.265 31.8795 16.3515C31.9372 16.5622 31.9438 16.9081 31.8906 17.0766C31.8174 17.3117 31.6733 17.4869 31.4715 17.5911C31.334 17.662 31.2675 17.6776 31.0324 17.6997C30.7885 17.7219 30.6244 17.7707 30.5446 17.8439C30.4249 17.9547 30.1565 17.968 29.8993 17.8793C29.8328 17.855 29.7086 17.8283 29.6221 17.8217L29.4625 17.8062L29.2562 17.9503C29.0434 18.0967 28.1231 18.6156 27.9612 18.6799C27.6663 18.7974 27.3337 18.7153 27.194 18.4914C27.0809 18.3118 27.1829 18.1432 27.6641 17.7086C28.0544 17.3582 28.1475 17.2385 28.1985 17.0345C28.2207 16.948 28.2916 16.7595 28.3604 16.6176C28.5222 16.2695 28.5245 16.2096 28.3715 16.0499C28.3116 15.9856 28.2451 15.8969 28.2273 15.8503C28.1918 15.7683 28.1763 15.582 28.2007 15.5554C28.214 15.5443 28.3626 15.5754 28.4402 15.6042C28.4646 15.6131 28.469 15.5798 28.4624 15.4268C28.4579 15.3071 28.4668 15.2117 28.4823 15.1696L28.5112 15.1031L28.591 15.1807C28.673 15.2605 28.7329 15.2805 28.7595 15.2383C28.7662 15.2272 28.7817 15.1629 28.7928 15.0964C28.815 14.9567 28.9037 14.7394 28.9258 14.766C28.9347 14.7749 28.9547 14.8214 28.9702 14.8658C28.9835 14.9124 29.0034 14.95 29.0145 14.95C29.0234 14.95 29.0389 14.8968 29.0478 14.8325C29.0722 14.6418 29.0988 14.562 29.1587 14.5066C29.2075 14.46 29.2208 14.4578 29.2363 14.4844C29.2474 14.5021 29.2585 14.542 29.2585 14.5731C29.2585 14.6706 29.3205 14.868 29.4026 15.0343C29.5622 15.3536 29.713 15.3226 30.0235 14.9124C30.2009 14.6773 30.2275 14.6041 30.1787 14.4977C30.0612 14.2493 29.5689 13.9145 29.1054 13.7703C29.019 13.7437 28.948 13.7149 28.948 13.706C28.948 13.6639 29.0589 13.5641 29.1564 13.5176C29.2673 13.4665 29.3959 13.4555 29.58 13.4799Z" fill="#DFDFDF"/>
<path d="M34.1612 17.8869C34.0204 17.8086 34.7036 17.8209 34.848 17.8225C34.9458 17.8519 35.0356 17.8946 35.0657 17.8806C35.0957 17.8667 35.0715 17.7575 35.0411 17.5719C34.9335 17.4836 34.8222 17.4363 34.7037 17.4018C34.5907 17.3617 34.491 17.3354 34.362 17.2943C34.2384 17.2795 34.1984 17.2852 34.0225 17.2468C34.2288 17.214 34.3753 17.2391 34.5805 17.0231C34.4976 16.9732 34.4649 16.9101 34.3652 16.8862C34.2655 16.8648 34.2305 16.8682 34.1486 16.8682C33.9916 16.8682 33.9457 16.8969 34.0507 16.8212C34.1558 16.7454 34.3564 16.6595 34.5816 16.6185C34.7795 16.5844 35.0799 16.5833 35.2246 16.5775C35.1582 16.4462 35.0346 16.3694 34.9595 16.2875C34.8366 16.1374 34.5543 16.1408 34.1311 16.209C33.4623 16.2909 33.4213 16.209 33.8445 15.6766L34.1134 15.3806L33.9428 15.3129L33.7565 15.3078C33.5791 15.3488 33.3531 15.4855 33.2166 15.5401C32.9981 15.6357 33.01 15.5457 33.0783 15.3683C33.1329 15.2181 33.0933 15.2189 33.1145 15.0527C33.0052 15.0527 32.7173 15.162 32.7173 15.0937C32.7173 15.0118 32.7551 14.957 32.7762 14.7686C32.6807 14.7686 32.4665 14.7943 32.4193 14.7841C32.3722 14.7739 32.4849 14.6653 32.5997 14.5624L32.8952 14.2976L33.3126 14.0162L32.6933 14.0938C32.5022 14.0938 32.1998 14.3014 32.0394 14.385C31.9592 14.4268 31.8831 14.4397 31.8349 14.4903C31.7246 14.5312 31.8572 14.6405 31.7773 14.5399C31.7365 14.4666 31.9253 14.2501 31.8996 14.137C31.7643 13.879 31.461 14.3514 31.395 14.2751C31.2687 14.2614 31.4568 13.9674 31.3567 13.9078C31.2137 13.8227 31.1324 14.115 31.0554 14.0633C30.9785 14.0116 30.9287 13.6371 30.8071 13.59C30.6855 13.543 30.735 13.9723 30.6531 13.9142C30.4757 13.7914 30.0916 13.5503 29.7757 13.5066C29.6177 13.4847 29.4337 13.4393 29.2779 13.4674C29.1221 13.4955 28.9751 13.6026 28.9327 13.7334C29.1425 13.7946 29.1757 13.8003 29.3941 13.8958C29.6125 13.9777 29.8991 14.1825 30.0356 14.319C30.2677 14.5784 30.2677 14.6057 30.0083 14.9333C29.6807 15.3837 29.5169 15.3564 29.3395 14.8377C29.2644 14.633 29.2878 14.5029 29.2521 14.4332C29.2316 14.4482 29.1568 14.4791 29.1119 14.5494C29.0726 14.6109 29.0375 14.8827 29.0378 14.9536C29.005 14.9336 28.9743 14.8444 28.9436 14.7012C28.8615 14.8594 28.838 14.9115 28.8107 14.9865C28.7834 15.0616 28.8071 15.2609 28.7252 15.2609C28.6774 15.2609 28.6194 15.1686 28.5177 15.0788C28.4299 15.2437 28.4424 15.4498 28.4775 15.606C28.4087 15.5836 28.2676 15.5356 28.1992 15.5292C28.1778 15.6114 28.1792 15.7103 28.1958 15.7851C28.2456 15.8922 28.2611 15.9844 28.3703 16.0663C28.5341 16.2028 28.5341 16.2847 28.3703 16.5986C28.2611 16.8034 28.1792 17.0354 28.1792 17.131C28.1792 17.2129 27.9335 17.4859 27.6195 17.7453C27.2373 18.0729 27.1008 18.2776 27.1554 18.4278C27.2919 18.7554 27.715 18.851 28.0973 18.6462C28.2747 18.5507 28.6706 18.3322 28.9845 18.1548C29.1961 18.0388 29.3354 17.9123 29.4645 17.8311C29.6719 17.8283 29.8299 17.8474 30.0083 17.9364C30.2813 17.9773 30.4998 17.95 30.5544 17.8681C30.609 17.7862 30.8274 17.718 31.0321 17.718C31.5781 17.718 31.9356 17.3569 31.957 16.8281C31.9652 16.5983 31.9342 16.4532 31.8579 16.1945C32.1593 16.6704 32.177 16.8898 32.0688 17.3097C31.9384 17.8958 31.3324 18.6462 29.9947 18.6599C29.7422 18.6667 29.5306 18.7383 29.2918 18.7862C29.1391 18.8766 28.8134 19.0497 28.8796 19.2667C28.6319 19.3327 28.4619 19.5895 28.4583 19.8002C27.8501 19.9822 27.7696 20.3389 27.7696 20.4071C27.7696 20.4754 27.6195 20.6801 27.4284 20.8576C27.2373 21.035 27.1106 21.322 27.1341 21.4802C26.9226 21.5894 26.8467 21.7489 26.7181 21.9223C26.609 22.1438 26.4274 22.4193 26.6953 22.7505C26.4148 22.8545 26.4271 23.6488 26.651 23.7639C26.4863 23.8771 26.4509 24.1534 26.4157 24.5296C26.4142 24.6561 26.4551 24.7694 26.6561 24.8696C26.6025 24.8966 26.56 24.9707 26.5308 25.0677C26.5017 25.1647 26.4859 25.2844 26.4861 25.4026C26.4863 25.5209 26.5023 25.6375 26.5367 25.7283C26.571 25.819 26.6238 25.8839 26.6972 25.8985C26.4468 26.062 26.4528 26.4947 26.6687 26.5393C26.5478 26.7602 26.5858 27.1943 26.74 27.2795C26.7063 27.7251 26.8828 28.0412 26.9762 28.2766C27.1631 28.7476 27.4092 29.1469 27.7178 29.4822C28.0265 29.8174 28.3976 30.0887 28.8344 30.3037C29.7899 30.7679 31.4143 30.7542 32.3426 30.2764C33.1616 29.8533 33.8305 28.9387 33.967 28.0514C34.0898 27.2597 33.7076 26.0994 33.2162 25.7308C32.4381 25.1575 30.9229 25.3486 30.7045 26.0448C30.5953 26.3997 30.7318 26.8229 30.9912 26.9184C31.3324 27.0413 31.4689 26.8775 31.2778 26.5772C31.1413 26.3451 31.155 26.2768 31.3734 26.0994C32.0286 25.6216 33.0114 26.0448 33.2435 26.8911C33.5302 27.9832 33.0797 29.0888 32.1651 29.5393C31.4007 29.9215 29.8582 29.9488 29.3122 29.6076C28.2474 28.9387 27.5785 27.1232 27.9062 25.7581C28.0836 25.0073 28.8207 24.0791 29.7763 23.4375L30.3769 23.0144L30.5953 23.574C30.7113 23.8675 30.8137 24.0305 30.7861 24.2159C30.9635 24.1077 31.0275 24.1273 31.1498 24.0121C31.2044 23.8892 31.3051 23.7515 31.4553 23.7924C31.4894 23.8027 31.6963 23.9245 31.9023 23.9525C31.8314 23.7867 31.7595 23.7819 31.7679 23.6166C31.8783 23.7574 32.1947 23.7749 32.605 23.8183C32.284 23.6346 32.345 23.5986 32.3211 23.4442C32.444 23.5832 32.7506 23.6698 33.1052 23.7336C32.9224 23.5425 32.9536 23.4838 32.9357 23.3099C33.1155 23.4868 33.5535 23.5856 33.7159 23.5752C33.5736 23.4097 33.5713 23.4119 33.5741 23.2071C33.7338 23.3325 34.0288 23.3148 34.2927 23.2681C34.13 23.094 34.0802 22.9019 34.0709 22.7559C34.2849 22.9548 34.6353 22.9119 34.8642 22.874C34.6849 22.7149 34.5762 22.6253 34.5205 22.5255C34.4556 22.4001 34.4994 22.3591 34.7178 22.3591C34.8679 22.3591 34.9718 22.4554 35.1934 22.3705C34.8721 22.2435 34.7848 21.8329 34.7127 21.8246C34.4252 21.7916 35.1126 22.3478 34.4972 22.2307C34.3435 22.2086 34.2736 22.2113 34.1596 22.2178C34.2395 22.3351 34.2532 22.34 34.3219 22.4274C34.3991 22.5413 34.4145 22.6896 34.5973 22.7856C34.4422 22.7865 34.3153 22.8007 34.2126 22.7191C34.1099 22.6376 34.1088 22.6044 33.8922 22.4485C33.8627 22.6118 33.8772 22.6444 33.8933 22.7526C33.921 22.9399 33.9571 22.9892 34.0135 23.1373C33.7784 23.1918 33.6338 23.1176 33.5927 23.0161C33.5313 22.952 33.4436 22.7887 33.3231 22.7557C33.2741 22.9028 33.3262 22.9085 33.3442 23.0332C33.3954 23.1733 33.4082 23.2731 33.4521 23.4047C33.2135 23.3367 33.0669 23.2507 32.9159 23.069C32.6565 22.8506 32.6565 22.8506 32.7384 23.1372C32.7722 23.3283 32.764 23.3711 32.8334 23.536C32.6036 23.4959 32.3903 23.3898 32.2743 23.2055C32.1378 23.0007 32.1242 23.0144 32.1788 23.2737C32.1865 23.4482 32.1562 23.4764 32.1991 23.6452C31.9905 23.6011 31.8375 23.5194 31.7283 23.342C31.5918 23.1372 31.5781 23.1509 31.6327 23.4102C31.6669 23.574 31.6042 23.6078 31.7009 23.7787C31.4652 23.6782 31.4553 23.7037 31.3734 23.574C31.3188 23.4648 31.2288 23.6106 31.1196 23.8154C31.0308 23.9724 30.9588 23.9844 30.8927 23.992C30.8764 23.8723 30.8274 23.7924 30.7182 23.5331C30.5953 23.2328 30.5134 22.9871 30.5271 22.9598C30.5544 22.9461 30.8956 22.7687 31.2778 22.5639C31.6737 22.3728 32.0013 22.1544 32.0013 22.0725C32.0013 22.0042 32.0696 21.9496 32.1651 21.9496C32.3835 21.9496 32.9568 21.4036 32.9568 21.1989C32.9568 21.1033 33.0797 20.8712 33.2299 20.6938C33.4346 20.4208 33.6667 20.3252 34.2809 20.257C34.7152 20.1802 35.0796 20.0659 35.3047 19.943C35.4174 19.8841 35.4328 19.8342 35.5193 19.8006C35.5227 19.8723 35.4754 20.0932 35.3184 20.2433C35.2297 20.3389 35.1388 20.3596 35.058 20.4095C35.134 20.4868 35.1887 20.6324 35.2501 20.7347C35.3866 20.9531 35.3866 21.0214 35.1955 21.0896C35.0181 21.1579 35.0181 21.1989 35.1682 21.2944C35.2297 21.3422 35.3221 21.375 35.3869 21.4168C35.2855 21.4419 35.2061 21.4483 35.0125 21.3989C34.7668 21.2501 34.748 21.294 34.8543 21.4446C34.9413 21.5759 35.0002 21.7226 35.1267 21.8245C34.9818 21.8323 34.9157 21.8063 34.786 21.7585C34.6495 21.7039 34.534 21.6673 34.6277 21.8792C34.7169 22.0273 34.6677 21.7995 34.7522 21.995C34.898 22.0231 35.229 21.9884 35.471 21.9298C35.2532 21.8104 35.1736 21.717 35.1463 21.6556C35.1053 21.5327 35.2228 21.5401 35.332 21.5401C35.3798 21.5401 35.5377 21.5592 35.6557 21.4283C35.5577 21.3749 35.4087 21.3266 35.3189 21.2141C35.5988 21.0527 35.4362 20.8082 35.371 20.692C35.317 20.5992 35.3126 20.55 35.2498 20.4537C35.336 20.4474 35.4617 20.2843 35.5231 20.1751C35.6528 19.943 35.7091 19.7225 35.6903 19.5328C35.5053 19.6755 35.4336 19.7215 35.3184 19.7788C35.1228 19.8957 34.7031 20.0429 34.3322 20.0989C33.9613 20.155 33.6394 20.1478 33.6394 20.0113C33.6394 19.8748 33.491 19.8861 33.5983 19.7769C33.7993 19.5726 33.9074 19.3891 33.97 19.2083C34.087 19.0667 34.2348 19.0562 34.4306 19.0542C34.5345 19.1097 34.7372 19.1581 34.8307 19.2933C34.9187 19.2512 34.964 18.9801 34.9195 18.8511C34.9003 18.7956 34.6742 18.6895 34.5468 18.685C34.4193 18.6805 34.3516 18.7168 34.2394 18.6693C34.3715 18.6312 34.4437 18.6334 34.5814 18.5648C34.7039 18.5038 34.8225 18.4675 34.8065 18.3898C34.7867 18.2936 34.1095 18.3592 34.014 18.3626C33.9355 18.366 34.162 18.272 34.3289 18.2509C34.4384 18.2117 34.6826 18.227 34.9295 18.0437C34.7473 17.9266 34.6513 17.9759 34.5019 17.9208M33.9394 17.9432C33.9944 18.059 34.6526 18.0274 34.4695 18.0753C34.4695 18.0753 33.9612 18.169 33.7929 18.3134C33.7632 18.4412 33.9406 18.4979 33.9406 18.4979L34.5852 18.4292C34.5922 18.5174 33.9586 18.5507 33.9804 18.6833C33.9874 18.7262 33.9453 18.8072 34.1561 18.7832C34.3481 18.792 34.5837 18.7725 34.7263 18.8462C34.8298 18.8979 34.8423 19.0127 34.8098 19.111C34.716 19.0346 34.5668 18.9716 34.4849 18.9443C34.31 18.9217 34.1835 18.9576 34.0653 19.0082C33.9472 19.0587 33.865 19.1129 33.7622 19.3151C33.694 19.4925 33.4756 19.6973 33.2708 19.7792C33.0524 19.8475 32.7034 20.0344 32.5473 20.2433C32.3743 20.4749 32.2451 20.6626 31.8282 20.9034C31.4187 21.272 31.7724 21.1409 31.597 21.1679C31.127 21.24 30.8683 21.349 30.7864 21.4582C30.6909 21.5674 30.4725 21.6903 30.295 21.7312C30.1039 21.7858 29.9537 21.8814 29.9537 21.9496C29.9537 22.0315 29.8582 22.0861 29.7353 22.0861C29.435 22.0861 28.0973 23.4921 27.8516 24.0518C27.3874 25.1029 27.3055 25.4851 27.3055 26.5089C27.3192 27.1914 27.4011 27.8057 27.524 28.0924C27.797 28.7339 28.9612 30.023 29.2751 30.023C29.3306 30.0387 29.3082 30.033 29.374 30.0436C29.4042 30.0887 29.4214 30.093 29.5281 30.1428C29.6831 30.2203 29.8818 30.2582 30.1241 30.2651C30.3665 30.272 30.6524 30.248 30.9819 30.2018C31.3114 30.1556 31.6345 30.0873 31.8752 30.0074C32.116 29.9276 32.2045 29.8843 32.2743 29.8107C32.2952 29.7887 32.3506 29.76 32.3413 29.6641C32.3909 29.7092 32.506 29.6986 32.6435 29.5741C32.7552 29.473 32.8627 29.4259 32.8067 29.3243C32.9544 29.3089 32.9796 29.2462 33.096 29.0825C33.1725 28.9749 33.2595 28.8798 33.2223 28.7276C33.324 28.7478 33.3744 28.6055 33.4327 28.4707C33.4838 28.3524 33.5749 28.1915 33.4616 28.1332C33.5919 28.1364 33.5674 27.9771 33.5833 27.8663C33.5991 27.7554 33.6318 27.5834 33.5004 27.5532C33.635 27.5107 33.5774 27.3717 33.5571 27.247C33.5287 27.072 33.5126 26.9774 33.4009 26.9542C33.5007 26.9096 33.4399 26.7455 33.3741 26.5215C33.3213 26.3419 33.2004 26.2764 33.0613 26.3062C33.1944 26.2047 32.9514 26.0391 32.8991 25.9955C32.7541 25.8744 32.5891 25.8294 32.5567 25.9082C32.5707 25.7608 32.0561 25.7478 31.8593 25.77C31.6624 25.7922 31.4894 25.881 31.3051 26.0311C31.0185 26.2632 31.0048 26.3314 31.155 26.5771C31.3324 26.8911 31.1959 26.9594 30.9366 26.7C30.6636 26.427 30.7455 26.0857 31.1413 25.7718C31.4416 25.5261 31.6464 25.4851 32.1651 25.5261C33.0797 25.6216 33.4483 25.9083 33.7076 26.7546C34.1171 28.1606 33.5575 29.553 32.3289 30.1536C31.7829 30.4129 31.4553 30.4812 30.568 30.4812C29.2712 30.4675 28.4658 30.1536 27.7151 29.3209C27.2509 28.8158 26.7322 27.4964 26.896 27.2507C27.1625 27.1373 26.896 27.1368 26.8141 27.1368C26.7049 27.1368 26.664 26.5712 26.8673 26.4684C26.4616 26.47 26.6764 25.963 26.9207 25.8632C26.702 25.858 26.5938 25.6441 26.5873 25.4179C26.5808 25.1917 26.676 24.9531 26.8641 24.8984C27.0059 24.8571 26.8753 24.8194 26.7422 24.7892C26.5835 24.7531 26.5225 24.7294 26.5421 24.4466C26.5656 24.2613 26.6308 23.9516 26.7651 23.8945C26.9034 23.8357 27.1187 23.8186 27.2387 23.8079C27.0929 23.7609 26.9539 23.7336 26.8414 23.7242C26.5957 23.6218 26.5129 23.1249 26.7338 22.9858C26.9547 22.8466 27.5108 23.1201 27.54 23.0073C27.4316 22.8886 27.0957 22.8594 26.9466 22.751C26.764 22.5715 26.5957 22.4001 26.896 21.9769C27.0462 21.7449 27.0223 21.6874 27.1961 21.6232C27.4266 21.6139 27.9209 21.9242 28.299 21.9121C28.1258 21.768 27.5368 21.6523 27.3489 21.516C27.1609 21.3797 27.3035 21.168 27.4966 20.9258C27.7287 20.7211 27.8243 20.7074 28.1246 20.8439C28.3293 20.9258 28.6534 21.0111 29.0046 21.0699C28.8683 20.9292 28.2474 20.7757 28.1109 20.6665C27.8516 20.4754 27.8516 20.3952 28.0973 20.1222L28.4649 19.9711L28.8753 20.1887C29.1757 20.3252 29.6404 20.4873 29.6404 20.4463C29.6404 20.419 29.2166 20.2297 28.9982 20.1068C28.7661 19.984 28.6248 19.8065 28.6248 19.711C28.6248 19.3697 28.9397 19.3243 29.4223 19.6607C29.668 19.8041 30.2814 19.9911 30.3181 19.9221C30.3635 19.8365 29.9068 19.7528 29.6807 19.6427C29.4564 19.5147 29.035 19.3048 29.035 19.1956C29.0904 19.0104 29.3395 18.8783 30.4179 18.7554C31.2232 18.6599 31.6464 18.4005 32.0013 17.8135C32.4381 17.1037 32.3562 16.4894 31.7693 15.9298L31.2778 15.4656L31.5645 15.9025C32.0969 16.6669 31.8375 17.5815 31.0867 17.5815C30.9093 17.5815 30.6499 17.6497 30.5134 17.7453C30.3223 17.8545 30.1559 17.8309 29.9955 17.7837L29.7346 17.7068L29.6442 17.6873L30.022 17.4313C30.4452 17.2266 30.6226 16.8307 30.3905 16.5986C30.3086 16.5167 30.2813 16.5986 30.3223 16.817C30.3769 17.0764 30.3223 17.1993 30.1312 17.2675C29.9947 17.3358 29.7217 17.4859 29.5442 17.6224C28.9572 18.0456 28.1655 18.537 28.0836 18.537C28.0427 18.537 28.1109 18.4005 28.2611 18.223C28.4112 18.0592 28.3293 18.0865 28.0836 18.3186C27.7151 18.6462 27.6058 18.6872 27.4284 18.537C27.1281 18.2913 27.169 18.1821 27.6877 17.8545C28.0017 17.677 28.2201 17.3904 28.3293 17.0628C28.4112 16.7897 28.5477 16.4894 28.6023 16.4075C28.6842 16.312 28.6433 16.1891 28.5204 16.0799C28.4044 15.9844 28.2884 15.7624 28.3008 15.6812C28.3547 15.6913 28.3956 15.7064 28.4522 15.7387C28.5204 15.7796 28.5887 15.725 28.5887 15.6021C28.5887 15.5407 28.5414 15.308 28.5542 15.2509C28.5864 15.3101 28.6842 15.4452 28.7252 15.4656C28.7934 15.5066 28.8753 15.4656 28.8753 15.3701C28.8958 15.1722 28.9212 15.1142 28.9382 15.0211C28.9662 15.072 29.1076 15.2761 29.1717 15.325C29.1172 15.1744 29.1603 14.6908 29.1837 14.6458C29.1877 14.7754 29.2607 15.0057 29.2827 15.089C29.4276 15.2933 29.4629 15.338 29.626 15.3874C29.7642 15.3925 29.8309 15.336 30.022 15.1107C30.2131 14.8787 30.33 14.7048 30.3411 14.5865C30.3411 14.4636 29.9361 13.9777 29.4566 13.7949C29.2534 13.7211 29.2258 13.7002 29.1012 13.667C29.1351 13.6593 29.185 13.6119 29.3331 13.5842C29.4108 13.5698 29.725 13.5708 29.9278 13.6671C30.1092 13.7253 30.5285 13.9044 30.7196 14.0955C30.8232 14.1129 30.7056 13.7642 30.8266 13.8146C30.9476 13.8649 30.8997 14.2281 31.0018 14.2826C31.155 14.3642 31.1797 14.0961 31.2479 14.0961C31.3162 14.1029 31.1929 14.4142 31.3197 14.4867C31.4027 14.5342 31.69 14.1815 31.7242 14.2361C31.7493 14.2787 31.5023 14.5704 31.5689 14.6137C31.6512 14.6786 31.6432 14.7653 31.8252 14.6933C31.9743 14.6181 32.633 14.2045 32.8027 14.2164C32.6452 14.3196 32.5229 14.4451 32.3521 14.6011C32.0791 14.8878 32.002 14.9235 32.2204 14.9567C32.4233 14.9235 32.4734 14.8621 32.5735 14.9299C32.6236 14.9637 32.5277 15.2221 32.5956 15.2635C32.6634 15.3048 32.8962 15.2139 32.9222 15.2408C33.0263 15.3483 32.8412 15.4924 32.9026 15.6493C32.9845 15.8814 33.0254 15.8814 33.2984 15.6903C33.5169 15.5333 33.796 15.421 33.8044 15.4804C33.8154 15.5585 33.7489 15.5947 33.6261 15.7722C33.2302 16.3319 33.3394 16.4411 34.1175 16.3592C34.1175 16.3592 34.7511 16.1744 34.9409 16.464C34.7534 16.4288 34.3043 16.5182 34.1845 16.5701C34.1196 16.5982 33.9792 16.6824 33.8579 16.7788C33.7972 16.827 33.8323 16.8649 33.869 16.9715C34.011 17.0227 34.1657 17.0539 34.3333 17.0445C33.8266 17.2485 33.872 17.0799 33.6883 17.1823C33.8202 17.4 33.9252 17.3839 34.3765 17.447C34.4883 17.5004 34.5963 17.5257 34.7191 17.5598C34.8454 17.594 34.9235 17.6919 34.8923 17.7031C34.8611 17.7142 34.7373 17.6829 34.5982 17.6692C34.435 17.6713 34.5195 17.6699 34.1538 17.7075C33.9829 17.7493 33.9063 17.8747 33.9394 17.9432Z" fill="black"/>
<path d="M29.2946 16.5753C29.2946 16.6551 29.341 16.7197 29.3981 16.7197C29.4553 16.7197 29.5016 16.6551 29.5016 16.5753C29.5016 16.4956 29.4553 16.4309 29.3981 16.4309C29.3424 16.4309 29.2967 16.4925 29.2947 16.5702" fill="black"/>
<path d="M29.0866 16.6821C29.1521 16.8478 29.3446 16.931 29.5164 16.8678C29.6882 16.8046 29.7744 16.619 29.7089 16.4532C29.6434 16.2874 29.451 16.2043 29.2792 16.2675C29.1075 16.3306 29.0213 16.5158 29.0864 16.6815" stroke="black" stroke-width="0.105481"/>
<path d="M30.291 16.1444C29.8601 15.9172 29.2647 16.2698 29.2647 16.2698" stroke="black" stroke-width="0.105481"/>
<path d="M33.5214 20.058C33.5367 19.9847 33.5034 19.9484 33.3848 19.8723C33.2386 19.8905 32.9844 19.9946 32.8234 20.1372C32.549 20.3802 32.5073 20.4707 32.3527 20.6787C32.4158 20.8036 32.4568 20.8306 32.5764 20.947C32.6979 21.0266 32.7699 21.0749 32.8524 21.1144C32.9183 20.9101 32.9984 20.8091 33.1804 20.5743C33.2655 20.4445 33.5171 20.3457 33.6447 20.2496C33.6171 20.1479 33.5667 20.1399 33.5214 20.058Z" fill="#DFDFDF"/>
<path d="M32.4951 21.0215C32.3694 20.9404 32.3361 20.8257 32.2489 20.7732C32.1339 20.8227 32.1638 20.8369 31.9773 20.9284C31.7767 21.0551 31.8493 21.0269 31.6946 21.2348C31.7577 21.3598 31.7909 21.4181 31.887 21.5502C31.9929 21.6454 31.9943 21.7172 32.0925 21.8351C32.2759 21.7874 32.3952 21.7178 32.538 21.5535C32.6388 21.4316 32.7572 21.4267 32.8064 21.2209C32.677 21.135 32.5717 21.0957 32.4951 21.0215Z" fill="#DFDFDF"/>
<path d="M31.782 21.6013C31.6877 21.4732 31.67 21.382 31.5906 21.2903C31.4522 21.3084 31.3411 21.3304 31.178 21.3828C30.954 21.4312 30.9247 21.5048 30.8092 21.6266C30.8723 21.7515 30.8819 21.9117 30.9311 22.1378C30.9664 22.2957 30.9992 22.3832 31.066 22.5245C31.2495 22.4456 31.3844 22.3759 31.5429 22.2743C31.7064 22.1759 31.8639 22.077 31.9366 21.8712C31.8543 21.7226 31.8587 21.6754 31.782 21.6013Z" fill="#DFDFDF"/>
<path d="M30.8027 22.2124C30.7633 22.0373 30.7691 21.8521 30.6818 21.7134C30.5434 21.7315 30.5655 21.777 30.4024 21.8294C30.2332 21.9013 30.1177 21.9201 30.0257 22.1045C30.175 22.2451 30.2082 22.2251 30.2574 22.4512C30.2927 22.6091 30.2236 22.8298 30.2904 22.9711C30.4739 22.8922 30.4913 22.846 30.6498 22.7444C30.8132 22.646 30.8298 22.6881 30.9338 22.5842C30.875 22.4042 30.8402 22.3179 30.8027 22.2124Z" fill="#DFDFDF"/>
<path d="M30.129 22.4632C30.0503 22.3038 30.017 22.2674 29.9297 22.1914C29.7678 22.2566 29.6958 22.2159 29.5406 22.3544C29.3949 22.4577 29.0914 22.7115 28.9759 22.8333C29.086 22.8877 29.1888 22.9252 29.3172 23.0938C29.4456 23.2623 29.4088 23.3078 29.4835 23.4961C29.6199 23.4094 29.6843 23.3632 29.8115 23.2851C29.9436 23.1632 29.9993 23.127 30.1504 23.0231C30.0915 22.8509 30.1508 22.6001 30.129 22.4632Z" fill="#DFDFDF"/>
<path d="M29.228 23.1998C29.1494 23.0404 29.0377 23.0118 28.9504 22.9358C28.7885 23.0009 28.7244 23.1405 28.5692 23.279C28.3765 23.4919 28.3472 23.5264 28.2552 23.656C28.3966 23.7261 28.4367 23.7323 28.5651 23.846C28.698 23.9636 28.7351 23.966 28.8254 24.0682C28.9227 23.9579 28.9088 23.9666 29.0359 23.8415C29.168 23.7195 29.1845 23.7225 29.3591 23.5637C29.3081 23.3837 29.2812 23.3209 29.228 23.1998Z" fill="#DFDFDF"/>
<path d="M28.4758 23.9596C28.3815 23.8863 28.2933 23.8343 28.214 23.7817C28.1382 23.8704 28.0662 23.9394 28.0207 24.0388C27.9455 24.1342 27.9397 24.153 27.8791 24.2826C28.0205 24.3526 28.0058 24.3354 28.1107 24.3864C28.2127 24.436 28.2571 24.4907 28.3788 24.5694C28.476 24.4591 28.4073 24.4991 28.5344 24.3741C28.5961 24.2991 28.6282 24.2394 28.7245 24.1433C28.5873 24.026 28.5682 24.0102 28.4758 23.9596Z" fill="#DFDFDF"/>
<path d="M28.1037 24.5119C27.9898 24.4582 27.9408 24.4297 27.8458 24.3889C27.7818 24.5089 27.7646 24.527 27.7191 24.6264C27.6909 24.71 27.6695 24.7523 27.6206 24.8897C27.7267 24.9285 27.759 24.9386 27.8287 24.97C27.8999 25.0021 27.9751 25.047 28.0576 25.0943C28.1353 24.9488 28.1331 24.9809 28.178 24.8951C28.22 24.8122 28.2483 24.7878 28.325 24.6761C28.2112 24.5901 28.1765 24.5586 28.1037 24.5119Z" fill="#DFDFDF"/>
<path d="M27.8211 25.077C27.7072 25.0234 27.7081 25.0364 27.613 24.9956C27.549 25.1156 27.5042 25.3276 27.4697 25.4574C27.4443 25.6048 27.4228 25.7689 27.4155 25.9479C27.5161 25.9673 27.4746 25.9554 27.5627 25.9728C27.6502 25.9902 27.655 25.9936 27.7486 26.0326C27.7764 25.8372 27.8004 25.7294 27.8511 25.5959C27.8848 25.502 27.9546 25.2893 28.0312 25.1775C27.9342 25.1247 27.8938 25.1237 27.8211 25.077Z" fill="#DFDFDF"/>
<path d="M27.5745 26.0881C27.5394 26.0799 27.5017 26.0737 27.4274 26.0676C27.4132 26.3234 27.4127 26.3858 27.4198 26.6402C27.4387 26.9067 27.4422 27.1235 27.4847 27.3939C27.5328 27.38 27.5438 27.3653 27.6319 27.3606C27.7198 27.356 27.7146 27.3545 27.8054 27.3602C27.7418 27.1066 27.7397 27.0197 27.7208 26.7178C27.713 26.4826 27.7136 26.4066 27.7325 26.1418C27.6631 26.1195 27.6334 26.1044 27.5745 26.0881Z" fill="#DFDFDF"/>
<path d="M27.6965 27.4842C27.6613 27.476 27.5738 27.4864 27.4994 27.4803C27.5795 27.93 27.6455 28.0976 27.7966 28.3743C27.9762 28.6352 28.1514 28.8797 28.3822 29.128C28.4107 29.1082 28.4302 29.0821 28.4574 29.0559C28.4835 29.0307 28.5056 29.023 28.5367 28.9946C28.2737 28.6468 28.2272 28.5433 28.0699 28.2247C27.9402 27.9064 27.9186 27.8193 27.8323 27.4714C27.7629 27.499 27.7553 27.5005 27.6965 27.4842Z" fill="#DFDFDF"/>
<path d="M28.5219 29.1295C28.4769 29.1585 28.4989 29.1483 28.4301 29.1921C28.5379 29.3204 28.6149 29.3939 28.8159 29.593C28.9678 29.7044 29.0132 29.8016 29.3241 29.9269C29.3611 29.8853 29.3627 29.8799 29.3806 29.8533C29.398 29.8276 29.4053 29.821 29.4248 29.7711C29.267 29.7225 29.0804 29.6124 28.9618 29.4933C28.7656 29.3246 28.7163 29.2486 28.5857 29.0835C28.5555 29.1033 28.5416 29.1105 28.5219 29.1295Z" fill="#DFDFDF"/>
<path d="M29.5033 29.8992C29.4785 29.9384 29.4879 29.9497 29.4647 29.9958C29.6057 30.0798 29.6372 30.0869 29.983 30.1543C30.408 30.1687 30.587 30.1585 30.7866 30.1317C30.7794 30.0785 30.7788 30.0736 30.7764 30.0233C30.7742 29.9758 30.7803 29.9913 30.7766 29.9404C30.3792 29.9668 30.2585 29.9402 30.1013 29.93C29.8184 29.9037 29.6052 29.8372 29.538 29.8201C29.5078 29.8751 29.5112 29.8607 29.5033 29.8992Z" fill="#DFDFDF"/>
<path d="M30.891 30.0323C30.8995 30.0742 30.8978 30.0605 30.9106 30.1205C31.24 30.0632 31.2465 30.0703 31.645 29.9882C31.9453 29.9028 32.0444 29.838 32.2302 29.7391C32.2437 29.6736 32.24 29.6814 32.225 29.6541C32.2053 29.6181 32.2202 29.6296 32.1756 29.6025C31.9548 29.7351 31.7183 29.774 31.5915 29.8165C31.2893 29.8788 31.1398 29.8954 30.8842 29.9226C30.8873 29.9804 30.8879 29.9937 30.891 30.0323Z" fill="#DFDFDF"/>
<path d="M32.3148 29.5698C32.3647 29.6076 32.3685 29.6252 32.4313 29.6164C32.5339 29.6022 32.5471 29.5732 32.6456 29.4927C32.6939 29.4533 32.769 29.3768 32.754 29.3495C32.7344 29.3135 32.7012 29.2053 32.6576 29.2758C32.6195 29.3374 32.4569 29.4328 32.3606 29.4989C32.284 29.5515 32.2953 29.5551 32.3148 29.5698Z" fill="#DFDFDF"/>
<path d="M32.8078 29.2317C32.8661 29.2501 32.8515 29.2617 32.8994 29.2202C32.9383 29.1865 32.9654 29.1298 33.0362 29.0466C33.0766 28.9991 33.1574 28.8623 33.1612 28.8314C33.172 28.7428 33.1226 28.6842 33.0841 28.7577C33.0155 28.8886 32.9278 29.0254 32.8065 29.1359C32.7378 29.1985 32.7845 29.2244 32.8078 29.2317Z" fill="#DFDFDF"/>
<path d="M33.1624 28.6612C33.2207 28.6796 33.2144 28.6912 33.2623 28.6497C33.3012 28.616 33.3401 28.5285 33.3853 28.429C33.4118 28.3704 33.4709 28.2827 33.4494 28.2248C33.4254 28.1606 33.3415 28.1165 33.3196 28.1954C33.2802 28.3379 33.2673 28.3397 33.1999 28.5072C33.174 28.5717 33.1392 28.6538 33.1624 28.6612Z" fill="#DFDFDF"/>
<path d="M33.3535 28.0544C33.3763 28.0983 33.4184 28.093 33.4867 28.0623C33.5417 28.0376 33.5211 27.9506 33.5293 27.8416C33.5337 27.783 33.5456 27.7286 33.5296 27.6513C33.5158 27.5842 33.389 27.5598 33.3806 27.6413C33.3744 27.7006 33.3831 27.7352 33.3716 27.8367C33.353 28.0008 33.3357 28.0202 33.3535 28.0544Z" fill="#DFDFDF"/>
<path d="M33.4034 27.481C33.4167 27.5181 33.4711 27.5057 33.5033 27.4667C33.5418 27.4203 33.4962 27.3384 33.4933 27.2461C33.4915 27.1874 33.4751 27.1282 33.4438 27.0558C33.4244 27.0108 33.3542 27.0054 33.3529 27.0873C33.3523 27.1273 33.3636 27.1792 33.3744 27.2661C33.3864 27.3615 33.3822 27.4218 33.4034 27.481Z" fill="#DFDFDF"/>
<path d="M33.3065 26.9021C33.3198 26.9392 33.3789 26.904 33.3898 26.8546C33.4061 26.7804 33.3546 26.6987 33.3327 26.609C33.3142 26.5337 33.2803 26.4441 33.2195 26.3938C33.1751 26.3571 33.0949 26.3369 33.1119 26.417C33.1252 26.4791 33.214 26.5975 33.2443 26.6983C33.272 26.7904 33.2853 26.8429 33.3065 26.9021Z" fill="#DFDFDF"/>
<path d="M32.9436 26.2402C32.983 26.2417 33.0286 26.2528 33.0159 26.2038C33.0045 26.1601 32.9621 26.1385 32.8812 26.0745C32.8399 26.0418 32.7672 25.9819 32.7264 25.9618C32.6795 25.9385 32.5873 25.9094 32.6189 25.985C32.6321 26.0166 32.6739 26.0298 32.7485 26.0807C32.8279 26.1349 32.9169 26.2392 32.9436 26.2402Z" fill="#DFDFDF"/>
<path d="M14.0323 30.0835C13.2269 30.3565 12.0666 30.9162 11.6025 31.2301C11.4524 31.3393 11.466 31.4622 11.6981 31.9263C11.8619 32.2266 12.0257 32.486 12.053 32.486C12.0939 32.486 12.5444 32.2812 13.0495 32.0219C13.5546 31.7762 14.1999 31.452 14.4964 31.3939C14.7232 31.3496 14.9303 31.3076 15.0585 31.2543C15.1101 31.3797 15.0784 31.3098 15.1725 31.5067C15.3077 31.7897 15.2235 31.7833 15.4573 31.8607C15.7039 31.9424 16.312 31.6124 16.312 31.6124C17.0218 31.3666 17.4176 31.3393 19.9703 31.3393C22.5229 31.3393 22.9188 31.3666 23.6286 31.626C23.6286 31.626 24.1998 31.8203 24.2733 31.8438C24.3462 31.8672 24.3847 31.8856 24.4618 31.8671C24.5321 31.8503 24.6053 31.7427 24.6377 31.6778C24.6377 31.6778 24.7947 31.3006 24.835 31.1683C24.971 31.2337 25.2189 31.3189 25.4578 31.3939C25.7444 31.4895 26.386 31.7762 26.8911 32.0219C27.3962 32.2812 27.8466 32.486 27.8876 32.486C27.9149 32.486 28.0787 32.2266 28.2425 31.9263C28.5701 31.2847 28.5974 31.3393 27.4098 30.7251C25.8264 29.906 24.2429 29.5375 24.0927 29.9333C24.0654 30.0084 24.0423 30.0523 24.0048 30.1497C23.8461 30.1132 23.4307 30.0152 23.0143 29.947C21.7312 29.7149 18.2094 29.7149 16.9262 29.947C16.5099 30.0152 16.2284 30.1291 15.9932 30.1944C15.86 29.928 15.8879 30.0339 15.8606 29.9589C15.7514 29.6858 15.0288 29.7286 14.0323 30.0835Z" fill="black"/>
<path d="M15.3288 29.8874C14.7427 29.9058 13.6433 30.2812 12.5308 30.8472C11.5753 31.3249 11.5482 31.3523 11.8076 31.8574C11.9168 32.0894 12.0402 32.2954 12.0539 32.3227C12.0542 32.3229 12.0554 32.3246 12.0558 32.3247C12.1067 32.3381 12.5321 32.1494 13.0214 31.8981C13.5401 31.6387 14.1967 31.3537 14.4834 31.2718C14.695 31.1967 14.8487 31.1899 15.038 31.1497C15.0034 30.9486 15.0462 31.122 14.9119 30.7386C15.0668 30.3503 15.3659 30.0147 15.6565 29.9417C15.5818 29.9017 15.471 29.8829 15.3288 29.8874Z" fill="#DFDFDF"/>
<path d="M19.8137 29.8971C18.6821 29.9079 17.5695 29.9632 17.0603 30.0425C16.1935 30.1858 15.7261 30.4606 15.4044 30.6281C15.2867 30.7159 15.1835 30.7372 15.0554 30.8142C15.1569 31.0443 15.153 31.1828 15.2396 31.3843C15.3308 31.5963 15.2852 31.7304 15.5344 31.7372C15.7835 31.744 16.3255 31.4754 16.3255 31.4754C17.0216 31.2297 17.4318 31.202 19.9708 31.202C22.5234 31.202 23.0377 31.2832 23.6277 31.489C24.0554 31.6363 24.2318 31.7525 24.4033 31.7217C24.4915 31.7059 24.5373 31.5786 24.5991 31.425C24.6834 31.2158 24.7849 30.9348 24.8357 30.5835C24.7015 30.5639 24.7608 30.6325 24.5778 30.5505C24.1827 30.3734 24.1076 30.36 23.8468 30.25C23.5373 30.1194 23.2478 30.1192 22.7939 30.0348C22.2616 29.9529 21.0784 29.9208 19.9223 29.8971C19.8858 29.8973 19.8502 29.8967 19.8137 29.8971Z" fill="#DFDFDF"/>
<path d="M24.5564 29.899C24.4794 29.8996 24.4139 29.9079 24.3586 29.9242C24.4777 29.9991 24.6168 30.1241 24.6941 30.1646C24.9807 30.3148 24.9796 30.4535 24.952 30.7114C24.9392 30.8306 24.9283 30.876 24.8822 31.0391C24.9891 31.0874 25.2532 31.1967 25.4716 31.2718C25.7446 31.3537 26.3994 31.6387 26.9181 31.8981C27.3995 32.1453 27.8199 32.3315 27.8818 32.3246C27.8829 32.3245 27.8848 32.3231 27.8857 32.3227C27.8858 32.3226 27.8875 32.3228 27.8876 32.3227C27.9013 32.2954 28.0247 32.0894 28.1339 31.8573C28.3113 31.5161 28.3247 31.3945 28.1881 31.2853C27.8878 31.0396 26.6729 30.4785 25.7993 30.1782C25.2401 29.9918 24.8287 29.8968 24.5564 29.899Z" fill="#DFDFDF"/>
<path d="M24.2132 30.0095C24.2037 30.0198 24.1957 30.0307 24.188 30.0425C24.1466 30.0929 24.1408 30.1469 24.1279 30.2092C24.2184 30.2412 24.5236 30.4313 24.6805 30.4245C24.7141 30.4245 24.7407 30.423 24.7562 30.4167C24.757 30.4163 24.7593 30.4152 24.76 30.4148C24.7604 30.4146 24.7616 30.413 24.762 30.4128C24.7633 30.4119 24.7649 30.41 24.7659 30.409C24.7663 30.4085 24.7674 30.4076 24.7678 30.407C24.768 30.4067 24.7696 30.4054 24.7697 30.4051C24.7699 30.4048 24.7697 30.4035 24.7697 30.4032C24.7698 30.4028 24.7697 30.4015 24.7697 30.4012C24.7697 30.4009 24.7697 30.3996 24.7697 30.3993C24.7697 30.3989 24.7698 30.3977 24.7697 30.3973C24.7694 30.3958 24.7685 30.3932 24.7678 30.3915C24.7674 30.3907 24.7664 30.3885 24.7659 30.3877C24.765 30.3863 24.763 30.3833 24.762 30.3818C24.7401 30.3534 24.6736 30.3074 24.5429 30.2345C24.4506 30.183 24.3013 30.0814 24.2132 30.0095Z" fill="#DFDFDF"/>
<path d="M15.7379 30.0134C15.6483 30.0817 15.4963 30.1759 15.3986 30.2422C15.2231 30.3614 15.197 30.4539 15.1213 30.6203C15.1198 30.6238 15.1179 30.6281 15.1174 30.63C15.1174 30.6302 15.1174 30.6318 15.1174 30.632C15.1176 30.632 15.1193 30.632 15.1194 30.632C15.1196 30.6319 15.1211 30.632 15.1213 30.632C15.1461 30.6206 15.2788 30.5011 15.5964 30.3935C15.8687 30.2918 15.7238 30.3415 15.893 30.2713C15.7816 30.099 15.7671 30.0873 15.7534 30.0464C15.7495 30.0346 15.7442 30.0239 15.7379 30.0134Z" fill="#DFDFDF"/>
<path d="M16.921 30.4185L16.9522 30.6888L17.1375 30.6673C17.2043 30.6596 17.2502 30.6433 17.2751 30.6185C17.3004 30.5936 17.3102 30.5559 17.3043 30.5053C17.2989 30.458 17.282 30.4261 17.2537 30.4096C17.2255 30.3931 17.1763 30.3889 17.1062 30.397L16.921 30.4185ZM16.804 30.337L17.1133 30.3012C17.1635 30.2954 17.2006 30.2933 17.2245 30.295C17.2489 30.2965 17.271 30.3013 17.291 30.3092C17.3267 30.3238 17.3551 30.3465 17.3763 30.3773C17.3978 30.4081 17.4111 30.4458 17.4162 30.4902C17.4212 30.5332 17.4162 30.5711 17.4014 30.6039C17.3865 30.6364 17.3618 30.6634 17.3273 30.6849C17.3594 30.69 17.3831 30.7021 17.3985 30.7212C17.4142 30.7402 17.4265 30.7741 17.4355 30.8228L17.4599 30.9534C17.465 30.9814 17.471 31.0021 17.4781 31.0155C17.4854 31.0286 17.495 31.0374 17.5069 31.0418L17.5095 31.0641L17.3843 31.0785C17.3723 31.0631 17.3612 31.0283 17.3509 30.9743C17.3507 30.9728 17.3506 30.9717 17.3505 30.971L17.332 30.8677C17.3222 30.8147 17.3068 30.7814 17.2858 30.7677C17.2648 30.754 17.2161 30.7516 17.1395 30.7604L16.964 30.7807L17.0035 31.1226L16.8962 31.135L16.804 30.337ZM17.7515 30.7116L18.0012 30.6932L17.8512 30.3488L17.7515 30.7116ZM17.5443 31.0614L17.783 30.2384L17.9032 30.2296L18.2606 31.0088L18.1426 31.0175L18.0401 30.7844L17.7247 30.8076L17.6569 31.0532L17.5443 31.0614ZM18.6481 30.9915L18.6245 30.1886L18.7336 30.1854L18.7432 30.5152L19.1597 30.503L19.15 30.1732L19.2596 30.1699L19.2831 30.9729L19.1736 30.9761L19.1625 30.6L18.7461 30.6122L18.7571 30.9883L18.6481 30.9915ZM19.5962 30.6365L19.8465 30.6352L19.7204 30.2814L19.5962 30.6365ZM19.3656 30.9714L19.6598 30.1666L19.7803 30.166L20.0838 30.9677L19.9655 30.9683L19.8792 30.7288L19.5629 30.7304L19.4785 30.9708L19.3656 30.9714ZM20.7335 30.68L20.8393 30.6818C20.8329 30.7795 20.7981 30.8569 20.7349 30.914C20.6721 30.9707 20.5916 30.9982 20.4935 30.9965C20.3804 30.9946 20.2924 30.9545 20.2294 30.8763C20.1668 30.7982 20.1366 30.6909 20.139 30.5546C20.1411 30.4288 20.1765 30.3296 20.245 30.257C20.3135 30.184 20.4049 30.1485 20.519 30.1505C20.6099 30.152 20.6838 30.1768 20.7408 30.2247C20.7982 30.2726 20.8307 30.3371 20.8384 30.4183L20.7315 30.4165C20.7222 30.3632 20.6988 30.3221 20.6611 30.2931C20.6234 30.2637 20.574 30.2485 20.513 30.2474C20.4316 30.246 20.3678 30.2735 20.3218 30.3298C20.2761 30.3861 20.2523 30.4662 20.2505 30.5702C20.2488 30.6683 20.2707 30.7474 20.3162 30.8075C20.3621 30.8675 20.4236 30.8982 20.5006 30.8996C20.5664 30.9007 20.6206 30.8813 20.6631 30.8413C20.706 30.8009 20.7294 30.7472 20.7335 30.68ZM20.9629 30.984L20.9996 30.1816L21.1086 30.1865L21.0935 30.5161L21.5097 30.5352L21.5248 30.2056L21.6343 30.2106L21.5975 31.0131L21.488 31.0081L21.5052 30.6322L21.089 30.6131L21.0718 30.989L20.9629 30.984ZM21.7707 31.0258L21.8263 30.2245L21.9351 30.232L21.8795 31.0334L21.7707 31.0258ZM22.2311 30.3492L22.2048 30.62L22.3904 30.6381C22.4573 30.6446 22.5056 30.6383 22.5352 30.6193C22.5652 30.6003 22.5827 30.5655 22.5876 30.5148C22.5922 30.4674 22.5824 30.4327 22.5583 30.4106C22.5341 30.3885 22.4869 30.3741 22.4167 30.3673L22.2311 30.3492ZM22.1339 30.245L22.4438 30.2751C22.4941 30.28 22.5308 30.2857 22.5539 30.2924C22.5773 30.299 22.598 30.3084 22.6158 30.3203C22.6477 30.342 22.6707 30.3702 22.6849 30.4048C22.6994 30.4395 22.7045 30.4791 22.7002 30.5236C22.696 30.5666 22.6832 30.6026 22.6617 30.6316C22.6403 30.6602 22.6105 30.6814 22.5722 30.6952C22.6025 30.7069 22.6232 30.7237 22.6342 30.7456C22.6456 30.7676 22.6505 30.8033 22.649 30.8528L22.6454 30.9856C22.6444 31.014 22.646 31.0355 22.65 31.0502C22.6545 31.0645 22.662 31.0751 22.6727 31.082L22.6705 31.1042L22.5452 31.092C22.5366 31.0744 22.533 31.0381 22.5344 30.983C22.5345 30.9816 22.5346 30.9805 22.5347 30.9798L22.5383 30.8749C22.5399 30.821 22.5319 30.7852 22.5143 30.7674C22.4966 30.7496 22.4495 30.737 22.3727 30.7295L22.1969 30.7124L22.1636 31.0549L22.0561 31.0445L22.1339 30.245ZM22.7958 31.1227L22.9005 30.3262L23.0086 30.3404L22.904 31.1369L22.7958 31.1227Z" fill="black"/>
<path d="M15.3976 13.9892C15.028 14.1815 14.8357 14.465 14.8053 14.8497C14.7749 15.2648 14.8661 15.5584 15.104 15.7811C15.2103 15.8874 15.3014 15.9887 15.3014 16.014C15.3014 16.0342 15.2204 16.1355 15.1192 16.2316C14.8812 16.4544 14.7446 16.748 14.7446 17.0517C14.7446 17.3655 14.8407 17.5832 15.0989 17.8667L15.3115 18.0995L15.0787 18.3577C14.613 18.874 14.6281 19.4662 15.1141 19.9573L15.3216 20.1749H20.09H24.8533L25.0862 19.9269C25.5367 19.446 25.5367 18.9246 25.0913 18.3729L24.8635 18.0944L25.0761 17.8413C25.5418 17.2845 25.5316 16.7733 25.0508 16.2367C24.8331 15.9988 24.828 15.9532 25.0001 15.8419C25.2785 15.6546 25.4507 15.0218 25.3241 14.6371C25.1368 14.0601 24.332 13.6753 23.8409 13.9284C23.7498 13.974 23.5676 14.1005 23.4309 14.2068C23.2943 14.3182 23.1677 14.4043 23.1424 14.4043C23.1221 14.4043 23.0007 14.3131 22.8741 14.2018C22.3831 13.7816 21.806 13.812 21.315 14.2878L21.1277 14.4701L20.8797 14.2423C20.3786 13.7715 19.7509 13.7918 19.2396 14.2878L19.0523 14.4701L18.8498 14.2878C18.5512 14.0145 18.3538 13.9335 18.0096 13.9284C17.6805 13.9234 17.3717 14.06 17.1288 14.3233L17.0073 14.4498L16.7441 14.2271C16.2581 13.812 15.8683 13.7411 15.3976 13.9892Z" fill="#171796" stroke="black" stroke-width="0.124096"/>
<path d="M15.1518 20.4719C14.6558 21.0237 14.6608 21.5855 15.162 22.1424L15.3493 22.3499L15.1367 22.5828C15.0202 22.7093 14.8937 22.8915 14.8532 22.9826C14.6912 23.3724 14.8127 23.8938 15.1316 24.1925C15.324 24.3798 15.329 24.4557 15.1468 24.6784C15.0658 24.7746 14.9696 24.9113 14.9342 24.9821C14.5545 25.7009 15.1215 26.602 15.9618 26.602C16.2958 26.602 16.5489 26.4957 16.7767 26.2527C16.959 26.0603 17.0551 26.0553 17.2171 26.2274C17.455 26.4906 17.7689 26.6526 18.0321 26.6526C18.3409 26.6526 18.5332 26.5564 18.8471 26.2577L19.085 26.0249L19.3027 26.2628C19.7734 26.769 20.2492 26.7842 20.882 26.3033L21.1402 26.1109L21.3629 26.3134C21.6413 26.5564 21.8488 26.6526 22.1222 26.6526C22.3955 26.6526 22.598 26.5463 22.9169 26.2324L23.1801 25.9793L23.3826 26.1616C23.7724 26.5108 23.985 26.6222 24.2685 26.6222C24.5621 26.6222 24.7696 26.526 25.0632 26.2628C25.3365 26.0148 25.4833 25.7262 25.4479 25.4883C25.4125 25.2302 25.1796 24.7594 25.0075 24.5974L24.8607 24.4557L25.0885 24.1975C25.5846 23.6154 25.5896 23.1649 25.0986 22.5878L24.8961 22.3448L25.1088 22.0867C25.5846 21.5248 25.5795 21.0034 25.0986 20.4922L24.8405 20.2239L20.1025 20.2289L15.3645 20.234L15.1518 20.4719Z" fill="#D42E12" stroke="black" stroke-width="0.124096"/>
<path d="M14.1033 19.8153C14.1033 19.8153 14.1064 24.5516 14.116 26.3601C14.0999 26.6278 14.2567 26.6926 14.4864 26.8708C14.8578 27.159 15.254 27.4607 17.3794 27.2958C19.3314 27.3094 19.7409 27.4596 19.9457 28.2377L20.0549 28.6745L20.1504 28.2377C20.3006 27.4869 20.7638 27.3094 22.6476 27.2958C25.0727 27.3323 25.2741 27.1801 25.6216 26.8836C25.6216 26.8836 25.8755 26.6881 25.9409 26.5005C26.0144 26.2898 25.9792 26.1176 25.9792 26.1176V19.8153V13.1812H20.0412H14.1033V19.8153ZM25.8427 19.8699L25.8682 25.3344C25.8682 26.07 25.9212 26.2956 25.8427 26.4358C25.7642 26.5759 25.6053 26.7625 25.6053 26.7625C25.2367 27.1311 24.9247 27.2064 23.2438 27.1848C22.158 27.1877 21.5713 27.2177 20.716 27.3528C20.5817 27.4733 20.2128 27.4626 20.0412 28.1643C19.8187 27.4626 19.6599 27.4931 19.6599 27.4931C18.7511 27.1118 18.3446 27.1877 16.888 27.1729C15.9461 27.3094 14.9359 27.1319 14.5537 26.7497C14.5537 26.7497 14.4969 26.7652 14.2398 26.4613C14.2423 25.1301 14.2398 19.8699 14.2398 19.8699V13.3176H20.0412H25.8427L25.8427 19.8699Z" fill="black"/>
<path d="M18.399 16.1642C18.0397 16.9077 18.0245 17.2413 18.3231 17.837C18.5559 18.2945 18.8292 18.5852 19.2037 18.7711C20.1805 19.262 21.4305 18.8998 21.9214 17.9847C22.2251 17.4224 22.1897 16.4835 21.8557 16.0737L21.7646 15.9641L21.6785 16.2881C21.5571 16.7504 21.4356 16.9839 21.1927 17.2317C20.7372 17.694 20.1096 17.7989 19.4618 17.5129C18.9608 17.2889 18.7584 16.9792 18.5711 16.1166L18.5255 15.9021L18.399 16.1642Z" fill="white"/>
<path d="M18.2804 16.2116C17.9801 16.8941 18.0074 17.2354 18.3759 17.9589C19.3315 19.8426 22.1708 19.1328 22.1571 17.0033C22.1435 16.6621 22.154 16.4398 21.966 16.0615C21.8773 15.9045 21.8393 15.8579 21.776 15.7629C21.751 15.8658 21.7135 16.0478 21.6384 16.3481C21.3654 17.3992 20.4644 17.8906 19.5226 17.4948C18.9902 17.2764 18.7445 16.9214 18.608 16.1843L18.5124 15.7065L18.2804 16.2116ZM19.2086 17.563C19.8638 17.9862 20.8603 17.8497 21.3654 17.29C21.5701 17.0579 21.6959 16.6959 21.7476 16.5119C21.7986 16.3304 21.8086 16.3032 21.8394 16.1218C21.9186 16.2976 21.9622 16.39 21.9995 16.6619C22.0548 17.0635 21.966 17.3992 21.8704 17.6449C21.3927 18.9008 19.8638 19.283 18.9083 18.382C18.4442 17.9589 18.0756 17.1273 18.2772 16.5908C18.3487 16.4005 18.365 16.292 18.4585 16.0912C18.4754 16.2284 18.4851 16.4164 18.5807 16.703C18.7035 17.0989 18.9219 17.3856 19.2086 17.563Z" fill="black"/>
<path d="M17.7369 22.4911C17.7278 22.7863 17.742 22.9215 17.7887 23.1403C17.6401 22.9969 17.4903 22.8967 17.2844 22.7772C17.0222 22.6249 16.6909 22.4796 16.5785 22.6653C16.4702 22.8441 16.7807 23.0889 17.0238 23.2261C17.2897 23.3761 17.4429 23.3966 17.6158 23.4645C17.4694 23.5419 17.2697 23.5939 17.0482 23.7359C16.831 23.8753 16.5063 24.1636 16.6295 24.3477C16.7548 24.5351 17.1171 24.3245 17.3214 24.1878C17.4915 24.0739 17.7166 23.8942 17.8042 23.8022C17.7869 23.9343 17.7346 24.1975 17.7385 24.4491C17.7432 24.7548 17.7855 25.0967 18.0131 25.0962C18.2454 25.0956 18.2948 24.6928 18.2912 24.4205C18.2873 24.1359 18.2549 23.9348 18.2268 23.7944C18.3275 23.8971 18.4794 24.0443 18.6796 24.2021C18.8449 24.3324 19.2496 24.5253 19.3709 24.3405C19.4943 24.1523 19.3022 23.9653 18.9492 23.7413C18.7018 23.5843 18.5266 23.5305 18.3654 23.4638C18.5284 23.397 18.7066 23.3799 18.9671 23.2215C19.3536 22.9866 19.5173 22.8295 19.3989 22.6272C19.2837 22.4306 19.051 22.538 18.6975 22.7629C18.5082 22.8833 18.331 23.043 18.2109 23.1578C18.2384 22.9771 18.2679 22.7107 18.2657 22.5134C18.2622 22.22 18.198 21.8408 17.9982 21.8396C17.7984 21.8384 17.7469 22.1681 17.7369 22.4911Z" fill="#E9D315" stroke="black" stroke-width="0.100828"/>
<path d="M18.3105 23.4665C18.3105 23.6382 18.1713 23.7774 17.9995 23.7774C17.8278 23.7774 17.6886 23.6382 17.6886 23.4665C17.6886 23.2947 17.8278 23.1555 17.9995 23.1555C18.1711 23.1555 18.3103 23.2945 18.3105 23.4661" fill="white"/>
<path d="M18.3105 23.4665C18.3105 23.6382 18.1713 23.7774 17.9995 23.7774C17.8278 23.7774 17.6886 23.6382 17.6886 23.4665C17.6886 23.2947 17.8278 23.1555 17.9995 23.1555C18.1711 23.1555 18.3103 23.2945 18.3105 23.4661" stroke="black" stroke-width="0.115938"/>
<path d="M21.8092 22.4911C21.8001 22.7863 21.8143 22.9215 21.861 23.1403C21.7123 22.9969 21.5626 22.8967 21.3567 22.7772C21.0944 22.6249 20.7632 22.4796 20.6507 22.6653C20.5424 22.8441 20.853 23.0889 21.0961 23.2261C21.3619 23.3761 21.5151 23.3966 21.6881 23.4645C21.5416 23.5419 21.3419 23.5939 21.1205 23.7359C20.9033 23.8753 20.5785 24.1636 20.7017 24.3477C20.8271 24.5351 21.1894 24.3245 21.3937 24.1878C21.5638 24.0739 21.7889 23.8942 21.8765 23.8022C21.8592 23.9343 21.8069 24.1975 21.8107 24.4491C21.8155 24.7548 21.8577 25.0967 22.0853 25.0962C22.3177 25.0956 22.3671 24.6928 22.3634 24.4205C22.3596 24.1359 22.3271 23.9348 22.2991 23.7944C22.3998 23.8971 22.5517 24.0443 22.7519 24.2021C22.9172 24.3324 23.3219 24.5253 23.4431 24.3405C23.5665 24.1523 23.3744 23.9653 23.0215 23.7413C22.7741 23.5843 22.5989 23.5305 22.4377 23.4638C22.6007 23.397 22.7789 23.3799 23.0394 23.2215C23.4259 22.9866 23.5896 22.8295 23.4712 22.6272C23.356 22.4306 23.1233 22.538 22.7698 22.7629C22.5804 22.8833 22.4032 23.043 22.2832 23.1578C22.3106 22.9771 22.3401 22.7107 22.3379 22.5134C22.3345 22.22 22.2702 21.8408 22.0705 21.8396C21.8707 21.8384 21.8192 22.1681 21.8092 22.4911Z" fill="#E9D315" stroke="black" stroke-width="0.100828"/>
<path d="M22.3828 23.4665C22.3828 23.6382 22.2435 23.7774 22.0718 23.7774C21.9001 23.7774 21.7609 23.6382 21.7609 23.4665C21.7609 23.2947 21.9001 23.1555 22.0718 23.1555C22.2434 23.1555 22.3826 23.2945 22.3828 23.4661" fill="white"/>
<path d="M22.3828 23.4665C22.3828 23.6382 22.2435 23.7774 22.0718 23.7774C21.9001 23.7774 21.7609 23.6382 21.7609 23.4665C21.7609 23.2947 21.9001 23.1555 22.0718 23.1555C22.2434 23.1555 22.3826 23.2945 22.3828 23.4661" stroke="black" stroke-width="0.115938"/>
</g>
<defs>
<clipPath id="clip0_1519_927">
<rect width="40" height="40" rx="20" fill="white"/>
</clipPath>
</defs>
</svg>
