<svg width="40" height="40" viewBox="0 0 40 40" fill="none" xmlns="http://www.w3.org/2000/svg">
<g clip-path="url(#clip0_1519_1262)">
<path d="M19.9996 40C31.0453 40 39.9996 31.0457 39.9996 20C39.9996 8.9543 31.0453 0 19.9996 0C8.95394 0 -0.000366211 8.9543 -0.000366211 20C-0.000366211 31.0457 8.95394 40 19.9996 40Z" fill="#496E2D"/>
<path d="M27.8259 20H19.9998V40C22.3376 40 24.5811 39.5976 26.6664 38.8605L27.8259 20Z" fill="#D80027"/>
<path d="M33.3333 34.9057C37.4246 31.2437 40 25.9229 40 20H32.174L33.3333 34.9057Z" fill="#FF9811"/>
<path d="M26.6665 20V38.8605C29.1506 37.9823 31.4095 36.6277 33.3332 34.9058V20H26.6665Z" fill="black"/>
<path d="M36.9565 13.0436H31.739C31.739 12.0831 30.9604 11.3044 29.9999 11.3044C29.0394 11.3044 28.2608 12.0831 28.2608 13.0436H23.0433C23.0433 14.0041 23.88 14.7827 24.8404 14.7827H24.7825C24.7825 15.7433 25.561 16.5219 26.5216 16.5219C26.5216 17.4824 27.3001 18.261 28.2608 18.261H31.739C32.6995 18.261 33.4782 17.4824 33.4782 16.5219C34.4387 16.5219 35.2173 15.7433 35.2173 14.7827H35.1594C36.1199 14.7826 36.9565 14.0041 36.9565 13.0436V13.0436Z" fill="#FF9811"/>
</g>
<defs>
<clipPath id="clip0_1519_1262">
<rect width="40" height="40" fill="white"/>
</clipPath>
</defs>
</svg>
