<svg width="40" height="40" viewBox="0 0 40 40" fill="none" xmlns="http://www.w3.org/2000/svg">
    <g clip-path="url(#clip0_281_425)">
        <path d="M19.9998 40C31.0455 40 39.9998 31.0457 39.9998 20C39.9998 8.95431 31.0455 0 19.9998 0C8.95406 0 -0.000244141 8.95431 -0.000244141 20C-0.000244141 31.0457 8.95406 40 19.9998 40Z" fill="white" />
        <path d="M38.0857 11.4534C37.0696 9.30704 35.6829 7.37087 34.0079 5.72673L20 4.3479L5.99224 5.72681C5.94755 5.77063 5.90396 5.81548 5.85974 5.85977L11.4535 11.4535L20 11.7145L38.0857 11.4534Z" fill="#FCE300" />
        <path d="M5.8595 34.1406C5.93309 34.2142 6.00653 34.2879 6.08122 34.3604L20 35.6523L33.9187 34.3604C35.611 32.7198 37.0147 30.7834 38.0451 28.6337L12.1739 27.8262C9.94786 30.0523 7.38036 32.6196 5.8595 34.1406Z" fill="#FCE300" />
        <path d="M39.8011 17.1801L16.5217 16.5217L20 20C18.9698 21.0302 17.4318 22.5682 16.5217 23.4783L39.7889 22.9069C39.9272 21.9577 40 20.9874 40 20C40 19.0427 39.9313 18.1016 39.8011 17.1801Z" fill="black" />
        <path d="M20 0C14.5447 0 9.60047 2.18516 5.99219 5.72672H34.0078C30.3995 2.18516 25.4553 0 20 0Z" fill="#009739" />
        <path d="M17.1801 17.1801H39.8011C39.5157 15.1583 38.9285 13.2338 38.0857 11.4534H11.4534L17.1801 17.1801Z" fill="#EF3340" />
        <path d="M11.3663 28.6337H38.0451C38.8977 26.8546 39.4943 24.9299 39.7889 22.907H17.0931C14.8753 25.1247 12.9958 27.0042 11.3663 28.6337Z" fill="#EF3340" />
        <path d="M20 40.0001C25.4105 40.0001 30.3183 37.8507 33.9186 34.3604H6.0813C9.68161 37.8507 14.5894 40.0001 20 40.0001Z" fill="#009739" />
        <path d="M7.14177 4.68237C6.69716 5.05597 6.26818 5.44761 5.85779 5.85784L20 20L5.85779 34.1422C6.2681 34.5525 6.69716 34.9441 7.14177 35.3177L22.4594 20L7.14177 4.68237Z" fill="black" />
        <path d="M8.04096 14.7827L9.33588 18.7683H13.5269L10.1364 21.2318L11.4314 25.2176L8.04096 22.7542L4.65041 25.2176L5.94556 21.2318L2.55518 18.7683H6.74596L8.04096 14.7827Z" fill="#EF3340" />
        <path
            d="M11.603 20.326L8.22819 19.1304C8.22819 19.1304 7.97881 16.7911 7.96373 16.7118C7.8492 16.1084 7.31897 15.6521 6.68225 15.6521C5.96194 15.6521 5.37788 16.2361 5.37788 16.9565C5.37788 17.0759 5.3953 17.191 5.42538 17.301L4.47913 18.2536H6.16163C6.16163 19.9999 4.8585 19.9999 4.8585 21.7391L5.58139 23.4782H9.9292L10.6539 21.7391H10.6536C10.7262 21.5722 10.7702 21.4001 10.7884 21.2281C11.4131 20.9755 11.603 20.326 11.603 20.326Z"
            fill="#FCE300"
        />
    </g>
    <defs>
        <clipPath id="clip0_281_425">
            <rect width="40" height="40" fill="white" />
        </clipPath>
    </defs>
</svg>
